<?xml version="1.0" encoding="UTF-8" standalone="no"?><!DOCTYPE svg PUBLIC "-//W3C//DTD SVG 1.1//EN" "http://www.w3.org/Graphics/SVG/1.1/DTD/svg11.dtd"><svg width="100%" height="100%" viewBox="0 0 2225 2225" version="1.1" xmlns="http://www.w3.org/2000/svg" xmlns:xlink="http://www.w3.org/1999/xlink" xml:space="preserve" xmlns:serif="http://www.serif.com/" style="fill-rule:evenodd;clip-rule:evenodd;stroke-linejoin:round;stroke-miterlimit:2;"><path d="M1766.109,1135.595c1.758,-33.492 4.126,-64.326 4.627,-95.194c0.429,-26.339 -1.841,-52.72 -1.591,-79.073c0.054,-5.382 6,-10.714 9.227,-16.068c3.862,5.604 11.057,11.216 11.042,16.81c-0.099,41.85 32.932,62.165 55.972,89.033c22.959,26.77 46.976,52.818 67.336,81.455c3.919,5.508 -3.929,24.489 -11.511,32.171c-35.167,35.635 -71.94,69.706 -108.71,103.723c-5.812,5.379 -14.539,7.604 -21.922,11.289c-1.057,-6.983 -2.906,-13.952 -3.038,-20.953c-0.772,-40.174 -1.133,-80.363 -1.432,-123.191Zm82.975,30.272c-3.836,-4.729 -7.668,-9.458 -11.504,-14.191c-1.442,6.275 -2.884,12.551 -4.33,18.822c4.326,-0.729 8.656,-1.457 15.834,-4.631Z" style="fill-rule:nonzero;"/><path d="M330.085,1094.028c56.552,-0.926 110.61,-0.33 164.629,-1.566c11.778,-0.267 23.188,-8.462 35.185,-10.347c6.785,-1.063 14.418,3.288 21.671,5.202c-4.102,4.498 -7.396,11.336 -12.449,13.081c-19.946,6.881 -40.183,15.828 -60.79,17.288c-44.08,3.13 -88.456,2.105 -132.711,2.7c-2.429,0.033 -4.874,-1.079 -7.296,-1.026c-9.034,0.188 -18.059,0.642 -27.089,0.996c5.445,-8.489 10.89,-16.978 18.85,-26.327Z" style="fill-rule:nonzero;"/><path d="M1423.486,1096.659c28.751,-0.568 54.896,-1.426 80.988,-0.583c8.916,0.293 15.077,7.605 4.527,14.022c-10.311,6.265 -22.604,10.143 -34.535,12.655c-14.399,3.028 -30.475,7.792 -43.813,4.252c-32.324,-8.591 -63.645,-21.144 -94.929,-33.24c-4.333,-1.674 -6.177,-9.785 -9.177,-14.914c6.486,-1.643 13.677,-5.959 19.331,-4.468c25.232,6.646 50.025,14.95 77.608,22.275Z" style="fill-rule:nonzero;"/><path d="M1172.424,1104.838c-29.039,-2.58 -56.215,-4.855 -83.35,-7.562c-3.935,-0.392 -9.159,-1.781 -11.178,-4.585c-4.279,-5.954 -6.838,-13.146 -10.102,-19.829c5.932,-0.713 11.888,-2.218 17.788,-2.014c50.152,1.724 100.315,3.401 150.422,6.129c6.529,0.357 12.738,6.587 19.096,10.097c-6.121,4.054 -11.845,10.66 -18.438,11.688c-20.611,3.212 -41.554,4.317 -64.238,6.075Z" style="fill-rule:nonzero;"/><path d="M861.931,1107.436c-9.412,-7.846 -6.612,-19.183 4.008,-20.983c35.667,-6.037 71.45,-11.729 107.396,-15.558c7.708,-0.821 16.525,6.388 24.104,11.071c0.65,0.4 -3.429,13.629 -6.588,14.233c-32.954,6.3 -66.088,11.867 -99.362,16.121c-8.621,1.1 -17.917,-3.112 -29.558,-4.883Z" style="fill-rule:nonzero;"/><path d="M666.842,1112.5c-3.998,-1.365 -6.665,-1.182 -8.775,-2.177c-9.343,-4.415 -26.335,-9.148 -26.35,-13.806c-0.045,-15.658 16.07,-12.564 26.012,-12.869c31.256,-0.96 62.572,-0.054 93.862,-0.013c2.572,0.001 6.066,-2.45 7.561,-1.44c7.27,4.937 14.006,10.662 20.933,16.105c-8.176,3.921 -16.121,10.554 -24.565,11.263c-28.934,2.432 -58.045,2.79 -88.677,2.938Z" style="fill-rule:nonzero;"/><path d="M1598.58,1123.628c-17.797,-14.469 -18.239,-22.747 -1.268,-24.955c26.839,-3.488 54.501,-2.894 81.568,-0.813c6.201,0.478 11.404,14.032 17.065,21.569c-5.886,3.3 -11.888,9.619 -17.631,9.388c-26.088,-1.059 -52.104,-3.959 -79.734,-5.189Z" style="fill-rule:nonzero;"/></svg>