<?xml version="1.0" encoding="UTF-8" standalone="no"?><!DOCTYPE svg PUBLIC "-//W3C//DTD SVG 1.1//EN" "http://www.w3.org/Graphics/SVG/1.1/DTD/svg11.dtd"><svg width="100%" height="100%" viewBox="0 0 2225 2225" version="1.1" xmlns="http://www.w3.org/2000/svg" xmlns:xlink="http://www.w3.org/1999/xlink" xml:space="preserve" xmlns:serif="http://www.serif.com/" style="fill-rule:evenodd;clip-rule:evenodd;stroke-linejoin:round;stroke-miterlimit:2;"><path d="M1349.574,1191.599c-60.438,138.267 -117.083,273.487 -175.475,407.967c-6.5,14.967 -25.217,37.571 -34.25,35.85c-17.883,-3.417 -39.129,-17.9 -48.204,-33.863c-62.9,-110.642 -121.921,-223.454 -184.458,-334.308c-37.929,-67.233 -82.617,-130.821 -118.221,-199.158c-9.046,-17.363 4.979,-46.6 8.404,-70.383c16.729,4.721 42.333,4.196 48.783,14.983c52.925,88.529 102.85,178.854 152.533,269.258c34.004,61.879 63.546,126.321 100.075,186.629c23.617,38.996 53.308,36.821 70.263,-8.196c48.879,-129.758 96.246,-260.083 144.717,-389.996c6.3,-16.883 12.492,-35.562 24.388,-48.117c11.292,-11.921 30.004,-16.888 45.454,-24.913c5.204,22.246 18.575,46.371 13.925,66.346c-9.938,42.688 -29.208,83.225 -47.933,127.9Z" style="fill:#ffdc49;fill-rule:nonzero;"/><path d="M1171.117,852.117c16.387,8.333 42.633,23.721 40.529,30.921c-16.871,57.721 -35.087,115.812 -61.237,169.796c-14.7,30.342 -43.654,40.117 -68.129,0.258c-35.233,-57.392 -73.896,-112.725 -108.158,-170.654c-4.992,-8.442 4.029,-27.842 11.354,-39.096c2.292,-3.517 24.533,-0.746 30.383,5.675c27.992,30.733 53.404,63.779 79.958,95.817c4.479,5.4 10.071,9.883 15.15,14.792c8.033,-11.029 17.567,-21.288 23.775,-33.25c12.021,-23.158 22.171,-47.279 36.375,-74.258Z" style="fill:#ffdc49;fill-rule:nonzero;"/><path d="M1213.713,529.587c11.967,7.654 23.804,19.054 21.833,22.4c-34.029,57.637 -67.021,116.342 -107.371,169.458c-8.317,10.954 -62.679,7.371 -66.433,-1.629c-20.038,-48.021 -32.967,-99.463 -42.846,-150.771c-2.033,-10.542 19.371,-25.55 29.975,-38.496c10.779,10.071 23.513,18.821 31.629,30.692c5.25,7.675 1.621,20.871 5.738,29.9c6.817,14.95 16.671,28.538 25.246,42.696c7.854,-15.483 21.696,-30.688 22.458,-46.513c2.387,-49.533 31.221,-60.612 79.771,-57.738Z" style="fill:#ffdc49;fill-rule:nonzero;"/></svg>