<?xml version="1.0" encoding="UTF-8" standalone="no"?><!DOCTYPE svg PUBLIC "-//W3C//DTD SVG 1.1//EN" "http://www.w3.org/Graphics/SVG/1.1/DTD/svg11.dtd"><svg width="100%" height="100%" viewBox="0 0 2225 2225" version="1.1" xmlns="http://www.w3.org/2000/svg" xmlns:xlink="http://www.w3.org/1999/xlink" xml:space="preserve" xmlns:serif="http://www.serif.com/" style="fill-rule:evenodd;clip-rule:evenodd;stroke-linejoin:round;stroke-miterlimit:2;"><path d="M644.885,1838.087c-5.82,9.625 -4.565,22.324 3.755,30.621c9.78,9.75 25.605,9.728 35.358,-0.049l971.555,-974.275c8.854,-8.883 9.647,-22.764 2.388,-32.537c2.904,-11.808 -3.176,-24.283 -14.761,-29.059c-24.568,-10.128 -49.585,-18.71 -74.812,-26.225l20.367,-20.42c8.854,-8.883 9.647,-22.764 2.388,-32.537c2.904,-11.808 -3.176,-24.283 -14.761,-29.059c-61.169,-25.21 -125.099,-40.871 -188.213,-54.195c-18.635,-3.932 -37.098,-7.648 -55.412,-11.331c-44.429,-8.938 -87.987,-17.702 -130.974,-29c-8.27,-2.176 -16.556,-4.364 -24.855,-6.553c-49.731,-13.126 -99.962,-26.385 -150.574,-37.852c-4.105,-0.932 -8.621,-3.067 -15.747,-7.065c-0.817,-0.457 -1.693,-0.956 -2.623,-1.484c-6.063,-3.45 -14.307,-8.138 -23.07,-11.33c-10.468,-3.815 -20.816,-8.238 -31.814,-12.985l-1.859,-0.802c-10.26,-4.431 -21.142,-9.133 -32.31,-13.338c-16.117,-6.073 -32.08,-12.622 -48.435,-19.332l-4.323,-1.773c-17.739,-7.271 -35.941,-14.679 -54.509,-21.436c-47.745,-17.379 -93.461,-43.836 -130.626,-78.042l-1.577,-1.452c-8.565,-7.876 -18.682,-17.186 -27.996,-26.907c-10.252,-10.702 -17.691,-20.046 -21.117,-26.879c-6.192,-12.341 -21.216,-17.329 -33.557,-11.136c-1.307,0.656 -2.536,1.412 -3.672,2.255c-1.917,-0.468 -3.918,-0.715 -5.98,-0.712c-13.808,0.019 -24.984,11.227 -24.965,25.035l1.859,1329.165c0.014,9.871 5.747,18.396 14.056,22.447c-5.82,9.629 -4.565,22.326 3.755,30.622c9.78,9.75 25.605,9.728 35.358,-0.049l13.552,-13.591l0.096,68.811c0.014,9.87 5.747,18.395 14.056,22.449Zm-32.674,-1417.132l1.779,1271.853l16.643,-16.69l-1.664,-1189.645c-0.019,-13.808 11.157,-25.016 24.965,-25.035c0.204,-0 0.404,0.004 0.608,0.007c-2.495,-2.18 -4.956,-4.389 -7.388,-6.627l-1.752,-1.61c-8.411,-7.738 -19.613,-18.039 -30.066,-28.95c-1.035,-1.078 -2.078,-2.18 -3.125,-3.304Zm128.113,98.392c2.036,1.889 4.022,3.715 5.933,5.471l1.577,1.452c37.165,34.206 82.881,60.663 130.626,78.042c18.568,6.757 36.77,14.165 54.509,21.436l4.323,1.773c16.355,6.71 32.319,13.259 48.435,19.332c11.168,4.205 22.05,8.907 32.31,13.338l1.859,0.802c10.998,4.747 21.346,9.17 31.814,12.985c8.763,3.192 17.007,7.88 23.07,11.33c0.93,0.528 1.806,1.027 2.623,1.484c7.126,3.998 11.642,6.134 15.747,7.065c50.612,11.467 100.843,24.726 150.574,37.852c8.299,2.188 16.585,4.377 24.855,6.553c42.987,11.298 86.545,20.062 130.974,29c18.314,3.683 36.777,7.399 55.412,11.331c19.193,4.052 38.466,8.321 57.71,13.007l27.516,-27.589c-51.769,-19.619 -106.242,-32.885 -162.375,-44.735c-17.597,-3.717 -35.456,-7.309 -53.44,-10.929c-45.021,-9.058 -90.842,-18.273 -135.325,-29.969c-8.361,-2.197 -16.702,-4.397 -25.034,-6.598l-0.017,-0.004c-49.768,-13.135 -99.041,-26.137 -148.715,-37.392c-11.829,-2.683 -21.874,-8.136 -29.159,-12.222c-1.147,-0.644 -2.231,-1.255 -3.257,-1.833c-6.338,-3.579 -10.563,-5.96 -15.09,-7.608c-12.019,-4.379 -23.613,-9.354 -34.52,-14.06l-1.559,-0.677c-10.523,-4.539 -20.396,-8.805 -30.422,-12.582c-16.83,-6.343 -33.452,-13.162 -49.686,-19.822l-4.411,-1.806c-17.764,-7.283 -35.124,-14.338 -52.642,-20.718c-18.364,-6.683 -36.537,-14.595 -54.217,-23.708Zm-59.662,1177.41l0.146,104.29l926.202,-928.795c-25.73,-9.752 -52.125,-17.931 -79.064,-25.152l-847.283,849.657Zm790.472,-863.494c-8.79,-1.963 -17.622,-3.875 -26.5,-5.746c-17.593,-3.717 -35.448,-7.309 -53.432,-10.925l-0.008,-0.004c-45.021,-9.058 -90.842,-18.273 -135.325,-29.969c-8.253,-2.168 -16.494,-4.344 -24.717,-6.515l-0.192,-0.05l-0.1,-0.025l-0.038,-0.012c-49.773,-13.135 -99.045,-26.137 -148.719,-37.392c-11.829,-2.683 -21.874,-8.136 -29.159,-12.222c-0.859,-0.482 -1.68,-0.943 -2.469,-1.388l-0.788,-0.445c-6.338,-3.579 -10.563,-5.96 -15.09,-7.608c-12.019,-4.379 -23.613,-9.354 -34.52,-14.06l-1.559,-0.677c-10.523,-4.539 -20.396,-8.805 -30.422,-12.582c-16.83,-6.343 -33.452,-13.162 -49.686,-19.822l-4.411,-1.806c-17.764,-7.283 -35.124,-14.338 -52.642,-20.718c-53.19,-19.359 -104.802,-49.037 -147.386,-88.236l-1.752,-1.61c-8.411,-7.738 -19.613,-18.039 -30.066,-28.95c-1.035,-1.078 -2.078,-2.18 -3.125,-3.304l1.534,1096.853l790.571,-792.786Z"/></svg>