<?xml version="1.0" standalone="no"?>
<!DOCTYPE svg PUBLIC "-//W3C//DTD SVG 20010904//EN"
 "http://www.w3.org/TR/2001/REC-SVG-20010904/DTD/svg10.dtd">
<svg version="1.0" xmlns="http://www.w3.org/2000/svg"
 width="717.000000pt" height="1280.000000pt" viewBox="0 0 717.000000 1280.000000"
 preserveAspectRatio="xMidYMid meet">

<g transform="translate(0.000000,1280.000000) scale(0.100000,-0.100000)"
fill="#000000" stroke="none">
<path d="M3560 12294 c289 -18 393 -28 407 -37 7 -4 21 -2 31 4 12 8 27 9 38
4 11 -5 35 -9 54 -10 19 0 60 -4 90 -8 35 -5 50 -4 40 1 -43 27 -481 63 -735
60 l-140 -1 215 -13z"/>
<path d="M3938 12110 c3 -128 3 -130 -20 -140 -22 -9 -21 -10 6 -7 l30 2 0
134 c1 81 -3 136 -9 138 -6 2 -9 -43 -7 -127z"/>
<path d="M3294 12125 c0 -60 1 -84 3 -52 2 32 2 81 0 110 -2 29 -3 3 -3 -58z"/>
<path d="M4091 12170 l2 -65 7 55 c4 30 3 59 -1 65 -5 5 -8 -19 -8 -55z"/>
<path d="M4280 12226 c0 -3 10 -16 23 -29 16 -17 28 -22 42 -17 17 6 14 10
-22 29 -24 12 -43 19 -43 17z"/>
<path d="M4033 12185 c0 -22 2 -30 4 -17 2 12 2 30 0 40 -3 9 -5 -1 -4 -23z"/>
<path d="M3189 12105 c-4 -55 -5 -102 -3 -104 11 -12 14 16 12 105 l-3 99 -6
-100z"/>
<path d="M3013 12150 c0 -25 2 -35 4 -22 2 12 2 32 0 45 -2 12 -4 2 -4 -23z"/>
<path d="M3094 12095 c0 -55 1 -76 3 -47 2 29 2 74 0 100 -2 26 -3 2 -3 -53z"/>
<path d="M4131 12164 c0 -11 3 -14 6 -6 3 7 2 16 -1 19 -3 4 -6 -2 -5 -13z"/>
<path d="M4370 12166 c0 -9 5 -16 10 -16 6 0 10 4 10 9 0 6 -4 13 -10 16 -5 3
-10 -1 -10 -9z"/>
<path d="M3853 12095 c0 -38 2 -53 4 -32 2 20 2 52 0 70 -2 17 -4 1 -4 -38z"/>
<path d="M4291 12134 c0 -11 3 -14 6 -6 3 7 2 16 -1 19 -3 4 -6 -2 -5 -13z"/>
<path d="M4382 12105 c0 -16 2 -22 5 -12 2 9 2 23 0 30 -3 6 -5 -1 -5 -18z"/>
<path d="M2923 12060 c0 -36 2 -50 4 -32 2 17 2 47 0 65 -2 17 -4 3 -4 -33z"/>
<path d="M3482 12095 c0 -16 2 -22 5 -12 2 9 2 23 0 30 -3 6 -5 -1 -5 -18z"/>
<path d="M4183 12045 c0 -38 2 -53 4 -32 2 20 2 52 0 70 -2 17 -4 1 -4 -38z"/>
<path d="M4243 12035 c0 -27 2 -38 4 -22 2 15 2 37 0 50 -2 12 -4 0 -4 -28z"/>
<path d="M3003 12030 c0 -25 2 -35 4 -22 2 12 2 32 0 45 -2 12 -4 2 -4 -23z"/>
<path d="M4101 12024 c0 -11 3 -14 6 -6 3 7 2 16 -1 19 -3 4 -6 -2 -5 -13z"/>
<path d="M3478 11997 c-3 -19 -2 -25 4 -19 6 6 8 18 6 28 -3 14 -5 12 -10 -9z"/>
<path d="M4102 11980 c0 -14 2 -19 5 -12 2 6 2 18 0 25 -3 6 -5 1 -5 -13z"/>
<path d="M3865 11980 c-3 -5 -1 -10 4 -10 6 0 11 5 11 10 0 6 -2 10 -4 10 -3
0 -8 -4 -11 -10z"/>
<path d="M3355 11970 c-3 -5 1 -10 10 -10 9 0 13 5 10 10 -3 6 -8 10 -10 10
-2 0 -7 -4 -10 -10z"/>
<path d="M3776 11969 c6 -11 54 -12 54 -1 0 4 -13 7 -30 8 -16 1 -27 -3 -24
-7z"/>
<path d="M3258 11963 c7 -3 16 -2 19 1 4 3 -2 6 -13 5 -11 0 -14 -3 -6 -6z"/>
<path d="M2962 11930 c-77 -11 -79 -24 -2 -16 36 3 169 9 295 11 173 4 224 3
205 -6 -14 -6 -63 -14 -110 -18 -47 -3 100 -6 327 -6 279 0 406 3 395 10 -10
6 -133 11 -291 13 -171 2 -269 7 -260 13 17 11 -482 10 -559 -1z"/>
<path d="M3548 11933 c7 -3 16 -2 19 1 4 3 -2 6 -13 5 -11 0 -14 -3 -6 -6z"/>
<path d="M4355 11921 c3 -12 -3 -24 -19 -36 -28 -21 -25 -35 6 -35 17 0 18 -2
8 -15 -10 -13 -9 -15 8 -15 26 0 52 25 52 51 0 10 5 19 12 19 18 0 -24 36 -50
42 -19 5 -22 3 -17 -11z"/>
<path d="M3415 11878 c-137 -5 -268 -13 -290 -18 -27 -7 6 -7 105 -3 176 9
434 9 675 0 129 -4 167 -3 135 4 -138 30 -200 32 -625 17z"/>
<path d="M4230 11840 c14 -4 43 -8 65 -8 38 0 39 1 10 8 -16 4 -46 8 -65 8
-32 0 -33 -1 -10 -8z"/>
<path d="M3823 11803 c15 -2 37 -2 50 0 12 2 0 4 -28 4 -27 0 -38 -2 -22 -4z"/>
<path d="M4360 11801 c0 -5 -12 -14 -27 -19 -26 -10 -24 -10 21 -11 48 -1 49
-1 31 19 -20 22 -25 24 -25 11z"/>
<path d="M3152 11790 c-79 -4 -146 -10 -149 -14 -4 -3 7 -7 23 -7 25 -2 23 -3
-11 -9 -45 -8 248 -2 450 10 l130 7 -108 2 c-69 0 -106 5 -102 11 7 11 -11 11
-233 0z m126 -17 c-15 -2 -42 -2 -60 0 -18 2 -6 4 27 4 33 0 48 -2 33 -4z"/>
<path d="M4303 11743 c-45 -6 -41 -20 7 -28 41 -7 76 7 64 26 -5 9 -12 9 -71
2z"/>
<path d="M3725 11731 c-58 -14 99 -24 208 -14 56 6 140 9 187 8 l85 -3 -70 8
c-88 9 -370 10 -410 1z"/>
<path d="M4144 11680 c96 -12 203 -39 216 -56 15 -17 4 -34 -23 -35 -20 -1
-20 -2 3 -9 14 -4 39 -8 55 -9 44 -1 42 35 -2 62 -36 21 -43 37 -16 37 9 0 14
2 11 5 -3 3 -75 8 -159 10 -118 3 -138 1 -85 -5z"/>
<path d="M3205 11649 c-82 -5 -163 -13 -180 -19 -26 -9 -24 -9 20 -5 28 3 129
8 225 11 96 4 184 10 195 15 25 10 -56 9 -260 -2z"/>
<path d="M3880 11639 c0 -7 -14 -8 -39 -4 -24 4 -42 2 -46 -4 -4 -7 9 -11 37
-11 24 0 74 -3 112 -7 51 -4 67 -3 62 5 -4 7 -30 12 -57 12 -31 0 -48 4 -44
10 3 6 -1 10 -9 10 -9 0 -16 -5 -16 -11z"/>
<path d="M3388 11623 c28 -2 76 -2 105 0 28 2 5 3 -53 3 -58 0 -81 -1 -52 -3z"/>
<path d="M3215 11570 c-5 -8 79 -10 282 -9 158 1 309 -1 336 -6 26 -4 91 -4
145 1 l97 9 -70 5 c-137 11 -783 11 -790 0z"/>
<path d="M4276 11561 c-6 -9 48 -21 93 -21 24 0 24 0 5 15 -21 16 -90 20 -98
6z"/>
<path d="M3996 11522 c-3 -5 39 -14 107 -22 61 -7 143 -19 180 -26 92 -19 109
-17 67 6 l-35 19 45 1 c40 1 43 2 25 13 -25 15 -380 24 -389 9z"/>
<path d="M3120 11470 c-46 -10 116 -10 265 0 107 6 105 7 -60 7 -93 0 -186 -3
-205 -7z"/>
<path d="M3825 11461 c-6 -5 -19 -11 -30 -13 -38 -8 210 -17 260 -9 49 6 47 7
-53 19 -122 14 -165 15 -177 3z"/>
<path d="M3188 11443 c17 -2 47 -2 65 0 17 2 3 4 -33 4 -36 0 -50 -2 -32 -4z"/>
<path d="M4375 11440 c-3 -5 -3 -14 0 -20 4 -6 -35 -8 -107 -5 -118 4 -90 -1
109 -20 79 -7 82 -7 77 13 -8 29 -66 53 -79 32z"/>
<path d="M3420 11410 c-160 -6 -157 -6 80 -7 135 0 254 3 265 7 22 9 -84 9
-345 0z"/>
<path d="M3221 11362 c-81 -2 -117 -7 -127 -17 -8 -7 -10 -16 -5 -19 14 -9
853 -11 888 -3 20 5 30 13 27 21 -6 15 -191 30 -243 20 l-33 -7 28 -13 c25
-11 8 -12 -126 -13 -95 0 -150 3 -141 8 10 7 1 11 -30 15 -80 10 -123 11 -238
8z"/>
<path d="M2573 11353 c9 -2 23 -2 30 0 6 3 -1 5 -18 5 -16 0 -22 -2 -12 -5z"/>
<path d="M2518 11343 c7 -3 16 -2 19 1 4 3 -2 6 -13 5 -11 0 -14 -3 -6 -6z"/>
<path d="M3203 11283 c26 -2 67 -2 90 0 23 2 2 3 -48 3 -49 0 -68 -1 -42 -3z"/>
<path d="M3180 11239 c-107 -5 -240 -13 -295 -18 l-100 -8 70 -3 70 -2 -54 -9
c-75 -13 -78 -21 -6 -18 33 2 177 1 320 -1 229 -4 245 -5 135 -10 l-125 -7
140 3 c77 2 165 5 195 8 47 4 49 3 15 -4 -22 -4 117 -7 318 -5 196 1 360 -1
362 -5 9 -14 132 -22 155 -10 12 6 19 14 16 17 -2 3 -65 11 -138 18 l-133 13
161 -5 c105 -4 164 -2 168 5 9 14 -28 57 -42 48 -7 -4 -12 -16 -12 -27 0 -23
25 -23 -282 0 -312 24 -680 32 -938 20z m543 -66 c-18 -2 -48 -2 -65 0 -18 2
-4 4 32 4 36 0 50 -2 33 -4z m105 0 c-10 -2 -26 -2 -35 0 -10 3 -2 5 17 5 19
0 27 -2 18 -5z"/>
<path d="M2728 11203 c6 -2 18 -2 25 0 6 3 1 5 -13 5 -14 0 -19 -2 -12 -5z"/>
<path d="M2603 11193 c9 -2 23 -2 30 0 6 3 -1 5 -18 5 -16 0 -22 -2 -12 -5z"/>
<path d="M2675 11170 c-14 -7 -8 -8 20 -3 22 3 42 7 44 9 9 8 -45 2 -64 -6z"/>
<path d="M3251 11146 c2 -2 148 -5 324 -8 176 -2 273 -1 215 3 -111 7 -546 12
-539 5z"/>
<path d="M4238 11113 c6 -2 18 -2 25 0 6 3 1 5 -13 5 -14 0 -19 -2 -12 -5z"/>
<path d="M3233 11092 c-131 -1 -213 -6 -213 -12 0 -6 10 -11 23 -11 12 -1 -8
-7 -44 -13 -62 -11 -110 -38 -91 -50 5 -3 65 -8 133 -12 80 -5 116 -10 104
-16 -29 -12 964 -2 1000 11 23 8 1 9 -90 7 -78 -2 -96 -1 -51 3 42 4 71 11 74
19 2 8 -8 12 -30 13 l-33 1 35 10 c42 12 184 -6 218 -28 16 -11 27 -12 40 -5
16 10 16 10 -2 11 -12 0 -16 5 -13 14 7 18 -5 22 -98 36 -62 9 -182 13 -635
23 -63 1 -211 1 -327 -1z m830 -29 c-7 -2 -19 -2 -25 0 -7 3 -2 5 12 5 14 0
19 -2 13 -5z"/>
<path d="M2702 11060 c-18 -4 -36 -10 -39 -14 -11 -10 20 -6 67 8 48 15 28 19
-28 6z"/>
<path d="M4114 11019 c-3 -5 9 -9 25 -9 17 0 31 2 31 4 0 8 -51 13 -56 5z"/>
<path d="M4348 11023 c7 -3 16 -2 19 1 4 3 -2 6 -13 5 -11 0 -14 -3 -6 -6z"/>
<path d="M2650 11010 l-25 -8 28 -1 c15 -1 27 4 27 9 0 6 -1 10 -2 9 -2 -1
-14 -5 -28 -9z"/>
<path d="M2655 10981 c-19 -8 -19 -8 2 -19 25 -14 80 -14 108 -1 15 6 6 8 -31
6 -38 -1 -50 1 -47 11 6 13 -2 14 -32 3z"/>
<path d="M4215 10960 c-4 -6 8 -10 30 -10 22 0 34 4 30 10 -3 6 -17 10 -30 10
-13 0 -27 -4 -30 -10z"/>
<path d="M3183 10943 c20 -2 54 -2 75 0 20 2 3 4 -38 4 -41 0 -58 -2 -37 -4z"/>
<path d="M3423 10943 c9 -2 25 -2 35 0 9 3 1 5 -18 5 -19 0 -27 -2 -17 -5z"/>
<path d="M3743 10943 c20 -2 54 -2 75 0 20 2 3 4 -38 4 -41 0 -58 -2 -37 -4z"/>
<path d="M3165 10819 c-115 -3 -211 -6 -211 -7 -1 -1 -2 -41 -2 -89 0 -49 -3
-137 -6 -198 -4 -60 -9 -186 -12 -280 -6 -204 -7 -218 -22 -223 -7 -2 -10 -8
-7 -13 3 -5 1 -18 -5 -29 -13 -24 -9 -24 54 -5 80 24 168 36 201 27 51 -14 45
-48 -23 -145 -34 -47 -35 -48 -76 -41 -59 9 -79 22 -72 45 20 65 20 62 -5 54
-41 -12 -107 -58 -118 -82 -9 -20 -6 -25 37 -49 181 -103 207 -137 162 -211
-23 -38 -78 -69 -151 -84 -41 -9 -49 -13 -35 -21 9 -5 14 -13 11 -19 -4 -5 -2
-9 4 -9 11 0 9 -339 -2 -357 -5 -8 -4 -13 3 -13 7 0 8 -6 0 -19 -7 -14 -7 -22
0 -26 6 -4 7 -12 3 -18 -11 -18 -10 -81 1 -89 6 -4 254 -8 551 -9 297 0 578
-4 625 -7 l85 -7 7 -200 c4 -139 14 -249 32 -360 14 -88 26 -181 26 -206 0
-67 26 -145 76 -225 57 -92 97 -184 118 -268 10 -37 25 -82 35 -99 20 -38 38
-96 46 -152 3 -22 8 -46 10 -53 29 -84 48 -563 35 -837 -21 -416 -31 -567 -50
-725 -11 -91 -22 -185 -25 -210 -7 -55 -22 -376 -32 -685 -10 -291 -10 -858
-1 -1125 5 -113 11 -297 14 -410 6 -222 34 -525 78 -845 9 -60 16 -167 16
-238 0 -126 22 -312 40 -347 11 -21 5 -493 -6 -512 -5 -8 -16 4 -29 35 l-22
47 -34 -25 c-19 -13 -45 -29 -59 -35 -13 -6 -27 -15 -30 -19 -11 -17 -94 -41
-140 -41 -27 0 -52 -5 -56 -11 -7 -11 -79 -8 -134 7 -38 9 -78 13 -152 15 -38
0 -70 4 -72 8 -3 4 -27 8 -53 9 -26 1 -114 8 -195 15 -81 7 -155 10 -165 6
-10 -4 -23 -3 -29 2 -6 5 -57 10 -113 12 -55 1 -101 5 -101 8 0 6 -9 7 -170
14 -105 5 -119 6 -203 24 -32 7 -64 10 -72 7 -8 -3 -15 0 -17 6 -2 5 -19 11
-38 13 -19 2 -38 3 -42 4 -5 1 -8 7 -8 15 0 8 -8 17 -17 20 -10 3 -34 19 -53
36 -19 16 -44 30 -55 31 -11 0 -14 3 -8 6 10 3 9 8 -2 20 -8 8 -13 18 -10 23
3 4 -1 13 -8 19 -17 13 -15 30 -23 -219 -5 -168 -4 -208 7 -217 12 -10 128
-18 362 -25 31 -1 57 -6 57 -11 0 -5 17 -8 38 -7 20 1 39 1 42 0 21 -10 246
-12 348 -3 34 3 62 1 62 -4 0 -5 38 -9 85 -9 47 1 85 4 85 7 0 3 39 4 88 2
109 -4 88 -4 217 2 60 3 115 11 122 17 7 6 28 7 48 4 19 -4 43 -2 53 3 16 9
49 13 183 24 14 1 33 8 43 16 14 12 16 12 11 0 -9 -23 34 -34 145 -37 110 -3
220 -31 220 -57 0 -18 55 -38 82 -30 16 5 20 4 13 -4 -6 -5 -26 -11 -45 -13
-19 -1 -37 -5 -40 -9 -3 -4 -43 -10 -88 -14 -46 -3 -99 -12 -119 -20 -19 -8
-47 -15 -61 -15 -14 0 -23 -3 -20 -6 4 -3 59 0 123 6 84 8 121 8 128 1 8 -8 6
-11 -8 -11 -18 0 -18 0 1 -16 14 -11 15 -14 3 -11 -9 3 -22 1 -30 -4 -11 -7
-10 -9 6 -9 15 0 17 -3 7 -9 -8 -4 -14 -12 -15 -17 -1 -5 -19 -7 -41 -6 -23 3
-36 0 -32 -6 3 -5 0 -10 -7 -9 -63 2 -127 -5 -122 -13 8 -13 85 -13 161 0 32
6 74 13 92 16 17 3 32 8 32 13 0 4 -14 6 -30 3 -23 -3 -29 -1 -25 10 4 9 20
13 50 12 34 -1 45 2 45 13 0 8 -6 13 -12 10 -53 -21 -54 -22 -39 -4 11 13 29
17 86 16 80 -1 99 -8 90 -31 -7 -18 -37 -27 -105 -34 -24 -3 -47 -8 -50 -12
-7 -11 -105 -32 -150 -32 -21 0 -42 -5 -46 -12 -7 -11 39 -9 166 7 19 2 6 -3
-30 -11 -111 -26 -180 -47 -175 -52 2 -3 60 2 127 11 207 28 302 36 312 26 17
-16 -1 -21 -106 -29 -169 -14 -377 -50 -289 -50 12 0 24 -7 27 -15 4 -8 14
-15 23 -16 30 -1 -22 -17 -85 -25 l-59 -9 50 -5 50 -6 -40 -12 c-96 -30 -359
-42 -915 -44 -528 -2 -839 10 -960 34 -30 7 -58 11 -62 10 -5 -1 -8 2 -8 8 0
5 -11 10 -24 10 -14 0 -37 11 -53 24 -47 39 -72 48 -198 71 -66 12 -141 32
-165 44 l-45 22 55 -6 c30 -3 78 -12 105 -20 70 -19 159 -30 152 -18 -4 6 4 8
18 5 36 -6 31 15 -5 23 -16 4 -32 11 -35 16 -4 5 -19 9 -36 9 -16 0 -29 4 -29
9 0 5 -8 12 -17 14 -10 3 3 5 28 6 25 0 49 4 52 8 4 3 -19 16 -50 29 -31 13
-61 28 -66 33 -16 16 0 26 18 11 8 -7 15 -8 15 -2 0 5 -6 12 -14 15 -8 3 -12
14 -10 24 3 11 -3 26 -15 37 -11 10 -17 24 -15 31 3 7 -5 41 -16 76 -19 56
-22 88 -23 264 -3 277 4 344 37 388 14 18 26 42 26 53 0 10 12 73 25 139 23
107 58 365 71 515 2 30 9 91 14 135 25 205 42 449 61 870 11 244 7 1233 -6
1435 -3 41 -10 156 -15 255 -17 294 -21 345 -36 460 -26 190 -33 235 -64 420
-17 99 -35 243 -41 320 -12 154 -5 637 11 769 12 104 45 200 86 259 19 26 34
53 34 61 0 15 81 174 111 216 58 84 173 686 204 1067 7 80 7 81 -17 85 -17 2
-24 10 -26 31 -2 15 -8 25 -13 22 -5 -4 -9 1 -9 10 0 9 5 13 10 10 6 -3 10 1
10 9 0 9 -6 16 -12 16 -10 0 -10 2 -1 8 12 8 23 125 26 294 1 42 5 79 9 83 4
4 4 13 1 21 -3 8 2 17 11 20 9 3 16 10 16 16 0 5 -4 6 -10 3 -5 -3 -10 -2 -10
4 0 5 6 11 13 14 6 2 -5 7 -26 11 -37 7 -39 9 -33 39 3 18 8 51 12 75 5 33 12
44 30 48 22 6 24 11 24 78 1 39 1 202 1 363 1 291 1 292 22 296 l22 4 -22 2
c-26 1 -21 31 6 32 11 0 8 3 -7 10 -24 9 -22 29 4 29 23 0 16 18 -8 23 l-23 4
23 8 c26 9 29 22 5 28 -17 4 -17 5 0 6 9 0 17 4 18 9 3 28 8 96 10 150 1 38 6
62 13 62 6 0 4 4 -4 10 -12 7 -12 11 3 28 17 19 17 20 0 24 -10 2 -40 2 -68 0
-48 -3 -50 -5 -49 -33 0 -16 4 -32 7 -36 4 -3 2 -12 -3 -19 -8 -8 -6 -17 5
-28 12 -12 13 -16 3 -16 -8 0 -13 -12 -14 -30 -1 -23 3 -30 17 -30 11 0 19 -4
19 -10 0 -5 -9 -10 -20 -10 -27 0 -25 -16 3 -25 l22 -8 -22 -4 c-31 -6 -29
-17 5 -30 24 -10 25 -11 5 -12 -31 -1 -39 -21 -9 -21 14 0 26 -4 26 -10 0 -5
-12 -10 -26 -10 -16 0 -24 -5 -21 -12 2 -7 14 -12 25 -10 12 2 22 -1 22 -7 0
-5 -10 -11 -22 -13 -30 -4 -30 -22 0 -26 27 -4 19 -22 -9 -22 -11 0 -18 -4
-15 -9 3 -5 16 -7 27 -4 16 4 20 2 17 -8 -3 -8 -13 -14 -23 -14 -10 0 -20 -6
-23 -13 -3 -9 4 -11 22 -8 18 3 26 0 26 -10 0 -8 -10 -14 -25 -14 -14 0 -25
-4 -25 -10 0 -5 11 -10 25 -10 14 0 25 -4 25 -10 0 -5 -11 -10 -25 -10 -14 0
-25 -5 -25 -10 0 -6 11 -8 25 -6 17 3 25 0 25 -10 0 -14 -11 -18 -37 -15 -7 1
-13 -3 -13 -9 0 -5 11 -10 25 -10 14 0 25 -4 25 -10 0 -5 -12 -10 -26 -10 -16
0 -24 -5 -21 -12 2 -7 14 -12 25 -10 12 2 22 -2 22 -7 0 -6 -11 -11 -25 -11
-16 0 -25 -6 -25 -16 0 -12 7 -15 25 -12 14 3 25 1 25 -3 0 -5 -11 -9 -25 -9
-20 0 -25 -5 -26 -27 -3 -87 -5 -98 -16 -99 -7 -1 -17 -2 -22 -3 -6 0 -10 -9
-10 -18 -1 -58 -8 -131 -15 -141 -4 -7 -5 -16 -2 -21 4 -5 2 -21 -3 -34 -11
-29 -28 -149 -36 -262 -4 -44 -8 -91 -10 -105 -19 -121 -55 -439 -55 -479 0
-106 -64 -520 -100 -650 -12 -41 -18 -86 -15 -101 17 -76 -166 -476 -270 -590
-76 -83 -118 -432 -110 -910 4 -235 17 -330 59 -423 14 -32 25 -66 24 -75 -2
-9 5 -51 14 -92 39 -178 52 -286 50 -410 -2 -69 2 -156 7 -195 13 -93 24 -218
24 -280 0 -31 2 -43 7 -30 8 22 40 -165 40 -237 1 -24 7 -86 15 -138 15 -93
26 -248 44 -600 l9 -175 -4 160 c-6 224 -6 556 1 563 3 3 5 -11 5 -30 0 -20 5
-38 10 -40 31 -10 38 -742 9 -993 -12 -105 -14 -134 -17 -252 -3 -130 -17 -77
-17 65 0 75 -3 148 -7 162 -4 18 -7 11 -7 -26 -2 -129 -43 -324 -68 -324 -6 0
1 44 12 73 5 12 3 16 -7 12 -14 -6 -37 -155 -43 -280 -1 -22 -5 -47 -8 -55 -3
-8 -10 -60 -16 -115 -18 -167 -37 -293 -69 -445 -35 -168 -41 -198 -45 -225
-2 -11 -9 -30 -16 -43 -17 -32 -53 -201 -45 -213 3 -6 -2 -27 -11 -47 -10 -21
-21 -44 -25 -53 -18 -37 -41 -219 -39 -308 1 -53 -2 -118 -6 -144 -10 -64 22
-413 46 -494 40 -136 82 -175 257 -238 120 -43 220 -56 642 -87 237 -17 1147
-17 1335 0 77 7 214 19 305 28 188 17 412 67 500 112 61 31 82 63 120 190 24
76 22 94 -6 71 -16 -13 -17 -12 -10 11 26 85 36 129 36 160 0 24 3 31 9 21 9
-14 15 30 27 195 4 59 2 94 -4 98 -6 3 -14 2 -17 -4 -5 -8 -11 -7 -21 1 -11 9
-15 8 -18 -2 -8 -26 -26 -158 -26 -188 0 -32 -19 -41 -49 -22 -11 7 -9 10 7
15 21 7 39 36 22 36 -6 0 -10 10 -10 22 0 12 -4 35 -9 52 -5 17 -19 95 -30
174 -19 132 -19 145 -5 168 21 31 40 30 73 -5 22 -23 29 -26 39 -15 19 21 14
73 -14 149 -27 74 -84 288 -84 315 0 8 -9 33 -21 54 -18 34 -41 149 -54 271
-2 17 -9 43 -14 58 -6 16 -11 41 -11 57 0 15 -9 72 -21 127 -11 54 -20 105
-20 113 0 8 -6 33 -14 55 -7 22 -16 65 -19 95 -4 30 -13 80 -21 110 -14 53
-14 53 -11 12 2 -23 0 -40 -5 -36 -5 3 -9 18 -9 34 0 16 -6 33 -13 37 -9 5
-20 58 -31 148 -10 77 -21 169 -27 205 -24 169 -30 421 -25 990 6 623 9 684
56 910 12 58 31 134 42 169 21 69 75 188 89 197 13 8 11 -3 -9 -44 -24 -48
-55 -159 -47 -172 3 -5 -4 -46 -16 -92 -30 -118 -48 -233 -59 -383 -5 -71 -12
-154 -15 -182 -5 -37 -3 -53 5 -53 9 0 10 -26 5 -98 -5 -71 -3 -93 5 -82 8 11
9 -6 4 -65 -4 -44 -4 -78 -1 -75 3 3 15 100 27 215 12 116 28 233 35 260 17
61 55 363 39 312 -3 -9 -10 -15 -15 -12 -5 4 -3 18 5 33 15 29 28 113 31 197
2 57 20 178 34 233 5 20 13 68 17 105 3 38 17 108 30 155 70 251 68 239 69
592 0 355 -7 516 -28 627 -8 43 -10 70 -4 66 6 -4 7 3 3 18 -5 13 -8 32 -9 42
-1 9 -7 17 -14 17 -15 0 -33 32 -33 57 0 15 4 14 20 -7 20 -25 20 -25 0 23
-11 27 -20 53 -20 58 0 4 -11 34 -25 66 -18 40 -29 54 -34 44 -6 -10 -10 -9
-15 4 -3 9 -10 13 -16 10 -5 -3 -10 -2 -10 4 0 5 -13 29 -29 53 -52 78 -141
319 -141 385 0 17 -4 34 -9 37 -4 3 -11 27 -14 53 -4 27 -15 89 -27 138 -24
106 -70 457 -70 534 0 30 -9 134 -20 230 -31 281 -67 650 -100 1011 -16 184
-32 346 -35 360 -5 25 -12 118 -19 245 -2 38 -8 70 -12 72 -19 6 -950 8 -1149
2z m743 -770 c4 -34 -24 -58 -79 -65 -51 -6 -86 12 -76 40 9 23 85 57 122 54
24 -2 31 -8 33 -29z m-388 -68 c14 -10 34 -34 45 -53 17 -33 18 -43 8 -112
-13 -96 -67 -210 -123 -265 -47 -45 -132 -91 -169 -91 -84 0 -157 59 -181 145
-25 90 8 176 106 272 125 122 236 159 314 104z m567 13 c3 -8 -4 -25 -17 -40
-18 -19 -33 -24 -69 -24 -59 0 -80 13 -65 37 17 27 54 43 102 43 29 0 44 -5
49 -16z m-239 -75 c2 -9 -13 -39 -31 -68 -19 -29 -45 -80 -56 -114 -64 -180
-129 -294 -208 -361 -49 -43 -81 -56 -134 -56 -68 0 -114 65 -71 102 33 29 63
41 75 29 6 -6 23 -11 38 -11 36 0 85 58 104 125 8 28 24 84 36 125 11 41 30
90 41 108 20 33 18 56 -4 34 -7 -7 -18 -12 -25 -12 -18 0 -17 64 2 80 46 38
226 53 233 19z m171 -38 c12 -8 5 -30 -39 -123 -29 -62 -65 -147 -79 -188 -24
-69 -29 -75 -57 -78 -45 -4 -67 25 -66 90 1 96 78 279 125 298 29 12 98 12
116 1z m457 -1091 c6 -63 17 -142 23 -174 13 -72 14 -143 2 -150 -16 -10 -17
-3 -70 376 -8 62 -6 70 18 66 12 -3 18 -29 27 -118z m-129 43 c-2 -16 -4 -5
-4 22 0 28 2 40 4 28 2 -13 2 -35 0 -50z m-2167 -3267 c0 -26 -6 -18 -14 19
-5 22 -4 26 4 15 5 -8 10 -24 10 -34z m49 -310 c1 -54 -5 -42 -12 24 -4 36 -3
48 3 35 5 -11 9 -38 9 -59z m8 -93 c-3 -10 -5 -4 -5 12 0 17 2 24 5 18 2 -7 2
-21 0 -30z m2500 -95 c-3 -8 -6 -5 -6 6 -1 11 2 17 5 13 3 -3 4 -12 1 -19z
m-2480 -250 c-3 -7 -5 -2 -5 12 0 14 2 19 5 13 2 -7 2 -19 0 -25z m2450 -60
c-3 -7 -5 -2 -5 12 0 14 2 19 5 13 2 -7 2 -19 0 -25z m-130 -1305 c-2 -16 -4
-3 -4 27 0 30 2 43 4 28 2 -16 2 -40 0 -55z m10 -100 c-3 -10 -5 -2 -5 17 0
19 2 27 5 18 2 -10 2 -26 0 -35z m-2340 -55 c-3 -7 -5 -2 -5 12 0 14 2 19 5
13 2 -7 2 -19 0 -25z m2522 -298 c0 -9 -4 -8 -9 5 -5 11 -9 27 -9 35 0 9 4 8
9 -5 5 -11 9 -27 9 -35z m79 -1255 c0 -16 -2 -15 -8 5 -4 14 -8 36 -8 50 0 22
1 22 8 -5 4 -16 8 -39 8 -50z m160 -557 c3 -27 -31 -107 -52 -120 -6 -4 -21
-8 -33 -8 -29 0 -31 30 -3 55 11 10 20 24 20 30 0 7 7 18 15 25 8 7 15 21 15
32 0 31 34 18 38 -14z m-178 -52 c0 -3 -4 -8 -10 -11 -5 -3 -10 -1 -10 4 0 6
5 11 10 11 6 0 10 -2 10 -4z m-2765 -176 c3 -5 2 -10 -4 -10 -5 0 -13 5 -16
10 -3 6 -2 10 4 10 5 0 13 -4 16 -10z m2775 -25 c-19 -7 -48 -13 -65 -13 l-30
0 30 13 c17 8 46 14 65 14 l35 -1 -35 -13z m-2422 -186 c17 -5 3 -6 -38 -2
-36 3 -76 10 -90 14 -15 5 0 6 38 3 35 -4 76 -10 90 -15z"/>
<path d="M3322 9810 c-80 -125 -99 -171 -84 -205 40 -87 192 58 192 184 0 40
-27 121 -40 120 -3 0 -33 -44 -68 -99z"/>
<path d="M2590 10100 c0 -5 5 -10 10 -10 6 0 10 5 10 10 0 6 -4 10 -10 10 -5
0 -10 -4 -10 -10z"/>
<path d="M2588 10013 c7 -3 16 -2 19 1 4 3 -2 6 -13 5 -11 0 -14 -3 -6 -6z"/>
<path d="M2875 9658 c-13 -20 -14 -23 -1 -26 24 -5 56 17 50 33 -9 22 -31 18
-49 -7z"/>
<path d="M4127 8733 c2 -82 8 -170 12 -198 7 -36 8 -13 6 85 -2 74 -4 163 -4
198 -1 34 -5 62 -9 62 -5 0 -7 -66 -5 -147z"/>
<path d="M2536 7168 c-19 -181 -16 -647 7 -866 8 -82 15 -52 16 75 2 189 9
371 18 465 16 163 1 388 -26 388 -4 0 -11 -28 -15 -62z"/>
<path d="M5003 6790 c0 -25 2 -35 4 -22 2 12 2 32 0 45 -2 12 -4 2 -4 -23z"/>
<path d="M4990 6565 c0 -19 2 -35 4 -35 2 0 6 16 8 35 2 19 0 35 -4 35 -4 0
-8 -16 -8 -35z"/>
<path d="M2146 4995 c3 -60 9 -158 14 -217 17 -201 23 -792 11 -1073 -7 -148
-14 -278 -17 -287 -3 -10 -1 -18 4 -18 9 0 18 41 38 170 17 106 20 903 4 1075
-6 66 -15 167 -21 225 -5 58 -16 134 -24 170 l-14 65 5 -110z"/>
<path d="M4800 4897 c0 -15 -4 -27 -8 -27 -24 0 -51 -399 -52 -745 0 -237 18
-530 40 -633 l19 -87 -7 210 c-10 294 -5 1015 8 1169 6 71 8 131 5 134 -3 3
-5 -7 -5 -21z"/>
<path d="M4691 4544 c0 -11 3 -14 6 -6 3 7 2 16 -1 19 -3 4 -6 -2 -5 -13z"/>
<path d="M4693 4470 c0 -25 2 -35 4 -22 2 12 2 32 0 45 -2 12 -4 2 -4 -23z"/>
<path d="M2243 3825 c0 -44 2 -61 4 -37 2 23 2 59 0 80 -2 20 -4 1 -4 -43z"/>
<path d="M4732 3290 c0 -14 2 -19 5 -12 2 6 2 18 0 25 -3 6 -5 1 -5 -13z"/>
<path d="M5082 1690 c0 -14 2 -19 5 -12 2 6 2 18 0 25 -3 6 -5 1 -5 -13z"/>
<path d="M4536 1584 c-4 -10 -2 -22 3 -27 7 -7 13 -5 17 7 4 10 2 22 -3 27 -7
7 -13 5 -17 -7z"/>
<path d="M3304 1449 c-3 -5 6 -9 20 -9 31 0 34 6 6 13 -11 3 -23 1 -26 -4z"/>
<path d="M2545 1071 c-11 -5 -18 -10 -15 -11 10 -3 77 -10 193 -19 65 -5 121
-12 125 -16 4 -4 -29 -5 -73 -1 -229 17 -280 18 -269 7 12 -13 642 -38 671
-26 10 3 99 6 198 6 99 0 207 4 240 7 33 4 87 3 120 -2 62 -9 449 -9 498 0 41
8 32 25 -10 20 -21 -3 -90 -7 -153 -10 -152 -5 -84 8 125 26 137 11 151 14
100 18 -33 3 -116 2 -185 -3 -124 -9 -500 -12 -635 -5 -38 2 -80 0 -92 -4 -14
-4 -23 -3 -23 2 0 6 -11 8 -24 4 -13 -3 -27 -1 -30 5 -10 15 -36 14 -69 -4
-22 -11 -62 -13 -205 -9 -97 2 -197 6 -222 8 -165 13 -248 15 -265 7z m455
-41 c0 -5 -10 -10 -22 -10 -19 0 -20 2 -8 10 19 13 30 13 30 0z m140 -9 c44
-8 44 -9 -22 -10 -37 0 -70 4 -73 9 -7 12 31 12 95 1z m803 2 c-7 -2 -21 -2
-30 0 -10 3 -4 5 12 5 17 0 24 -2 18 -5z m-70 -10 c-13 -2 -33 -2 -45 0 -13 2
-3 4 22 4 25 0 35 -2 23 -4z"/>
<path d="M4360 1060 c0 -13 20 -13 40 0 12 8 9 10 -12 10 -16 0 -28 -4 -28
-10z"/>
<path d="M3663 1003 c9 -2 25 -2 35 0 9 3 1 5 -18 5 -19 0 -27 -2 -17 -5z"/>
<path d="M2655 939 c22 -4 45 -4 52 -2 7 3 13 1 13 -4 0 -6 249 -9 673 -6 369
2 689 3 709 3 20 0 39 4 42 8 2 4 -341 7 -762 7 -422 0 -749 -3 -727 -6z"/>
<path d="M4378 943 c7 -3 16 -2 19 1 4 3 -2 6 -13 5 -11 0 -14 -3 -6 -6z"/>
<path d="M2308 923 c7 -3 16 -2 19 1 4 3 -2 6 -13 5 -11 0 -14 -3 -6 -6z"/>
<path d="M2808 873 c7 -3 16 -2 19 1 4 3 -2 6 -13 5 -11 0 -14 -3 -6 -6z"/>
<path d="M3363 873 c20 -2 54 -2 75 0 20 2 3 4 -38 4 -41 0 -58 -2 -37 -4z"/>
<path d="M2428 863 c7 -3 16 -2 19 1 4 3 -2 6 -13 5 -11 0 -14 -3 -6 -6z"/>
</g>
</svg>
