<?xml version="1.0" encoding="UTF-8" standalone="no"?><!DOCTYPE svg PUBLIC "-//W3C//DTD SVG 1.1//EN" "http://www.w3.org/Graphics/SVG/1.1/DTD/svg11.dtd"><svg width="100%" height="100%" viewBox="0 0 2988 5334" version="1.1" xmlns="http://www.w3.org/2000/svg" xmlns:xlink="http://www.w3.org/1999/xlink" xml:space="preserve" xmlns:serif="http://www.serif.com/" style="fill-rule:evenodd;clip-rule:evenodd;stroke-linejoin:round;stroke-miterlimit:2;"><g><path d="M1483.333,210.833c120.417,7.5 163.75,11.667 169.583,15.417c2.917,1.667 8.75,0.833 12.917,-1.667c5,-3.333 11.25,-3.75 15.833,-1.667c4.583,2.083 14.583,3.75 22.5,4.167c7.917,0 25,1.667 37.5,3.333c14.583,2.083 20.833,1.667 16.667,-0.417c-17.917,-11.25 -200.417,-26.25 -306.25,-25l-58.333,0.417l89.583,5.417Z" style="fill:#f4bc33;fill-rule:nonzero;"/><path d="M1640.833,287.5c1.25,53.333 1.25,54.167 -8.333,58.333c-9.167,3.75 -8.75,4.167 2.5,2.917l12.5,-0.833l0,-55.833c0.417,-33.75 -1.25,-56.667 -3.75,-57.5c-2.5,-0.833 -3.75,17.917 -2.917,52.917Z" style="fill:#f4bc33;fill-rule:nonzero;"/><path d="M1372.5,281.25c0,25 0.417,35 1.25,21.667c0.833,-13.333 0.833,-33.75 0,-45.833c-0.833,-12.083 -1.25,-1.25 -1.25,24.167Z" style="fill:#f4bc33;fill-rule:nonzero;"/><path d="M1704.583,262.5l0.833,27.083l2.917,-22.917c1.667,-12.5 1.25,-24.583 -0.417,-27.083c-2.083,-2.083 -3.333,7.917 -3.333,22.917Z" style="fill:#f4bc33;fill-rule:nonzero;"/><path d="M1783.333,239.167c0,1.25 4.167,6.667 9.583,12.083c6.667,7.083 11.667,9.167 17.5,7.083c7.083,-2.5 5.833,-4.167 -9.167,-12.083c-10,-5 -17.917,-7.917 -17.917,-7.083Z" style="fill:#f4bc33;fill-rule:nonzero;"/><path d="M1680.417,256.25c0,9.167 0.833,12.5 1.667,7.083c0.833,-5 0.833,-12.5 0,-16.667c-1.25,-3.75 -2.083,0.417 -1.667,9.583Z" style="fill:#f4bc33;fill-rule:nonzero;"/><path d="M1328.75,289.583c-1.667,22.917 -2.083,42.5 -1.25,43.333c4.583,5 5.833,-6.667 5,-43.75l-1.25,-41.25l-2.5,41.667Z" style="fill:#f4bc33;fill-rule:nonzero;"/><path d="M1255.417,270.833c0,10.417 0.833,14.583 1.667,9.167c0.833,-5 0.833,-13.333 0,-18.75c-0.833,-5 -1.667,-0.833 -1.667,9.583Z" style="fill:#f4bc33;fill-rule:nonzero;"/><path d="M1289.167,293.75c0,22.917 0.417,31.667 1.25,19.583c0.833,-12.083 0.833,-30.833 0,-41.667c-0.833,-10.833 -1.25,-0.833 -1.25,22.083Z" style="fill:#f4bc33;fill-rule:nonzero;"/><path d="M1721.25,265c0,4.583 1.25,5.833 2.5,2.5c1.25,-2.917 0.833,-6.667 -0.417,-7.917c-1.25,-1.667 -2.5,0.833 -2.083,5.417Z" style="fill:#f4bc33;fill-rule:nonzero;"/><path d="M1820.833,264.167c0,3.75 2.083,6.667 4.167,6.667c2.5,0 4.167,-1.667 4.167,-3.75c0,-2.5 -1.667,-5.417 -4.167,-6.667c-2.083,-1.25 -4.167,0.417 -4.167,3.75Z" style="fill:#f4bc33;fill-rule:nonzero;"/><path d="M1605.417,293.75c0,15.833 0.833,22.083 1.667,13.333c0.833,-8.333 0.833,-21.667 0,-29.167c-0.833,-7.083 -1.667,-0.417 -1.667,15.833Z" style="fill:#f4bc33;fill-rule:nonzero;"/><path d="M1787.917,277.5c0,4.583 1.25,5.833 2.5,2.5c1.25,-2.917 0.833,-6.667 -0.417,-7.917c-1.25,-1.667 -2.5,0.833 -2.083,5.417Z" style="fill:#f4bc33;fill-rule:nonzero;"/><path d="M1825.833,289.583c0,6.667 0.833,9.167 2.083,5c0.833,-3.75 0.833,-9.583 0,-12.5c-1.25,-2.5 -2.083,0.417 -2.083,7.5Z" style="fill:#f4bc33;fill-rule:nonzero;"/><path d="M1217.917,308.333c0,15 0.833,20.833 1.667,13.333c0.833,-7.083 0.833,-19.583 0,-27.083c-0.833,-7.083 -1.667,-1.25 -1.667,13.75Z" style="fill:#f4bc33;fill-rule:nonzero;"/><path d="M1450.833,293.75c0,6.667 0.833,9.167 2.083,5c0.833,-3.75 0.833,-9.583 0,-12.5c-1.25,-2.5 -2.083,0.417 -2.083,7.5Z" style="fill:#f4bc33;fill-rule:nonzero;"/><path d="M1742.917,314.583c0,15.833 0.833,22.083 1.667,13.333c0.833,-8.333 0.833,-21.667 0,-29.167c-0.833,-7.083 -1.667,-0.417 -1.667,15.833Z" style="fill:#f4bc33;fill-rule:nonzero;"/><path d="M1767.917,318.75c0,11.25 0.833,15.833 1.667,9.167c0.833,-6.25 0.833,-15.417 0,-20.833c-0.833,-5 -1.667,0 -1.667,11.667Z" style="fill:#f4bc33;fill-rule:nonzero;"/><path d="M1251.25,320.833c0,10.417 0.833,14.583 1.667,9.167c0.833,-5 0.833,-13.333 0,-18.75c-0.833,-5 -1.667,-0.833 -1.667,9.583Z" style="fill:#f4bc33;fill-rule:nonzero;"/><path d="M1708.75,323.333c0,4.583 1.25,5.833 2.5,2.5c1.25,-2.917 0.833,-6.667 -0.417,-7.917c-1.25,-1.667 -2.5,0.833 -2.083,5.417Z" style="fill:#f4bc33;fill-rule:nonzero;"/><path d="M1449.167,334.583c-1.25,7.917 -0.833,10.417 1.667,7.917c2.5,-2.5 3.333,-7.5 2.5,-11.667c-1.25,-5.833 -2.083,-5 -4.167,3.75Z" style="fill:#f4bc33;fill-rule:nonzero;"/><path d="M1709.167,341.667c0,5.833 0.833,7.917 2.083,5c0.833,-2.5 0.833,-7.5 0,-10.417c-1.25,-2.5 -2.083,-0.417 -2.083,5.417Z" style="fill:#f4bc33;fill-rule:nonzero;"/><path d="M1610.417,341.667c-1.25,2.083 -0.417,4.167 1.667,4.167c2.5,0 4.583,-2.083 4.583,-4.167c0,-2.5 -0.833,-4.167 -1.667,-4.167c-1.25,0 -3.333,1.667 -4.583,4.167Z" style="fill:#f4bc33;fill-rule:nonzero;"/><path d="M1397.917,345.833c-1.25,2.083 0.417,4.167 4.167,4.167c3.75,0 5.417,-2.083 4.167,-4.167c-1.25,-2.5 -3.333,-4.167 -4.167,-4.167c-0.833,0 -2.917,1.667 -4.167,4.167Z" style="fill:#f4bc33;fill-rule:nonzero;"/><path d="M1573.333,346.25c2.5,4.583 22.5,5 22.5,0.417c0,-1.667 -5.417,-2.917 -12.5,-3.333c-6.667,-0.417 -11.25,1.25 -10,2.917Z" style="fill:#f4bc33;fill-rule:nonzero;"/><path d="M1357.5,348.75c2.917,1.25 6.667,0.833 7.917,-0.417c1.667,-1.25 -0.833,-2.5 -5.417,-2.083c-4.583,0 -5.833,1.25 -2.5,2.5Z" style="fill:#f4bc33;fill-rule:nonzero;"/><path d="M1234.167,362.5c-32.083,4.583 -32.917,10 -0.833,6.667c15,-1.25 70.417,-3.75 122.917,-4.583c72.083,-1.667 93.333,-1.25 85.417,2.5c-5.833,2.5 -26.25,5.833 -45.833,7.5c-19.583,1.25 41.667,2.5 136.25,2.5c116.25,0 169.167,-1.25 164.583,-4.167c-4.167,-2.5 -55.417,-4.583 -121.25,-5.417c-71.25,-0.833 -112.083,-2.917 -108.333,-5.417c7.083,-4.583 -200.833,-4.167 -232.917,0.417Z" style="fill:#f4bc33;fill-rule:nonzero;"/><path d="M1478.333,361.25c2.917,1.25 6.667,0.833 7.917,-0.417c1.667,-1.25 -0.833,-2.5 -5.417,-2.083c-4.583,0 -5.833,1.25 -2.5,2.5Z" style="fill:#f4bc33;fill-rule:nonzero;"/><path d="M1814.583,366.25c1.25,5 -1.25,10 -7.917,15c-11.667,8.75 -10.417,14.583 2.5,14.583c7.083,0 7.5,0.833 3.333,6.25c-4.167,5.417 -3.75,6.25 3.333,6.25c10.833,0 21.667,-10.417 21.667,-21.25c0,-4.167 2.083,-7.917 5,-7.917c7.5,0 -10,-15 -20.833,-17.5c-7.917,-2.083 -9.167,-1.25 -7.083,4.583Z" style="fill:#f4bc33;fill-rule:nonzero;"/><path d="M1422.917,384.167c-57.083,2.083 -111.667,5.417 -120.833,7.5c-11.25,2.917 2.5,2.917 43.75,1.25c73.333,-3.75 180.833,-3.75 281.25,0c53.75,1.667 69.583,1.25 56.25,-1.667c-57.5,-12.5 -83.333,-13.333 -260.417,-7.083Z" style="fill:#f4bc33;fill-rule:nonzero;"/><path d="M1762.5,400c5.833,1.667 17.917,3.333 27.083,3.333c15.833,0 16.25,-0.417 4.167,-3.333c-6.667,-1.667 -19.167,-3.333 -27.083,-3.333c-13.333,0 -13.75,0.417 -4.167,3.333Z" style="fill:#f4bc33;fill-rule:nonzero;"/><path d="M1592.917,415.417c6.25,0.833 15.417,0.833 20.833,0c5,-0.833 0,-1.667 -11.667,-1.667c-11.25,0 -15.833,0.833 -9.167,1.667Z" style="fill:#f4bc33;fill-rule:nonzero;"/><path d="M1816.667,416.25c0,2.083 -5,5.833 -11.25,7.917c-10.833,4.167 -10,4.167 8.75,4.583c20,0.417 20.417,0.417 12.917,-7.917c-8.333,-9.167 -10.417,-10 -10.417,-4.583Z" style="fill:#f4bc33;fill-rule:nonzero;"/><path d="M1313.333,420.833c-32.917,1.667 -60.833,4.167 -62.083,5.833c-1.667,1.25 2.917,2.917 9.583,2.917c10.417,0.833 9.583,1.25 -4.583,3.75c-18.75,3.333 103.333,0.833 187.5,-4.167l54.167,-2.917l-45,-0.833c-28.75,0 -44.167,-2.083 -42.5,-4.583c2.917,-4.583 -4.583,-4.583 -97.083,0Zm52.5,7.083c-6.25,0.833 -17.5,0.833 -25,0c-7.5,-0.833 -2.5,-1.667 11.25,-1.667c13.75,0 20,0.833 13.75,1.667Z" style="fill:#f4bc33;fill-rule:nonzero;"/><path d="M1792.917,440.417c-18.75,2.5 -17.083,8.333 2.917,11.667c17.083,2.917 31.667,-2.917 26.667,-10.833c-2.083,-3.75 -5,-3.75 -29.583,-0.833Z" style="fill:#f4bc33;fill-rule:nonzero;"/><path d="M1552.083,445.417c-24.167,5.833 41.25,10 86.667,5.833c23.333,-2.5 58.333,-3.75 77.917,-3.333l35.417,1.25l-29.167,-3.333c-36.667,-3.75 -154.167,-4.167 -170.833,-0.417Z" style="fill:#f4bc33;fill-rule:nonzero;"/><path d="M1726.667,466.667c40,5 84.583,16.25 90,23.333c6.25,7.083 1.667,14.167 -9.583,14.583c-8.333,0.417 -8.333,0.833 1.25,3.75c5.833,1.667 16.25,3.333 22.917,3.75c18.333,0.417 17.5,-14.583 -0.833,-25.833c-15,-8.75 -17.917,-15.417 -6.667,-15.417c3.75,0 5.833,-0.833 4.583,-2.083c-1.25,-1.25 -31.25,-3.333 -66.25,-4.167c-49.167,-1.25 -57.5,-0.417 -35.417,2.083Z" style="fill:#f4bc33;fill-rule:nonzero;"/><path d="M1335.417,479.583c-34.167,2.083 -67.917,5.417 -75,7.917c-10.833,3.75 -10,3.75 8.333,2.083c11.667,-1.25 53.75,-3.333 93.75,-4.583c40,-1.667 76.667,-4.167 81.25,-6.25c10.417,-4.167 -23.333,-3.75 -108.333,0.833Z" style="fill:#f4bc33;fill-rule:nonzero;"/><path d="M1616.667,483.75c0,2.917 -5.833,3.333 -16.25,1.667c-10,-1.667 -17.5,-0.833 -19.167,1.667c-1.667,2.917 3.75,4.583 15.417,4.583c10,0 30.833,1.25 46.667,2.917c21.25,1.667 27.917,1.25 25.833,-2.083c-1.667,-2.917 -12.5,-5 -23.75,-5c-12.917,0 -20,-1.667 -18.333,-4.167c1.25,-2.5 -0.417,-4.167 -3.75,-4.167c-3.75,0 -6.667,2.083 -6.667,4.583Z" style="fill:#f4bc33;fill-rule:nonzero;"/><path d="M1411.667,490.417c11.667,0.833 31.667,0.833 43.75,0c11.667,-0.833 2.083,-1.25 -22.083,-1.25c-24.167,0 -33.75,0.417 -21.667,1.25Z" style="fill:#f4bc33;fill-rule:nonzero;"/><path d="M1339.583,512.5c-2.083,3.333 32.917,4.167 117.5,3.75c65.833,-0.417 128.75,0.417 140,2.5c10.833,1.667 37.917,1.667 60.417,-0.417l40.417,-3.75l-29.167,-2.083c-57.083,-4.583 -326.25,-4.583 -329.167,0Z" style="fill:#f4bc33;fill-rule:nonzero;"/><path d="M1781.667,516.25c-2.5,3.75 20,8.75 38.75,8.75c10,0 10,0 2.083,-6.25c-8.75,-6.667 -37.5,-8.333 -40.833,-2.5Z" style="fill:#f4bc33;fill-rule:nonzero;"/><path d="M1665,532.5c-1.25,2.083 16.25,5.833 44.583,9.167c25.417,2.917 59.583,7.917 75,10.833c38.333,7.917 45.417,7.083 27.917,-2.5l-14.583,-7.917l18.75,-0.417c16.667,-0.417 17.917,-0.833 10.417,-5.417c-10.417,-6.25 -158.333,-10 -162.083,-3.75Z" style="fill:#f4bc33;fill-rule:nonzero;"/><path d="M1300,554.167c-19.167,4.167 48.333,4.167 110.417,0c44.583,-2.5 43.75,-2.917 -25,-2.917c-38.75,0 -77.5,1.25 -85.417,2.917Z" style="fill:#f4bc33;fill-rule:nonzero;"/><path d="M1593.75,557.917c-2.5,2.083 -7.917,4.583 -12.5,5.417c-15.833,3.333 87.5,7.083 108.333,3.75c20.417,-2.5 19.583,-2.917 -22.083,-7.917c-50.833,-5.833 -68.75,-6.25 -73.75,-1.25Z" style="fill:#f4bc33;fill-rule:nonzero;"/><path d="M1328.333,565.417c7.083,0.833 19.583,0.833 27.083,0c7.083,-0.833 1.25,-1.667 -13.75,-1.667c-15,0 -20.833,0.833 -13.333,1.667Z" style="fill:#f4bc33;fill-rule:nonzero;"/><path d="M1822.917,566.667c-1.25,2.083 -1.25,5.833 0,8.333c1.667,2.5 -14.583,3.333 -44.583,2.083c-49.167,-1.667 -37.5,0.417 45.417,8.333c32.917,2.917 34.167,2.917 32.083,-5.417c-3.333,-12.083 -27.5,-22.083 -32.917,-13.333Z" style="fill:#f4bc33;fill-rule:nonzero;"/><path d="M1425,579.167c-66.667,2.5 -65.417,2.5 33.333,2.917c56.25,0 105.833,-1.25 110.417,-2.917c9.167,-3.75 -35,-3.75 -143.75,0Z" style="fill:#f4bc33;fill-rule:nonzero;"/><path d="M1342.083,599.167c-33.75,0.833 -48.75,2.917 -52.917,7.083c-3.333,2.917 -4.167,6.667 -2.083,7.917c5.833,3.75 355.417,4.583 370,1.25c8.333,-2.083 12.5,-5.417 11.25,-8.75c-2.5,-6.25 -79.583,-12.5 -101.25,-8.333l-13.75,2.917l11.667,5.417c10.417,4.583 3.333,5 -52.5,5.417c-39.583,0 -62.5,-1.25 -58.75,-3.333c4.167,-2.917 0.417,-4.583 -12.5,-6.25c-33.333,-4.167 -51.25,-4.583 -99.167,-3.333Z" style="fill:#f4bc33;fill-rule:nonzero;"/><path d="M1072.083,602.917c3.75,0.833 9.583,0.833 12.5,0c2.5,-1.25 -0.417,-2.083 -7.5,-2.083c-6.667,0 -9.167,0.833 -5,2.083Z" style="fill:#f4bc33;fill-rule:nonzero;"/><path d="M1049.167,607.083c2.917,1.25 6.667,0.833 7.917,-0.417c1.667,-1.25 -0.833,-2.5 -5.417,-2.083c-4.583,0 -5.833,1.25 -2.5,2.5Z" style="fill:#f4bc33;fill-rule:nonzero;"/><path d="M1334.583,632.083c10.833,0.833 27.917,0.833 37.5,0c9.583,-0.833 0.833,-1.25 -20,-1.25c-20.417,0 -28.333,0.417 -17.5,1.25Z" style="fill:#f4bc33;fill-rule:nonzero;"/><path d="M1325,650.417c-44.583,2.083 -100,5.417 -122.917,7.5l-41.667,3.333l29.167,1.25l29.167,0.833l-22.5,3.75c-31.25,5.417 -32.5,8.75 -2.5,7.5c13.75,-0.833 73.75,-0.417 133.333,0.417c95.417,1.667 102.083,2.083 56.25,4.167l-52.083,2.917l58.333,-1.25c32.083,-0.833 68.75,-2.083 81.25,-3.333c19.583,-1.667 20.417,-1.25 6.25,1.667c-9.167,1.667 48.75,2.917 132.5,2.083c81.667,-0.417 150,0.417 150.833,2.083c3.75,5.833 55,9.167 64.583,4.167c5,-2.5 7.917,-5.833 6.667,-7.083c-0.833,-1.25 -27.083,-4.583 -57.5,-7.5l-55.417,-5.417l67.083,2.083c43.75,1.667 68.333,0.833 70,-2.083c3.75,-5.833 -11.667,-23.75 -17.5,-20c-2.917,1.667 -5,6.667 -5,11.25c0,9.583 10.417,9.583 -117.5,0c-130,-10 -283.333,-13.333 -390.833,-8.333Zm226.25,27.5c-7.5,0.833 -20,0.833 -27.083,0c-7.5,-0.833 -1.667,-1.667 13.333,-1.667c15,0 20.833,0.833 13.75,1.667Zm43.75,0c-4.167,0.833 -10.833,0.833 -14.583,0c-4.167,-1.25 -0.833,-2.083 7.083,-2.083c7.917,0 11.25,0.833 7.5,2.083Z" style="fill:#f4bc33;fill-rule:nonzero;"/><path d="M1136.667,665.417c2.5,0.833 7.5,0.833 10.417,0c2.5,-1.25 0.417,-2.083 -5.417,-2.083c-5.833,0 -7.917,0.833 -5,2.083Z" style="fill:#f4bc33;fill-rule:nonzero;"/><path d="M1084.583,669.583c3.75,0.833 9.583,0.833 12.5,0c2.5,-1.25 -0.417,-2.083 -7.5,-2.083c-6.667,0 -9.167,0.833 -5,2.083Z" style="fill:#f4bc33;fill-rule:nonzero;"/><path d="M1114.583,679.167c-5.833,2.917 -3.333,3.333 8.333,1.25c9.167,-1.25 17.5,-2.917 18.333,-3.75c3.75,-3.333 -18.75,-0.833 -26.667,2.5Z" style="fill:#f4bc33;fill-rule:nonzero;"/><path d="M1354.583,689.167c0.833,0.833 61.667,2.083 135,3.333c73.333,0.833 113.75,0.417 89.583,-1.25c-46.25,-2.917 -227.5,-5 -224.583,-2.083Z" style="fill:#f4bc33;fill-rule:nonzero;"/><path d="M1765.833,702.917c2.5,0.833 7.5,0.833 10.417,0c2.5,-1.25 0.417,-2.083 -5.417,-2.083c-5.833,0 -7.917,0.833 -5,2.083Z" style="fill:#f4bc33;fill-rule:nonzero;"/><path d="M1347.083,711.667c-54.583,0.417 -88.75,2.5 -88.75,5c0,2.5 4.167,4.583 9.583,4.583c5,0.417 -3.333,2.917 -18.333,5.417c-25.833,4.583 -45.833,15.833 -37.917,20.833c2.083,1.25 27.083,3.333 55.417,5c33.333,2.083 48.333,4.167 43.333,6.667c-12.083,5 401.667,0.833 416.667,-4.583c9.583,-3.333 0.417,-3.75 -37.5,-2.917c-32.5,0.833 -40,0.417 -21.25,-1.25c17.5,-1.667 29.583,-4.583 30.833,-7.917c0.833,-3.333 -3.333,-5 -12.5,-5.417l-13.75,-0.417l14.583,-4.167c17.5,-5 76.667,2.5 90.833,11.667c6.667,4.583 11.25,5 16.667,2.083c6.667,-4.167 6.667,-4.167 -0.833,-4.583c-5,0 -6.667,-2.083 -5.417,-5.833c2.917,-7.5 -2.083,-9.167 -40.833,-15c-25.833,-3.75 -75.833,-5.417 -264.583,-9.583c-26.25,-0.417 -87.917,-0.417 -136.25,0.417Zm345.833,12.083c-2.917,0.833 -7.917,0.833 -10.417,0c-2.917,-1.25 -0.833,-2.083 5,-2.083c5.833,0 7.917,0.833 5.417,2.083Z" style="fill:#f4bc33;fill-rule:nonzero;"/><path d="M1125.833,725c-7.5,1.667 -15,4.167 -16.25,5.833c-4.583,4.167 8.333,2.5 27.917,-3.333c20,-6.25 11.667,-7.917 -11.667,-2.5Z" style="fill:#f4bc33;fill-rule:nonzero;"/><path d="M1714.167,742.083c-1.25,2.083 3.75,3.75 10.417,3.75c7.083,0 12.917,-0.833 12.917,-1.667c0,-3.333 -21.25,-5.417 -23.333,-2.083Z" style="fill:#f4bc33;fill-rule:nonzero;"/><path d="M1811.667,740.417c2.917,1.25 6.667,0.833 7.917,-0.417c1.667,-1.25 -0.833,-2.5 -5.417,-2.083c-4.583,0 -5.833,1.25 -2.5,2.5Z" style="fill:#f4bc33;fill-rule:nonzero;"/><path d="M1104.167,745.833l-10.417,3.333l11.667,0.417c6.25,0.417 11.25,-1.667 11.25,-3.75c0,-2.5 -0.417,-4.167 -0.833,-3.75c-0.833,0.417 -5.833,2.083 -11.667,3.75Z" style="fill:#f4bc33;fill-rule:nonzero;"/><path d="M1106.25,757.917c-7.917,3.333 -7.917,3.333 0.833,7.917c10.417,5.833 33.333,5.833 45,0.417c6.25,-2.5 2.5,-3.333 -12.917,-2.5c-15.833,0.417 -20.833,-0.417 -19.583,-4.583c2.5,-5.417 -0.833,-5.833 -13.333,-1.25Z" style="fill:#f4bc33;fill-rule:nonzero;"/><path d="M1756.25,766.667c-1.667,2.5 3.333,4.167 12.5,4.167c9.167,0 14.167,-1.667 12.5,-4.167c-1.25,-2.5 -7.083,-4.167 -12.5,-4.167c-5.417,0 -11.25,1.667 -12.5,4.167Z" style="fill:#f4bc33;fill-rule:nonzero;"/><path d="M1326.25,773.75c8.333,0.833 22.5,0.833 31.25,0c8.333,-0.833 1.25,-1.667 -15.833,-1.667c-17.083,0 -24.167,0.833 -15.417,1.667Z" style="fill:#f4bc33;fill-rule:nonzero;"/><path d="M1426.25,773.75c3.75,0.833 10.417,0.833 14.583,0c3.75,-1.25 0.417,-2.083 -7.5,-2.083c-7.917,0 -11.25,0.833 -7.083,2.083Z" style="fill:#f4bc33;fill-rule:nonzero;"/><path d="M1559.583,773.75c8.333,0.833 22.5,0.833 31.25,0c8.333,-0.833 1.25,-1.667 -15.833,-1.667c-17.083,0 -24.167,0.833 -15.417,1.667Z" style="fill:#f4bc33;fill-rule:nonzero;"/><path d="M1318.75,825.417c-47.917,1.25 -87.917,2.5 -87.917,2.917c-0.417,0.417 -0.833,17.083 -0.833,37.083c0,20.417 -1.25,57.083 -2.5,82.5c-1.667,25 -3.75,77.5 -5,116.667c-2.5,85 -2.917,90.833 -9.167,92.917c-2.917,0.833 -4.167,3.333 -2.917,5.417c1.25,2.083 0.417,7.5 -2.083,12.083c-5.417,10 -3.75,10 22.5,2.083c33.333,-10 70,-15 83.75,-11.25c21.25,5.833 18.75,20 -9.583,60.417c-14.167,19.583 -14.583,20 -31.667,17.083c-24.583,-3.75 -32.917,-9.167 -30,-18.75c8.333,-27.083 8.333,-25.833 -2.083,-22.5c-17.083,5 -44.583,24.167 -49.167,34.167c-3.75,8.333 -2.5,10.417 15.417,20.417c75.417,42.917 86.25,57.083 67.5,87.917c-9.583,15.833 -32.5,28.75 -62.917,35c-17.083,3.75 -20.417,5.417 -14.583,8.75c3.75,2.083 5.833,5.417 4.583,7.917c-1.667,2.083 -0.833,3.75 1.667,3.75c4.583,0 3.75,141.25 -0.833,148.75c-2.083,3.333 -1.667,5.417 1.25,5.417c2.917,0 3.333,2.5 0,7.917c-2.917,5.833 -2.917,9.167 0,10.833c2.5,1.667 2.917,5 1.25,7.5c-4.583,7.5 -4.167,33.75 0.417,37.083c2.5,1.667 105.833,3.333 229.583,3.75c123.75,0 240.833,1.667 260.417,2.917l35.417,2.917l2.917,83.333c1.667,57.917 5.833,103.75 13.333,150c5.833,36.667 10.833,75.417 10.833,85.833c0,27.917 10.833,60.417 31.667,93.75c23.75,38.333 40.417,76.667 49.167,111.667c4.167,15.417 10.417,34.167 14.583,41.25c8.333,15.833 15.833,40 19.167,63.333c1.25,9.167 3.333,19.167 4.167,22.083c12.083,35 20,234.583 14.583,348.75c-8.75,173.333 -12.917,236.25 -20.833,302.083c-4.583,37.917 -9.167,77.083 -10.417,87.5c-2.917,22.917 -9.167,156.667 -13.333,285.417c-4.167,121.25 -4.167,357.5 -0.417,468.75c2.083,47.083 4.583,123.75 5.833,170.833c2.5,92.5 14.167,218.75 32.5,352.083c3.75,25 6.667,69.583 6.667,99.167c0,52.5 9.167,130 16.667,144.583c4.583,8.75 2.083,205.417 -2.5,213.333c-2.083,3.333 -6.667,-1.667 -12.083,-14.583l-9.167,-19.583l-14.167,10.417c-7.917,5.417 -18.75,12.083 -24.583,14.583c-5.417,2.5 -11.25,6.25 -12.5,7.917c-4.583,7.083 -39.167,17.083 -58.333,17.083c-11.25,0 -21.667,2.083 -23.333,4.583c-2.917,4.583 -32.917,3.333 -55.833,-2.917c-15.833,-3.75 -32.5,-5.417 -63.333,-6.25c-15.833,0 -29.167,-1.667 -30,-3.333c-1.25,-1.667 -11.25,-3.333 -22.083,-3.75c-10.833,-0.417 -47.5,-3.333 -81.25,-6.25c-33.75,-2.917 -64.583,-4.167 -68.75,-2.5c-4.167,1.667 -9.583,1.25 -12.083,-0.833c-2.5,-2.083 -23.75,-4.167 -47.083,-5c-22.917,-0.417 -42.083,-2.083 -42.083,-3.333c0,-2.5 -3.75,-2.917 -70.833,-5.833c-43.75,-2.083 -49.583,-2.5 -84.583,-10c-13.333,-2.917 -26.667,-4.167 -30,-2.917c-3.333,1.25 -6.25,0 -7.083,-2.5c-0.833,-2.083 -7.917,-4.583 -15.833,-5.417c-7.917,-0.833 -15.833,-1.25 -17.5,-1.667c-2.083,-0.417 -3.333,-2.917 -3.333,-6.25c0,-3.333 -3.333,-7.083 -7.083,-8.333c-4.167,-1.25 -14.167,-7.917 -22.083,-15c-7.917,-6.667 -18.333,-12.5 -22.917,-12.917c-4.583,0 -5.833,-1.25 -3.333,-2.5c4.167,-1.25 3.75,-3.333 -0.833,-8.333c-3.333,-3.333 -5.417,-7.5 -4.167,-9.583c1.25,-1.667 -0.417,-5.417 -3.333,-7.917c-7.083,-5.417 -6.25,-12.5 -9.583,91.25c-2.083,70 -1.667,86.667 2.917,90.417c5,4.167 53.333,7.5 150.833,10.417c12.917,0.417 23.75,2.5 23.75,4.583c0,2.083 7.083,3.333 15.833,2.917c8.333,-0.417 16.25,-0.417 17.5,0c8.75,4.167 102.5,5 145,1.25c14.167,-1.25 25.833,-0.417 25.833,1.667c0,2.083 15.833,3.75 35.417,3.75c19.583,-0.417 35.417,-1.667 35.417,-2.917c0,-1.25 16.25,-1.667 36.667,-0.833c45.417,1.667 36.667,1.667 90.417,-0.833c25,-1.25 47.917,-4.583 50.833,-7.083c2.917,-2.5 11.667,-2.917 20,-1.667c7.917,1.667 17.917,0.833 22.083,-1.25c6.667,-3.75 20.417,-5.417 76.25,-10c5.833,-0.417 13.75,-3.333 17.917,-6.667c5.833,-5 6.667,-5 4.583,0c-3.75,9.583 14.167,14.167 60.417,15.417c45.833,1.25 91.667,12.917 91.667,23.75c0,7.5 22.917,15.833 34.167,12.5c6.667,-2.083 8.333,-1.667 5.417,1.667c-2.5,2.083 -10.833,4.583 -18.75,5.417c-7.917,0.417 -15.417,2.083 -16.667,3.75c-1.25,1.667 -17.917,4.167 -36.667,5.833c-19.167,1.25 -41.25,5 -49.583,8.333c-7.917,3.333 -19.583,6.25 -25.417,6.25c-5.833,0 -9.583,1.25 -8.333,2.5c1.667,1.25 24.583,0 51.25,-2.5c35,-3.333 50.417,-3.333 53.333,-0.417c3.333,3.333 2.5,4.583 -3.333,4.583c-7.5,0 -7.5,0 0.417,6.667c5.833,4.583 6.25,5.833 1.25,4.583c-3.75,-1.25 -9.167,-0.417 -12.5,1.667c-4.583,2.917 -4.167,3.75 2.5,3.75c6.25,0 7.083,1.25 2.917,3.75c-3.333,1.667 -5.833,5 -6.25,7.083c-0.417,2.083 -7.917,2.917 -17.083,2.5c-9.583,-1.25 -15,0 -13.333,2.5c1.25,2.083 0,4.167 -2.917,3.75c-26.25,-0.833 -52.917,2.083 -50.833,5.417c3.333,5.417 35.417,5.417 67.083,0c13.333,-2.5 30.833,-5.417 38.333,-6.667c7.083,-1.25 13.333,-3.333 13.333,-5.417c0,-1.667 -5.833,-2.5 -12.5,-1.25c-9.583,1.25 -12.083,0.417 -10.417,-4.167c1.667,-3.75 8.333,-5.417 20.833,-5c14.167,0.417 18.75,-0.833 18.75,-5.417c0,-3.333 -2.5,-5.417 -5,-4.167c-22.083,8.75 -22.5,9.167 -16.25,1.667c4.583,-5.417 12.083,-7.083 35.833,-6.667c33.333,0.417 41.25,3.333 37.5,12.917c-2.917,7.5 -15.417,11.25 -43.75,14.167c-10,1.25 -19.583,3.333 -20.833,5c-2.917,4.583 -43.75,13.333 -62.5,13.333c-8.75,0 -17.5,2.083 -19.167,5c-2.917,4.583 16.25,3.75 69.167,-2.917c7.917,-0.833 2.5,1.25 -12.5,4.583c-46.25,10.833 -75,19.583 -72.917,21.667c0.833,1.25 25,-0.833 52.917,-4.583c86.25,-11.667 125.833,-15 130,-10.833c7.083,6.667 -0.417,8.75 -44.167,12.083c-70.417,5.833 -157.083,20.833 -120.417,20.833c5,0 10,2.917 11.25,6.25c1.667,3.333 5.833,6.25 9.583,6.667c12.5,0.417 -9.167,7.083 -35.417,10.417l-24.583,3.75l20.833,2.083l20.833,2.5l-16.667,5c-40,12.5 -149.583,17.5 -381.25,18.333c-220,0.833 -349.583,-4.167 -400,-14.167c-12.5,-2.917 -24.167,-4.583 -25.833,-4.167c-2.083,0.417 -3.333,-0.833 -3.333,-3.333c0,-2.083 -4.583,-4.167 -10,-4.167c-5.833,0 -15.417,-4.583 -22.083,-10c-19.583,-16.25 -30,-20 -82.5,-29.583c-27.5,-5 -58.75,-13.333 -68.75,-18.333l-18.75,-9.167l22.917,2.5c12.5,1.25 32.5,5 43.75,8.333c29.167,7.917 66.25,12.5 63.333,7.5c-1.667,-2.5 1.667,-3.333 7.5,-2.083c15,2.5 12.917,-6.25 -2.083,-9.583c-6.667,-1.667 -13.333,-4.583 -14.583,-6.667c-1.667,-2.083 -7.917,-3.75 -15,-3.75c-6.667,0 -12.083,-1.667 -12.083,-3.75c0,-2.083 -3.333,-5 -7.083,-5.833c-4.167,-1.25 1.25,-2.083 11.667,-2.5c10.417,0 20.417,-1.667 21.667,-3.333c1.667,-1.25 -7.917,-6.667 -20.833,-12.083c-12.917,-5.417 -25.417,-11.667 -27.5,-13.75c-6.667,-6.667 0,-10.833 7.5,-4.583c3.333,2.917 6.25,3.333 6.25,0.833c0,-2.083 -2.5,-5 -5.833,-6.25c-3.333,-1.25 -5,-5.833 -4.167,-10c1.25,-4.583 -1.25,-10.833 -6.25,-15.417c-4.583,-4.167 -7.083,-10 -6.25,-12.917c1.25,-2.917 -2.083,-17.083 -6.667,-31.667c-7.917,-23.333 -9.167,-36.667 -9.583,-110c-1.25,-115.417 1.667,-143.333 15.417,-161.667c5.833,-7.5 10.833,-17.5 10.833,-22.083c0,-4.167 5,-30.417 10.417,-57.917c9.583,-44.583 24.167,-152.083 29.583,-214.583c0.833,-12.5 3.75,-37.917 5.833,-56.25c10.417,-85.417 17.5,-187.083 25.417,-362.5c4.583,-101.667 2.917,-513.75 -2.5,-597.917c-1.25,-17.083 -4.167,-65 -6.25,-106.25c-7.083,-122.5 -8.75,-143.75 -15,-191.667c-10.833,-79.167 -13.75,-97.917 -26.667,-175c-7.083,-41.25 -14.583,-101.25 -17.083,-133.333c-5,-64.167 -2.083,-265.417 4.583,-320.417c5,-43.333 18.75,-83.333 35.833,-107.917c7.917,-10.833 14.167,-22.083 14.167,-25.417c0,-6.25 33.75,-72.5 46.25,-90c24.167,-35 72.083,-285.833 85,-444.583c2.917,-33.333 2.917,-33.75 -7.083,-35.417c-7.083,-0.833 -10,-4.167 -10.833,-12.917c-0.833,-6.25 -3.333,-10.417 -5.417,-9.167c-2.083,1.667 -3.75,-0.417 -3.75,-4.167c0,-3.75 2.083,-5.417 4.167,-4.167c2.5,1.25 4.167,-0.417 4.167,-3.75c0,-3.75 -2.5,-6.667 -5,-6.667c-4.167,0 -4.167,-0.833 -0.417,-3.333c5,-3.333 9.583,-52.083 10.833,-122.5c0.417,-17.5 2.083,-32.917 3.75,-34.583c1.667,-1.667 1.667,-5.417 0.417,-8.75c-1.25,-3.333 0.833,-7.083 4.583,-8.333c3.75,-1.25 6.667,-4.167 6.667,-6.667c0,-2.083 -1.667,-2.5 -4.167,-1.25c-2.083,1.25 -4.167,0.833 -4.167,-1.667c0,-2.083 2.5,-4.583 5.417,-5.833c2.5,-0.833 -2.083,-2.917 -10.833,-4.583c-15.417,-2.917 -16.25,-3.75 -13.75,-16.25c1.25,-7.5 3.333,-21.25 5,-31.25c2.083,-13.75 5,-18.333 12.5,-20c9.167,-2.5 10,-4.583 10,-32.5c0.417,-16.25 0.417,-84.167 0.417,-151.25c0.417,-121.25 0.417,-121.667 9.167,-123.333l9.167,-1.667l-9.167,-0.833c-10.833,-0.417 -8.75,-12.917 2.5,-13.333c4.583,0 3.333,-1.25 -2.917,-4.167c-10,-3.75 -9.167,-12.083 1.667,-12.083c9.583,0 6.667,-7.5 -3.333,-9.583l-9.583,-1.667l9.583,-3.333c10.833,-3.75 12.083,-9.167 2.083,-11.667c-7.083,-1.667 -7.083,-2.083 0,-2.5c3.75,0 7.083,-1.667 7.5,-3.75c1.25,-11.667 3.333,-40 4.167,-62.5c0.417,-15.833 2.5,-25.833 5.417,-25.833c2.5,0 1.667,-1.667 -1.667,-4.167c-5,-2.917 -5,-4.583 1.25,-11.667c7.083,-7.917 7.083,-8.333 0,-10c-4.167,-0.833 -16.667,-0.833 -28.333,0c-20,1.25 -20.833,2.083 -20.417,13.75c0,6.667 1.667,13.333 2.917,15c1.667,1.25 0.833,5 -1.25,7.917c-3.333,3.333 -2.5,7.083 2.083,11.667c5,5 5.417,6.667 1.25,6.667c-3.333,0 -5.417,5 -5.833,12.5c-0.417,9.583 1.25,12.5 7.083,12.5c4.583,0 7.917,1.667 7.917,4.167c0,2.083 -3.75,4.167 -8.333,4.167c-11.25,0 -10.417,6.667 1.25,10.417l9.167,3.333l-9.167,1.667c-12.917,2.5 -12.083,7.083 2.083,12.5c10,4.167 10.417,4.583 2.083,5c-12.917,0.417 -16.25,8.75 -3.75,8.75c5.833,0 10.833,1.667 10.833,4.167c0,2.083 -5,4.167 -10.833,4.167c-6.667,0 -10,2.083 -8.75,5c0.833,2.917 5.833,5 10.417,4.167c5,-0.833 9.167,0.417 9.167,2.917c0,2.083 -4.167,4.583 -9.167,5.417c-12.5,1.667 -12.5,9.167 0,10.833c11.25,1.667 7.917,9.167 -3.75,9.167c-4.583,0 -7.5,1.667 -6.25,3.75c1.25,2.083 6.667,2.917 11.25,1.667c6.667,-1.667 8.333,-0.833 7.083,3.333c-1.25,3.333 -5.417,5.833 -9.583,5.833c-4.167,0 -8.333,2.5 -9.583,5.417c-1.25,3.75 1.667,4.583 9.167,3.333c7.5,-1.25 10.833,0 10.833,4.167c0,3.333 -4.167,5.833 -10.417,5.833c-5.833,0 -10.417,1.667 -10.417,4.167c0,2.083 4.583,4.167 10.417,4.167c5.833,0 10.417,1.667 10.417,4.167c0,2.083 -4.583,4.167 -10.417,4.167c-5.833,0 -10.417,2.083 -10.417,4.167c0,2.5 4.583,3.333 10.417,2.5c7.083,-1.25 10.417,0 10.417,4.167c0,5.833 -4.583,7.5 -15.417,6.25c-2.917,-0.417 -5.417,1.25 -5.417,3.75c0,2.083 4.583,4.167 10.417,4.167c5.833,0 10.417,1.667 10.417,4.167c0,2.083 -5,4.167 -10.833,4.167c-6.667,0 -10,2.083 -8.75,5c0.833,2.917 5.833,5 10.417,4.167c5,-0.833 9.167,0.833 9.167,2.917c0,2.5 -4.583,4.583 -10.417,4.583c-6.667,0 -10.417,2.5 -10.417,6.667c0,5 2.917,6.25 10.417,5c5.833,-1.25 10.417,-0.417 10.417,1.25c0,2.083 -4.583,3.75 -10.417,3.75c-8.333,0 -10.417,2.083 -10.833,11.25c-1.25,36.25 -2.083,40.833 -6.667,41.25c-2.917,0.417 -7.083,0.833 -9.167,1.25c-2.5,0 -4.167,3.75 -4.167,7.5c-0.417,24.167 -3.333,54.583 -6.25,58.75c-1.667,2.917 -2.083,6.667 -0.833,8.75c1.667,2.083 0.833,8.75 -1.25,14.167c-4.583,12.083 -11.667,62.083 -15,109.167c-1.667,18.333 -3.333,37.917 -4.167,43.75c-7.917,50.417 -22.917,182.917 -22.917,199.583c0,44.167 -26.667,216.667 -41.667,270.833c-5,17.083 -7.5,35.833 -6.25,42.083c7.083,31.667 -69.167,198.333 -112.5,245.833c-31.667,34.583 -49.167,180 -45.833,379.167c1.667,97.917 7.083,137.5 24.583,176.25c5.833,13.333 10.417,27.5 10,31.25c-0.833,3.75 2.083,21.25 5.833,38.333c16.25,74.167 21.667,119.167 20.833,170.833c-0.833,28.75 0.833,65 2.917,81.25c5.417,38.75 10,90.833 10,116.667c0,12.917 0.833,17.917 2.917,12.5c3.333,-9.167 16.667,68.75 16.667,98.75c0.417,10 2.917,35.833 6.25,57.5c6.25,38.75 10.833,103.333 18.333,250l3.75,72.917l-1.667,-66.667c-2.5,-93.333 -2.5,-231.667 0.417,-234.583c1.25,-1.25 2.083,4.583 2.083,12.5c0,8.333 2.083,15.833 4.167,16.667c12.917,4.167 15.833,309.167 3.75,413.75c-5,43.75 -5.833,55.833 -7.083,105c-1.25,54.167 -7.083,32.083 -7.083,-27.083c0,-31.25 -1.25,-61.667 -2.917,-67.5c-1.667,-7.5 -2.917,-4.583 -2.917,10.833c-0.833,53.75 -17.917,135 -28.333,135c-2.5,0 0.417,-18.333 5,-30.417c2.083,-5 1.25,-6.667 -2.917,-5c-5.833,2.5 -15.417,64.583 -17.917,116.667c-0.417,9.167 -2.083,19.583 -3.333,22.917c-1.25,3.333 -4.167,25 -6.667,47.917c-7.5,69.583 -15.417,122.083 -28.75,185.417c-14.583,70 -17.083,82.5 -18.75,93.75c-0.833,4.583 -3.75,12.5 -6.667,17.917c-7.083,13.333 -22.083,83.75 -18.75,88.75c1.25,2.5 -0.833,11.25 -4.583,19.583c-4.167,8.75 -8.75,18.333 -10.417,22.083c-7.5,15.417 -17.083,91.25 -16.25,128.333c0.417,22.083 -0.833,49.167 -2.5,60c-4.167,26.667 9.167,172.083 19.167,205.833c16.667,56.667 34.167,72.917 107.083,99.167c50,17.917 91.667,23.333 267.5,36.25c98.75,7.083 477.917,7.083 556.25,0c32.083,-2.917 89.167,-7.917 127.083,-11.667c78.333,-7.083 171.667,-27.917 208.333,-46.667c25.417,-12.917 34.167,-26.25 50,-79.167c10,-31.667 9.167,-39.167 -2.5,-29.583c-6.667,5.417 -7.083,5 -4.167,-4.583c10.833,-35.417 15,-53.75 15,-66.667c0,-10 1.25,-12.917 3.75,-8.75c3.75,5.833 6.25,-12.5 11.25,-81.25c1.667,-24.583 0.833,-39.167 -1.667,-40.833c-2.5,-1.25 -5.833,-0.833 -7.083,1.667c-2.083,3.333 -4.583,2.917 -8.75,-0.417c-4.583,-3.75 -6.25,-3.333 -7.5,0.833c-3.333,10.833 -10.833,65.833 -10.833,78.333c0,13.333 -7.917,17.083 -20.417,9.167c-4.583,-2.917 -3.75,-4.167 2.917,-6.25c8.75,-2.917 16.25,-15 9.167,-15c-2.5,0 -4.167,-4.167 -4.167,-9.167c0,-5 -1.667,-14.583 -3.75,-21.667c-2.083,-7.083 -7.917,-39.583 -12.5,-72.5c-7.917,-55 -7.917,-60.417 -2.083,-70c8.75,-12.917 16.667,-12.5 30.417,2.083c9.167,9.583 12.083,10.833 16.25,6.25c7.917,-8.75 5.833,-30.417 -5.833,-62.083c-11.25,-30.833 -35,-120 -35,-131.25c0,-3.333 -3.75,-13.75 -8.75,-22.5c-7.5,-14.167 -17.083,-62.083 -22.5,-112.917c-0.833,-7.083 -3.75,-17.917 -5.833,-24.167c-2.5,-6.667 -4.583,-17.083 -4.583,-23.75c0,-6.25 -3.75,-30 -8.75,-52.917c-4.583,-22.5 -8.333,-43.75 -8.333,-47.083c0,-3.333 -2.5,-13.75 -5.833,-22.917c-2.917,-9.167 -6.667,-27.083 -7.917,-39.583c-1.667,-12.5 -5.417,-33.333 -8.75,-45.833c-5.833,-22.083 -5.833,-22.083 -4.583,-5c0.833,9.583 0,16.667 -2.083,15c-2.083,-1.25 -3.75,-7.5 -3.75,-14.167c0,-6.667 -2.5,-13.75 -5.417,-15.417c-3.75,-2.083 -8.333,-24.167 -12.917,-61.667c-4.167,-32.083 -8.75,-70.417 -11.25,-85.417c-10,-70.417 -12.5,-175.417 -10.417,-412.5c2.5,-259.583 3.75,-285 23.333,-379.167c5,-24.167 12.917,-55.833 17.5,-70.417c8.75,-28.75 31.25,-78.333 37.083,-82.083c5.417,-3.333 4.583,1.25 -3.75,18.333c-10,20 -22.917,66.25 -19.583,71.667c1.25,2.083 -1.667,19.167 -6.667,38.333c-12.5,49.167 -20,97.083 -24.583,159.583c-2.083,29.583 -5,64.167 -6.25,75.833c-2.083,15.417 -1.25,22.083 2.083,22.083c3.75,0 4.167,10.833 2.083,40.833c-2.083,29.583 -1.25,38.75 2.083,34.167c3.333,-4.583 3.75,2.5 1.667,27.083c-1.667,18.333 -1.667,32.5 -0.417,31.25c1.25,-1.25 6.25,-41.667 11.25,-89.583c5,-48.333 11.667,-97.083 14.583,-108.333c7.083,-25.417 22.917,-151.25 16.25,-130c-1.25,3.75 -4.167,6.25 -6.25,5c-2.083,-1.667 -1.25,-7.5 2.083,-13.75c6.25,-12.083 11.667,-47.083 12.917,-82.083c0.833,-23.75 8.333,-74.167 14.167,-97.083c2.083,-8.333 5.417,-28.333 7.083,-43.75c1.25,-15.833 7.083,-45 12.5,-64.583c29.167,-104.583 28.333,-99.583 28.75,-246.667c0,-147.917 -2.917,-215 -11.667,-261.25c-3.333,-17.917 -4.167,-29.167 -1.667,-27.5c2.5,1.667 2.917,-1.25 1.25,-7.5c-2.083,-5.417 -3.333,-13.333 -3.75,-17.5c-0.417,-3.75 -2.917,-7.083 -5.833,-7.083c-6.25,0 -13.75,-13.333 -13.75,-23.75c0,-6.25 1.667,-5.833 8.333,2.917c8.333,10.417 8.333,10.417 0,-9.583c-4.583,-11.25 -8.333,-22.083 -8.333,-24.167c0,-1.667 -4.583,-14.167 -10.417,-27.5c-7.5,-16.667 -12.083,-22.5 -14.167,-18.333c-2.5,4.167 -4.167,3.75 -6.25,-1.667c-1.25,-3.75 -4.167,-5.417 -6.667,-4.167c-2.083,1.25 -4.167,0.833 -4.167,-1.667c0,-2.083 -5.417,-12.083 -12.083,-22.083c-21.667,-32.5 -58.75,-132.917 -58.75,-160.417c0,-7.083 -1.667,-14.167 -3.75,-15.417c-1.667,-1.25 -4.583,-11.25 -5.833,-22.083c-1.667,-11.25 -6.25,-37.083 -11.25,-57.5c-10,-44.167 -29.167,-190.417 -29.167,-222.5c0,-12.5 -3.75,-55.833 -8.333,-95.833c-12.917,-117.083 -27.917,-270.833 -41.667,-421.25c-6.667,-76.667 -13.333,-144.167 -14.583,-150c-2.083,-10.417 -5,-49.167 -7.917,-102.083c-0.833,-15.833 -3.333,-29.167 -5,-30c-7.917,-2.5 -395.833,-3.333 -478.75,-0.833Zm309.583,320.833c1.667,14.167 -10,24.167 -32.917,27.083c-21.25,2.5 -35.833,-5 -31.667,-16.667c3.75,-9.583 35.417,-23.75 50.833,-22.5c10,0.833 12.917,3.333 13.75,12.083Zm-161.667,28.333c5.833,4.167 14.167,14.167 18.75,22.083c7.083,13.75 7.5,17.917 3.333,46.667c-5.417,40 -27.917,87.5 -51.25,110.417c-19.583,18.75 -55,37.917 -70.417,37.917c-35,0 -65.417,-24.583 -75.417,-60.417c-10.417,-37.5 3.333,-73.333 44.167,-113.333c52.083,-50.833 98.333,-66.25 130.833,-43.333Zm236.25,-5.417c1.25,3.333 -1.667,10.417 -7.083,16.667c-7.5,7.917 -13.75,10 -28.75,10c-24.583,0 -33.333,-5.417 -27.083,-15.417c7.083,-11.25 22.5,-17.917 42.5,-17.917c12.083,0 18.333,2.083 20.417,6.667Zm-99.583,31.25c0.833,3.75 -5.417,16.25 -12.917,28.333c-7.917,12.083 -18.75,33.333 -23.333,47.5c-26.667,75 -53.75,122.5 -86.667,150.417c-20.417,17.917 -33.75,23.333 -55.833,23.333c-28.333,0 -47.5,-27.083 -29.583,-42.5c13.75,-12.083 26.25,-17.083 31.25,-12.083c2.5,2.5 9.583,4.583 15.833,4.583c15,0 35.417,-24.167 43.333,-52.083c3.333,-11.667 10,-35 15,-52.083c4.583,-17.083 12.5,-37.5 17.083,-45c8.333,-13.75 7.5,-23.333 -1.667,-14.167c-2.917,2.917 -7.5,5 -10.417,5c-7.5,0 -7.083,-26.667 0.833,-33.333c19.167,-15.833 94.167,-22.083 97.083,-7.917Zm71.25,15.833c5,3.333 2.083,12.5 -16.25,51.25c-12.083,25.833 -27.083,61.25 -32.917,78.333c-10,28.75 -12.083,31.25 -23.75,32.5c-18.75,1.667 -27.917,-10.417 -27.5,-37.5c0.417,-40 32.5,-116.25 52.083,-124.167c12.083,-5 40.833,-5 48.333,-0.417Zm190.417,454.583c2.5,26.25 7.083,59.167 9.583,72.5c5.417,30 5.833,59.583 0.833,62.5c-6.667,4.167 -7.083,1.25 -29.167,-156.667c-3.333,-25.833 -2.5,-29.167 7.5,-27.5c5,1.25 7.5,12.083 11.25,49.167Zm-53.75,-17.917c-0.833,6.667 -1.667,2.083 -1.667,-9.167c0,-11.667 0.833,-16.667 1.667,-11.667c0.833,5.417 0.833,14.583 0,20.833Zm-902.917,1361.25c0,10.833 -2.5,7.5 -5.833,-7.917c-2.083,-9.167 -1.667,-10.833 1.667,-6.25c2.083,3.333 4.167,10 4.167,14.167Zm20.417,129.167c0.417,22.5 -2.083,17.5 -5,-10c-1.667,-15 -1.25,-20 1.25,-14.583c2.083,4.583 3.75,15.833 3.75,24.583Zm3.333,38.75c-1.25,4.167 -2.083,1.667 -2.083,-5c0,-7.083 0.833,-10 2.083,-7.5c0.833,2.917 0.833,8.75 0,12.5Zm1041.667,39.583c-1.25,3.333 -2.5,2.083 -2.5,-2.5c-0.417,-4.583 0.833,-7.083 2.083,-5.417c1.25,1.25 1.667,5 0.417,7.917Zm-1033.333,104.167c-1.25,2.917 -2.083,0.833 -2.083,-5c0,-5.833 0.833,-7.917 2.083,-5.417c0.833,2.917 0.833,7.917 0,10.417Zm1020.833,25c-1.25,2.917 -2.083,0.833 -2.083,-5c0,-5.833 0.833,-7.917 2.083,-5.417c0.833,2.917 0.833,7.917 0,10.417Zm-54.167,543.75c-0.833,6.667 -1.667,1.25 -1.667,-11.25c0,-12.5 0.833,-17.917 1.667,-11.667c0.833,6.667 0.833,16.667 0,22.917Zm4.167,41.667c-1.25,4.167 -2.083,0.833 -2.083,-7.083c0,-7.917 0.833,-11.25 2.083,-7.5c0.833,4.167 0.833,10.833 0,14.583Zm-975,22.917c-1.25,2.917 -2.083,0.833 -2.083,-5c0,-5.833 0.833,-7.917 2.083,-5.417c0.833,2.917 0.833,7.917 0,10.417Zm1050.833,124.167c0,3.75 -1.667,3.333 -3.75,-2.083c-2.083,-4.583 -3.75,-11.25 -3.75,-14.583c0,-3.75 1.667,-3.333 3.75,2.083c2.083,4.583 3.75,11.25 3.75,14.583Zm32.917,522.917c0,6.667 -0.833,6.25 -3.333,-2.083c-1.667,-5.833 -3.333,-15 -3.333,-20.833c0,-9.167 0.417,-9.167 3.333,2.083c1.667,6.667 3.333,16.25 3.333,20.833Zm66.667,232.083c1.25,11.25 -12.917,44.583 -21.667,50c-2.5,1.667 -8.75,3.333 -13.75,3.333c-12.083,0 -12.917,-12.5 -1.25,-22.917c4.583,-4.167 8.333,-10 8.333,-12.5c0,-2.917 2.917,-7.5 6.25,-10.417c3.333,-2.917 6.25,-8.75 6.25,-13.333c0,-12.917 14.167,-7.5 15.833,5.833Zm-74.167,21.667c0,1.25 -1.667,3.333 -4.167,4.583c-2.083,1.25 -4.167,0.417 -4.167,-1.667c0,-2.5 2.083,-4.583 4.167,-4.583c2.5,0 4.167,0.833 4.167,1.667Zm-1152.083,73.333c1.25,2.083 0.833,4.167 -1.667,4.167c-2.083,0 -5.417,-2.083 -6.667,-4.167c-1.25,-2.5 -0.833,-4.167 1.667,-4.167c2.083,0 5.417,1.667 6.667,4.167Zm1156.25,10.417c-7.917,2.917 -20,5.417 -27.083,5.417l-12.5,0l12.5,-5.417c7.083,-3.333 19.167,-5.833 27.083,-5.833l14.583,0.417l-14.583,5.417Zm-1009.167,77.5c7.083,2.083 1.25,2.5 -15.833,0.833c-15,-1.25 -31.667,-4.167 -37.5,-5.833c-6.25,-2.083 0,-2.5 15.833,-1.25c14.583,1.667 31.667,4.167 37.5,6.25Z" style="fill:#f4bc33;fill-rule:nonzero;"/><path d="M1384.167,1245.833c-33.333,52.083 -41.25,71.25 -35,85.417c16.667,36.25 80,-24.167 80,-76.667c0,-16.667 -11.25,-50.417 -16.667,-50c-1.25,0 -13.75,18.333 -28.333,41.25Z" style="fill:#f4bc33;fill-rule:nonzero;"/><path d="M1079.167,1125c0,2.083 2.083,4.167 4.167,4.167c2.5,0 4.167,-2.083 4.167,-4.167c0,-2.5 -1.667,-4.167 -4.167,-4.167c-2.083,0 -4.167,1.667 -4.167,4.167Z" style="fill:#f4bc33;fill-rule:nonzero;"/><path d="M1078.333,1161.25c2.917,1.25 6.667,0.833 7.917,-0.417c1.667,-1.25 -0.833,-2.5 -5.417,-2.083c-4.583,0 -5.833,1.25 -2.5,2.5Z" style="fill:#f4bc33;fill-rule:nonzero;"/><path d="M1197.917,1309.167c-5.417,8.333 -5.833,9.583 -0.417,10.833c10,2.083 23.333,-7.083 20.833,-13.75c-3.75,-9.167 -12.917,-7.5 -20.417,2.917Z" style="fill:#f4bc33;fill-rule:nonzero;"/><path d="M1719.583,1694.583c0.833,34.167 3.333,70.833 5,82.5c2.917,15 3.333,5.417 2.5,-35.417c-0.833,-30.833 -1.667,-67.917 -1.667,-82.5c-0.417,-14.167 -2.083,-25.833 -3.75,-25.833c-2.083,0 -2.917,27.5 -2.083,61.25Z" style="fill:#f4bc33;fill-rule:nonzero;"/><path d="M1056.667,2346.667c-7.917,75.417 -6.667,269.583 2.917,360.833c3.333,34.167 6.25,21.667 6.667,-31.25c0.833,-78.75 3.75,-154.583 7.5,-193.75c6.667,-67.917 0.417,-161.667 -10.833,-161.667c-1.667,0 -4.583,11.667 -6.25,25.833Z" style="fill:#f4bc33;fill-rule:nonzero;"/><path d="M2084.583,2504.167c0,10.417 0.833,14.583 1.667,9.167c0.833,-5 0.833,-13.333 0,-18.75c-0.833,-5 -1.667,-0.833 -1.667,9.583Z" style="fill:#f4bc33;fill-rule:nonzero;"/><path d="M2079.167,2597.917c0,7.917 0.833,14.583 1.667,14.583c0.833,0 2.5,-6.667 3.333,-14.583c0.833,-7.917 0,-14.583 -1.667,-14.583c-1.667,0 -3.333,6.667 -3.333,14.583Z" style="fill:#f4bc33;fill-rule:nonzero;"/><path d="M894.167,3252.083c1.25,25 3.75,65.833 5.833,90.417c7.083,83.75 9.583,330 4.583,447.083c-2.917,61.667 -5.833,115.833 -7.083,119.583c-1.25,4.167 -0.417,7.5 1.667,7.5c3.75,0 7.5,-17.083 15.833,-70.833c7.083,-44.167 8.333,-376.25 1.667,-447.917c-2.5,-27.5 -6.25,-69.583 -8.75,-93.75c-2.083,-24.167 -6.667,-55.833 -10,-70.833l-5.833,-27.083l2.083,45.833Z" style="fill:#f4bc33;fill-rule:nonzero;"/><path d="M2000,3292.917c0,6.25 -1.667,11.25 -3.333,11.25c-10,0 -21.25,166.25 -21.667,310.417c0,98.75 7.5,220.833 16.667,263.75l7.917,36.25l-2.917,-87.5c-4.167,-122.5 -2.083,-422.917 3.333,-487.083c2.5,-29.583 3.333,-54.583 2.083,-55.833c-1.25,-1.25 -2.083,2.917 -2.083,8.75Z" style="fill:#f4bc33;fill-rule:nonzero;"/><path d="M1954.583,3440c0,4.583 1.25,5.833 2.5,2.5c1.25,-2.917 0.833,-6.667 -0.417,-7.917c-1.25,-1.667 -2.5,0.833 -2.083,5.417Z" style="fill:#f4bc33;fill-rule:nonzero;"/><path d="M1955.417,3470.833c0,10.417 0.833,14.583 1.667,9.167c0.833,-5 0.833,-13.333 0,-18.75c-0.833,-5 -1.667,-0.833 -1.667,9.583Z" style="fill:#f4bc33;fill-rule:nonzero;"/><path d="M934.583,3739.583c0,18.333 0.833,25.417 1.667,15.417c0.833,-9.583 0.833,-24.583 0,-33.333c-0.833,-8.333 -1.667,-0.417 -1.667,17.917Z" style="fill:#f4bc33;fill-rule:nonzero;"/><path d="M1971.667,3962.5c0,5.833 0.833,7.917 2.083,5c0.833,-2.5 0.833,-7.5 0,-10.417c-1.25,-2.5 -2.083,-0.417 -2.083,5.417Z" style="fill:#f4bc33;fill-rule:nonzero;"/><path d="M2117.5,4629.167c0,5.833 0.833,7.917 2.083,5c0.833,-2.5 0.833,-7.5 0,-10.417c-1.25,-2.5 -2.083,-0.417 -2.083,5.417Z" style="fill:#f4bc33;fill-rule:nonzero;"/><path d="M1890,4673.333c-1.667,4.167 -0.833,9.167 1.25,11.25c2.917,2.917 5.417,2.083 7.083,-2.917c1.667,-4.167 0.833,-9.167 -1.25,-11.25c-2.917,-2.917 -5.417,-2.083 -7.083,2.917Z" style="fill:#f4bc33;fill-rule:nonzero;"/><path d="M1376.667,4729.583c-1.25,2.083 2.5,3.75 8.333,3.75c12.917,0 14.167,-2.5 2.5,-5.417c-4.583,-1.25 -9.583,-0.417 -10.833,1.667Z" style="fill:#f4bc33;fill-rule:nonzero;"/><path d="M1060.417,4887.083c-4.583,2.083 -7.5,4.167 -6.25,4.583c4.167,1.25 32.083,4.167 80.417,7.917c27.083,2.083 50.417,5 52.083,6.667c1.667,1.667 -12.083,2.083 -30.417,0.417c-95.417,-7.083 -116.667,-7.5 -112.083,-2.917c5,5.417 267.5,15.833 279.583,10.833c4.167,-1.25 41.25,-2.5 82.5,-2.5c41.25,0 86.25,-1.667 100,-2.917c13.75,-1.667 36.25,-1.25 50,0.833c25.833,3.75 187.083,3.75 207.5,0c17.083,-3.333 13.333,-10.417 -4.167,-8.333c-8.75,1.25 -37.5,2.917 -63.75,4.167c-63.333,2.083 -35,-3.333 52.083,-10.833c57.083,-4.583 62.917,-5.833 41.667,-7.5c-13.75,-1.25 -48.333,-0.833 -77.083,1.25c-51.667,3.75 -208.333,5 -264.583,2.083c-15.833,-0.833 -33.333,0 -38.333,1.667c-5.833,1.667 -9.583,1.25 -9.583,-0.833c0,-2.5 -4.583,-3.333 -10,-1.667c-5.417,1.25 -11.25,0.417 -12.5,-2.083c-4.167,-6.25 -15,-5.833 -28.75,1.667c-9.167,4.583 -25.833,5.417 -85.417,3.75c-40.417,-0.833 -82.083,-2.5 -92.5,-3.333c-68.75,-5.417 -103.333,-6.25 -110.417,-2.917Zm189.583,17.083c0,2.083 -4.167,4.167 -9.167,4.167c-7.917,0 -8.333,-0.833 -3.333,-4.167c7.917,-5.417 12.5,-5.417 12.5,0Zm58.333,3.75c18.333,3.333 18.333,3.75 -9.167,4.167c-15.417,0 -29.167,-1.667 -30.417,-3.75c-2.917,-5 12.917,-5 39.583,-0.417Zm334.583,-0.833c-2.917,0.833 -8.75,0.833 -12.5,0c-4.167,-1.25 -1.667,-2.083 5,-2.083c7.083,0 10,0.833 7.5,2.083Zm-29.167,4.167c-5.417,0.833 -13.75,0.833 -18.75,0c-5.417,-0.833 -1.25,-1.667 9.167,-1.667c10.417,0 14.583,0.833 9.583,1.667Z" style="fill:#f4bc33;fill-rule:nonzero;"/><path d="M1816.667,4891.667c0,5.417 8.333,5.417 16.667,0c5,-3.333 3.75,-4.167 -5,-4.167c-6.667,0 -11.667,1.667 -11.667,4.167Z" style="fill:#f4bc33;fill-rule:nonzero;"/><path d="M1526.25,4915.417c3.75,0.833 10.417,0.833 14.583,0c3.75,-1.25 0.417,-2.083 -7.5,-2.083c-7.917,0 -11.25,0.833 -7.083,2.083Z" style="fill:#f4bc33;fill-rule:nonzero;"/><path d="M1106.25,4942.083c9.167,1.667 18.75,1.667 21.667,0.833c2.917,-1.25 5.417,-0.417 5.417,1.667c0,2.5 103.75,3.75 280.417,2.5c153.75,-0.833 287.083,-1.25 295.417,-1.25c8.333,0 16.25,-1.667 17.5,-3.333c0.833,-1.667 -142.083,-2.917 -317.5,-2.917c-175.833,0 -312.083,1.25 -302.917,2.5Z" style="fill:#f4bc33;fill-rule:nonzero;"/><path d="M1824.167,4940.417c2.917,1.25 6.667,0.833 7.917,-0.417c1.667,-1.25 -0.833,-2.5 -5.417,-2.083c-4.583,0 -5.833,1.25 -2.5,2.5Z" style="fill:#f4bc33;fill-rule:nonzero;"/><path d="M961.667,4948.75c2.917,1.25 6.667,0.833 7.917,-0.417c1.667,-1.25 -0.833,-2.5 -5.417,-2.083c-4.583,0 -5.833,1.25 -2.5,2.5Z" style="fill:#f4bc33;fill-rule:nonzero;"/><path d="M1170,4969.583c2.917,1.25 6.667,0.833 7.917,-0.417c1.667,-1.25 -0.833,-2.5 -5.417,-2.083c-4.583,0 -5.833,1.25 -2.5,2.5Z" style="fill:#f4bc33;fill-rule:nonzero;"/><path d="M1401.25,4969.583c8.333,0.833 22.5,0.833 31.25,0c8.333,-0.833 1.25,-1.667 -15.833,-1.667c-17.083,0 -24.167,0.833 -15.417,1.667Z" style="fill:#f4bc33;fill-rule:nonzero;"/><path d="M1011.667,4973.75c2.917,1.25 6.667,0.833 7.917,-0.417c1.667,-1.25 -0.833,-2.5 -5.417,-2.083c-4.583,0 -5.833,1.25 -2.5,2.5Z" style="fill:#f4bc33;fill-rule:nonzero;"/></g></svg>