<?xml version="1.0" encoding="UTF-8" standalone="no"?><!DOCTYPE svg PUBLIC "-//W3C//DTD SVG 1.1//EN" "http://www.w3.org/Graphics/SVG/1.1/DTD/svg11.dtd"><svg width="100%" height="100%" viewBox="0 0 12450 22225" version="1.1" xmlns="http://www.w3.org/2000/svg" xmlns:xlink="http://www.w3.org/1999/xlink" xml:space="preserve" xmlns:serif="http://www.serif.com/" style="fill-rule:evenodd;clip-rule:evenodd;stroke-linejoin:round;stroke-miterlimit:2;"><rect x="0" y="0" width="12450" height="22225"/><g><path d="M6180.554,878.471c501.737,31.25 682.292,48.612 706.596,64.237c12.154,6.946 36.458,3.471 53.821,-6.946c20.833,-13.887 46.875,-15.625 65.971,-6.946c19.096,8.679 60.763,15.625 93.75,17.362c32.988,0 104.167,6.946 156.25,13.888c60.763,8.679 86.804,6.946 69.446,-1.737c-74.654,-46.875 -835.071,-109.375 -1276.042,-104.167l-243.054,1.738l373.263,22.571Z" style="fill:#f4bc33;fill-rule:nonzero;"/><path d="M6836.804,1197.917c5.208,222.221 5.208,225.696 -34.721,243.054c-38.196,15.625 -36.458,17.362 10.417,12.154l52.083,-3.471l0,-232.638c1.737,-140.625 -5.208,-236.112 -15.625,-239.583c-10.417,-3.471 -15.625,74.654 -12.154,220.488l0,-0.004Z" style="fill:#f4bc33;fill-rule:nonzero;"/><path d="M5718.75,1171.875c0,104.167 1.738,145.833 5.208,90.279c3.471,-55.554 3.471,-140.625 0,-190.971c-3.471,-50.346 -5.208,-5.208 -5.208,100.696l0,-0.004Z" style="fill:#f4bc33;fill-rule:nonzero;"/><path d="M7102.429,1093.75l3.471,112.846l12.154,-95.488c6.946,-52.083 5.208,-102.429 -1.738,-112.846c-8.679,-8.679 -13.887,32.987 -13.887,95.487Z" style="fill:#f4bc33;fill-rule:nonzero;"/><path d="M7430.554,996.529c0,5.208 17.362,27.779 39.929,50.346c27.779,29.513 48.613,38.196 72.917,29.513c29.512,-10.417 24.304,-17.363 -38.196,-50.346c-41.667,-20.833 -74.654,-32.988 -74.654,-29.513l0.004,-0Z" style="fill:#f4bc33;fill-rule:nonzero;"/><path d="M7001.738,1067.708c0,38.196 3.471,52.083 6.946,29.513c3.471,-20.833 3.471,-52.083 0,-69.446c-5.208,-15.625 -8.679,1.738 -6.946,39.929l0,0.004Z" style="fill:#f4bc33;fill-rule:nonzero;"/><path d="M5536.458,1206.596c-6.946,95.487 -8.679,177.083 -5.208,180.554c19.096,20.833 24.304,-27.779 20.833,-182.292l-5.208,-171.875l-10.417,173.613Z" style="fill:#f4bc33;fill-rule:nonzero;"/><path d="M5230.904,1128.471c0,43.404 3.471,60.763 6.946,38.196c3.471,-20.833 3.471,-55.554 0,-78.125c-3.471,-20.833 -6.946,-3.471 -6.946,39.929Z" style="fill:#f4bc33;fill-rule:nonzero;"/><path d="M5371.529,1223.958c0,95.487 1.737,131.946 5.208,81.596c3.471,-50.346 3.471,-128.471 0,-173.612c-3.471,-45.138 -5.208,-3.471 -5.208,92.012l0,0.004Z" style="fill:#f4bc33;fill-rule:nonzero;"/><path d="M7171.875,1104.167c0,19.096 5.208,24.304 10.417,10.417c5.208,-12.154 3.471,-27.779 -1.737,-32.987c-5.208,-6.946 -10.417,3.471 -8.679,22.571Z" style="fill:#f4bc33;fill-rule:nonzero;"/><path d="M7586.804,1100.696c0,15.625 8.679,27.779 17.362,27.779c10.417,0 17.363,-6.946 17.363,-15.625c0,-10.417 -6.946,-22.571 -17.363,-27.779c-8.679,-5.208 -17.362,1.737 -17.362,15.625Z" style="fill:#f4bc33;fill-rule:nonzero;"/><path d="M6689.238,1223.958c0,65.971 3.471,92.012 6.946,55.554c3.471,-34.721 3.471,-90.279 0,-121.529c-3.471,-29.513 -6.946,-1.737 -6.946,65.971l0,0.004Z" style="fill:#f4bc33;fill-rule:nonzero;"/><path d="M7449.654,1156.25c0,19.096 5.208,24.304 10.417,10.417c5.208,-12.154 3.471,-27.779 -1.737,-32.987c-5.208,-6.946 -10.417,3.471 -8.679,22.571Z" style="fill:#f4bc33;fill-rule:nonzero;"/><path d="M7607.638,1206.596c0,27.779 3.471,38.196 8.679,20.833c3.471,-15.625 3.471,-39.929 0,-52.083c-5.208,-10.417 -8.679,1.737 -8.679,31.25Z" style="fill:#f4bc33;fill-rule:nonzero;"/><path d="M5074.654,1284.721c0,62.5 3.471,86.804 6.946,55.554c3.471,-29.513 3.471,-81.596 0,-112.846c-3.471,-29.513 -6.946,-5.208 -6.946,57.292Z" style="fill:#f4bc33;fill-rule:nonzero;"/><path d="M6045.138,1223.958c0,27.779 3.471,38.196 8.679,20.833c3.471,-15.625 3.471,-39.929 0,-52.083c-5.208,-10.417 -8.679,1.737 -8.679,31.25Z" style="fill:#f4bc33;fill-rule:nonzero;"/><path d="M7262.154,1310.763c0,65.971 3.471,92.013 6.946,55.554c3.471,-34.721 3.471,-90.279 0,-121.529c-3.471,-29.513 -6.946,-1.737 -6.946,65.971l0,0.004Z" style="fill:#f4bc33;fill-rule:nonzero;"/><path d="M7366.321,1328.125c0,46.875 3.471,65.971 6.946,38.196c3.471,-26.042 3.471,-64.237 0,-86.804c-3.471,-20.833 -6.946,0 -6.946,48.612l0,-0.004Z" style="fill:#f4bc33;fill-rule:nonzero;"/><path d="M5213.542,1336.804c0,43.404 3.471,60.763 6.946,38.196c3.471,-20.833 3.471,-55.554 0,-78.125c-3.471,-20.833 -6.946,-3.471 -6.946,39.929Z" style="fill:#f4bc33;fill-rule:nonzero;"/><path d="M7119.792,1347.221c0,19.096 5.208,24.304 10.417,10.417c5.208,-12.154 3.471,-27.779 -1.738,-32.987c-5.208,-6.946 -10.417,3.471 -8.679,22.571Z" style="fill:#f4bc33;fill-rule:nonzero;"/><path d="M6038.196,1394.096c-5.208,32.987 -3.471,43.404 6.946,32.987c10.417,-10.417 13.888,-31.25 10.417,-48.612c-5.208,-24.304 -8.679,-20.833 -17.363,15.625Z" style="fill:#f4bc33;fill-rule:nonzero;"/><path d="M7121.529,1423.612c0,24.304 3.471,32.987 8.679,20.833c3.471,-10.417 3.471,-31.25 0,-43.404c-5.208,-10.417 -8.679,-1.737 -8.679,22.571Z" style="fill:#f4bc33;fill-rule:nonzero;"/><path d="M6710.071,1423.612c-5.208,8.679 -1.737,17.362 6.946,17.362c10.417,0 19.096,-8.679 19.096,-17.362c0,-10.417 -3.471,-17.362 -6.946,-17.362c-5.208,0 -13.887,6.946 -19.096,17.362Z" style="fill:#f4bc33;fill-rule:nonzero;"/><path d="M5824.654,1440.971c-5.208,8.679 1.737,17.362 17.362,17.362c15.625,0 22.571,-8.679 17.362,-17.362c-5.208,-10.417 -13.887,-17.362 -17.362,-17.362c-3.471,0 -12.154,6.946 -17.362,17.362Z" style="fill:#f4bc33;fill-rule:nonzero;"/><path d="M6555.554,1442.708c10.417,19.096 93.75,20.833 93.75,1.737c0,-6.946 -22.571,-12.154 -52.083,-13.888c-27.779,-1.737 -46.875,5.208 -41.667,12.154l0,-0.004Z" style="fill:#f4bc33;fill-rule:nonzero;"/><path d="M5656.25,1453.125c12.154,5.208 27.779,3.471 32.988,-1.737c6.946,-5.208 -3.471,-10.417 -22.571,-8.679c-19.096,0 -24.304,5.208 -10.417,10.417Z" style="fill:#f4bc33;fill-rule:nonzero;"/><path d="M5142.363,1510.417c-133.679,19.096 -137.154,41.667 -3.471,27.779c62.5,-5.208 293.404,-15.625 512.154,-19.096c300.346,-6.946 388.888,-5.208 355.904,10.417c-24.304,10.417 -109.375,24.304 -190.971,31.25c-81.596,5.208 173.613,10.417 567.708,10.417c484.375,0 704.862,-5.208 685.762,-17.362c-17.362,-10.417 -230.904,-19.096 -505.208,-22.571c-296.875,-3.471 -467.013,-12.154 -451.388,-22.571c29.513,-19.096 -836.804,-17.362 -970.487,1.737l-0.004,0Z" style="fill:#f4bc33;fill-rule:nonzero;"/><path d="M6159.721,1505.208c12.154,5.208 27.779,3.471 32.988,-1.737c6.946,-5.208 -3.471,-10.417 -22.571,-8.679c-19.096,0 -24.304,5.208 -10.417,10.417Z" style="fill:#f4bc33;fill-rule:nonzero;"/><path d="M7560.763,1526.042c5.208,20.833 -5.208,41.667 -32.987,62.5c-48.613,36.458 -43.404,60.763 10.417,60.763c29.513,0 31.25,3.471 13.888,26.042c-17.362,22.571 -15.625,26.042 13.888,26.042c45.137,0 90.279,-43.404 90.279,-88.542c0,-17.362 8.679,-32.987 20.833,-32.987c31.25,0 -41.667,-62.5 -86.804,-72.917c-32.988,-8.679 -38.196,-5.208 -29.513,19.096l0,0.004Z" style="fill:#f4bc33;fill-rule:nonzero;"/><path d="M5928.821,1600.696c-237.846,8.679 -465.279,22.571 -503.471,31.25c-46.875,12.154 10.417,12.154 182.292,5.208c305.554,-15.625 753.471,-15.625 1171.875,0c223.958,6.946 289.929,5.208 234.375,-6.946c-239.583,-52.083 -347.221,-55.554 -1085.071,-29.513Z" style="fill:#f4bc33;fill-rule:nonzero;"/><path d="M7343.75,1666.667c24.304,6.946 74.654,13.888 112.846,13.888c65.971,0 67.708,-1.737 17.363,-13.888c-27.779,-6.946 -79.863,-13.888 -112.846,-13.888c-55.554,0 -57.292,1.737 -17.362,13.888Z" style="fill:#f4bc33;fill-rule:nonzero;"/><path d="M6637.154,1730.904c26.042,3.471 64.237,3.471 86.804,0c20.833,-3.471 0,-6.946 -48.613,-6.946c-46.875,0 -65.971,3.471 -38.196,6.946l0.004,0Z" style="fill:#f4bc33;fill-rule:nonzero;"/><path d="M7569.446,1734.375c0,8.679 -20.833,24.304 -46.875,32.987c-45.137,17.362 -41.667,17.362 36.458,19.096c83.333,1.737 85.071,1.737 53.821,-32.987c-34.721,-38.196 -43.404,-41.667 -43.404,-19.096Z" style="fill:#f4bc33;fill-rule:nonzero;"/><path d="M5472.221,1753.471c-137.154,6.946 -253.471,17.362 -258.679,24.304c-6.946,5.208 12.154,12.154 39.929,12.154c43.404,3.471 39.929,5.208 -19.096,15.625c-78.125,13.888 430.554,3.471 781.25,-17.362l225.696,-12.154l-187.5,-3.471c-119.792,0 -184.029,-8.679 -177.083,-19.096c12.154,-19.096 -19.096,-19.096 -404.513,0l-0.004,0Zm218.75,29.513c-26.042,3.471 -72.917,3.471 -104.167,0c-31.25,-3.471 -10.417,-6.946 46.875,-6.946c57.292,0 83.333,3.471 57.292,6.946Z" style="fill:#f4bc33;fill-rule:nonzero;"/><path d="M7470.488,1835.071c-78.125,10.417 -71.179,34.721 12.154,48.612c71.179,12.154 131.946,-12.154 111.113,-45.138c-8.679,-15.625 -20.833,-15.625 -123.263,-3.471l-0.004,-0.004Z" style="fill:#f4bc33;fill-rule:nonzero;"/><path d="M6467.013,1855.904c-100.696,24.304 171.875,41.667 361.113,24.304c97.221,-10.417 243.054,-15.625 324.654,-13.888l147.571,5.208l-121.529,-13.888c-152.779,-15.625 -642.362,-17.362 -711.804,-1.737l-0.004,0Z" style="fill:#f4bc33;fill-rule:nonzero;"/><path d="M7194.446,1944.446c166.667,20.833 352.429,67.708 375,97.221c26.042,29.513 6.946,59.029 -39.929,60.763c-34.721,1.738 -34.721,3.471 5.208,15.625c24.304,6.946 67.708,13.888 95.488,15.625c76.387,1.738 72.917,-60.763 -3.471,-107.638c-62.5,-36.458 -74.654,-64.237 -27.779,-64.237c15.625,0 24.304,-3.471 19.096,-8.679c-5.208,-5.208 -130.208,-13.888 -276.042,-17.362c-204.862,-5.208 -239.583,-1.737 -147.571,8.679l0,0.004Z" style="fill:#f4bc33;fill-rule:nonzero;"/><path d="M5564.238,1998.263c-142.363,8.679 -282.988,22.571 -312.5,32.987c-45.138,15.625 -41.667,15.625 34.721,8.679c48.612,-5.208 223.958,-13.888 390.625,-19.096c166.667,-6.946 319.446,-17.362 338.542,-26.042c43.404,-17.362 -97.221,-15.625 -451.387,3.471Z" style="fill:#f4bc33;fill-rule:nonzero;"/><path d="M6736.113,2015.625c0,12.154 -24.304,13.888 -67.708,6.946c-41.667,-6.946 -72.917,-3.471 -79.863,6.946c-6.946,12.154 15.625,19.096 64.238,19.096c41.667,0 128.471,5.208 194.446,12.154c88.542,6.946 116.321,5.208 107.638,-8.679c-6.946,-12.154 -52.083,-20.833 -98.958,-20.833c-53.821,0 -83.333,-6.946 -76.388,-17.362c5.208,-10.417 -1.737,-17.362 -15.625,-17.362c-15.625,0 -27.779,8.679 -27.779,19.096Z" style="fill:#f4bc33;fill-rule:nonzero;"/><path d="M5881.946,2043.404c48.613,3.471 131.946,3.471 182.292,0c48.612,-3.471 8.679,-5.208 -92.013,-5.208c-100.696,0 -140.625,1.737 -90.279,5.208Z" style="fill:#f4bc33;fill-rule:nonzero;"/><path d="M5581.596,2135.417c-8.679,13.887 137.154,17.363 489.583,15.625c274.304,-1.738 536.458,1.738 583.333,10.417c45.138,6.946 157.988,6.946 251.738,-1.738l168.404,-15.625l-121.529,-8.679c-237.846,-19.096 -1359.375,-19.096 -1371.529,0Z" style="fill:#f4bc33;fill-rule:nonzero;"/><path d="M7423.613,2151.042c-10.417,15.625 83.333,36.458 161.458,36.458c41.667,0 41.667,0 8.679,-26.042c-36.458,-27.779 -156.25,-34.721 -170.138,-10.417Z" style="fill:#f4bc33;fill-rule:nonzero;"/><path d="M6937.5,2218.75c-5.208,8.679 67.708,24.304 185.762,38.196c105.904,12.154 248.263,32.988 312.5,45.137c159.721,32.988 189.238,29.512 116.321,-10.417l-60.763,-32.988l78.125,-1.738c69.446,-1.738 74.654,-3.471 43.404,-22.571c-43.404,-26.042 -659.721,-41.667 -675.346,-15.625l-0.004,0.004Z" style="fill:#f4bc33;fill-rule:nonzero;"/><path d="M5416.667,2309.029c-79.862,17.362 201.388,17.362 460.071,0c185.762,-10.417 182.292,-12.154 -104.167,-12.154c-161.458,0 -322.917,5.208 -355.904,12.154Z" style="fill:#f4bc33;fill-rule:nonzero;"/><path d="M6640.625,2324.654c-10.417,8.679 -32.988,19.096 -52.083,22.571c-65.971,13.887 364.583,29.512 451.388,15.625c85.071,-10.417 81.596,-12.154 -92.013,-32.988c-211.804,-24.304 -286.458,-26.042 -307.292,-5.208Z" style="fill:#f4bc33;fill-rule:nonzero;"/><path d="M5534.721,2355.904c29.513,3.471 81.596,3.471 112.846,0c29.513,-3.471 5.208,-6.946 -57.292,-6.946c-62.5,0 -86.804,3.471 -55.554,6.946Z" style="fill:#f4bc33;fill-rule:nonzero;"/><path d="M7595.488,2361.113c-5.208,8.679 -5.208,24.304 0,34.721c6.946,10.417 -60.763,13.887 -185.763,8.679c-204.862,-6.946 -156.25,1.737 189.238,34.721c137.154,12.154 142.362,12.154 133.679,-22.571c-13.887,-50.346 -114.583,-92.012 -137.154,-55.554l0,0.004Z" style="fill:#f4bc33;fill-rule:nonzero;"/><path d="M5937.5,2413.196c-277.779,10.417 -272.571,10.417 138.888,12.154c234.375,0 440.971,-5.208 460.071,-12.154c38.196,-15.625 -145.833,-15.625 -598.958,0Z" style="fill:#f4bc33;fill-rule:nonzero;"/><path d="M5592.013,2496.529c-140.625,3.471 -203.125,12.154 -220.487,29.512c-13.888,12.154 -17.363,27.779 -8.679,32.988c24.304,15.625 1480.904,19.096 1541.667,5.208c34.721,-8.679 52.083,-22.571 46.875,-36.458c-10.417,-26.042 -331.596,-52.083 -421.875,-34.721l-57.292,12.154l48.613,22.571c43.404,19.096 13.887,20.833 -218.75,22.571c-164.929,0 -260.417,-5.208 -244.792,-13.887c17.363,-12.154 1.738,-19.096 -52.083,-26.042c-138.888,-17.363 -213.542,-19.096 -413.196,-13.887l0,-0.008Z" style="fill:#f4bc33;fill-rule:nonzero;"/><path d="M4467.013,2512.154c15.625,3.471 39.929,3.471 52.083,0c10.417,-5.208 -1.737,-8.679 -31.25,-8.679c-27.779,0 -38.196,3.471 -20.833,8.679Z" style="fill:#f4bc33;fill-rule:nonzero;"/><path d="M4371.529,2529.513c12.154,5.208 27.779,3.471 32.988,-1.738c6.946,-5.208 -3.471,-10.417 -22.571,-8.679c-19.096,0 -24.304,5.208 -10.417,10.417Z" style="fill:#f4bc33;fill-rule:nonzero;"/><path d="M5560.763,2633.679c45.138,3.471 116.321,3.471 156.25,0c39.929,-3.471 3.471,-5.208 -83.333,-5.208c-85.071,0 -118.054,1.738 -72.917,5.208Z" style="fill:#f4bc33;fill-rule:nonzero;"/><path d="M5520.833,2710.071c-185.763,8.679 -416.667,22.571 -512.154,31.25l-173.613,13.887l121.529,5.208l121.529,3.471l-93.75,15.625c-130.208,22.571 -135.417,36.458 -10.417,31.25c57.292,-3.471 307.292,-1.738 555.554,1.737c397.571,6.946 425.346,8.679 234.375,17.363l-217.013,12.154l243.054,-5.208c133.679,-3.471 286.458,-8.679 338.542,-13.887c81.596,-6.946 85.071,-5.208 26.042,6.946c-38.196,6.946 203.125,12.154 552.083,8.679c340.279,-1.738 625,1.738 628.471,8.679c15.625,24.304 229.167,38.196 269.096,17.363c20.833,-10.417 32.988,-24.304 27.779,-29.512c-3.471,-5.208 -112.846,-19.096 -239.583,-31.25l-230.904,-22.571l279.513,8.679c182.292,6.946 284.721,3.471 291.667,-8.679c15.625,-24.304 -48.612,-98.958 -72.917,-83.333c-12.154,6.946 -20.833,27.779 -20.833,46.875c0,39.929 43.404,39.929 -489.583,0c-541.667,-41.667 -1180.554,-55.554 -1628.471,-34.721l0.004,-0.004Zm942.708,114.583c-31.25,3.471 -83.333,3.471 -112.846,0c-31.25,-3.471 -6.946,-6.946 55.554,-6.946c62.5,0 86.804,3.471 57.292,6.946Zm182.292,0c-17.363,3.471 -45.138,3.471 -60.763,0c-17.362,-5.208 -3.471,-8.679 29.513,-8.679c32.987,0 46.875,3.471 31.25,8.679Z" style="fill:#f4bc33;fill-rule:nonzero;"/><path d="M4736.113,2772.571c10.417,3.471 31.25,3.471 43.404,0c10.417,-5.208 1.737,-8.679 -22.571,-8.679c-24.304,0 -32.987,3.471 -20.833,8.679Z" style="fill:#f4bc33;fill-rule:nonzero;"/><path d="M4519.096,2789.929c15.625,3.471 39.929,3.471 52.083,0c10.417,-5.208 -1.738,-8.679 -31.25,-8.679c-27.779,0 -38.196,3.471 -20.833,8.679Z" style="fill:#f4bc33;fill-rule:nonzero;"/><path d="M4644.096,2829.863c-24.304,12.154 -13.887,13.887 34.721,5.208c38.196,-5.208 72.917,-12.154 76.388,-15.625c15.625,-13.887 -78.125,-3.471 -111.113,10.417l0.004,0Z" style="fill:#f4bc33;fill-rule:nonzero;"/><path d="M5644.096,2871.529c3.471,3.471 256.946,8.679 562.5,13.887c305.554,3.471 473.958,1.738 373.263,-5.208c-192.708,-12.154 -947.917,-20.833 -935.763,-8.679Z" style="fill:#f4bc33;fill-rule:nonzero;"/><path d="M7357.638,2928.821c10.417,3.471 31.25,3.471 43.404,0c10.417,-5.208 1.738,-8.679 -22.571,-8.679c-24.304,0 -32.987,3.471 -20.833,8.679Z" style="fill:#f4bc33;fill-rule:nonzero;"/><path d="M5612.846,2965.279c-227.429,1.738 -369.792,10.417 -369.792,20.833c0,10.417 17.362,19.096 39.929,19.096c20.833,1.738 -13.888,12.154 -76.388,22.571c-107.637,19.096 -190.971,65.971 -157.987,86.804c8.679,5.208 112.846,13.887 230.904,20.833c138.888,8.679 201.388,17.363 180.554,27.779c-50.346,20.833 1673.613,3.471 1736.113,-19.096c39.929,-13.887 1.737,-15.625 -156.25,-12.154c-135.417,3.471 -166.667,1.738 -88.542,-5.208c72.917,-6.946 123.263,-19.096 128.471,-32.988c3.471,-13.887 -13.888,-20.833 -52.083,-22.571l-57.292,-1.738l60.763,-17.363c72.917,-20.833 319.446,10.417 378.471,48.613c27.779,19.096 46.875,20.833 69.446,8.679c27.779,-17.363 27.779,-17.363 -3.471,-19.096c-20.833,0 -27.779,-8.679 -22.571,-24.304c12.154,-31.25 -8.679,-38.196 -170.138,-62.5c-107.638,-15.625 -315.971,-22.571 -1102.429,-39.929c-109.375,-1.738 -366.321,-1.738 -567.708,1.738Zm1440.971,50.346c-12.154,3.471 -32.987,3.471 -43.404,0c-12.154,-5.208 -3.471,-8.679 20.833,-8.679c24.304,0 32.987,3.471 22.571,8.679Z" style="fill:#f4bc33;fill-rule:nonzero;"/><path d="M4690.971,3020.833c-31.25,6.946 -62.5,17.363 -67.708,24.304c-19.096,17.362 34.721,10.417 116.321,-13.888c83.333,-26.042 48.612,-32.987 -48.613,-10.417Z" style="fill:#f4bc33;fill-rule:nonzero;"/><path d="M7142.363,3092.013c-5.208,8.679 15.625,15.625 43.404,15.625c29.513,0 53.821,-3.471 53.821,-6.946c0,-13.887 -88.542,-22.571 -97.221,-8.679l-0.004,0Z" style="fill:#f4bc33;fill-rule:nonzero;"/><path d="M7548.613,3085.071c12.154,5.208 27.779,3.471 32.987,-1.738c6.946,-5.208 -3.471,-10.417 -22.571,-8.679c-19.096,0 -24.304,5.208 -10.417,10.417Z" style="fill:#f4bc33;fill-rule:nonzero;"/><path d="M4600.696,3107.638l-43.404,13.887l48.612,1.738c26.042,1.737 46.875,-6.946 46.875,-15.625c0,-10.417 -1.737,-17.363 -3.471,-15.625c-3.471,1.737 -24.304,8.679 -48.613,15.625Z" style="fill:#f4bc33;fill-rule:nonzero;"/><path d="M4609.375,3157.988c-32.987,13.887 -32.987,13.887 3.471,32.988c43.404,24.304 138.888,24.304 187.5,1.738c26.042,-10.417 10.417,-13.887 -53.821,-10.417c-65.971,1.738 -86.804,-1.738 -81.596,-19.096c10.417,-22.571 -3.471,-24.304 -55.554,-5.208l0,-0.004Z" style="fill:#f4bc33;fill-rule:nonzero;"/><path d="M7317.708,3194.446c-6.946,10.417 13.887,17.363 52.083,17.363c38.196,0 59.029,-6.946 52.083,-17.363c-5.208,-10.417 -29.513,-17.363 -52.083,-17.363c-22.571,0 -46.875,6.946 -52.083,17.363Z" style="fill:#f4bc33;fill-rule:nonzero;"/><path d="M5526.042,3223.958c34.721,3.471 93.75,3.471 130.208,0c34.721,-3.471 5.208,-6.946 -65.971,-6.946c-71.179,0 -100.696,3.471 -64.238,6.946Z" style="fill:#f4bc33;fill-rule:nonzero;"/><path d="M5942.708,3223.958c15.625,3.471 43.404,3.471 60.762,0c15.625,-5.208 1.738,-8.679 -31.25,-8.679c-32.987,0 -46.875,3.471 -29.512,8.679Z" style="fill:#f4bc33;fill-rule:nonzero;"/><path d="M6498.263,3223.958c34.721,3.471 93.75,3.471 130.208,0c34.721,-3.471 5.208,-6.946 -65.971,-6.946c-71.179,0 -100.696,3.471 -64.238,6.946Z" style="fill:#f4bc33;fill-rule:nonzero;"/><path d="M5494.792,3439.238c-199.654,5.208 -366.321,10.417 -366.321,12.154c-1.737,1.737 -3.471,71.179 -3.471,154.512c0,85.071 -5.208,237.846 -10.417,343.75c-6.946,104.167 -15.625,322.917 -20.833,486.113c-10.417,354.167 -12.154,378.471 -38.196,387.154c-12.154,3.471 -17.363,13.888 -12.154,22.571c5.208,8.679 1.737,31.25 -8.679,50.346c-22.571,41.667 -15.625,41.667 93.75,8.679c138.888,-41.667 291.667,-62.5 348.958,-46.875c88.542,24.304 78.125,83.333 -39.929,251.737c-59.029,81.596 -60.762,83.333 -131.946,71.179c-102.429,-15.625 -137.154,-38.196 -125,-78.125c34.721,-112.846 34.721,-107.638 -8.679,-93.75c-71.179,20.833 -185.762,100.696 -204.862,142.362c-15.625,34.721 -10.417,43.404 64.237,85.071c314.238,178.821 359.375,237.846 281.25,366.321c-39.929,65.971 -135.417,119.792 -262.154,145.833c-71.179,15.625 -85.071,22.571 -60.762,36.458c15.625,8.679 24.304,22.571 19.096,32.988c-6.946,8.679 -3.471,15.625 6.946,15.625c19.096,0 15.625,588.542 -3.471,619.792c-8.679,13.888 -6.946,22.571 5.208,22.571c12.154,0 13.887,10.417 0,32.988c-12.154,24.304 -12.154,38.196 0,45.137c10.417,6.946 12.154,20.833 5.208,31.25c-19.096,31.25 -17.362,140.625 1.738,154.513c10.417,6.946 440.971,13.887 956.596,15.625c515.625,0 1003.471,6.946 1085.071,12.154l147.571,12.154l12.154,347.221c6.946,241.321 24.304,432.292 55.554,625c24.304,152.779 45.138,314.237 45.138,357.638c0,116.321 45.138,251.737 131.946,390.625c98.958,159.721 168.404,319.446 204.862,465.279c17.363,64.237 43.404,142.362 60.763,171.875c34.721,65.971 65.971,166.667 79.862,263.888c5.208,38.196 13.888,79.862 17.363,92.012c50.346,145.833 83.333,977.429 60.762,1453.125c-36.458,722.221 -53.821,984.375 -86.804,1258.679c-19.096,157.987 -38.196,321.179 -43.404,364.583c-12.154,95.488 -38.196,652.779 -55.554,1189.238c-17.363,505.208 -17.363,1489.583 -1.738,1953.125c8.679,196.179 19.096,515.625 24.304,711.804c10.417,385.417 59.029,911.458 135.417,1467.013c15.625,104.167 27.779,289.929 27.779,413.196c0,218.75 38.196,541.667 69.446,602.429c19.096,36.458 8.679,855.904 -10.417,888.887c-8.679,13.888 -27.779,-6.946 -50.346,-60.762l-38.196,-81.596l-59.029,43.404c-32.988,22.571 -78.125,50.346 -102.429,60.763c-22.571,10.417 -46.875,26.042 -52.083,32.987c-19.096,29.513 -163.196,71.179 -243.054,71.179c-46.875,0 -90.279,8.679 -97.221,19.096c-12.154,19.096 -137.154,13.888 -232.638,-12.154c-65.971,-15.625 -135.417,-22.571 -263.887,-26.042c-65.971,0 -121.529,-6.946 -125,-13.887c-5.208,-6.946 -46.875,-13.887 -92.013,-15.625c-45.138,-1.738 -197.917,-13.887 -338.542,-26.042c-140.625,-12.154 -269.096,-17.362 -286.458,-10.417c-17.362,6.946 -39.929,5.208 -50.346,-3.471c-10.417,-8.679 -98.958,-17.363 -196.179,-20.833c-95.488,-1.738 -175.346,-8.679 -175.346,-13.888c0,-10.417 -15.625,-12.154 -295.138,-24.304c-182.292,-8.679 -206.596,-10.417 -352.429,-41.667c-55.554,-12.154 -111.112,-17.362 -125,-12.154c-13.888,5.208 -26.042,0 -29.513,-10.417c-3.471,-8.679 -32.987,-19.096 -65.971,-22.571c-32.987,-3.471 -65.971,-5.208 -72.917,-6.946c-8.679,-1.738 -13.888,-12.154 -13.888,-26.042c0,-13.887 -13.887,-29.512 -29.512,-34.721c-17.363,-5.208 -59.029,-32.987 -92.013,-62.5c-32.987,-27.779 -76.388,-52.083 -95.487,-53.821c-19.096,0 -24.304,-5.208 -13.888,-10.417c17.362,-5.208 15.625,-13.888 -3.471,-34.721c-13.887,-13.888 -22.571,-31.25 -17.362,-39.929c5.208,-6.946 -1.738,-22.571 -13.888,-32.988c-29.512,-22.571 -26.042,-52.083 -39.929,380.208c-8.679,291.667 -6.946,361.112 12.154,376.737c20.833,17.363 222.221,31.25 628.471,43.404c53.821,1.738 98.958,10.417 98.958,19.096c0,8.679 29.513,13.888 65.971,12.154c34.721,-1.737 67.708,-1.737 72.917,0c36.458,17.363 427.083,20.833 604.167,5.208c59.029,-5.208 107.637,-1.738 107.637,6.946c0,8.679 65.971,15.625 147.571,15.625c81.596,-1.738 147.571,-6.946 147.571,-12.154c0,-5.208 67.708,-6.946 152.779,-3.471c189.237,6.946 152.779,6.946 376.737,-3.471c104.167,-5.208 199.654,-19.096 211.804,-29.512c12.154,-10.417 48.613,-12.154 83.333,-6.946c32.987,6.946 74.654,3.471 92.012,-5.208c27.779,-15.625 85.071,-22.571 317.708,-41.667c24.304,-1.738 57.292,-13.888 74.654,-27.779c24.304,-20.833 27.779,-20.833 19.096,0c-15.625,39.929 59.029,59.029 251.737,64.238c190.971,5.208 381.946,53.821 381.946,98.958c0,31.25 95.487,65.971 142.362,52.083c27.779,-8.679 34.721,-6.946 22.571,6.946c-10.417,8.679 -45.138,19.096 -78.125,22.571c-32.987,1.737 -64.237,8.679 -69.446,15.625c-5.208,6.946 -74.654,17.362 -152.779,24.304c-79.862,5.208 -171.875,20.833 -206.596,34.721c-32.987,13.888 -81.596,26.042 -105.904,26.042c-24.304,0 -39.929,5.208 -34.721,10.417c6.946,5.208 102.429,0 213.542,-10.417c145.833,-13.887 210.071,-13.887 222.221,-1.738c13.888,13.888 10.417,19.096 -13.888,19.096c-31.25,0 -31.25,0 1.738,27.779c24.304,19.096 26.042,24.304 5.208,19.096c-15.625,-5.208 -38.196,-1.738 -52.083,6.946c-19.096,12.154 -17.363,15.625 10.417,15.625c26.042,0 29.513,5.208 12.154,15.625c-13.888,6.946 -24.304,20.833 -26.042,29.512c-1.738,8.679 -32.988,12.154 -71.179,10.417c-39.929,-5.208 -62.5,0 -55.554,10.417c5.208,8.679 0,17.362 -12.154,15.625c-109.375,-3.471 -220.487,8.679 -211.804,22.571c13.888,22.571 147.571,22.571 279.513,0c55.554,-10.417 128.471,-22.571 159.721,-27.779c29.512,-5.208 55.554,-13.887 55.554,-22.571c0,-6.946 -24.304,-10.417 -52.083,-5.208c-39.929,5.208 -50.346,1.738 -43.404,-17.362c6.946,-15.625 34.721,-22.571 86.804,-20.833c59.029,1.738 78.125,-3.471 78.125,-22.571c0,-13.887 -10.417,-22.571 -20.833,-17.362c-92.013,36.458 -93.75,38.196 -67.708,6.946c19.096,-22.571 50.346,-29.513 149.304,-27.779c138.888,1.738 171.875,13.888 156.25,53.821c-12.154,31.25 -64.237,46.875 -182.292,59.029c-41.667,5.208 -81.596,13.887 -86.804,20.833c-12.154,19.096 -182.292,55.554 -260.417,55.554c-36.458,0 -72.917,8.679 -79.863,20.833c-12.154,19.096 67.708,15.625 288.196,-12.154c32.987,-3.471 10.417,5.208 -52.083,19.096c-192.708,45.137 -312.5,81.596 -303.821,90.279c3.471,5.208 104.167,-3.471 220.487,-19.096c359.375,-48.612 524.304,-62.5 541.667,-45.137c29.513,27.779 -1.737,36.458 -184.029,50.346c-293.404,24.304 -654.512,86.804 -501.737,86.804c20.833,0 41.667,12.154 46.875,26.042c6.946,13.888 24.304,26.042 39.929,27.779c52.083,1.737 -38.196,29.512 -147.571,43.404l-102.429,15.625l86.804,8.679l86.804,10.417l-69.446,20.833c-166.667,52.083 -623.262,72.917 -1588.542,76.387c-916.667,3.471 -1456.596,-17.362 -1666.667,-59.029c-52.083,-12.154 -100.696,-19.096 -107.638,-17.363c-8.679,1.738 -13.887,-3.471 -13.887,-13.887c0,-8.679 -19.096,-17.363 -41.667,-17.363c-24.304,0 -64.237,-19.096 -92.013,-41.667c-81.596,-67.708 -125,-83.333 -343.75,-123.263c-114.583,-20.833 -244.792,-55.554 -286.458,-76.387l-78.125,-38.196l95.488,10.417c52.083,5.208 135.417,20.833 182.292,34.721c121.529,32.988 276.042,52.083 263.888,31.25c-6.946,-10.417 6.946,-13.887 31.25,-8.679c62.5,10.417 53.821,-26.042 -8.679,-39.929c-27.779,-6.946 -55.554,-19.096 -60.762,-27.779c-6.946,-8.679 -32.988,-15.625 -62.5,-15.625c-27.779,0 -50.346,-6.946 -50.346,-15.625c0,-8.679 -13.887,-20.833 -29.512,-24.304c-17.363,-5.208 5.208,-8.679 48.613,-10.417c43.404,0 85.071,-6.946 90.279,-13.887c6.946,-5.208 -32.988,-27.779 -86.804,-50.346c-53.821,-22.571 -105.904,-48.612 -114.583,-57.292c-27.779,-27.779 0,-45.138 31.25,-19.096c13.887,12.154 26.042,13.887 26.042,3.471c0,-8.679 -10.417,-20.833 -24.304,-26.042c-13.887,-5.208 -20.833,-24.304 -17.363,-41.667c5.208,-19.096 -5.208,-45.137 -26.042,-64.237c-19.096,-17.363 -29.513,-41.667 -26.042,-53.821c5.208,-12.154 -8.679,-71.179 -27.779,-131.946c-32.988,-97.221 -38.196,-152.779 -39.929,-458.333c-5.208,-480.904 6.946,-597.221 64.237,-673.612c24.304,-31.25 45.138,-72.917 45.138,-92.013c0,-17.362 20.833,-126.737 43.404,-241.321c39.929,-185.762 100.696,-633.679 123.262,-894.096c3.471,-52.083 15.625,-157.988 24.304,-234.375c43.404,-355.904 72.917,-779.513 105.904,-1510.417c19.096,-423.612 12.154,-2140.625 -10.417,-2491.321c-5.208,-71.179 -17.363,-270.833 -26.042,-442.708c-29.512,-510.417 -36.458,-598.958 -62.5,-798.612c-45.137,-329.862 -57.292,-407.987 -111.113,-729.167c-29.512,-171.875 -60.762,-421.875 -71.179,-555.554c-20.833,-267.362 -8.679,-1105.904 19.096,-1335.071c20.833,-180.554 78.125,-347.221 149.304,-449.654c32.988,-45.138 59.029,-92.013 59.029,-105.904c0,-26.042 140.625,-302.083 192.708,-375c100.696,-145.833 300.346,-1190.971 354.167,-1852.429c12.154,-138.887 12.154,-140.625 -29.513,-147.571c-29.512,-3.471 -41.667,-17.363 -45.137,-53.821c-3.471,-26.042 -13.888,-43.404 -22.571,-38.196c-8.679,6.946 -15.625,-1.737 -15.625,-17.362c0,-15.625 8.679,-22.571 17.363,-17.363c10.417,5.208 17.362,-1.737 17.362,-15.625c0,-15.625 -10.417,-27.779 -20.833,-27.779c-17.363,0 -17.363,-3.471 -1.738,-13.887c20.833,-13.888 39.929,-217.013 45.138,-510.417c1.737,-72.917 8.679,-137.154 15.625,-144.096c6.946,-6.946 6.946,-22.571 1.737,-36.458c-5.208,-13.888 3.471,-29.513 19.096,-34.721c15.625,-5.208 27.779,-17.363 27.779,-27.779c0,-8.679 -6.946,-10.417 -17.362,-5.208c-8.679,5.208 -17.363,3.471 -17.363,-6.946c0,-8.679 10.417,-19.096 22.571,-24.304c10.417,-3.471 -8.679,-12.154 -45.137,-19.096c-64.238,-12.154 -67.708,-15.625 -57.292,-67.708c5.208,-31.25 13.887,-88.542 20.833,-130.208c8.679,-57.292 20.833,-76.388 52.083,-83.333c38.196,-10.417 41.667,-19.096 41.667,-135.417c1.738,-67.708 1.738,-350.696 1.738,-630.208c1.737,-505.208 1.737,-506.946 38.196,-513.887l38.196,-6.946l-38.196,-3.471c-45.137,-1.738 -36.458,-53.821 10.417,-55.554c19.096,0 13.888,-5.208 -12.154,-17.363c-41.667,-15.625 -38.196,-50.346 6.946,-50.346c39.929,0 27.779,-31.25 -13.888,-39.929l-39.929,-6.946l39.929,-13.887c45.138,-15.625 50.346,-38.196 8.679,-48.613c-29.512,-6.946 -29.512,-8.679 0,-10.417c15.625,0 29.513,-6.946 31.25,-15.625c5.208,-48.613 13.888,-166.667 17.363,-260.417c1.737,-65.971 10.417,-107.637 22.571,-107.637c10.417,0 6.946,-6.946 -6.946,-17.363c-20.833,-12.154 -20.833,-19.096 5.208,-48.613c29.513,-32.988 29.513,-34.721 0,-41.667c-17.362,-3.471 -69.446,-3.471 -118.054,0c-83.333,5.208 -86.804,8.679 -85.071,57.292c0,27.779 6.946,55.554 12.154,62.5c6.946,5.208 3.471,20.833 -5.208,32.988c-13.888,13.887 -10.417,29.512 8.679,48.613c20.833,20.833 22.571,27.779 5.208,27.779c-13.887,0 -22.571,20.833 -24.304,52.083c-1.737,39.929 5.208,52.083 29.513,52.083c19.096,0 32.987,6.946 32.987,17.363c0,8.679 -15.625,17.363 -34.721,17.363c-46.875,0 -43.404,27.779 5.208,43.404l38.196,13.888l-38.196,6.946c-53.821,10.417 -50.346,29.512 8.679,52.083c41.667,17.363 43.404,19.096 8.679,20.833c-53.821,1.738 -67.708,36.458 -15.625,36.458c24.304,0 45.138,6.946 45.138,17.363c0,8.679 -20.833,17.363 -45.138,17.363c-27.779,0 -41.667,8.679 -36.458,20.833c3.471,12.154 24.304,20.833 43.404,17.362c20.833,-3.471 38.196,1.738 38.196,12.154c0,8.679 -17.363,19.096 -38.196,22.571c-52.083,6.946 -52.083,38.196 0,45.137c46.875,6.946 32.987,38.196 -15.625,38.196c-19.096,0 -31.25,6.946 -26.042,15.625c5.208,8.679 27.779,12.154 46.875,6.946c27.779,-6.946 34.721,-3.471 29.513,13.887c-5.208,13.887 -22.571,24.304 -39.929,24.304c-17.363,0 -34.721,10.417 -39.929,22.571c-5.208,15.625 6.946,19.096 38.196,13.887c31.25,-5.208 45.138,0 45.138,17.363c0,13.887 -17.363,24.304 -43.404,24.304c-24.304,0 -43.404,6.946 -43.404,17.362c0,8.679 19.096,17.363 43.404,17.363c24.304,0 43.404,6.946 43.404,17.362c0,8.679 -19.096,17.363 -43.404,17.363c-24.304,0 -43.404,8.679 -43.404,17.362c0,10.417 19.096,13.888 43.404,10.417c29.512,-5.208 43.404,0 43.404,17.362c0,24.304 -19.096,31.25 -64.238,26.042c-12.154,-1.738 -22.571,5.208 -22.571,15.625c0,8.679 19.096,17.362 43.404,17.362c24.304,0 43.404,6.946 43.404,17.363c0,8.679 -20.833,17.362 -45.138,17.362c-27.779,0 -41.667,8.679 -36.458,20.833c3.471,12.154 24.304,20.833 43.404,17.363c20.833,-3.471 38.196,3.471 38.196,12.154c0,10.417 -19.096,19.096 -43.404,19.096c-27.779,0 -43.404,10.417 -43.404,27.779c0,20.833 12.154,26.042 43.404,20.833c24.304,-5.208 43.404,-1.737 43.404,5.208c0,8.679 -19.096,15.625 -43.404,15.625c-34.721,0 -43.404,8.679 -45.137,46.875c-5.208,151.042 -8.679,170.137 -27.779,171.875c-12.154,1.737 -29.513,3.471 -38.196,5.208c-10.417,0 -17.362,15.625 -17.362,31.25c-1.738,100.696 -13.888,227.429 -26.042,244.792c-6.946,12.154 -8.679,27.779 -3.471,36.458c6.946,8.679 3.471,36.458 -5.208,59.029c-19.096,50.346 -48.613,258.679 -62.5,454.863c-6.946,76.387 -13.888,157.987 -17.363,182.292c-32.987,210.071 -95.487,762.154 -95.487,831.596c0,184.029 -111.113,902.779 -173.613,1128.471c-20.833,71.179 -31.25,149.304 -26.042,175.346c29.512,131.946 -288.196,826.388 -468.75,1024.304c-131.946,144.096 -204.862,750 -190.971,1579.862c6.946,407.988 29.512,572.917 102.429,734.375c24.304,55.554 43.404,114.583 41.667,130.208c-3.471,15.625 8.679,88.542 24.304,159.721c67.708,309.029 90.279,496.529 86.804,711.804c-3.471,119.792 3.471,270.833 12.154,338.542c22.571,161.458 41.667,378.471 41.667,486.112c0,53.821 3.471,74.654 12.154,52.083c13.887,-38.196 69.446,286.458 69.446,411.458c1.738,41.667 12.154,149.304 26.042,239.583c26.042,161.458 45.137,430.554 76.387,1041.667l15.625,303.821l-6.946,-277.779c-10.417,-388.888 -10.417,-965.279 1.737,-977.429c5.208,-5.208 8.679,19.096 8.679,52.083c0,34.721 8.679,65.971 17.363,69.446c53.821,17.362 65.971,1288.196 15.625,1723.958c-20.833,182.292 -24.304,232.638 -29.512,437.5c-5.208,225.696 -29.512,133.679 -29.512,-112.846c0,-130.208 -5.208,-256.946 -12.154,-281.25c-6.946,-31.25 -12.154,-19.096 -12.154,45.138c-3.471,223.958 -74.654,562.5 -118.054,562.5c-10.417,0 1.738,-76.388 20.833,-126.738c8.679,-20.833 5.208,-27.779 -12.154,-20.833c-24.304,10.417 -64.238,269.096 -74.654,486.112c-1.738,38.196 -8.679,81.596 -13.887,95.488c-5.208,13.887 -17.363,104.167 -27.779,199.654c-31.25,289.929 -64.238,508.679 -119.792,772.571c-60.762,291.667 -71.179,343.75 -78.125,390.625c-3.471,19.096 -15.625,52.083 -27.779,74.654c-29.512,55.554 -92.012,348.958 -78.125,369.792c5.208,10.417 -3.471,46.875 -19.096,81.596c-17.363,36.458 -36.458,76.387 -43.404,92.012c-31.25,64.238 -71.179,380.208 -67.708,534.721c1.738,92.012 -3.471,204.862 -10.417,250c-17.363,111.112 38.196,717.012 79.863,857.637c69.446,236.113 142.363,303.821 446.179,413.196c208.333,74.654 381.946,97.221 1114.583,151.042c411.458,29.512 1991.321,29.512 2317.708,0c133.679,-12.154 371.529,-32.988 529.513,-48.613c326.387,-29.512 715.279,-116.321 868.054,-194.446c105.904,-53.821 142.362,-109.375 208.333,-329.863c41.667,-131.946 38.196,-163.196 -10.417,-123.262c-27.779,22.571 -29.513,20.833 -17.362,-19.096c45.137,-147.571 62.5,-223.958 62.5,-277.779c0,-41.667 5.208,-53.821 15.625,-36.458c15.625,24.304 26.042,-52.083 46.875,-338.542c6.946,-102.429 3.471,-163.196 -6.946,-170.137c-10.417,-5.208 -24.304,-3.471 -29.513,6.946c-8.679,13.887 -19.096,12.154 -36.458,-1.738c-19.096,-15.625 -26.042,-13.887 -31.25,3.471c-13.887,45.137 -45.137,274.304 -45.137,326.387c0,55.554 -32.988,71.179 -85.071,38.196c-19.096,-12.154 -15.625,-17.363 12.154,-26.042c36.458,-12.154 67.708,-62.5 38.196,-62.5c-10.417,0 -17.362,-17.362 -17.362,-38.196c0,-20.833 -6.946,-60.762 -15.625,-90.279c-8.679,-29.512 -32.987,-164.929 -52.083,-302.083c-32.987,-229.167 -32.987,-251.738 -8.679,-291.667c36.458,-53.821 69.446,-52.083 126.737,8.679c38.196,39.929 50.346,45.138 67.708,26.042c32.987,-36.458 24.304,-126.738 -24.304,-258.679c-46.875,-128.471 -145.833,-500 -145.833,-546.875c0,-13.888 -15.625,-57.292 -36.458,-93.75c-31.25,-59.029 -71.179,-258.679 -93.75,-470.488c-3.471,-29.512 -15.625,-74.654 -24.304,-100.696c-10.417,-27.779 -19.096,-71.179 -19.096,-98.958c0,-26.042 -15.625,-125 -36.458,-220.488c-19.096,-93.75 -34.721,-182.292 -34.721,-196.179c0,-13.887 -10.417,-57.292 -24.304,-95.487c-12.154,-38.196 -27.779,-112.846 -32.988,-164.929c-6.946,-52.083 -22.571,-138.888 -36.458,-190.971c-24.304,-92.013 -24.304,-92.013 -19.096,-20.833c3.471,39.929 0,69.446 -8.679,62.5c-8.679,-5.208 -15.625,-31.25 -15.625,-59.029c0,-27.779 -10.417,-57.292 -22.571,-64.237c-15.625,-8.679 -34.721,-100.696 -53.821,-256.946c-17.363,-133.679 -36.458,-293.404 -46.875,-355.904c-41.667,-293.404 -52.083,-730.904 -43.404,-1718.75c10.417,-1081.596 15.625,-1187.5 97.221,-1579.863c20.833,-100.696 53.821,-232.638 72.917,-293.404c36.458,-119.792 130.208,-326.388 154.512,-342.013c22.571,-13.888 19.096,5.208 -15.625,76.388c-41.667,83.333 -95.487,276.042 -81.596,298.612c5.208,8.679 -6.946,79.862 -27.779,159.721c-52.083,204.863 -83.333,404.513 -102.429,664.929c-8.679,123.262 -20.833,267.362 -26.042,315.971c-8.679,64.237 -5.208,92.013 8.679,92.013c15.625,0 17.363,45.138 8.679,170.138c-8.679,123.262 -5.208,161.458 8.679,142.362c13.887,-19.096 15.625,10.417 6.946,112.846c-6.946,76.388 -6.946,135.417 -1.738,130.208c5.208,-5.208 26.042,-173.612 46.875,-373.263c20.833,-201.388 48.612,-404.513 60.763,-451.388c29.513,-105.904 95.487,-630.208 67.708,-541.667c-5.208,15.625 -17.363,26.042 -26.042,20.833c-8.679,-6.946 -5.208,-31.25 8.679,-57.292c26.042,-50.346 48.613,-196.179 53.821,-342.012c3.471,-98.958 34.721,-309.029 59.029,-404.513c8.679,-34.721 22.571,-118.054 29.513,-182.292c5.208,-65.971 29.512,-187.5 52.083,-269.096c121.529,-435.763 118.054,-414.929 119.792,-1027.779c0,-616.321 -12.154,-895.833 -48.613,-1088.542c-13.887,-74.654 -17.362,-121.529 -6.946,-114.583c10.417,6.946 12.154,-5.208 5.208,-31.25c-8.679,-22.571 -13.888,-55.554 -15.625,-72.917c-1.737,-15.625 -12.154,-29.513 -24.304,-29.513c-26.042,0 -57.292,-55.554 -57.292,-98.958c0,-26.042 6.946,-24.304 34.721,12.154c34.721,43.404 34.721,43.404 0,-39.929c-19.096,-46.875 -34.721,-92.013 -34.721,-100.696c0,-6.946 -19.096,-59.029 -43.404,-114.583c-31.25,-69.446 -50.346,-93.75 -59.029,-76.387c-10.417,17.362 -17.363,15.625 -26.042,-6.946c-5.208,-15.625 -17.362,-22.571 -27.779,-17.363c-8.679,5.208 -17.363,3.471 -17.363,-6.946c0,-8.679 -22.571,-50.346 -50.346,-92.013c-90.279,-135.417 -244.792,-553.821 -244.792,-668.404c0,-29.512 -6.946,-59.029 -15.625,-64.237c-6.946,-5.208 -19.096,-46.875 -24.304,-92.013c-6.946,-46.875 -26.042,-154.512 -46.875,-239.583c-41.667,-184.029 -121.529,-793.404 -121.529,-927.083c0,-52.083 -15.625,-232.638 -34.721,-399.304c-53.821,-487.846 -116.321,-1128.471 -173.612,-1755.208c-27.779,-319.446 -55.554,-600.696 -60.763,-625c-8.679,-43.404 -20.833,-204.863 -32.987,-425.346c-3.471,-65.971 -13.888,-121.529 -20.833,-125c-32.987,-10.417 -1649.304,-13.887 -1994.792,-3.471l-0.033,-0.012Zm1289.929,1336.804c6.946,59.029 -41.667,100.696 -137.154,112.846c-88.542,10.417 -149.304,-20.833 -131.946,-69.446c15.625,-39.929 147.571,-98.958 211.804,-93.75c41.667,3.471 53.821,13.888 57.292,50.346l0.004,0.004Zm-673.612,118.054c24.304,17.363 59.029,59.029 78.125,92.013c29.513,57.292 31.25,74.654 13.888,194.446c-22.571,166.667 -116.321,364.583 -213.542,460.071c-81.596,78.125 -229.167,157.988 -293.404,157.988c-145.833,0 -272.571,-102.429 -314.238,-251.738c-43.404,-156.25 13.888,-305.554 184.029,-472.221c217.013,-211.804 409.721,-276.042 545.138,-180.554l0.004,-0.004Zm984.375,-22.571c5.208,13.887 -6.946,43.404 -29.513,69.446c-31.25,32.988 -57.292,41.667 -119.792,41.667c-102.429,0 -138.888,-22.571 -112.846,-64.237c29.512,-46.875 93.75,-74.654 177.083,-74.654c50.346,0 76.388,8.679 85.071,27.779l-0.004,0Zm-414.929,130.208c3.471,15.625 -22.571,67.708 -53.821,118.054c-32.987,50.346 -78.125,138.888 -97.221,197.917c-111.112,312.5 -223.958,510.417 -361.112,626.737c-85.071,74.654 -140.625,97.221 -232.638,97.221c-118.054,0 -197.917,-112.846 -123.263,-177.083c57.292,-50.346 109.375,-71.179 130.208,-50.346c10.417,10.417 39.929,19.096 65.971,19.096c62.5,0 147.571,-100.696 180.554,-217.013c13.888,-48.612 41.667,-145.833 62.5,-217.012c19.096,-71.179 52.083,-156.25 71.179,-187.5c34.721,-57.292 31.25,-97.221 -6.946,-59.029c-12.154,12.154 -31.25,20.833 -43.404,20.833c-31.25,0 -29.512,-111.113 3.471,-138.888c79.863,-65.971 392.363,-92.012 404.513,-32.987l0.008,0Zm296.875,65.971c20.833,13.887 8.679,52.083 -67.708,213.542c-50.346,107.638 -112.846,255.208 -137.154,326.388c-41.667,119.792 -50.346,130.208 -98.958,135.417c-78.125,6.946 -116.321,-43.404 -114.583,-156.25c1.737,-166.667 135.417,-484.375 217.012,-517.363c50.346,-20.833 170.138,-20.833 201.388,-1.737l0.004,0.004Zm793.404,1894.096c10.417,109.375 29.513,246.529 39.929,302.083c22.571,125 24.304,248.263 3.471,260.417c-27.779,17.362 -29.512,5.208 -121.529,-652.779c-13.888,-107.638 -10.417,-121.529 31.25,-114.583c20.833,5.208 31.25,50.346 46.875,204.863l0.004,0Zm-223.958,-74.654c-3.471,27.779 -6.946,8.679 -6.946,-38.196c0,-48.612 3.471,-69.446 6.946,-48.612c3.471,22.571 3.471,60.762 0,86.804l0,0.004Zm-3762.154,5671.875c0,45.138 -10.417,31.25 -24.304,-32.987c-8.679,-38.196 -6.946,-45.138 6.946,-26.042c8.679,13.887 17.363,41.667 17.363,59.029l-0.004,0Zm85.071,538.196c1.738,93.75 -8.679,72.917 -20.833,-41.667c-6.946,-62.5 -5.208,-83.333 5.208,-60.763c8.679,19.096 15.625,65.971 15.625,102.429Zm13.887,161.458c-5.208,17.362 -8.679,6.946 -8.679,-20.833c0,-29.513 3.471,-41.667 8.679,-31.25c3.471,12.154 3.471,36.458 0,52.083Zm4340.279,164.929c-5.208,13.888 -10.417,8.679 -10.417,-10.417c-1.738,-19.096 3.471,-29.512 8.679,-22.571c5.208,5.208 6.946,20.833 1.737,32.987Zm-4305.554,434.029c-5.208,12.154 -8.679,3.471 -8.679,-20.833c0,-24.304 3.471,-32.988 8.679,-22.571c3.471,12.154 3.471,32.987 0,43.404Zm4253.471,104.167c-5.208,12.154 -8.679,3.471 -8.679,-20.833c0,-24.304 3.471,-32.987 8.679,-22.571c3.471,12.154 3.471,32.987 0,43.404Zm-225.696,2265.625c-3.471,27.779 -6.946,5.208 -6.946,-46.875c0,-52.083 3.471,-74.654 6.946,-48.612c3.471,27.779 3.471,69.446 0,95.487Zm17.362,173.612c-5.208,17.362 -8.679,3.471 -8.679,-29.513c0,-32.987 3.471,-46.875 8.679,-31.25c3.471,17.362 3.471,45.138 0,60.763Zm-4062.5,95.487c-5.208,12.154 -8.679,3.471 -8.679,-20.833c0,-24.304 3.471,-32.987 8.679,-22.571c3.471,12.154 3.471,32.987 0,43.404Zm4378.471,517.362c0,15.625 -6.946,13.888 -15.625,-8.679c-8.679,-19.096 -15.625,-46.875 -15.625,-60.763c0,-15.625 6.946,-13.888 15.625,8.679c8.679,19.096 15.625,46.875 15.625,60.763Zm137.154,2178.821c0,27.779 -3.471,26.042 -13.888,-8.679c-6.946,-24.304 -13.888,-62.5 -13.888,-86.804c0,-38.196 1.737,-38.196 13.888,8.679c6.946,27.779 13.888,67.708 13.888,86.804Zm277.779,967.012c5.208,46.875 -53.821,185.762 -90.279,208.333c-10.417,6.946 -36.458,13.888 -57.292,13.888c-50.346,0 -53.821,-52.083 -5.208,-95.488c19.096,-17.362 34.721,-41.667 34.721,-52.083c0,-12.154 12.154,-31.25 26.042,-43.404c13.888,-12.154 26.042,-36.458 26.042,-55.554c0,-53.821 59.029,-31.25 65.971,24.304l0.004,0.004Zm-309.029,90.279c0,5.208 -6.946,13.888 -17.363,19.096c-8.679,5.208 -17.362,1.738 -17.362,-6.946c0,-10.417 8.679,-19.096 17.362,-19.096c10.417,0 17.363,3.471 17.363,6.946Zm-4800.346,305.554c5.208,8.679 3.471,17.363 -6.946,17.363c-8.679,0 -22.571,-8.679 -27.779,-17.363c-5.208,-10.417 -3.471,-17.362 6.946,-17.362c8.679,0 22.571,6.946 27.779,17.362Zm4817.708,43.404c-32.987,12.154 -83.333,22.571 -112.846,22.571l-52.083,0l52.083,-22.571c29.513,-13.888 79.863,-24.304 112.846,-24.304l60.763,1.737l-60.763,22.571l0,-0.004Zm-4204.863,322.917c29.513,8.679 5.208,10.417 -65.971,3.471c-62.5,-5.208 -131.946,-17.363 -156.25,-24.304c-26.042,-8.679 0,-10.417 65.971,-5.208c60.763,6.946 131.946,17.362 156.25,26.042Z" style="fill:#f4bc33;fill-rule:nonzero;stroke:#ac0000;stroke-width:4.17px;"/><path d="M5767.363,5190.971c-138.888,217.013 -171.875,296.875 -145.833,355.904c69.446,151.042 333.333,-100.696 333.333,-319.446c0,-69.446 -46.875,-210.071 -69.446,-208.333c-5.208,0 -57.292,76.388 -118.054,171.875Z" style="fill:#f4bc33;fill-rule:nonzero;"/><path d="M4496.529,4687.5c0,8.679 8.679,17.363 17.363,17.363c10.417,0 17.362,-8.679 17.362,-17.363c0,-10.417 -6.946,-17.362 -17.362,-17.362c-8.679,0 -17.363,6.946 -17.363,17.362Z" style="fill:#f4bc33;fill-rule:nonzero;"/><path d="M4493.054,4838.542c12.154,5.208 27.779,3.471 32.987,-1.737c6.946,-5.208 -3.471,-10.417 -22.571,-8.679c-19.096,0 -24.304,5.208 -10.417,10.417Z" style="fill:#f4bc33;fill-rule:nonzero;"/><path d="M4991.321,5454.863c-22.571,34.721 -24.304,39.929 -1.737,45.137c41.667,8.679 97.221,-29.512 86.804,-57.292c-15.625,-38.196 -53.821,-31.25 -85.071,12.154l0.004,0Z" style="fill:#f4bc33;fill-rule:nonzero;"/><path d="M7164.929,7060.763c3.471,142.363 13.887,295.138 20.833,343.75c12.154,62.5 13.888,22.571 10.417,-147.571c-3.471,-128.471 -6.946,-282.987 -6.946,-343.75c-1.737,-59.029 -8.679,-107.637 -15.625,-107.637c-8.679,0 -12.154,114.583 -8.679,255.208Z" style="fill:#f4bc33;fill-rule:nonzero;"/><path d="M4402.779,9777.779c-32.987,314.237 -27.779,1123.263 12.154,1503.471c13.887,142.363 26.042,90.279 27.779,-130.208c3.471,-328.125 15.625,-644.096 31.25,-807.292c27.779,-282.987 1.737,-673.612 -45.138,-673.612c-6.946,0 -19.096,48.612 -26.042,107.638l-0.004,0.004Z" style="fill:#f4bc33;fill-rule:nonzero;"/><path d="M8685.763,10434.029c0,43.404 3.471,60.763 6.946,38.196c3.471,-20.833 3.471,-55.554 0,-78.125c-3.471,-20.833 -6.946,-3.471 -6.946,39.929Z" style="fill:#f4bc33;fill-rule:nonzero;"/><path d="M8663.196,10824.654c0,32.987 3.471,60.763 6.946,60.763c3.471,0 10.417,-27.779 13.888,-60.763c3.471,-32.987 0,-60.763 -6.946,-60.763c-6.946,0 -13.888,27.779 -13.888,60.763Z" style="fill:#f4bc33;fill-rule:nonzero;"/><path d="M3725.696,13550.346c5.208,104.167 15.625,274.304 24.304,376.737c29.512,348.958 39.929,1375 19.096,1862.846c-12.154,256.946 -24.304,482.638 -29.512,498.263c-5.208,17.362 -1.738,31.25 6.946,31.25c15.625,0 31.25,-71.179 65.971,-295.138c29.512,-184.029 34.721,-1567.708 6.946,-1866.321c-10.417,-114.583 -26.042,-289.929 -36.458,-390.625c-8.679,-100.696 -27.779,-232.638 -41.667,-295.138l-24.304,-112.846l8.679,190.971Z" style="fill:#f4bc33;fill-rule:nonzero;"/><path d="M8333.333,13720.488c0,26.042 -6.946,46.875 -13.888,46.875c-41.667,0 -88.542,692.708 -90.279,1293.404c0,411.458 31.25,920.138 69.446,1098.958l32.987,151.042l-12.154,-364.583c-17.362,-510.417 -8.679,-1762.154 13.888,-2029.513c10.417,-123.263 13.888,-227.429 8.679,-232.638c-5.208,-5.208 -8.679,12.154 -8.679,36.458l0,-0.004Z" style="fill:#f4bc33;fill-rule:nonzero;"/><path d="M8144.096,14333.333c0,19.096 5.208,24.304 10.417,10.417c5.208,-12.154 3.471,-27.779 -1.737,-32.988c-5.208,-6.946 -10.417,3.471 -8.679,22.571Z" style="fill:#f4bc33;fill-rule:nonzero;"/><path d="M8147.571,14461.804c0,43.404 3.471,60.762 6.946,38.196c3.471,-20.833 3.471,-55.554 0,-78.125c-3.471,-20.833 -6.946,-3.471 -6.946,39.929Z" style="fill:#f4bc33;fill-rule:nonzero;"/><path d="M3894.096,15581.596c0,76.388 3.471,105.904 6.946,64.237c3.471,-39.929 3.471,-102.429 0,-138.888c-3.471,-34.721 -6.946,-1.737 -6.946,74.654l0,-0.004Z" style="fill:#f4bc33;fill-rule:nonzero;"/><path d="M8215.279,16510.417c0,24.304 3.471,32.987 8.679,20.833c3.471,-10.417 3.471,-31.25 0,-43.404c-5.208,-10.417 -8.679,-1.738 -8.679,22.571Z" style="fill:#f4bc33;fill-rule:nonzero;"/><path d="M8822.917,19288.196c0,24.304 3.471,32.988 8.679,20.833c3.471,-10.417 3.471,-31.25 0,-43.404c-5.208,-10.417 -8.679,-1.737 -8.679,22.571Z" style="fill:#f4bc33;fill-rule:nonzero;"/><path d="M7875,19472.221c-6.946,17.363 -3.471,38.196 5.208,46.875c12.154,12.154 22.571,8.679 29.513,-12.154c6.946,-17.363 3.471,-38.196 -5.208,-46.875c-12.154,-12.154 -22.571,-8.679 -29.512,12.154Z" style="fill:#f4bc33;fill-rule:nonzero;"/><path d="M5736.113,19706.596c-5.208,8.679 10.417,15.625 34.721,15.625c53.821,0 59.029,-10.417 10.417,-22.571c-19.096,-5.208 -39.929,-1.737 -45.137,6.946Z" style="fill:#f4bc33;fill-rule:nonzero;"/><path d="M4418.404,20362.846c-19.096,8.679 -31.25,17.363 -26.042,19.096c17.362,5.208 133.679,17.362 335.071,32.987c112.846,8.679 210.071,20.833 217.012,27.779c6.946,6.946 -50.346,8.679 -126.737,1.737c-397.571,-29.512 -486.113,-31.25 -467.013,-12.154c20.833,22.571 1114.583,65.971 1164.929,45.137c17.363,-5.208 171.875,-10.417 343.75,-10.417c171.875,0 359.375,-6.946 416.667,-12.154c57.292,-6.946 151.042,-5.208 208.333,3.471c107.637,15.625 779.512,15.625 864.583,0c71.179,-13.887 55.554,-43.404 -17.363,-34.721c-36.458,5.208 -156.25,12.154 -265.625,17.363c-263.887,8.679 -145.833,-13.887 217.013,-45.137c237.846,-19.096 262.154,-24.304 173.612,-31.25c-57.292,-5.208 -201.387,-3.471 -321.179,5.208c-215.279,15.625 -868.054,20.833 -1102.429,8.679c-65.971,-3.471 -138.888,0 -159.721,6.946c-24.304,6.946 -39.929,5.208 -39.929,-3.471c0,-10.417 -19.096,-13.887 -41.667,-6.946c-22.571,5.208 -46.875,1.738 -52.083,-8.679c-17.363,-26.042 -62.5,-24.304 -119.792,6.946c-38.196,19.096 -107.638,22.571 -355.904,15.625c-168.404,-3.471 -342.013,-10.417 -385.417,-13.887c-286.458,-22.571 -430.554,-26.042 -460.071,-12.154l0,-0.004Zm789.929,71.179c0,8.679 -17.363,17.363 -38.196,17.363c-32.987,0 -34.721,-3.471 -13.888,-17.363c32.988,-22.571 52.083,-22.571 52.083,0Zm243.054,15.625c76.388,13.888 76.388,15.625 -38.196,17.363c-64.237,0 -121.529,-6.946 -126.737,-15.625c-12.154,-20.833 53.821,-20.833 164.929,-1.738l0.004,0Zm1394.096,-3.471c-12.154,3.471 -36.458,3.471 -52.083,0c-17.363,-5.208 -6.946,-8.679 20.833,-8.679c29.513,0 41.667,3.471 31.25,8.679Zm-121.529,17.363c-22.571,3.471 -57.292,3.471 -78.125,0c-22.571,-3.471 -5.208,-6.946 38.196,-6.946c43.404,0 60.762,3.471 39.929,6.946Z" style="fill:#f4bc33;fill-rule:nonzero;"/><path d="M7569.446,20381.946c0,22.571 34.721,22.571 69.446,0c20.833,-13.887 15.625,-17.362 -20.833,-17.362c-27.779,0 -48.613,6.946 -48.613,17.362Z" style="fill:#f4bc33;fill-rule:nonzero;"/><path d="M6359.375,20480.904c15.625,3.471 43.404,3.471 60.763,0c15.625,-5.208 1.738,-8.679 -31.25,-8.679c-32.987,0 -46.875,3.471 -29.513,8.679Z" style="fill:#f4bc33;fill-rule:nonzero;"/><path d="M4609.375,20592.013c38.196,6.946 78.125,6.946 90.279,3.471c12.154,-5.208 22.571,-1.737 22.571,6.946c0,10.417 432.292,15.625 1168.404,10.417c640.625,-3.471 1196.179,-5.208 1230.904,-5.208c34.721,0 67.708,-6.946 72.917,-13.888c3.471,-6.946 -592.012,-12.154 -1322.917,-12.154c-732.637,0 -1300.346,5.208 -1262.154,10.417l-0.004,0Z" style="fill:#f4bc33;fill-rule:nonzero;"/><path d="M7600.696,20585.071c12.154,5.208 27.779,3.471 32.988,-1.737c6.946,-5.208 -3.471,-10.417 -22.571,-8.679c-19.096,0 -24.304,5.208 -10.417,10.417Z" style="fill:#f4bc33;fill-rule:nonzero;"/><path d="M4006.946,20619.792c12.154,5.208 27.779,3.471 32.988,-1.738c6.946,-5.208 -3.471,-10.417 -22.571,-8.679c-19.096,0 -24.304,5.208 -10.417,10.417Z" style="fill:#f4bc33;fill-rule:nonzero;"/><path d="M4875,20706.596c12.154,5.208 27.779,3.471 32.988,-1.738c6.946,-5.208 -3.471,-10.417 -22.571,-8.679c-19.096,0 -24.304,5.208 -10.417,10.417Z" style="fill:#f4bc33;fill-rule:nonzero;"/><path d="M5838.542,20706.596c34.721,3.471 93.75,3.471 130.208,0c34.721,-3.471 5.208,-6.946 -65.971,-6.946c-71.179,0 -100.696,3.471 -64.238,6.946Z" style="fill:#f4bc33;fill-rule:nonzero;"/><path d="M4215.279,20723.958c12.154,5.208 27.779,3.471 32.988,-1.738c6.946,-5.208 -3.471,-10.417 -22.571,-8.679c-19.096,0 -24.304,5.208 -10.417,10.417Z" style="fill:#f4bc33;fill-rule:nonzero;"/></g></svg>