<?xml version="1.0" encoding="UTF-8" standalone="no"?><!DOCTYPE svg PUBLIC "-//W3C//DTD SVG 1.1//EN" "http://www.w3.org/Graphics/SVG/1.1/DTD/svg11.dtd"><svg width="100%" height="100%" viewBox="0 0 2988 5334" version="1.1" xmlns="http://www.w3.org/2000/svg" xmlns:xlink="http://www.w3.org/1999/xlink" xml:space="preserve" xmlns:serif="http://www.serif.com/" style="fill-rule:evenodd;clip-rule:evenodd;stroke-linecap:round;"><path d="M631.307,891.627c95.351,-14.922 190.389,-31.769 286.518,-40.622c53.436,-4.921 105.088,-8.011 158.401,-16.354c70.039,-10.961 139.216,-25.544 209.074,-36.937c184.282,-30.05 370.736,-36.042 555.449,-61.857c114.957,-16.063 225.203,-38.706 336.881,-69.118c32.44,-8.839 66.401,-12.622 98.709,-22.01c14.567,-4.232 28.803,-6.616 43.82,-8.966l0.873,-0.137c21.916,-3.434 25.473,-3.991 26.79,19.707c8.426,151.502 1.605,300.71 25.208,451.532c14.25,91.054 32.159,181.536 46.393,272.491c12.934,82.648 14.006,168.376 19.728,251.828c1.633,23.775 6.497,47.496 10.182,71.043c5.977,38.193 7.726,79.954 21.456,116.133c7.699,20.283 -27.979,13.037 -42.166,15.034c-31.163,4.388 -62.939,0.495 -94.226,-0.251c-64.61,-1.533 -129.425,-1.064 -193.99,1.541c-125.149,5.052 -251.527,22.055 -376.021,36.118c-93.558,10.567 -185.805,30.803 -279.441,40.923c-111.578,12.055 -222.421,19.398 -334.335,27.018c-122.972,8.368 -247.615,6.884 -369.412,25.945c-8.388,1.313 -28.131,8.493 -34.299,0.914c-5.214,-6.404 -5.021,-17.113 -6.224,-24.798c-4.39,-28.054 -13.722,-54.855 -21.296,-82.183c-15.843,-57.163 -23.929,-116.678 -36.706,-174.667c-21.525,-97.684 -49.722,-194.311 -75.743,-290.862c-15.109,-56.063 -17.671,-114.668 -31.452,-171.035c-17.225,-70.455 -25.305,-145.095 -19.271,-217.46c4.024,-48.261 12.232,-95.055 22.001,-142.38c2.066,-10.015 0.879,-34.809 4.206,-13.547m137.669,71.238c95.351,-14.922 190.39,-31.769 286.515,-40.621c53.436,-4.921 105.092,-8.012 158.405,-16.355c70.039,-10.961 139.212,-25.544 209.074,-36.937c184.282,-30.05 370.736,-36.042 555.449,-61.857c114.953,-16.062 225.203,-38.706 336.881,-69.118c32.44,-8.839 66.401,-12.622 98.709,-22.01c14.567,-4.232 28.803,-6.616 43.816,-8.966l0.877,-0.137c21.916,-3.434 25.473,-3.991 26.79,19.707c8.426,151.502 1.605,300.71 25.208,451.532c14.25,91.054 32.159,181.536 46.393,272.491c12.934,82.648 14.002,168.377 19.728,251.828c1.633,23.775 6.497,47.496 10.182,71.043c5.977,38.193 7.726,79.954 21.456,116.133c7.695,20.283 -27.979,13.037 -42.166,15.034c-31.167,4.388 -62.939,0.495 -94.226,-0.251c-64.61,-1.533 -129.425,-1.064 -193.994,1.542c-125.149,5.052 -251.523,22.054 -376.021,36.118c-93.554,10.567 -185.805,30.803 -279.437,40.922c-111.578,12.055 -222.421,19.398 -334.335,27.018c-122.972,8.368 -247.616,6.884 -369.413,25.945c-8.388,1.313 -28.131,8.493 -34.299,0.914c-5.214,-6.404 -5.021,-17.113 -6.224,-24.798c-4.39,-28.054 -13.722,-54.855 -21.296,-82.183c-15.843,-57.163 -23.929,-116.678 -36.706,-174.667c-21.525,-97.684 -49.722,-194.311 -75.743,-290.862c-15.109,-56.063 -17.671,-114.668 -31.452,-171.035c-17.225,-70.455 -25.305,-145.095 -19.271,-217.46c4.024,-48.261 12.232,-95.055 22.001,-142.38c2.066,-10.015 0.879,-34.809 4.206,-13.547m137.67,71.238c95.352,-14.922 190.39,-31.769 286.515,-40.621c53.436,-4.921 105.092,-8.012 158.405,-16.355c70.039,-10.961 139.212,-25.544 209.074,-36.937c184.282,-30.05 370.736,-36.042 555.449,-61.857c114.953,-16.062 225.203,-38.706 336.881,-69.118c32.44,-8.839 66.401,-12.622 98.709,-22.01c14.567,-4.232 28.803,-6.616 43.816,-8.966l0.877,-0.137c21.916,-3.434 25.473,-3.991 26.79,19.707c8.426,151.502 1.605,300.71 25.208,451.532c14.25,91.054 32.159,181.536 46.393,272.491c12.934,82.648 14.002,168.377 19.728,251.828c1.633,23.775 6.497,47.496 10.182,71.043c5.977,38.193 7.726,79.954 21.456,116.133c7.695,20.283 -27.979,13.037 -42.166,15.034c-31.167,4.388 -62.939,0.495 -94.226,-0.251c-64.61,-1.533 -129.425,-1.064 -193.994,1.542c-125.149,5.052 -251.523,22.054 -376.021,36.118c-93.554,10.567 -185.805,30.803 -279.437,40.922c-111.578,12.055 -222.421,19.398 -334.335,27.018c-122.972,8.368 -247.617,6.885 -369.413,25.945c-8.388,1.313 -28.131,8.493 -34.299,0.914c-5.214,-6.404 -5.021,-17.113 -6.224,-24.798c-4.39,-28.054 -13.722,-54.855 -21.296,-82.183c-15.843,-57.163 -23.929,-116.678 -36.706,-174.667c-21.525,-97.684 -49.722,-194.311 -75.743,-290.862c-15.109,-56.063 -17.671,-114.668 -31.452,-171.035c-17.225,-70.455 -25.305,-145.095 -19.271,-217.46c4.024,-48.261 12.232,-95.055 22.001,-142.38c2.066,-10.015 0.879,-34.809 4.206,-13.547" style="fill:#f00;fill-rule:nonzero;stroke:#000;stroke-width:29.17px;"/><path d="M2415.375,3300.835c-95.711,12.403 -191.161,26.739 -287.489,33.054c-53.547,3.511 -105.262,5.238 -158.777,12.173c-70.304,9.111 -139.841,21.865 -209.975,31.412c-185.011,25.181 -371.557,26.256 -556.886,47.193c-115.341,13.027 -226.145,32.755 -338.586,60.213c-32.662,7.98 -66.711,10.868 -99.255,19.4c-14.673,3.847 -28.967,5.855 -44.041,7.808l-0.876,0.114c-21.999,2.855 -25.569,3.318 -26.261,-20.407c-4.429,-151.672 6.323,-300.647 -13.296,-452.04c-11.844,-91.398 -27.362,-182.32 -39.193,-273.62c-10.751,-82.96 -9.562,-168.687 -13.082,-252.261c-1.006,-23.81 -5.242,-47.651 -8.305,-71.286c-4.968,-38.338 -5.615,-80.13 -18.386,-116.659c-7.162,-20.479 28.313,-12.295 42.548,-13.917c31.268,-3.565 62.93,1.164 94.187,2.735c64.547,3.236 129.352,4.476 193.963,3.573c125.238,-1.751 252.021,-15.416 376.842,-26.193c93.804,-8.097 186.553,-25.894 280.423,-33.542c111.857,-9.109 222.855,-13.527 334.931,-18.194c123.15,-5.123 247.711,-0.354 369.968,-16.197c8.42,-1.091 28.345,-7.749 34.311,-0.01c5.043,6.539 4.568,17.239 5.568,24.954c3.649,28.16 12.271,55.197 19.122,82.716c14.331,57.561 20.844,117.269 32.089,175.574c18.942,98.218 44.583,195.555 68.049,292.757c13.626,56.442 14.642,115.094 26.932,171.805c15.362,70.884 21.472,145.711 13.531,217.893c-5.295,48.138 -14.734,94.7 -25.746,141.751c-2.33,9.957 -1.796,34.773 -4.562,13.431m-135.743,-74.842c-95.711,12.403 -191.161,26.739 -287.486,33.054c-53.547,3.511 -105.266,5.238 -158.781,12.173c-70.304,9.111 -139.837,21.865 -209.975,31.412c-185.011,25.181 -371.557,26.256 -556.886,47.193c-115.337,13.026 -226.145,32.755 -338.586,60.213c-32.662,7.98 -66.711,10.868 -99.255,19.4c-14.673,3.847 -28.967,5.855 -44.037,7.807l-0.88,0.114c-21.999,2.855 -25.569,3.318 -26.261,-20.407c-4.429,-151.672 6.323,-300.647 -13.296,-452.04c-11.844,-91.398 -27.362,-182.32 -39.193,-273.62c-10.751,-82.96 -9.558,-168.687 -13.082,-252.261c-1.006,-23.81 -5.242,-47.651 -8.305,-71.286c-4.968,-38.338 -5.615,-80.13 -18.386,-116.659c-7.158,-20.479 28.313,-12.295 42.548,-13.917c31.272,-3.565 62.93,1.164 94.187,2.735c64.547,3.236 129.352,4.476 193.968,3.573c125.238,-1.751 252.017,-15.416 376.842,-26.193c93.8,-8.097 186.553,-25.894 280.419,-33.541c111.857,-9.109 222.855,-13.527 334.931,-18.194c123.15,-5.123 247.712,-0.354 369.969,-16.197c8.42,-1.091 28.345,-7.749 34.311,-0.01c5.043,6.539 4.568,17.239 5.568,24.954c3.649,28.16 12.271,55.197 19.122,82.716c14.331,57.561 20.844,117.269 32.089,175.574c18.942,98.218 44.583,195.555 68.049,292.757c13.626,56.442 14.642,115.094 26.932,171.805c15.362,70.884 21.472,145.711 13.531,217.893c-5.295,48.138 -14.734,94.7 -25.746,141.751c-2.33,9.957 -1.796,34.773 -4.562,13.431m-135.744,-74.842c-95.712,12.403 -191.161,26.739 -287.486,33.054c-53.547,3.511 -105.266,5.238 -158.781,12.173c-70.304,9.111 -139.837,21.865 -209.975,31.412c-185.011,25.181 -371.557,26.256 -556.886,47.193c-115.337,13.026 -226.145,32.755 -338.586,60.213c-32.662,7.98 -66.711,10.868 -99.255,19.4c-14.673,3.847 -28.967,5.855 -44.037,7.807l-0.88,0.114c-21.999,2.855 -25.569,3.318 -26.261,-20.407c-4.429,-151.672 6.323,-300.647 -13.296,-452.04c-11.844,-91.398 -27.362,-182.32 -39.193,-273.62c-10.751,-82.96 -9.558,-168.687 -13.082,-252.261c-1.006,-23.81 -5.242,-47.651 -8.305,-71.286c-4.968,-38.338 -5.615,-80.13 -18.386,-116.659c-7.158,-20.479 28.313,-12.295 42.548,-13.917c31.272,-3.565 62.93,1.164 94.187,2.735c64.547,3.236 129.352,4.476 193.968,3.573c125.238,-1.751 252.017,-15.416 376.842,-26.193c93.8,-8.097 186.553,-25.894 280.419,-33.541c111.857,-9.109 222.855,-13.527 334.931,-18.194c123.15,-5.123 247.713,-0.354 369.969,-16.197c8.42,-1.091 28.345,-7.749 34.311,-0.01c5.043,6.539 4.568,17.239 5.568,24.954c3.649,28.16 12.271,55.197 19.122,82.716c14.331,57.561 20.844,117.269 32.089,175.574c18.942,98.218 44.583,195.555 68.049,292.757c13.626,56.442 14.642,115.094 26.932,171.805c15.362,70.884 21.472,145.711 13.531,217.893c-5.295,48.138 -14.734,94.7 -25.746,141.751c-2.33,9.957 -1.796,34.773 -4.562,13.431" style="fill:#f00;fill-rule:nonzero;stroke:#000;stroke-width:29.17px;"/><path d="M2381.606,4746.95c-94.508,19.56 -188.611,41.027 -284.193,54.563c-53.132,7.524 -104.571,13.133 -157.414,24.069c-69.42,14.368 -137.803,32.312 -207.021,47.101c-182.595,39.012 -368.533,54.102 -551.766,88.906c-114.036,21.657 -223.044,49.656 -333.104,85.485c-31.97,10.412 -65.705,15.85 -97.516,26.803c-14.343,4.938 -28.445,8.015 -43.33,11.095l-0.865,0.179c-21.722,4.5 -25.247,5.23 -27.72,-18.376c-15.813,-150.91 -16.286,-300.273 -47.226,-449.763c-18.679,-90.25 -40.985,-179.749 -59.643,-269.901c-16.954,-81.918 -22.211,-167.491 -32.001,-250.564c-2.792,-23.667 -8.808,-47.122 -13.638,-70.461c-7.835,-37.856 -11.621,-79.482 -27.101,-114.947c-8.681,-19.882 27.309,-14.388 41.382,-17.075c30.912,-5.904 62.839,-3.568 94.126,-4.35c64.608,-1.624 129.323,-5.257 193.684,-11.012c124.753,-11.157 250.15,-34.31 373.808,-54.436c92.93,-15.123 184.079,-39.839 277.11,-54.519c110.856,-17.489 221.209,-30.235 332.617,-43.311c122.417,-14.363 246.984,-18.967 367.705,-43.952c8.314,-1.721 27.682,-9.857 34.213,-2.588c5.521,6.142 5.851,16.847 7.427,24.465c5.755,27.807 16.384,54.119 25.284,81.045c18.616,56.321 29.597,115.371 45.192,172.666c26.269,96.517 59.151,191.652 89.856,286.816c17.828,55.258 23.249,113.668 39.766,169.296c20.645,69.53 32.36,143.686 29.866,216.26c-1.663,48.4 -7.576,95.539 -15.022,143.285c-1.575,10.104 0.822,34.81 -3.54,13.736m-140.983,-64.431c-94.508,19.56 -188.612,41.028 -284.19,54.563c-53.132,7.524 -104.575,13.134 -157.418,24.07c-69.42,14.368 -137.799,32.311 -207.021,47.101c-182.595,39.012 -368.533,54.102 -551.766,88.906c-114.032,21.656 -223.044,49.656 -333.104,85.485c-31.97,10.412 -65.705,15.85 -97.516,26.803c-14.343,4.938 -28.445,8.015 -43.326,11.094l-0.869,0.18c-21.722,4.5 -25.247,5.23 -27.72,-18.376c-15.813,-150.91 -16.286,-300.273 -47.226,-449.763c-18.679,-90.25 -40.985,-179.749 -59.643,-269.901c-16.954,-81.918 -22.207,-167.492 -32.001,-250.564c-2.792,-23.667 -8.808,-47.122 -13.638,-70.461c-7.835,-37.856 -11.621,-79.482 -27.101,-114.947c-8.677,-19.883 27.309,-14.388 41.382,-17.075c30.916,-5.905 62.839,-3.568 94.126,-4.35c64.608,-1.624 129.323,-5.257 193.688,-11.013c124.753,-11.157 250.146,-34.31 373.808,-54.436c92.926,-15.122 184.079,-39.839 277.106,-54.518c110.856,-17.489 221.209,-30.235 332.617,-43.311c122.417,-14.363 246.985,-18.967 367.706,-43.952c8.314,-1.721 27.682,-9.857 34.213,-2.588c5.521,6.142 5.851,16.847 7.427,24.465c5.755,27.807 16.384,54.119 25.284,81.045c18.616,56.321 29.597,115.371 45.192,172.666c26.269,96.517 59.151,191.652 89.856,286.816c17.828,55.258 23.249,113.668 39.766,169.296c20.645,69.53 32.36,143.686 29.866,216.26c-1.663,48.4 -7.576,95.539 -15.022,143.285c-1.575,10.104 0.822,34.81 -3.54,13.736m-140.984,-64.43c-94.51,19.56 -188.612,41.028 -284.19,54.563c-53.132,7.524 -104.575,13.134 -157.418,24.07c-69.42,14.368 -137.799,32.311 -207.021,47.101c-182.595,39.012 -368.533,54.102 -551.766,88.906c-114.032,21.656 -223.044,49.656 -333.104,85.485c-31.97,10.412 -65.705,15.85 -97.516,26.803c-14.343,4.938 -28.445,8.015 -43.326,11.094l-0.869,0.18c-21.722,4.5 -25.247,5.23 -27.72,-18.376c-15.813,-150.91 -16.286,-300.273 -47.226,-449.763c-18.679,-90.25 -40.985,-179.749 -59.643,-269.901c-16.954,-81.918 -22.207,-167.492 -32.001,-250.564c-2.792,-23.667 -8.808,-47.122 -13.638,-70.461c-7.835,-37.856 -11.621,-79.482 -27.101,-114.947c-8.677,-19.883 27.309,-14.388 41.382,-17.075c30.916,-5.905 62.839,-3.568 94.126,-4.35c64.608,-1.624 129.323,-5.257 193.688,-11.013c124.753,-11.157 250.146,-34.31 373.808,-54.436c92.926,-15.122 184.079,-39.839 277.106,-54.518c110.856,-17.489 221.209,-30.235 332.617,-43.311c122.417,-14.363 246.986,-18.967 367.706,-43.952c8.314,-1.721 27.682,-9.857 34.213,-2.588c5.521,6.142 5.851,16.847 7.427,24.465c5.755,27.807 16.384,54.119 25.284,81.045c18.616,56.321 29.597,115.371 45.192,172.666c26.269,96.517 59.151,191.652 89.856,286.816c17.828,55.258 23.249,113.668 39.766,169.296c20.645,69.53 32.36,143.686 29.866,216.26c-1.663,48.4 -7.576,95.539 -15.022,143.285c-1.575,10.104 0.822,34.81 -3.54,13.736" style="fill:#f00;fill-rule:nonzero;stroke:#000;stroke-width:29.17px;"/><path d="M180.768,3139.542c-32.106,-10.987 -58.867,-26.272 -84.496,-45.079c-45.308,-33.246 -71.06,-76.316 -81.126,-131.365c-3.848,-21.058 -4.471,-41.63 -4.122,-62.425c0.533,-31.869 9.152,-62.126 20.103,-92.057c20.756,-56.725 54.761,-105.87 90.962,-152.688c26.096,-33.748 57.61,-64.112 93.54,-88.728c22.141,-15.168 43.261,-31.905 65.899,-46.26c29.679,-18.815 61.213,-33.701 97.838,-30.942c38.63,2.907 69.951,19.949 95.137,49.399c31.958,37.373 46.955,83.664 64.609,127.863c8.013,20.061 23.87,40.108 17.734,64.824c11.585,16.866 7.946,36.952 10.965,55.493c3.351,20.591 5.664,41.965 3.994,62.64c-4.175,51.759 -14.28,101.482 -43.758,146.829c-17.737,27.286 -38.655,49.248 -64.193,68.161c-17.276,12.797 -38.192,16.455 -57.778,21.993c-18.868,5.337 -39.686,3.335 -59.417,6.15c-28.945,4.128 -55.032,-8.546 -82.564,-12.523c-37.348,-5.396 -73.406,-17.639 -106.453,-34.843c-36.466,-18.983 -76.037,-36.133 -97.014,-75.724c-15.246,-28.774 -15.464,-58.367 -10.16,-90.493c8.138,-49.265 30.662,-90.942 58.434,-130.525c14.497,-20.664 27.573,-42.744 51.036,-56.116c12.805,-7.3 23.069,-19.044 34.536,-28.716c30.02,-25.328 63.827,-42.761 102.457,-51.147c53.974,-11.719 114.265,-7.485 141.9,44.702c21.672,12.079 30.126,34.793 43.557,53.608c11.948,16.732 16.74,35.924 23.482,54.775c7.365,20.594 12.649,41.244 16.746,62.687c9.512,49.804 4.22,95.321 -33.112,132.873c-37.035,37.25 -83.134,56.781 -133.362,69.826c-41.294,10.724 -82.849,9.948 -124.604,9.607c-9.604,-0.078 -19.145,-3.538 -28.802,-4.628c-1.958,-0.221 -4.329,3.228 -6.51,4.985c1.399,1.678 2.527,4.438 4.242,4.871c14.81,3.731 31.081,4.382 44.297,11.107c19.572,9.956 40.864,8.809 61.009,14.327c40.739,11.157 81.701,9.23 121.476,-6.423c26.023,-10.241 47.162,-25.149 65.215,-48.165c19.346,-24.669 37.329,-49.075 46.274,-79.067c14.048,-47.098 24.242,-95.682 17.215,-144.427c-6.703,-46.484 -17.075,-92.872 -39.099,-135.627c-10.504,-20.393 -16.846,-42.931 -27.302,-63.358c-12.124,-23.683 -28.361,-44.612 -51.899,-58.624c-2.086,-1.243 -3.885,-3.005 -6.038,-4.094c-64.087,-32.452 -63.531,-23.82 -130.715,-4.307c-16.307,4.737 -30.799,17.614 -44.637,28.618c-38.278,30.439 -75.643,61.992 -108.816,98.173c-38.72,42.227 -67.916,89.94 -92.179,142.134c-14.989,32.243 -17.807,66.43 -29.048,98.832c11.464,28.878 0.835,60.288 12.755,90.054c20.217,50.486 54.211,85.792 100.36,113.126c36.77,21.776 75.381,34.176 117.075,41.197c32,5.387 63.933,12.283 96.209,9.389c58.233,-5.22 115.818,-17.98 162.391,-54.552c41.741,-32.782 76.833,-73.758 98.24,-123.66c16.383,-38.194 30.084,-77.107 37.379,-118.759c5.214,-29.783 5.574,-59.319 2.754,-88.116c-1.952,-19.913 2.312,-43.406 -14.106,-60.727c3.971,-19.726 -7.272,-36.591 -10.353,-54.993c-0.525,-3.134 -1.22,-6.401 -2.645,-9.194c-18.095,-35.46 -33.321,-72.917 -55.666,-105.479c-13.576,-19.784 -28.64,-45.506 -60.367,-44.202c-1.994,0.081 -4.622,-1.93 -6.058,-3.7c-10.062,-12.417 -24.007,-15.064 -38.775,-18.648c-32.265,-7.825 -60.087,-9.406 -88.616,-0.933c-58.599,17.408 -112.103,44.045 -157.858,85.446c-11.425,10.339 -24.867,18.46 -37.505,27.431c-1.391,0.986 -3.583,0.835 -5.404,1.212c0.335,-2.326 -0.151,-5.379 1.148,-6.848c5.135,-5.777 10.567,-11.283 16.274,-16.497c43.4,-39.884 90.752,-73.286 144.274,-99.203c40.959,-19.832 83.301,-24.149 125.626,-18.19c23.879,3.363 48.039,18.312 67.84,33.553c23.781,18.301 45.944,39.887 62.014,66.128c4.496,7.342 6.706,16.081 10.021,24.155c1.505,3.67 2.173,8.42 4.879,10.75c25.49,21.924 31.014,54.197 40.306,83.357c5.002,15.696 14.816,30.819 13.869,48.494c-0.919,17.176 12.098,32.79 3.575,51.639c-3.309,7.32 3.918,18.796 4.117,28.422c1.167,57.082 -11.163,110.754 -33.315,163.916c-20.862,50.064 -49.408,93.794 -87.164,131.019c-22.437,22.122 -49.282,40.982 -76.967,56.149c-19.061,10.445 -43.121,11.487 -64.659,17.718c-43.892,12.699 -87.954,14.718 -132.717,5.172c-19.865,-4.234 -40.155,-6.485 -60.037,-10.655c-10.819,-2.268 -21.192,-6.664 -34.34,-10.102Zm257.586,-616.099l4.773,0.377c-1.589,-0.983 -3.181,-1.969 -4.773,-5.533l-4.776,-0.377c1.592,0.986 3.184,1.969 4.776,5.533Zm-38.639,229.426c-6.183,-21.348 -23.381,-33.734 -41.621,-40.339c-18.684,-6.764 -38.502,-16.126 -59.744,-11.107c-34.486,8.149 -65.877,23.13 -95.877,42.155c-36.125,22.907 -64.913,53.72 -93.347,84.563c-15.495,16.81 -27.878,39.063 -30.528,61.545c-6.217,52.767 18.005,93.528 69.566,115.6c27.518,11.78 57.459,16.975 86.717,20.036c43.825,4.583 87.789,0.38 129.972,-14.662c17.952,-6.401 35.751,-13.308 53.94,-18.944c43.113,-13.358 72.001,-42.177 83.351,-84.739c5.963,-22.345 1.81,-47.265 3.357,-70.949c1.494,-22.848 -6.32,-43.716 -14.805,-63.506c-13.822,-32.249 -29.796,-63.447 -49.807,-92.894c-22.823,-33.584 -55.786,-45.02 -91.99,-50.097c-51.647,-7.242 -96.059,15.38 -136.135,43.367c-53.806,37.572 -94.112,88.828 -129.204,143.997c-0.977,1.536 0.363,4.549 0.623,6.876c1.821,-0.969 3.731,-1.801 5.44,-2.941c2.972,-1.977 6.426,-3.642 8.61,-6.315c9.381,-11.47 17.516,-24.074 27.677,-34.77c24.515,-25.814 52.6,-46.662 83.798,-64.536c36.019,-20.636 72.669,-36.267 114.525,-34.251c39.515,1.902 70.13,20.848 89.685,55.429c21.963,38.842 20.988,50.463 19.748,93.366c-0.802,27.73 -7.264,52.527 -20.848,76.596c-28.707,50.86 -72.06,75.744 -129.709,78.774c-23.834,1.251 -43.973,-9.875 -65.871,-14.986c-25.764,-6.01 -44.83,-19.98 -61.221,-38.733c-14.246,-16.299 -28.498,-35.156 -20.932,-57.716c8.018,-23.92 18.201,-48.469 33.218,-68.374c23.571,-31.24 54.379,-54.49 95.349,-60.906c27.386,-4.287 52.284,-1.935 73.384,17.907c17.019,16.003 28.797,34.312 34.874,57.772c10.222,39.446 -2.164,70.432 -38.887,87.465c-7.205,3.34 -14.16,7.275 -21.516,10.222c-23.432,9.378 -47.969,12.531 -72.92,10.183c-17.067,-1.606 -36.583,-16.223 -36.943,-27.705c-0.614,-19.709 -1.078,-38.979 9.546,-57.833c14.143,-25.102 31.972,-36.05 57.574,-27.096c6.22,2.176 9.892,11.646 14.738,17.762c-5.84,2.477 -12.205,7.881 -17.436,6.946c-29.221,-5.234 -29.185,-5.784 -40.702,20.396c-1.592,3.622 -2.466,7.602 -3.335,11.49c-1.098,4.918 -4.019,11.015 -2.204,14.601c2.335,4.611 8.088,8.613 13.238,10.49c35.692,12.998 82.863,4.34 109.082,-24.459c8.705,-9.56 13.59,-19.522 14.123,-32.972c1.098,-27.741 -14.126,-47.388 -32.533,-63.545c-10.727,-9.417 -27.752,-17.905 -41.043,-16.718c-21.653,1.935 -44.473,10.012 -61.5,23.923c-19.36,15.818 -35.611,35.921 -51.228,55.728c-16.86,21.385 -13.344,57.766 6.248,76.721c39.205,37.929 85.558,56.099 139.783,42.867c25.954,-6.334 51.114,-18.287 67.762,-40.775c10.864,-14.673 19.893,-31.126 27.146,-47.908c4.706,-10.884 5.055,-23.75 6.778,-35.812c3.997,-27.936 -5.929,-53.25 -17.963,-81.187Zm115.913,-275.826c-1.888,-2.578 -3.653,-5.267 -5.803,-7.605c-0.29,-0.316 -2.502,1.139 -3.823,1.773c2.349,2.804 4.7,5.605 9.627,5.831Zm-36.061,-15.467c2.729,0.707 5.449,1.444 8.208,1.98c0.087,0.017 0.578,-2.083 0.88,-3.195c-2.17,-0.455 -4.34,-0.91 -9.088,1.215Zm-10.303,-5.156l3.089,2.061c-0.17,-1.547 -0.341,-3.094 -3.089,-2.061Z" style="fill:#ffdc49;fill-rule:nonzero;"/><path d="M2335.974,1276.475c-32.106,-10.987 -58.867,-26.272 -84.496,-45.079c-45.308,-33.246 -71.06,-76.316 -81.126,-131.365c-3.848,-21.058 -4.471,-41.63 -4.122,-62.425c0.533,-31.869 9.152,-62.126 20.103,-92.057c20.756,-56.725 54.761,-105.87 90.962,-152.688c26.096,-33.748 57.61,-64.112 93.54,-88.728c22.141,-15.168 43.261,-31.905 65.899,-46.26c29.679,-18.815 61.213,-33.701 97.838,-30.942c38.63,2.907 69.951,19.949 95.137,49.399c31.958,37.373 46.955,83.664 64.609,127.863c8.013,20.061 23.87,40.108 17.734,64.824c11.585,16.866 7.946,36.952 10.965,55.493c3.351,20.591 5.664,41.965 3.994,62.64c-4.175,51.759 -14.28,101.482 -43.758,146.829c-17.737,27.286 -38.655,49.248 -64.193,68.161c-17.276,12.797 -38.192,16.455 -57.778,21.993c-18.868,5.337 -39.686,3.335 -59.417,6.15c-28.945,4.128 -55.032,-8.546 -82.564,-12.523c-37.348,-5.396 -73.406,-17.639 -106.453,-34.843c-36.466,-18.983 -76.037,-36.133 -97.014,-75.724c-15.246,-28.774 -15.464,-58.367 -10.16,-90.493c8.138,-49.265 30.662,-90.942 58.434,-130.525c14.497,-20.664 27.573,-42.744 51.036,-56.116c12.805,-7.3 23.069,-19.044 34.536,-28.716c30.02,-25.328 63.827,-42.761 102.457,-51.147c53.974,-11.719 114.265,-7.485 141.9,44.702c21.672,12.079 30.126,34.793 43.557,53.608c11.948,16.732 16.74,35.924 23.482,54.775c7.365,20.594 12.649,41.244 16.746,62.687c9.512,49.804 4.22,95.321 -33.112,132.873c-37.035,37.25 -83.134,56.781 -133.362,69.826c-41.294,10.724 -82.849,9.948 -124.604,9.607c-9.604,-0.078 -19.145,-3.538 -28.802,-4.628c-1.958,-0.221 -4.329,3.228 -6.51,4.985c1.399,1.678 2.527,4.438 4.242,4.871c14.81,3.731 31.081,4.382 44.297,11.107c19.572,9.956 40.864,8.809 61.009,14.327c40.739,11.157 81.701,9.23 121.476,-6.423c26.023,-10.241 47.162,-25.149 65.215,-48.165c19.346,-24.669 37.329,-49.075 46.274,-79.067c14.048,-47.098 24.242,-95.682 17.215,-144.427c-6.703,-46.484 -17.075,-92.872 -39.099,-135.627c-10.504,-20.393 -16.846,-42.931 -27.302,-63.358c-12.124,-23.683 -28.361,-44.612 -51.899,-58.624c-2.086,-1.243 -3.885,-3.005 -6.038,-4.094c-64.087,-32.452 -63.531,-23.82 -130.715,-4.307c-16.307,4.737 -30.799,17.614 -44.637,28.618c-38.278,30.439 -75.643,61.992 -108.816,98.173c-38.72,42.227 -67.916,89.94 -92.179,142.134c-14.989,32.243 -17.807,66.43 -29.048,98.832c11.464,28.878 0.835,60.288 12.755,90.054c20.217,50.486 54.211,85.792 100.36,113.126c36.77,21.776 75.381,34.176 117.075,41.197c32,5.387 63.933,12.283 96.209,9.389c58.233,-5.22 115.818,-17.98 162.391,-54.552c41.741,-32.782 76.833,-73.758 98.24,-123.66c16.383,-38.194 30.084,-77.107 37.379,-118.759c5.214,-29.783 5.574,-59.319 2.754,-88.116c-1.952,-19.913 2.312,-43.406 -14.106,-60.727c3.971,-19.726 -7.272,-36.591 -10.353,-54.993c-0.525,-3.134 -1.22,-6.401 -2.645,-9.194c-18.095,-35.46 -33.321,-72.917 -55.666,-105.479c-13.576,-19.784 -28.64,-45.506 -60.367,-44.202c-1.994,0.081 -4.622,-1.93 -6.058,-3.7c-10.062,-12.417 -24.007,-15.064 -38.775,-18.648c-32.265,-7.825 -60.087,-9.406 -88.616,-0.933c-58.599,17.408 -112.103,44.045 -157.858,85.446c-11.425,10.339 -24.867,18.46 -37.505,27.431c-1.391,0.986 -3.583,0.835 -5.404,1.212c0.335,-2.326 -0.151,-5.379 1.148,-6.848c5.135,-5.777 10.567,-11.283 16.274,-16.497c43.4,-39.884 90.752,-73.286 144.274,-99.203c40.959,-19.832 83.301,-24.149 125.626,-18.19c23.879,3.363 48.039,18.312 67.84,33.553c23.781,18.301 45.944,39.887 62.014,66.128c4.496,7.342 6.706,16.081 10.021,24.155c1.505,3.67 2.173,8.42 4.879,10.75c25.49,21.924 31.014,54.197 40.306,83.357c5.002,15.696 14.816,30.819 13.869,48.494c-0.919,17.176 12.098,32.79 3.575,51.639c-3.309,7.32 3.918,18.796 4.117,28.422c1.167,57.082 -11.163,110.754 -33.315,163.916c-20.862,50.064 -49.408,93.794 -87.164,131.019c-22.437,22.122 -49.282,40.982 -76.967,56.149c-19.061,10.445 -43.121,11.487 -64.659,17.718c-43.892,12.699 -87.954,14.718 -132.717,5.172c-19.865,-4.234 -40.155,-6.485 -60.037,-10.655c-10.819,-2.268 -21.192,-6.664 -34.34,-10.102Zm257.586,-616.099l4.773,0.377c-1.589,-0.983 -3.181,-1.969 -4.773,-5.533l-4.776,-0.377c1.592,0.986 3.184,1.969 4.776,5.533Zm-38.639,229.426c-6.183,-21.348 -23.381,-33.734 -41.621,-40.339c-18.684,-6.764 -38.502,-16.126 -59.744,-11.107c-34.486,8.149 -65.877,23.13 -95.877,42.155c-36.125,22.907 -64.913,53.72 -93.347,84.563c-15.495,16.81 -27.878,39.063 -30.528,61.545c-6.217,52.767 18.005,93.528 69.566,115.6c27.518,11.78 57.459,16.975 86.717,20.036c43.825,4.583 87.789,0.38 129.972,-14.662c17.952,-6.401 35.751,-13.308 53.94,-18.944c43.113,-13.358 72.001,-42.177 83.351,-84.739c5.963,-22.345 1.81,-47.265 3.357,-70.949c1.494,-22.848 -6.32,-43.716 -14.805,-63.506c-13.822,-32.249 -29.796,-63.447 -49.807,-92.894c-22.823,-33.584 -55.786,-45.02 -91.99,-50.097c-51.647,-7.242 -96.059,15.38 -136.135,43.367c-53.806,37.572 -94.112,88.828 -129.204,143.997c-0.977,1.536 0.363,4.549 0.623,6.876c1.821,-0.969 3.731,-1.801 5.44,-2.941c2.972,-1.977 6.426,-3.642 8.61,-6.315c9.381,-11.47 17.516,-24.074 27.677,-34.77c24.515,-25.814 52.6,-46.662 83.798,-64.536c36.019,-20.636 72.669,-36.267 114.525,-34.251c39.515,1.902 70.13,20.848 89.685,55.429c21.963,38.842 20.988,50.463 19.748,93.366c-0.802,27.73 -7.264,52.527 -20.848,76.596c-28.707,50.86 -72.06,75.744 -129.709,78.774c-23.834,1.251 -43.973,-9.875 -65.871,-14.986c-25.764,-6.01 -44.83,-19.98 -61.221,-38.733c-14.246,-16.299 -28.498,-35.156 -20.932,-57.716c8.018,-23.92 18.201,-48.469 33.218,-68.374c23.571,-31.24 54.379,-54.49 95.349,-60.906c27.386,-4.287 52.284,-1.935 73.384,17.907c17.019,16.003 28.797,34.312 34.874,57.772c10.222,39.446 -2.164,70.432 -38.887,87.465c-7.205,3.34 -14.16,7.275 -21.516,10.222c-23.432,9.378 -47.969,12.531 -72.92,10.183c-17.067,-1.606 -36.583,-16.223 -36.943,-27.705c-0.614,-19.709 -1.078,-38.979 9.546,-57.833c14.143,-25.102 31.972,-36.05 57.574,-27.096c6.22,2.176 9.892,11.646 14.738,17.762c-5.84,2.477 -12.205,7.881 -17.436,6.946c-29.221,-5.234 -29.185,-5.784 -40.702,20.396c-1.592,3.622 -2.466,7.602 -3.335,11.49c-1.098,4.918 -4.019,11.015 -2.204,14.601c2.335,4.611 8.088,8.613 13.238,10.49c35.692,12.998 82.863,4.34 109.082,-24.459c8.705,-9.56 13.59,-19.522 14.123,-32.972c1.098,-27.741 -14.126,-47.388 -32.533,-63.545c-10.727,-9.417 -27.752,-17.905 -41.043,-16.718c-21.653,1.935 -44.473,10.012 -61.5,23.923c-19.36,15.818 -35.611,35.921 -51.228,55.728c-16.86,21.385 -13.344,57.766 6.248,76.721c39.205,37.929 85.558,56.099 139.783,42.867c25.954,-6.334 51.114,-18.287 67.762,-40.775c10.864,-14.673 19.893,-31.126 27.146,-47.908c4.706,-10.884 5.055,-23.75 6.778,-35.812c3.997,-27.936 -5.929,-53.25 -17.963,-81.187Zm115.913,-275.826c-1.888,-2.578 -3.653,-5.267 -5.803,-7.605c-0.29,-0.316 -2.502,1.139 -3.823,1.773c2.349,2.804 4.7,5.605 9.627,5.831Zm-36.061,-15.467c2.729,0.707 5.449,1.444 8.208,1.98c0.087,0.017 0.578,-2.083 0.88,-3.195c-2.17,-0.455 -4.34,-0.91 -9.088,1.215Zm-10.303,-5.156l3.089,2.061c-0.17,-1.547 -0.341,-3.094 -3.089,-2.061Z" style="fill:#ffdc49;fill-rule:nonzero;"/><path d="M2407.933,4807.877c-32.106,-10.987 -58.867,-26.272 -84.496,-45.079c-45.308,-33.246 -71.06,-76.316 -81.126,-131.365c-3.848,-21.058 -4.471,-41.63 -4.122,-62.425c0.533,-31.869 9.152,-62.126 20.103,-92.057c20.756,-56.725 54.761,-105.87 90.962,-152.688c26.096,-33.748 57.61,-64.112 93.54,-88.728c22.141,-15.168 43.261,-31.905 65.899,-46.26c29.679,-18.815 61.213,-33.701 97.838,-30.942c38.63,2.907 69.951,19.949 95.137,49.399c31.958,37.373 46.955,83.664 64.609,127.863c8.013,20.061 23.87,40.108 17.734,64.824c11.585,16.866 7.946,36.952 10.965,55.493c3.351,20.591 5.664,41.965 3.994,62.64c-4.175,51.759 -14.28,101.482 -43.758,146.829c-17.737,27.286 -38.655,49.248 -64.193,68.161c-17.276,12.797 -38.192,16.455 -57.778,21.993c-18.868,5.337 -39.686,3.335 -59.417,6.15c-28.945,4.128 -55.032,-8.546 -82.564,-12.523c-37.348,-5.396 -73.406,-17.639 -106.453,-34.843c-36.466,-18.983 -76.037,-36.133 -97.014,-75.724c-15.246,-28.774 -15.464,-58.367 -10.16,-90.493c8.138,-49.265 30.662,-90.942 58.434,-130.525c14.497,-20.664 27.573,-42.744 51.036,-56.116c12.805,-7.3 23.069,-19.044 34.536,-28.716c30.02,-25.328 63.827,-42.761 102.457,-51.147c53.974,-11.719 114.265,-7.485 141.9,44.702c21.672,12.079 30.126,34.793 43.557,53.608c11.948,16.732 16.74,35.924 23.482,54.775c7.365,20.594 12.649,41.244 16.746,62.687c9.512,49.804 4.22,95.321 -33.112,132.873c-37.035,37.25 -83.134,56.781 -133.362,69.826c-41.294,10.724 -82.849,9.948 -124.604,9.607c-9.604,-0.078 -19.145,-3.538 -28.802,-4.628c-1.958,-0.221 -4.329,3.228 -6.51,4.985c1.399,1.678 2.527,4.438 4.242,4.871c14.81,3.731 31.081,4.382 44.297,11.107c19.572,9.956 40.864,8.809 61.009,14.327c40.739,11.157 81.701,9.23 121.476,-6.423c26.023,-10.241 47.162,-25.149 65.215,-48.165c19.346,-24.669 37.329,-49.075 46.274,-79.067c14.048,-47.098 24.242,-95.682 17.215,-144.427c-6.703,-46.484 -17.075,-92.872 -39.099,-135.627c-10.504,-20.393 -16.846,-42.931 -27.302,-63.358c-12.124,-23.683 -28.361,-44.612 -51.899,-58.624c-2.086,-1.243 -3.885,-3.005 -6.038,-4.094c-64.087,-32.452 -63.531,-23.82 -130.715,-4.307c-16.307,4.737 -30.799,17.614 -44.637,28.618c-38.278,30.439 -75.643,61.992 -108.816,98.173c-38.72,42.227 -67.916,89.94 -92.179,142.134c-14.989,32.243 -17.807,66.43 -29.048,98.832c11.464,28.878 0.835,60.288 12.755,90.054c20.217,50.486 54.211,85.792 100.36,113.126c36.77,21.776 75.381,34.176 117.075,41.197c32,5.387 63.933,12.283 96.209,9.389c58.233,-5.22 115.818,-17.98 162.391,-54.552c41.741,-32.782 76.833,-73.758 98.24,-123.66c16.383,-38.194 30.084,-77.107 37.379,-118.759c5.214,-29.783 5.574,-59.319 2.754,-88.116c-1.952,-19.913 2.312,-43.406 -14.106,-60.727c3.971,-19.726 -7.272,-36.591 -10.353,-54.993c-0.525,-3.134 -1.22,-6.401 -2.645,-9.194c-18.095,-35.46 -33.321,-72.917 -55.666,-105.479c-13.576,-19.784 -28.64,-45.506 -60.367,-44.202c-1.994,0.081 -4.622,-1.93 -6.058,-3.7c-10.062,-12.417 -24.007,-15.064 -38.775,-18.648c-32.265,-7.825 -60.087,-9.406 -88.616,-0.933c-58.599,17.408 -112.103,44.045 -157.858,85.446c-11.425,10.339 -24.867,18.46 -37.505,27.431c-1.391,0.986 -3.583,0.835 -5.404,1.212c0.335,-2.326 -0.151,-5.379 1.148,-6.848c5.135,-5.777 10.567,-11.283 16.274,-16.497c43.4,-39.884 90.752,-73.286 144.274,-99.203c40.959,-19.832 83.301,-24.149 125.626,-18.19c23.879,3.363 48.039,18.312 67.84,33.553c23.781,18.301 45.944,39.887 62.014,66.128c4.496,7.342 6.706,16.081 10.021,24.155c1.505,3.67 2.173,8.42 4.879,10.75c25.49,21.924 31.014,54.197 40.306,83.357c5.002,15.696 14.816,30.819 13.869,48.494c-0.919,17.176 12.098,32.79 3.575,51.639c-3.309,7.32 3.918,18.796 4.117,28.422c1.167,57.082 -11.163,110.754 -33.315,163.916c-20.862,50.064 -49.408,93.794 -87.164,131.019c-22.437,22.122 -49.282,40.982 -76.967,56.149c-19.061,10.445 -43.121,11.487 -64.659,17.718c-43.892,12.699 -87.954,14.718 -132.717,5.172c-19.865,-4.234 -40.155,-6.485 -60.037,-10.655c-10.819,-2.268 -21.192,-6.664 -34.34,-10.102Zm257.586,-616.099l4.773,0.377c-1.589,-0.983 -3.181,-1.969 -4.773,-5.533l-4.776,-0.377c1.592,0.986 3.184,1.969 4.776,5.533Zm-38.639,229.426c-6.183,-21.348 -23.381,-33.734 -41.621,-40.339c-18.684,-6.764 -38.502,-16.126 -59.744,-11.107c-34.486,8.149 -65.877,23.13 -95.877,42.155c-36.125,22.907 -64.913,53.72 -93.347,84.563c-15.495,16.81 -27.878,39.063 -30.528,61.545c-6.217,52.767 18.005,93.528 69.566,115.6c27.518,11.78 57.459,16.975 86.717,20.036c43.825,4.583 87.789,0.38 129.972,-14.662c17.952,-6.401 35.751,-13.308 53.94,-18.944c43.113,-13.358 72.001,-42.177 83.351,-84.739c5.963,-22.345 1.81,-47.265 3.357,-70.949c1.494,-22.848 -6.32,-43.716 -14.805,-63.506c-13.822,-32.249 -29.796,-63.447 -49.807,-92.894c-22.823,-33.584 -55.786,-45.02 -91.99,-50.097c-51.647,-7.242 -96.059,15.38 -136.135,43.367c-53.806,37.572 -94.112,88.828 -129.204,143.997c-0.977,1.536 0.363,4.549 0.623,6.876c1.821,-0.969 3.731,-1.801 5.44,-2.941c2.972,-1.977 6.426,-3.642 8.61,-6.315c9.381,-11.47 17.516,-24.074 27.677,-34.77c24.515,-25.814 52.6,-46.662 83.798,-64.536c36.019,-20.636 72.669,-36.267 114.525,-34.251c39.515,1.902 70.13,20.848 89.685,55.429c21.963,38.842 20.988,50.463 19.748,93.366c-0.802,27.73 -7.264,52.527 -20.848,76.596c-28.707,50.86 -72.06,75.744 -129.709,78.774c-23.834,1.251 -43.973,-9.875 -65.871,-14.986c-25.764,-6.01 -44.83,-19.98 -61.221,-38.733c-14.246,-16.299 -28.498,-35.156 -20.932,-57.716c8.018,-23.92 18.201,-48.469 33.218,-68.374c23.571,-31.24 54.379,-54.49 95.349,-60.906c27.386,-4.287 52.284,-1.935 73.384,17.907c17.019,16.003 28.797,34.312 34.874,57.772c10.222,39.446 -2.164,70.432 -38.887,87.465c-7.205,3.34 -14.16,7.275 -21.516,10.222c-23.432,9.378 -47.969,12.531 -72.92,10.183c-17.067,-1.606 -36.583,-16.223 -36.943,-27.705c-0.614,-19.709 -1.078,-38.979 9.546,-57.833c14.143,-25.102 31.972,-36.05 57.574,-27.096c6.22,2.176 9.892,11.646 14.738,17.762c-5.84,2.477 -12.205,7.881 -17.436,6.946c-29.221,-5.234 -29.185,-5.784 -40.702,20.396c-1.592,3.622 -2.466,7.602 -3.335,11.49c-1.098,4.918 -4.019,11.015 -2.204,14.601c2.335,4.611 8.088,8.613 13.238,10.49c35.692,12.998 82.863,4.34 109.082,-24.459c8.705,-9.56 13.59,-19.522 14.123,-32.972c1.098,-27.741 -14.126,-47.388 -32.533,-63.545c-10.727,-9.417 -27.752,-17.905 -41.043,-16.718c-21.653,1.935 -44.473,10.012 -61.5,23.923c-19.36,15.818 -35.611,35.921 -51.228,55.728c-16.86,21.385 -13.344,57.766 6.248,76.721c39.205,37.929 85.558,56.099 139.783,42.867c25.954,-6.334 51.114,-18.287 67.762,-40.775c10.864,-14.673 19.893,-31.126 27.146,-47.908c4.706,-10.884 5.055,-23.75 6.778,-35.812c3.997,-27.936 -5.929,-53.25 -17.963,-81.187Zm115.913,-275.826c-1.888,-2.578 -3.653,-5.267 -5.803,-7.605c-0.29,-0.316 -2.502,1.139 -3.823,1.773c2.349,2.804 4.7,5.605 9.627,5.831Zm-36.061,-15.467c2.729,0.707 5.449,1.444 8.208,1.98c0.087,0.017 0.578,-2.083 0.88,-3.195c-2.17,-0.455 -4.34,-0.91 -9.088,1.215Zm-10.303,-5.156l3.089,2.061c-0.17,-1.547 -0.341,-3.094 -3.089,-2.061Z" style="fill:#ffdc49;fill-rule:nonzero;"/></svg>