<?xml version="1.0" encoding="UTF-8" standalone="no"?><!DOCTYPE svg PUBLIC "-//W3C//DTD SVG 1.1//EN" "http://www.w3.org/Graphics/SVG/1.1/DTD/svg11.dtd"><svg width="100%" height="100%" viewBox="0 0 2988 5334" version="1.1" xmlns="http://www.w3.org/2000/svg" xmlns:xlink="http://www.w3.org/1999/xlink" xml:space="preserve" xmlns:serif="http://www.serif.com/" style="fill-rule:evenodd;clip-rule:evenodd;stroke-linecap:round;"><path d="M1680.902,5014.642c64.076,10.153 129.566,14.964 194.333,17.753c59.234,2.551 122.138,7.101 180.415,-6.3c38.709,-8.901 78.629,-11.865 117.152,-21.365c40.681,-10.035 78.493,-24.083 118.08,-38.065c43.71,-15.439 91.307,-27.205 132.393,-49.151c31.041,-16.576 68.327,-28.853 93.492,-54.561c65.475,-66.888 85.432,-161.689 99.499,-251.251c14.835,-94.458 20.941,-190.042 8.502,-284.972c-8.055,-61.486 -23.065,-122.229 -45.762,-179.966c-20.32,-51.687 -45.503,-110.657 -84.856,-150.996c-45.805,-46.954 -104.43,-79.606 -164.897,-102.407c-37.457,-14.125 -78.878,-21.73 -118.542,-26.349c-42.981,-5.003 -84.727,-16.484 -128.072,-19.527c-120.25,-8.448 -239.75,-14.405 -358.669,8.086c-20.722,3.92 -13.216,106.503 -13.783,132.303c-1.097,50.005 -16.219,739.174 -22.683,1033.754" style="fill:#ffdc49;fill-rule:nonzero;stroke:#f70000;stroke-width:17.11px;"/><path d="M1589.206,1776.898c9.386,-64.192 13.414,-129.735 15.429,-194.532c1.843,-59.26 5.641,-122.214 -8.456,-180.326c-9.363,-38.599 -12.804,-78.481 -22.764,-116.888c-10.52,-40.559 -25.02,-78.2 -39.474,-117.617c-15.96,-43.522 -28.294,-90.975 -50.73,-131.796c-16.946,-30.84 -29.667,-67.978 -55.675,-92.833c-67.665,-64.671 -162.698,-83.494 -252.422,-96.489c-94.629,-13.705 -190.279,-18.669 -285.054,-5.096c-61.386,8.789 -121.944,24.524 -179.406,47.91c-51.441,20.937 -110.105,46.822 -149.971,86.655c-46.403,46.363 -78.352,105.374 -100.429,166.109c-13.677,37.623 -20.786,79.132 -24.931,118.849c-4.489,43.037 -15.47,84.918 -17.995,128.297c-7.01,120.342 -11.538,239.905 12.372,358.547c4.168,20.674 106.653,11.943 132.458,12.201c50.015,0.5 739.315,7.384 1033.951,10.327" style="fill:#ffdc49;fill-rule:nonzero;stroke:#f70000;stroke-width:17.11px;"/><path d="M982.372,3618.42c125.869,16.009 254.184,21.491 380.966,23.063c115.949,1.438 239.194,6.565 352.315,-23.124c75.138,-19.72 153.001,-27.906 227.741,-48.785c78.927,-22.054 152.003,-51.782 228.554,-81.487c84.523,-32.8 176.866,-58.653 255.871,-104.017c59.689,-34.264 131.845,-60.497 179.499,-112.262c123.99,-134.681 157.326,-321.203 179.46,-497.131c23.343,-185.545 29.554,-372.769 -0.45,-557.602c-19.43,-119.717 -52.413,-237.563 -100.241,-349.074c-42.82,-99.826 -95.583,-213.597 -174.931,-290.098c-92.357,-89.046 -208.919,-149.365 -328.492,-190.318c-74.071,-25.37 -155.5,-37.755 -233.317,-44.409c-84.322,-7.206 -166.62,-27.149 -251.538,-30.501c-235.583,-9.312 -469.55,-13.798 -700.678,37.294c-40.275,8.905 -19.457,208.994 -19.018,259.465c0.851,97.821 12.572,1445.983 17.583,2022.244" style="fill:#ffdc49;fill-rule:nonzero;stroke:#f70000;stroke-width:33.47px;"/><path d="M2015.936,2748.681c-125.715,-17.179 -253.974,-23.855 -380.735,-26.606c-115.931,-2.516 -239.122,-8.79 -352.515,19.846c-75.318,19.02 -153.254,26.481 -228.184,46.665c-79.129,21.319 -152.478,50.366 -229.302,79.358c-84.825,32.012 -177.404,57.005 -256.828,101.632c-60.005,33.708 -132.402,59.268 -180.536,110.588c-125.238,133.522 -160.306,319.726 -184.076,495.44c-25.068,185.32 -33.02,372.477 -4.736,557.582c18.315,119.893 50.201,238.04 96.99,349.991c41.89,100.22 93.592,214.477 172.225,291.713c91.525,89.902 207.521,151.302 326.707,193.365c73.832,26.057 155.142,39.2 232.894,46.577c84.252,7.99 166.36,28.698 251.244,32.839c235.486,11.503 469.401,18.165 700.994,-30.775c40.356,-8.53 21.4,-208.804 21.431,-259.277c0.059,-97.825 0.878,-1446.037 1.228,-2022.32" style="fill:#ffdc49;fill-rule:nonzero;stroke:#f70000;stroke-width:33.47px;"/><path d="M994.278,1851.689c47.76,-28.521 76.66,-76.663 67.47,-115.426c-0.562,-2.363 -20.294,-4.99 -24.825,-0.761c-23.852,22.267 -45.31,47.083 -68.509,70.09c-5.03,4.989 -13.797,6.196 -20.84,9.146c-0.134,-9.865 -4.165,-22.5 0.447,-29.004c8.559,-12.076 22.32,-20.399 33.642,-30.589c88.174,-79.351 190.193,-140.131 283.701,-212.308c15.449,-11.925 28.114,-27.584 43.963,-38.839c15.528,-11.024 24.496,-50.247 56.1,-13.834c4.224,4.864 40.927,-19.097 62.922,-28.949c23.708,-10.621 47.804,-20.352 71.729,-30.474c-7.097,24.991 -12.446,50.641 -21.614,74.844c-30.815,81.373 -88.921,144.86 -139.836,213.398c-43.543,58.62 -79.444,122.357 -130.237,176.349c-38.617,41.054 -21.38,94.963 -10.456,141.916c8.069,34.672 30.022,66.057 45.45,99.064c3.969,8.498 9.467,17.622 9.399,26.425c-0.224,28.518 64.254,9.792 39.402,57.265c-10.98,20.968 -11.953,47.089 -18.087,70.71c-9.068,34.926 -26.435,42.212 -60.461,35.142c-77.859,-16.179 -146.624,-54.325 -218.737,-84.656c-33.005,-13.882 -68.391,-29.145 -102.999,-29.862c-25.659,-0.536 -61.136,14.522 -75.918,34.64c-38.67,52.631 -90.299,89.022 -139.505,128.409c-67.119,53.721 -122.851,117.675 -176.677,183.799c-5.586,6.862 -9.545,15.389 -16.084,21.024c-5.021,4.317 -12.916,5.295 -19.531,7.756c-0.137,-6.019 0.192,-12.092 -0.473,-18.051c-7.636,-68.229 3.508,-134.63 13.471,-202.105c11.722,-79.387 12.318,-160.44 16.683,-240.823c0.456,-8.436 -6.201,-17.247 -9.558,-25.887c-3.6,9.027 -6.117,18.711 -11.097,26.89c-4.823,7.915 -12.092,14.369 -18.466,21.297c-2.939,3.194 -6.309,5.984 -9.488,8.958c-0.949,-5.261 -3.59,-10.87 -2.582,-15.726c8.99,-43.281 19.578,-86.257 27.312,-129.746c1.652,-9.281 -6.365,-20.278 -9.925,-30.481c-5.337,7.041 -14.495,13.654 -15.347,21.201c-3.932,34.632 -32.313,19.809 -48.431,22.473c-27.496,4.546 -56.906,-2.577 -84.405,1.954c-25.109,4.142 -8.48,-11.241 -12.118,-15.919c-8.931,-11.471 -22.271,-24.042 -35.674,-26.619c-38.418,-7.386 -77.98,-8.674 -116.594,-15.272c-13.452,-2.3 -31.911,-10.351 -36.34,-20.784c-4.693,-11.05 1.409,-29.818 8.282,-42.157c36.698,-65.917 99.397,-93.608 167.551,-117.066c121.012,-41.65 240.749,-87.268 347.972,-159.874c8.199,-5.554 21.486,-4.63 32.432,-4.775c10.942,-0.147 37.513,-15.399 19.687,18.027c-5.089,9.54 -5.872,21.375 -8.63,32.157l21.59,0.79c-13.591,10.589 14.379,33.148 -15.135,43.089c-15.724,5.295 -25.346,28.927 -37.283,44.612c-0.274,0.357 5.788,7.318 7.041,6.789c20.589,-8.7 46.148,-9.28 53.578,-38.265c9.876,-38.545 50.858,-70.398 23.467,-117.296c-2.771,-4.745 4.793,-22.31 10.712,-24.254c33.316,-10.906 31.407,-44.175 45.021,-67.03c31.772,-53.325 53.894,-107.326 -6.189,-157.726c-21.384,-17.936 7.753,-18.099 9.196,-17.608c13.552,4.607 30.038,8.059 38.759,17.953c24.137,27.393 30.555,28.943 46.387,-0.686c11.073,-20.728 19.135,-43.062 29.999,-63.918c4.982,-9.556 12.091,-19.351 20.811,-25.168c6.41,-4.278 17.004,-2.272 25.731,-3.071c0.548,7.941 2.884,16.241 1.353,23.753c-8.841,43.308 -18.364,86.487 -28.238,129.569c-2.038,8.888 -10.058,17.562 -9.254,25.726c2.446,24.879 7.85,49.459 12.099,74.154c40.463,-5.791 -0.607,-46.36 29.642,-60.239c13.281,-3.574 22.014,-4.99 30.308,-7.743c1.089,-0.36 -0.093,-7.59 -0.224,-11.635c-7.734,2.053 -15.692,3.531 -23.106,6.42c-3.453,1.345 -5.84,5.431 -8.711,8.275c-3.307,-49.423 11.345,-94.728 32.523,-138.328c9.072,-18.681 23.402,-37.24 -10.102,-46.883c-1.544,-0.441 -1.747,-14.631 1.313,-20.334c11.766,-21.9 24.326,-43.486 38.278,-64.04c5.175,-7.62 15.018,-12.067 22.728,-17.96c5.486,9.712 17.948,22.263 15.337,28.673c-18.994,46.606 -8.463,95.901 -16.229,143.2c-18.806,114.547 -38.619,228.926 -58.01,343.374c-1.829,10.79 -2.036,22.182 -5.862,32.204c-2.984,7.834 -10.412,13.972 -15.865,20.867c-6.126,-5.878 -14.584,-10.669 -17.914,-17.845c-7.855,-16.957 -5.675,-39.013 -29.023,-5.149c-24.438,35.438 -40.107,69.415 -53.576,110.946c-16.343,50.399 -12.078,110.979 -62.265,153.368c-27.608,23.321 -34.731,70.592 -52.454,106.391c-2.849,5.754 -12.857,7.965 -19.553,11.813c-2.035,-7.372 -8.156,-17.123 -5.466,-21.75c25.133,-43.213 37.927,-91.383 71.606,-132.494c27.78,-33.906 31.386,-87.831 44.954,-133.109c4.407,-14.71 6.288,-30.165 9.644,-45.21c1.934,-8.683 4.509,-17.228 6.79,-25.835c-7.854,5.202 -16.885,9.263 -23.285,15.876c-9.131,9.433 -20.488,19.63 -23.622,31.431c-11.309,42.604 -16.847,86.888 -30.17,128.752c-6.324,19.844 -28.261,34.172 -38.036,53.565c-30.637,60.776 -46.62,125.993 -60.102,192.793c-6.796,33.66 -22.225,68.727 -55.004,92.39c-44.373,32.032 -68.557,76.663 -87.116,130.032c-13.658,39.275 -39.564,75.069 -43.054,118.936c-0.394,4.931 2.122,10.092 3.29,15.145c3.09,-3.051 7.64,-5.567 9.005,-9.257c4.661,-12.636 8.736,-25.559 11.835,-38.658c0.921,-3.885 -3.997,-12.077 -3.056,-12.606c48.233,-27.115 45.286,-85.206 75.076,-123.559c27.195,-35.006 52.18,-71.778 77.115,-108.472c20.17,-29.677 32.633,-68.562 59.456,-88.906c53.093,-40.266 72.208,-98.096 97.808,-153.238c13.774,-29.671 28.831,-56.125 61.407,-68.284c8.201,-3.062 19.643,-7.038 22.386,-13.603c19.33,-46.346 61.828,-67.687 101.945,-93.682c-1.696,12.175 -6.602,22.878 -16.189,35.321c-34.026,33.975 -63.268,66.296 -92.752,98.405c-30.346,33.056 -61.184,65.762 -76.024,109.492c-1.302,3.843 0.226,8.643 0.437,12.996c3.655,-1.506 8.357,-2.039 10.809,-4.67c31.202,-33.459 59.176,-70.667 93.838,-99.962c36.147,-30.549 43.75,-74.465 65.429,-111.576Zm-468.665,243.689l11.455,6.386c-2.837,-4.27 -5.674,-8.539 -5.567,-19.231l-11.457,-6.391c2.841,4.271 5.672,8.543 5.569,19.237Zm-143.931,-244.708l6.392,-11.47c-4.267,2.843 -8.537,5.689 -19.219,5.591l-6.394,11.474c4.267,-2.843 8.537,-5.689 19.221,-5.595Zm224.671,204.001l-3.993,17.957l9.56,1.275c-0.875,-8.55 -1.75,-17.1 0.319,-32.074c14.425,-31.473 29.151,-62.808 42.935,-94.557c2.029,-4.668 -0.427,-11.282 -0.814,-16.998c-2.16,0.802 -5.803,1.109 -6.267,2.482c-12.989,38.479 -49.142,69.232 -41.74,121.915Zm129.198,-197.228c-36.899,7.08 -49.797,38.04 -48.199,66.653c2.985,53.384 -20.916,96.256 -39.323,142.363c-19.404,48.592 -35.518,98.503 -52.391,148.071c-1.045,3.083 4.387,11.929 5.877,11.707c6.824,-1 17.546,-2.612 19.273,-6.991c19.041,-48.363 45.093,-96.017 52.7,-146.349c11.412,-75.521 60.005,-137.306 74.891,-209.576l6.394,-11.474c-4.269,2.846 -8.537,5.689 -19.221,5.595Zm387.511,68.813c5.299,-17.197 6.279,-37.776 16.636,-51.019c46.189,-59.067 86.634,-121.249 117.264,-189.801c4.545,-10.166 12.014,-19.001 17.692,-28.703c17.217,-29.431 34.618,-58.772 50.812,-88.759c2.072,-3.839 -2.578,-11.312 -4.117,-17.101c-7.249,2.377 -17.733,2.517 -21.192,7.518c-16.643,24.068 -27.529,53.293 -47.649,73.524c-37.193,37.396 -71.093,76.981 -105.337,116.868c-25.978,30.264 -33.498,56.891 -35.415,93.954c-1.636,31.668 14.206,73.437 -31.08,93.523c-5.185,2.298 -8.558,25.792 -4.319,29.33c17.898,14.951 20.773,-4.369 28.485,-15.197c6.104,-8.564 16.271,-14.241 31.051,-18.259l14.546,-18.199l-7.517,-5.721c-4.482,6.991 -8.962,13.988 -19.86,18.039Zm-911.905,-76.03c-8.535,6.728 -19.489,11.916 -25.018,20.569c-7.328,11.464 -18.292,31.838 -13.849,37.496c13.665,17.418 28.21,8.899 43.739,-5.798c31.182,-29.515 68.412,-49.382 109.639,-64.048c38.003,-13.519 73.085,-35.309 109.416,-53.533c11.073,-5.556 22.013,-11.375 33.017,-17.073c1.145,13.054 2.791,26.09 3.227,39.169c0.216,6.428 -1.805,12.934 -2.816,19.402c8.316,-2.228 18.265,-2.365 24.49,-7.252c6.633,-5.206 12.146,-14.386 13.97,-22.737c8.156,-37.371 36.707,-48.599 67.965,-61.523c25.826,-10.68 48.265,-30.115 70.866,-47.425c3.032,-2.324 -1.411,-15.042 -3.562,-22.614c-0.223,-0.787 -9.099,-0.576 -12.857,1.337c-133.007,67.66 -267.477,131.955 -418.226,184.033Zm486.459,479.406c15.157,-21.789 31.943,-42.647 45.096,-65.589c19.039,-33.206 24.81,-69.243 77.519,-79.85c45.116,-9.083 52.072,-69.879 71.525,-110.354c2.649,-5.519 -2.485,-14.776 -4.015,-22.307c-6.872,3.29 -16.623,4.699 -20.179,10.152c-40.814,62.564 -122.297,91.565 -141.893,171.746c-0.634,2.596 -10.096,2.221 -12.215,5.391c-23.539,35.192 -46.854,70.556 -69.149,106.544c-4.359,7.034 -4.074,16.941 -5.929,25.522c10.021,-3.823 21.482,-5.754 29.667,-11.99c8.404,-6.402 13.61,-17.01 29.573,-29.264Zm327.05,-324.136c-8.952,2.594 -22.762,2.45 -26.027,8.249c-15.623,27.748 -21.891,61.158 -62.274,68.701c-12.069,2.254 -21.893,20.319 -31.109,32.394c-3.487,4.57 -2.349,12.676 -3.32,19.166c3.969,-0.677 8.12,-0.838 11.877,-2.136c11.118,-3.83 25.985,-4.908 32.426,-12.775c26.685,-32.56 47.102,-45.186 70.67,4.105c6.305,13.19 35.265,13.723 47.735,26.176c16.782,16.774 64.645,0.153 52.31,47.674c4.493,0.326 11.518,2.659 13.092,0.669c21.108,-26.668 5.291,-67.48 -27.443,-72.095c-57.84,-8.153 -88.447,-29.65 -89.581,-67.74c-0.466,-15.671 -0.39,-40.585 31.049,-28.813c7.198,2.697 17.85,-3.838 26.916,-6.127c-2.347,-8.788 -2.72,-23.479 -7.474,-25.069c-8.425,-2.818 -19.519,2.324 -38.848,7.621Zm31.85,-86.428c26.187,-14.766 29.407,-40.243 30.161,-66.376c0.218,-7.535 -2.713,-15.161 -4.196,-22.744c-6.905,3.311 -18.079,5.038 -20.007,10.208c-10.744,28.826 -35.845,44.683 -53.959,66.605c-32.703,39.582 -56.482,86.569 -83.569,130.716c-1.984,3.236 -0.593,8.544 -0.773,12.888c6.023,-1.178 13.737,-0.438 17.718,-3.94c8.126,-7.15 12.865,-18.473 21.435,-24.744c31.455,-23.01 34.488,-83.831 93.124,-70.625c-1.94,-6.377 -3.882,-12.76 0.068,-31.987Zm260.191,-245.982c4.231,1.939 11.658,6.263 12.243,5.478c35.422,-47.46 70.611,-95.104 104.745,-143.495c4.008,-5.687 1.904,-15.687 2.632,-23.692c-8.733,3.25 -21.085,3.886 -25.63,10.172c-33.656,46.555 -82.263,83.012 -93.99,151.536Zm-866.374,247.907l15.68,46.044c12.344,-8.54 24.985,-16.696 36.943,-25.749c9.297,-7.037 17.746,-15.192 26.571,-22.854c-0.377,11.814 -1.843,23.736 -0.659,35.383c0.547,5.394 5.288,12.88 9.912,14.586c4.243,1.563 13.279,-1.695 16.067,-5.703c13.437,-19.309 4.159,-58.172 -18.567,-71.686c-17.143,-10.192 -37.503,-24.764 -47.489,10.932c-2.048,7.326 -19.012,10.484 -38.458,19.047Zm697.756,187.702l20.861,24.191c4.468,-4.764 13.554,-10.679 12.706,-14.124c-10.386,-41.99 -22.038,-83.678 -34.314,-125.164c-0.581,-1.962 -14.756,-2.162 -14.86,-1.645c-3.409,17.135 -8.485,34.568 -7.791,51.727c0.805,19.825 6.82,39.432 23.398,65.015Zm-798.262,-171.598l-68.087,17.385c16.911,27.203 43.786,11.579 66.162,15.014c4.024,0.617 8.544,-3.047 12.993,-3.94c17.569,-3.525 33.132,38.002 49.496,2.729c1.392,-3.007 -29.147,-20.865 -44.915,-31.728c-1.884,-1.295 -4.182,-1.977 -15.649,0.54Zm851.444,-316.919c-27.428,20.862 -58.349,38.556 -81.079,63.671c-15.765,17.419 -20.254,45.063 -29.774,68.139c15.71,-14.531 32.493,-28.082 46.892,-43.816c23.301,-25.456 45.035,-52.348 63.961,-87.995Zm-580.103,215.925c-9.483,15.045 -22.551,29.036 -27.409,45.451c-4.534,15.319 -0.353,33.212 -0.006,49.973c12.767,-11.509 26.291,-22.303 37.98,-34.82c5.849,-6.263 3.352,-48.76 -10.565,-60.604Zm337.147,-210.715l14.088,-76.906c-13.303,21.834 -27.199,43.337 -39.69,65.626c-7.937,14.159 -14.573,29.208 -20.108,44.463c-1.722,4.749 2.063,11.494 3.328,17.327c7.314,-1.979 17.519,-1.66 21.328,-6.44c7.032,-8.833 10.322,-20.654 21.054,-44.071Zm169.388,629.381c10.377,4.756 20.332,11.686 31.225,13.792c19.42,3.758 34.469,33.039 58.473,10.612c-16.242,-12.238 -31.06,-27.822 -49.221,-35.53c-12.199,-5.182 -29.133,0.786 -40.477,11.126Zm-539.013,-161.564c-12.425,27.109 -25.581,53.928 -36.64,81.585c-2.132,5.333 3.96,13.954 6.257,21.055c6.542,-3.813 17.537,-6.463 18.895,-11.632c8.172,-31.177 14.14,-62.932 11.487,-91.008Zm258.399,-394.459l1.031,23.785c7.301,-2.031 19.871,-2.53 20.988,-6.362c4.802,-16.483 4.427,-34.488 9.348,-50.921c7.14,-23.841 17.225,-46.796 26.053,-70.13c-13.3,21.799 -26.845,43.458 -39.769,65.479c-4.684,7.983 -7.886,16.844 -17.65,38.149Zm164.124,471.551c-23.248,-9.106 -46.167,-19.28 -69.987,-26.484c-5.337,-1.614 -18.904,6.397 -19.664,11.353c-1.109,7.232 5.39,22.235 9.613,22.589c27.688,2.335 55.64,1.62 80.038,-7.458Zm154.226,-14.798c-14.885,32.958 17.521,45.899 29.505,67.116c3.216,5.689 16.056,5.925 24.48,8.664c-1.581,-9.697 -0.401,-21.198 -5.295,-28.74c-11.574,-17.839 -26.038,-33.803 -48.689,-47.039Zm-369.654,-480.267c4.814,-10.502 9.967,-20.863 14.252,-31.576c1.519,-3.795 0.916,-8.437 1.282,-12.695c-3.569,-0.045 -9.105,-1.604 -10.396,0.089c-14.528,19.002 -28.689,38.315 -41.781,58.306c-0.843,1.287 9.61,13.519 11.93,12.68c7.037,-2.548 12.655,-9.018 24.713,-26.804Zm-378.041,215.28c-13.273,-3.491 -26.84,-10.574 -39.74,-9.505c-13.853,1.152 -38.524,9.783 -38.617,15.462c-0.442,26.134 25.039,-6.996 34.775,11.333c2.161,4.07 24.594,-2.677 43.583,-17.291Zm167.363,-94.254c-0.79,-2.127 -1.221,-4.526 -2.502,-6.294c-0.788,-1.088 -3.532,-2.171 -4.291,-1.649c-10.477,7.185 -21.546,13.786 -30.854,22.302c-8.316,7.605 -14.64,17.402 -21.84,26.231c12.113,-0.005 25.886,3.541 35.834,-1.115c8.258,-3.868 12.014,-17.388 23.654,-39.474Zm94.618,-3.258c-1.738,14.463 -4.033,28.905 -4.625,43.415c-0.089,2.23 7.681,4.771 11.813,7.17c0.88,-18.014 37.193,-34.647 -7.187,-50.585Zm-123.624,269.724c1.952,-4.258 6.055,-8.849 5.459,-12.712c-2.033,-13.245 -5.718,-26.232 -8.77,-39.319c-4.457,11.921 -10.329,23.569 -12.748,35.887c-1.151,5.88 4.262,13.044 16.06,16.144Zm326.621,-526.38c-21.037,2.667 -30.72,12.973 -23.806,34.872c1.567,4.974 2.197,10.25 3.259,15.383c7.029,-11.505 14.096,-22.983 21.06,-34.527c1.204,-1.995 1.98,-4.24 -0.513,-15.729Zm365.758,268.662c1.929,-4.209 4.405,-8.258 5.655,-12.659c1.769,-6.226 2.63,-12.708 3.878,-19.08c-3.58,0.17 -9.945,-0.545 -10.321,0.638c-6.197,19.567 -11.643,39.372 -17.259,59.126c3.088,-2.956 6.389,-5.726 9.178,-8.943c1.458,-1.676 2.018,-4.131 8.87,-19.081Zm27.019,-42.013c9.295,-14.644 19.194,-28.952 27.558,-44.11c2.811,-5.1 1.731,-12.352 2.426,-18.62c-5.476,5.409 -12.402,9.98 -16.116,16.408c-6.783,11.741 -11.666,24.58 -13.868,46.322Zm-510.513,30.229c4.712,-6.431 12.875,-12.668 13.26,-19.344c0.466,-8.106 -5.623,-16.582 -8.882,-24.896c-5.438,6.489 -12.167,12.335 -15.868,19.698c-2.587,5.143 -1.041,12.369 11.489,24.543Zm100.701,-389.024c-3.863,8.589 -7.882,17.126 -11.043,25.968c-0.133,0.371 11.209,5.569 11.406,5.228c4.639,-8.165 8.478,-16.783 -0.364,-31.196Zm-308.107,892.336l12.674,-47.328c-8.126,14.831 -16.366,29.6 -24.18,44.592c-0.695,1.336 1.37,4.112 11.505,2.736Zm318.204,-778.914c6.351,-8.212 13.261,-16.076 18.734,-24.838c1.77,-2.838 -0.221,-8.021 -0.493,-12.13c-4.464,3.152 -10.001,5.505 -13.123,9.668c-3.9,5.199 -5.814,11.892 -5.117,27.3Zm188.413,537.08l-12.301,24.261l22.558,3.422l-10.257,-27.682Zm-9.983,174.159c8.199,6.35 16.052,13.254 24.796,18.724c2.829,1.77 8.015,-0.229 12.123,-0.506c-3.148,-4.463 -5.492,-10 -9.649,-13.123c-5.19,-3.9 -11.875,-5.81 -27.27,-5.094Zm-777.872,-317.671l17.771,4.036c0.519,-3.117 1.689,-8.91 1.461,-8.964c-7.486,-1.818 -15.105,-3.085 -19.233,4.928Zm175.358,-43.965l8.664,-5.355c-4.048,-1.336 -8.089,-2.669 -8.664,5.355Zm-303.932,70.516l-5.34,-8.666c-1.338,4.052 -2.678,8.099 5.34,8.666Z" style="fill:#fff;fill-rule:nonzero;stroke:#dc0048;stroke-width:20.89px;stroke-linecap:butt;stroke-linejoin:round;stroke-miterlimit:2;"/><path d="M885.778,1817.504c6.81,-14.859 9.798,-23.854 14.735,-31.607c8.707,-13.673 18.599,-26.591 27.998,-39.827c-0.833,17.121 0.991,34.931 -3.212,51.182c-4.576,17.685 -13.728,34.495 -22.784,50.623c-7.931,14.125 -18.494,26.772 -27.895,40.072c0.803,-17.125 1.269,-34.277 2.647,-51.354c0.354,-4.342 3.634,-8.451 8.511,-19.09Zm129.367,-2.88c1.272,-8.462 5.752,-15.459 10.235,-22.45l7.521,5.722c-4.852,6.063 -9.702,12.132 -17.756,16.728Zm155.172,-33.789c3.339,2.312 1.999,6.358 0.661,10.41c-1.777,-2.892 -3.561,-5.778 -0.661,-10.41Z" style="fill:#fff;fill-rule:nonzero;"/><path d="M2373.738,2485.486c49.097,-29.319 78.805,-78.808 69.357,-118.655c-0.578,-2.429 -20.862,-5.13 -25.519,-0.782c-24.519,22.889 -46.578,48.4 -70.425,72.051c-5.171,5.128 -14.183,6.37 -21.423,9.402c-0.138,-10.141 -4.282,-23.13 0.46,-29.816c8.799,-12.414 22.945,-20.97 34.583,-31.445c90.641,-81.571 195.513,-144.051 291.638,-218.247c15.881,-12.258 28.9,-28.356 45.193,-39.925c15.962,-11.333 25.182,-51.653 57.669,-14.221c4.342,5 42.071,-19.631 64.682,-29.759c24.371,-10.918 49.141,-20.922 73.735,-31.327c-7.296,25.69 -12.794,52.058 -22.218,76.938c-31.677,83.649 -91.408,148.912 -143.748,219.368c-44.761,60.26 -81.666,125.78 -133.88,181.282c-39.698,42.203 -21.978,97.62 -10.748,145.886c8.294,35.642 30.862,67.905 46.721,101.836c4.08,8.735 9.732,18.115 9.662,27.164c-0.231,29.316 66.051,10.066 40.504,58.867c-11.287,21.555 -12.288,48.406 -18.593,72.689c-9.321,35.903 -27.174,43.393 -62.152,36.125c-80.037,-16.632 -150.726,-55.844 -224.856,-87.024c-33.928,-14.27 -70.304,-29.96 -105.88,-30.697c-26.377,-0.551 -62.846,14.929 -78.042,35.609c-39.752,54.103 -92.825,91.513 -143.408,132.001c-68.997,55.224 -126.288,120.967 -181.62,188.941c-5.742,7.054 -9.812,15.82 -16.534,21.612c-5.162,4.438 -13.277,5.443 -20.078,7.972c-0.141,-6.188 0.198,-12.43 -0.487,-18.555c-7.849,-70.138 3.606,-138.396 13.848,-207.759c12.05,-81.608 12.663,-164.928 17.15,-247.56c0.469,-8.672 -6.375,-17.729 -9.826,-26.611c-3.7,9.28 -6.288,19.235 -11.408,27.642c-4.958,8.137 -12.43,14.771 -18.983,21.893c-3.022,3.283 -6.486,6.151 -9.753,9.208c-0.975,-5.408 -3.69,-11.174 -2.654,-16.166c9.242,-44.492 20.125,-88.67 28.076,-133.375c1.699,-9.541 -6.544,-20.845 -10.203,-31.334c-5.486,7.238 -14.9,14.036 -15.777,21.794c-4.042,35.601 -33.217,20.363 -49.786,23.102c-28.266,4.673 -58.498,-2.649 -86.766,2.009c-25.812,4.258 -8.718,-11.555 -12.457,-16.364c-9.181,-11.791 -22.894,-24.715 -36.672,-27.364c-39.492,-7.593 -80.162,-8.917 -119.856,-15.699c-13.828,-2.364 -32.803,-10.641 -37.357,-21.365c-4.825,-11.359 1.448,-30.653 8.514,-43.337c37.724,-67.761 102.178,-96.227 172.238,-120.341c124.397,-42.815 247.484,-89.709 357.706,-164.346c8.428,-5.709 22.087,-4.76 33.339,-4.909c11.248,-0.151 38.562,-15.829 20.238,18.532c-5.232,9.806 -6.036,21.973 -8.872,33.057l22.194,0.812c-13.971,10.885 14.782,34.075 -15.558,44.294c-16.164,5.443 -26.055,29.736 -38.326,45.86c-0.282,0.367 5.95,7.523 7.238,6.979c21.165,-8.943 47.439,-9.54 55.076,-39.336c10.152,-39.623 52.281,-72.368 24.124,-120.577c-2.848,-4.878 4.927,-22.935 11.012,-24.932c34.248,-11.211 32.285,-45.411 46.281,-68.905c32.661,-54.816 55.401,-110.329 -6.363,-162.139c-21.982,-18.438 7.97,-18.606 9.454,-18.101c13.931,4.736 30.879,8.285 39.843,18.455c24.812,28.16 31.41,29.752 47.685,-0.705c11.382,-21.308 19.67,-44.267 30.838,-65.706c5.122,-9.824 12.43,-19.893 21.393,-25.872c6.589,-4.398 17.48,-2.336 26.451,-3.157c0.563,8.163 2.965,16.696 1.391,24.418c-9.089,44.519 -18.878,88.906 -29.028,133.194c-2.095,9.137 -10.339,18.054 -9.513,26.446c2.514,25.575 8.07,50.843 12.438,76.228c41.595,-5.953 -0.624,-47.657 30.471,-61.925c13.652,-3.674 22.63,-5.13 31.156,-7.96c1.119,-0.37 -0.095,-7.802 -0.23,-11.96c-7.951,2.111 -16.131,3.63 -23.753,6.6c-3.549,1.383 -6.003,5.583 -8.954,8.506c-3.4,-50.805 11.662,-97.378 33.433,-142.198c9.326,-19.203 24.057,-38.282 -10.384,-48.195c-1.588,-0.454 -1.796,-15.04 1.35,-20.903c12.095,-22.513 25.006,-44.703 39.348,-65.831c5.32,-7.834 15.438,-12.405 23.364,-18.462c5.639,9.984 18.45,22.886 15.766,29.475c-19.525,47.91 -8.7,98.584 -16.683,147.206c-19.332,117.751 -39.7,235.33 -59.633,352.98c-1.88,11.092 -2.093,22.802 -6.026,33.104c-3.067,8.053 -10.703,14.362 -16.309,21.45c-6.297,-6.043 -14.992,-10.968 -18.415,-18.344c-8.075,-17.431 -5.834,-40.104 -29.835,-5.293c-25.121,36.429 -41.229,71.357 -55.075,114.05c-16.801,51.809 -12.416,114.084 -64.007,157.659c-28.38,23.974 -35.703,72.567 -53.921,109.367c-2.928,5.915 -13.217,8.188 -20.1,12.144c-2.092,-7.579 -8.384,-17.602 -5.618,-22.358c25.836,-44.422 38.988,-93.939 73.609,-136.2c28.557,-34.854 32.264,-90.288 46.212,-136.832c4.531,-15.122 6.464,-31.009 9.914,-46.475c1.988,-8.926 4.635,-17.71 6.98,-26.558c-8.074,5.348 -17.357,9.522 -23.937,16.32c-9.387,9.697 -21.061,20.18 -24.282,32.311c-11.625,43.796 -17.318,89.318 -31.015,132.354c-6.501,20.399 -29.051,35.128 -39.1,55.064c-31.494,62.476 -47.924,129.518 -61.783,198.187c-6.986,34.602 -22.847,70.649 -56.542,94.974c-45.615,32.928 -70.475,78.808 -89.553,133.67c-14.04,40.374 -40.671,77.169 -44.259,122.263c-0.405,5.068 2.181,10.374 3.382,15.569c3.176,-3.137 7.853,-5.723 9.257,-9.516c4.791,-12.99 8.981,-26.274 12.166,-39.74c0.947,-3.993 -4.109,-12.415 -3.142,-12.959c49.582,-27.873 46.553,-87.59 77.177,-127.015c27.956,-35.985 53.64,-73.786 79.273,-111.507c20.734,-30.507 33.546,-70.48 61.119,-91.393c54.578,-41.392 74.228,-100.84 100.544,-157.525c14.159,-30.501 29.638,-57.695 63.125,-70.195c8.431,-3.148 20.193,-7.235 23.012,-13.984c19.871,-47.643 63.557,-69.581 104.797,-96.302c-1.744,12.515 -6.787,23.519 -16.642,36.309c-34.978,34.926 -65.038,68.151 -95.347,101.158c-31.195,33.981 -62.896,67.602 -78.151,112.555c-1.338,3.951 0.232,8.885 0.449,13.36c3.757,-1.548 8.591,-2.096 11.112,-4.801c32.075,-34.395 60.832,-72.644 96.463,-102.758c37.158,-31.404 44.974,-76.548 67.26,-114.698Zm-481.776,250.506l11.775,6.564c-2.916,-4.389 -5.833,-8.778 -5.723,-19.769l-11.778,-6.57c2.92,4.391 5.831,8.782 5.725,19.775Zm-147.957,-251.554l6.571,-11.791c-4.387,2.922 -8.775,5.848 -19.757,5.748l-6.573,11.795c4.387,-2.922 8.775,-5.848 19.759,-5.751Zm230.956,209.708l-4.104,18.459l9.827,1.31c-0.899,-8.789 -1.799,-17.579 0.328,-32.971c14.829,-32.353 29.966,-64.566 44.136,-97.202c2.086,-4.799 -0.439,-11.598 -0.836,-17.473c-2.221,0.825 -5.966,1.14 -6.442,2.552c-13.353,39.555 -50.517,71.168 -42.908,125.325Zm132.813,-202.745c-37.931,7.278 -51.19,39.104 -49.548,68.518c3.069,54.878 -21.501,98.949 -40.423,146.346c-19.946,49.951 -36.512,101.259 -53.857,152.214c-1.075,3.169 4.509,12.263 6.041,12.034c7.015,-1.028 18.037,-2.685 19.812,-7.187c19.574,-49.716 46.355,-98.704 54.174,-150.443c11.731,-77.634 61.683,-141.147 76.986,-215.438l6.573,-11.795c-4.389,2.926 -8.775,5.848 -19.759,5.751Zm398.352,70.738c5.447,-17.678 6.454,-38.833 17.102,-52.446c47.481,-60.719 89.058,-124.641 120.544,-195.11c4.672,-10.45 12.35,-19.533 18.187,-29.506c17.698,-30.254 35.586,-60.416 52.233,-91.242c2.13,-3.947 -2.651,-11.628 -4.232,-17.579c-7.451,2.444 -18.229,2.588 -21.785,7.729c-17.109,24.741 -28.299,54.784 -48.981,75.581c-38.234,38.442 -73.082,79.135 -108.284,120.138c-26.704,31.111 -34.435,58.482 -36.405,96.583c-1.682,32.554 14.604,75.492 -31.95,96.14c-5.33,2.362 -8.798,26.514 -4.44,30.15c18.399,15.369 21.355,-4.491 29.282,-15.623c6.275,-8.804 16.727,-14.64 31.92,-18.77l14.953,-18.708l-7.728,-5.881c-4.607,7.187 -9.213,14.379 -20.415,18.543Zm-937.415,-78.157c-8.774,6.917 -20.035,12.249 -25.718,21.145c-7.532,11.785 -18.804,32.728 -14.236,38.545c14.047,17.906 28.999,9.148 44.962,-5.96c32.054,-30.341 70.326,-50.763 112.706,-65.84c39.066,-13.898 75.129,-36.296 112.476,-55.031c11.382,-5.712 22.629,-11.693 33.941,-17.551c1.178,13.42 2.869,26.82 3.317,40.264c0.222,6.608 -1.856,13.296 -2.895,19.944c8.548,-2.291 18.776,-2.432 25.175,-7.455c6.818,-5.351 12.485,-14.788 14.361,-23.374c8.385,-38.416 37.734,-49.959 69.867,-63.245c26.549,-10.979 49.616,-30.957 72.849,-48.752c3.117,-2.389 -1.451,-15.463 -3.661,-23.247c-0.229,-0.809 -9.353,-0.592 -13.217,1.374c-136.728,69.553 -274.96,135.647 -429.926,189.181Zm500.067,492.817c15.581,-22.398 32.837,-43.84 46.358,-67.424c19.571,-34.134 25.504,-71.18 79.687,-82.084c46.378,-9.337 53.529,-71.834 73.526,-113.442c2.723,-5.674 -2.554,-15.189 -4.127,-22.931c-7.064,3.382 -17.088,4.831 -20.744,10.436c-41.956,64.315 -125.718,94.127 -145.863,176.551c-0.651,2.669 -10.378,2.283 -12.557,5.542c-24.198,36.177 -48.164,72.53 -71.083,109.524c-4.481,7.23 -4.188,17.415 -6.095,26.236c10.301,-3.93 22.083,-5.915 30.497,-12.325c8.639,-6.581 13.991,-17.486 30.401,-30.083Zm336.2,-333.204c-9.202,2.666 -23.399,2.519 -26.755,8.479c-16.06,28.524 -22.503,62.869 -64.016,70.623c-12.407,2.318 -22.506,20.888 -31.979,33.3c-3.585,4.698 -2.414,13.03 -3.413,19.702c4.08,-0.696 8.347,-0.861 12.209,-2.195c11.429,-3.937 26.712,-5.045 33.333,-13.133c27.432,-33.471 48.42,-46.45 72.647,4.22c6.481,13.559 36.252,14.107 49.071,26.909c17.252,17.243 66.454,0.158 53.773,49.008c4.618,0.335 11.84,2.733 13.458,0.687c21.698,-27.414 5.439,-69.367 -28.211,-74.112c-59.458,-8.381 -90.922,-30.48 -92.087,-69.635c-0.479,-16.109 -0.401,-41.72 31.917,-29.619c7.399,2.772 18.35,-3.945 27.669,-6.298c-2.413,-9.034 -2.796,-24.135 -7.683,-25.771c-8.661,-2.897 -20.065,2.389 -39.934,7.834Zm32.741,-88.846c26.92,-15.179 30.23,-41.369 31.005,-68.233c0.224,-7.745 -2.788,-15.585 -4.314,-23.381c-7.098,3.404 -18.585,5.179 -20.567,10.493c-11.044,29.632 -36.848,45.933 -55.469,68.469c-33.618,40.69 -58.062,88.991 -85.907,134.372c-2.04,3.327 -0.609,8.783 -0.794,13.248c6.192,-1.211 14.121,-0.45 18.214,-4.05c8.354,-7.35 13.225,-18.989 22.034,-25.436c32.335,-23.654 35.453,-86.176 95.729,-72.601c-1.994,-6.556 -3.991,-13.117 0.069,-32.881Zm267.47,-252.864c4.35,1.994 11.984,6.438 12.586,5.631c36.413,-48.788 72.587,-97.765 107.676,-147.509c4.121,-5.846 1.958,-16.126 2.705,-24.355c-8.978,3.341 -21.675,3.994 -26.347,10.457c-34.597,47.857 -84.565,85.334 -96.619,155.775Zm-890.61,254.842l16.119,47.332c12.689,-8.779 25.684,-17.163 37.977,-26.469c9.557,-7.233 18.243,-15.617 27.314,-23.494c-0.388,12.145 -1.894,24.4 -0.678,36.373c0.563,5.545 5.436,13.241 10.189,14.994c4.362,1.607 13.65,-1.743 16.517,-5.863c13.813,-19.849 4.275,-59.799 -19.086,-73.691c-17.622,-10.477 -38.553,-25.457 -48.818,11.238c-2.105,7.531 -19.544,10.778 -39.534,19.579Zm717.276,192.953l21.444,24.868c4.593,-4.897 13.933,-10.978 13.062,-14.519c-10.677,-43.165 -22.654,-86.019 -35.274,-128.666c-0.597,-2.017 -15.169,-2.223 -15.275,-1.691c-3.504,17.614 -8.723,35.535 -8.009,53.174c0.827,20.379 7.011,40.535 24.053,66.834Zm-820.593,-176.399l-69.992,17.871c17.384,27.963 45.01,11.903 68.013,15.434c4.136,0.634 8.783,-3.133 13.357,-4.051c18.061,-3.624 34.059,39.065 50.881,2.805c1.431,-3.091 -29.962,-21.448 -46.172,-32.615c-1.936,-1.332 -4.299,-2.032 -16.087,0.555Zm875.263,-325.785c-28.195,21.446 -59.981,39.634 -83.347,65.452c-16.206,17.907 -20.821,46.324 -30.607,70.046c16.149,-14.937 33.402,-28.868 48.204,-45.042c23.953,-26.168 46.294,-53.812 65.75,-90.457Zm-596.332,221.965c-9.749,15.466 -23.182,29.848 -28.176,46.723c-4.661,15.747 -0.363,34.141 -0.006,51.371c13.124,-11.831 27.026,-22.926 39.042,-35.794c6.013,-6.439 3.446,-50.124 -10.86,-62.3Zm346.579,-216.61l14.482,-79.057c-13.675,22.445 -27.96,44.549 -40.8,67.462c-8.159,14.555 -14.981,30.025 -20.671,45.707c-1.77,4.882 2.121,11.815 3.421,17.812c7.519,-2.035 18.009,-1.706 21.924,-6.621c7.228,-9.08 10.61,-21.232 21.643,-45.304Zm174.126,646.988c10.667,4.889 20.901,12.013 32.099,14.178c19.964,3.863 35.433,33.963 60.108,10.909c-16.696,-12.58 -31.928,-28.601 -50.598,-36.524c-12.541,-5.327 -29.948,0.808 -41.609,11.437Zm-554.092,-166.083c-12.773,27.867 -26.297,55.437 -37.665,83.867c-2.192,5.483 4.071,14.344 6.432,21.644c6.725,-3.92 18.028,-6.644 19.424,-11.958c8.401,-32.049 14.536,-64.692 11.809,-93.554Zm265.627,-405.494l1.059,24.45c7.506,-2.088 20.427,-2.601 21.575,-6.539c4.936,-16.944 4.551,-35.453 9.61,-52.346c7.34,-24.508 17.706,-48.105 26.782,-72.092c-13.673,22.408 -27.596,44.674 -40.882,67.311c-4.815,8.207 -8.106,17.315 -18.144,39.216Zm168.716,484.742c-23.898,-9.361 -47.458,-19.819 -71.945,-27.225c-5.486,-1.659 -19.433,6.576 -20.214,11.671c-1.14,7.434 5.541,22.857 9.882,23.221c28.463,2.401 57.197,1.665 82.277,-7.667Zm158.541,-15.212c-15.302,33.88 18.011,47.183 30.33,68.993c3.306,5.848 16.505,6.091 25.164,8.907c-1.626,-9.968 -0.412,-21.791 -5.443,-29.544c-11.898,-18.338 -26.767,-34.749 -50.051,-48.355Zm-379.995,-493.703c4.948,-10.796 10.246,-21.447 14.65,-32.459c1.561,-3.901 0.942,-8.673 1.318,-13.051c-3.669,-0.047 -9.36,-1.649 -10.687,0.091c-14.935,19.534 -29.491,39.387 -42.95,59.937c-0.866,1.323 9.879,13.897 12.264,13.034c7.234,-2.619 13.009,-9.27 25.405,-27.553Zm-388.616,221.302c-13.645,-3.589 -27.591,-10.87 -40.852,-9.77c-14.24,1.184 -39.601,10.056 -39.698,15.895c-0.454,26.865 25.739,-7.192 35.748,11.65c2.221,4.184 25.282,-2.752 44.802,-17.775Zm172.045,-96.89c-0.812,-2.187 -1.255,-4.653 -2.572,-6.471c-0.811,-1.118 -3.631,-2.231 -4.411,-1.696c-10.77,7.386 -22.149,14.172 -31.718,22.926c-8.549,7.818 -15.05,17.889 -22.451,26.965c12.452,-0.005 26.61,3.64 36.836,-1.147c8.489,-3.976 12.35,-17.874 24.316,-40.578Zm97.265,-3.349c-1.787,14.867 -4.146,29.714 -4.755,44.63c-0.091,2.292 7.896,4.904 12.143,7.37c0.904,-18.518 38.233,-35.616 -7.388,-52Zm-127.083,277.269c2.006,-4.377 6.224,-9.096 5.611,-13.067c-2.089,-13.616 -5.878,-26.966 -9.016,-40.419c-4.582,12.254 -10.618,24.229 -13.105,36.89c-1.183,6.044 4.381,13.409 16.509,16.596Zm335.759,-541.105c-21.625,2.741 -31.579,13.336 -24.472,35.848c1.611,5.114 2.258,10.537 3.35,15.814c7.226,-11.827 14.49,-23.626 21.649,-35.493c1.237,-2.05 2.036,-4.359 -0.527,-16.169Zm375.99,276.177c1.983,-4.326 4.529,-8.489 5.813,-13.013c1.818,-6.4 2.703,-13.063 3.986,-19.614c-3.68,0.175 -10.223,-0.561 -10.61,0.656c-6.37,20.114 -11.969,40.473 -17.742,60.78c3.174,-3.039 6.568,-5.887 9.435,-9.194c1.498,-1.723 2.074,-4.247 9.118,-19.615Zm27.775,-43.188c9.555,-15.054 19.731,-29.762 28.329,-45.344c2.89,-5.243 1.78,-12.697 2.494,-19.141c-5.629,5.561 -12.749,10.259 -16.566,16.867c-6.973,12.07 -11.992,25.267 -14.256,47.618Zm-524.795,31.074c4.844,-6.61 13.235,-13.022 13.631,-19.885c0.479,-8.333 -5.781,-17.046 -9.13,-25.593c-5.59,6.67 -12.507,12.68 -16.312,20.249c-2.66,5.287 -1.07,12.715 11.81,25.229Zm103.518,-399.907c-3.971,8.83 -8.102,17.605 -11.352,26.695c-0.137,0.381 11.522,5.725 11.725,5.374c4.768,-8.393 8.716,-17.253 -0.374,-32.069Zm-316.727,917.299l13.029,-48.652c-8.353,15.246 -16.824,30.428 -24.856,45.84c-0.715,1.373 1.408,4.227 11.827,2.813Zm327.106,-800.704c6.529,-8.442 13.632,-16.526 19.258,-25.533c1.819,-2.918 -0.228,-8.245 -0.507,-12.47c-4.589,3.24 -10.281,5.659 -13.49,9.938c-4.009,5.344 -5.976,12.224 -5.261,28.064Zm193.684,552.105l-12.645,24.939l23.189,3.517l-10.544,-28.457Zm-10.263,179.031c8.428,6.528 16.501,13.625 25.49,19.247c2.908,1.82 8.239,-0.235 12.462,-0.52c-3.236,-4.588 -5.645,-10.28 -9.919,-13.49c-5.335,-4.009 -12.207,-5.973 -28.033,-5.237Zm-799.633,-326.558l18.269,4.149c0.533,-3.205 1.736,-9.159 1.502,-9.215c-7.695,-1.869 -15.527,-3.172 -19.771,5.066Zm180.263,-45.195l8.906,-5.505c-4.161,-1.373 -8.315,-2.743 -8.906,5.505Zm-312.434,72.489l-5.489,-8.909c-1.375,4.165 -2.753,8.325 5.489,8.909Z" style="fill:#fff;fill-rule:nonzero;stroke:#dc0048;stroke-width:21.48px;stroke-linecap:butt;stroke-linejoin:round;stroke-miterlimit:2;"/><path d="M2262.203,2450.345c7.001,-15.275 10.072,-24.522 15.147,-32.491c8.951,-14.055 19.12,-27.335 28.781,-40.941c-0.856,17.6 1.019,35.908 -3.302,52.614c-4.704,18.18 -14.112,35.46 -23.422,52.039c-8.153,14.52 -19.011,27.521 -28.675,41.193c0.826,-17.604 1.304,-35.235 2.722,-52.791c0.364,-4.464 3.736,-8.687 8.749,-19.624Zm132.986,-2.96c1.308,-8.699 5.913,-15.891 10.521,-23.078l7.732,5.882c-4.988,6.233 -9.973,12.471 -18.252,17.196Zm159.513,-34.734c3.432,2.376 2.055,6.536 0.68,10.702c-1.827,-2.973 -3.661,-5.94 -0.68,-10.702Z" style="fill:#fff;fill-rule:nonzero;"/><path d="M1167.777,4280.694c58.233,-34.775 93.47,-93.473 82.264,-140.735c-0.686,-2.881 -24.744,-6.085 -30.268,-0.928c-29.082,27.149 -55.245,57.407 -83.531,85.459c-6.133,6.082 -16.823,7.555 -25.409,11.151c-0.164,-12.029 -5.079,-27.434 0.545,-35.364c10.436,-14.725 27.215,-24.872 41.018,-37.297c107.508,-96.751 231.896,-170.858 345.908,-258.861c18.836,-14.54 34.279,-33.633 53.603,-47.355c18.933,-13.442 29.868,-61.265 68.401,-16.867c5.15,5.93 49.901,-23.284 76.719,-35.297c28.907,-12.95 58.286,-24.815 87.457,-37.156c-8.653,30.471 -15.175,61.745 -26.353,91.255c-37.572,99.215 -108.419,176.623 -170.499,260.19c-53.091,71.474 -96.863,149.186 -158.794,215.017c-47.085,50.056 -26.068,115.786 -12.748,173.034c9.838,42.275 36.605,80.541 55.415,120.786c4.84,10.361 11.543,21.486 11.46,32.219c-0.274,34.771 78.343,11.939 48.041,69.822c-13.388,25.566 -14.574,57.414 -22.053,86.215c-11.056,42.584 -32.231,51.468 -73.718,42.848c-94.931,-19.727 -178.775,-66.236 -266.7,-103.218c-40.241,-16.925 -83.387,-35.535 -125.583,-36.41c-31.285,-0.654 -74.541,17.707 -92.564,42.235c-47.149,64.172 -110.099,108.542 -170.094,156.565c-81.837,65.5 -149.789,143.478 -215.418,224.101c-6.811,8.367 -11.638,18.764 -19.611,25.633c-6.122,5.264 -15.748,6.456 -23.814,9.456c-0.167,-7.339 0.234,-14.743 -0.577,-22.008c-9.31,-83.189 4.277,-164.15 16.425,-246.421c14.293,-96.794 15.019,-195.62 20.341,-293.628c0.556,-10.286 -7.561,-21.029 -11.654,-31.563c-4.389,11.007 -7.458,22.814 -13.531,32.786c-5.88,9.651 -14.744,17.519 -22.516,25.967c-3.584,3.894 -7.693,7.296 -11.568,10.922c-1.157,-6.414 -4.377,-13.254 -3.148,-19.174c10.961,-52.771 23.871,-105.17 33.3,-158.195c2.015,-11.316 -7.761,-24.724 -12.102,-37.165c-6.507,8.584 -17.673,16.648 -18.713,25.849c-4.794,42.226 -39.399,24.152 -59.05,27.401c-33.526,5.543 -69.384,-3.142 -102.913,2.383c-30.615,5.05 -10.34,-13.706 -14.776,-19.409c-10.89,-13.986 -27.155,-29.314 -43.497,-32.456c-46.842,-9.006 -95.079,-10.576 -142.159,-18.621c-16.401,-2.804 -38.908,-12.621 -44.309,-25.341c-5.723,-13.472 1.718,-36.357 10.098,-51.401c44.744,-80.371 121.192,-114.134 204.29,-142.735c147.546,-50.783 293.538,-106.403 424.272,-194.929c9.997,-6.772 26.198,-5.646 39.543,-5.822c13.341,-0.179 45.738,-18.775 24.004,21.98c-6.205,11.631 -7.159,26.062 -10.523,39.208l26.324,0.963c-16.571,12.91 17.532,40.416 -18.453,52.537c-19.172,6.456 -30.904,35.269 -45.459,54.394c-0.334,0.435 7.057,8.923 8.585,8.278c25.104,-10.608 56.267,-11.315 65.326,-46.656c12.041,-46.997 62.01,-85.835 28.613,-143.016c-3.378,-5.785 5.844,-27.203 13.061,-29.572c40.621,-13.297 38.293,-53.862 54.893,-81.727c38.738,-65.017 65.711,-130.86 -7.546,-192.311c-26.072,-21.869 9.453,-22.068 11.213,-21.469c16.524,5.618 36.625,9.826 47.258,21.89c29.429,33.4 37.255,35.289 56.559,-0.837c13.5,-25.274 23.33,-52.504 36.577,-77.933c6.075,-11.652 14.743,-23.595 25.374,-30.687c7.816,-5.216 20.733,-2.77 31.373,-3.744c0.668,9.682 3.516,19.802 1.65,28.961c-10.78,52.804 -22.391,105.451 -34.429,157.98c-2.484,10.837 -12.264,21.413 -11.283,31.367c2.982,30.334 9.571,60.305 14.752,90.414c49.336,-7.061 -0.74,-56.526 36.141,-73.448c16.193,-4.358 26.842,-6.085 36.954,-9.441c1.328,-0.439 -0.113,-9.254 -0.273,-14.186c-9.43,2.504 -19.133,4.305 -28.173,7.828c-4.21,1.64 -7.121,6.622 -10.621,10.089c-4.033,-60.26 13.832,-115.499 39.655,-168.66c11.062,-22.777 28.534,-45.406 -12.317,-57.164c-1.883,-0.538 -2.13,-17.839 1.601,-24.793c14.346,-26.702 29.659,-53.022 46.671,-78.082c6.31,-9.291 18.31,-14.713 27.712,-21.898c6.689,11.842 21.884,27.145 18.699,34.96c-23.159,56.825 -10.319,116.93 -19.787,174.599c-22.929,139.663 -47.088,279.122 -70.73,418.666c-2.23,13.156 -2.482,27.045 -7.147,39.265c-3.638,9.552 -12.695,17.035 -19.344,25.442c-7.469,-7.167 -17.782,-13.009 -21.842,-21.757c-9.578,-20.675 -6.919,-47.567 -35.387,-6.278c-29.796,43.208 -48.902,84.636 -65.324,135.274c-19.927,61.45 -14.727,135.314 -75.917,186.997c-33.661,28.435 -42.347,86.071 -63.955,129.72c-3.473,7.016 -15.676,9.711 -23.84,14.404c-2.482,-8.989 -9.945,-20.877 -6.664,-26.519c30.644,-52.688 46.243,-111.42 87.307,-161.546c33.871,-41.34 38.267,-107.09 54.811,-162.296c5.374,-17.936 7.667,-36.779 11.759,-55.123c2.358,-10.587 5.498,-21.006 8.279,-31.5c-9.576,6.343 -20.587,11.294 -28.391,19.357c-11.134,11.502 -24.98,23.935 -28.801,38.323c-13.789,51.946 -20.541,105.94 -36.786,156.984c-7.71,24.195 -34.458,41.665 -46.377,65.31c-37.354,74.102 -56.842,153.62 -73.281,235.067c-8.286,41.041 -27.098,83.797 -67.064,112.648c-54.103,39.056 -83.59,93.473 -106.218,158.544c-16.653,47.887 -48.239,91.53 -52.495,145.015c-0.48,6.012 2.587,12.304 4.011,18.466c3.767,-3.72 9.315,-6.788 10.979,-11.287c5.683,-15.407 10.652,-31.163 14.43,-47.135c1.123,-4.736 -4.874,-14.725 -3.726,-15.371c58.809,-33.06 55.216,-103.889 91.538,-150.651c33.158,-42.681 63.621,-87.517 94.024,-132.257c24.593,-36.184 39.789,-83.595 72.493,-108.4c64.735,-49.095 88.041,-119.605 119.254,-186.838c16.794,-36.177 35.153,-68.431 74.872,-83.257c10,-3.733 23.951,-8.581 27.295,-16.586c23.569,-56.508 75.385,-82.529 124.298,-114.223c-2.068,14.844 -8.05,27.895 -19.739,43.066c-41.487,41.425 -77.141,80.833 -113.09,119.982c-37,40.304 -74.6,80.182 -92.694,133.5c-1.587,4.686 0.275,10.539 0.533,15.846c4.456,-1.836 10.19,-2.486 13.179,-5.694c38.043,-40.795 72.152,-86.163 114.414,-121.881c44.072,-37.247 53.343,-90.793 79.776,-136.042Zm-571.43,297.123l13.967,7.786c-3.459,-5.206 -6.918,-10.411 -6.788,-23.448l-13.969,-7.792c3.464,5.208 6.916,10.416 6.79,23.455Zm-175.491,-298.366l7.794,-13.985c-5.203,3.466 -10.408,6.936 -23.434,6.817l-7.796,13.99c5.203,-3.466 10.408,-6.936 23.436,-6.822Zm273.934,248.732l-4.868,21.894l11.656,1.554c-1.067,-10.425 -2.134,-20.85 0.389,-39.106c17.588,-38.374 35.542,-76.581 52.349,-115.291c2.474,-5.692 -0.521,-13.756 -0.992,-20.725c-2.634,0.978 -7.076,1.352 -7.641,3.026c-15.838,46.916 -59.917,84.412 -50.892,148.647Zm157.528,-240.474c-44.99,8.633 -60.716,46.381 -58.768,81.268c3.64,65.09 -25.502,117.362 -47.945,173.58c-23.658,59.247 -43.307,120.102 -63.879,180.539c-1.275,3.759 5.349,14.545 7.165,14.274c8.32,-1.219 21.393,-3.185 23.499,-8.524c23.216,-58.968 54.981,-117.071 64.255,-178.439c13.915,-92.081 73.162,-167.413 91.312,-255.529l7.796,-13.99c-5.205,3.47 -10.408,6.936 -23.436,6.822Zm472.481,83.901c6.461,-20.968 7.655,-46.059 20.284,-62.206c56.316,-72.019 105.631,-147.835 142.976,-231.418c5.541,-12.395 14.648,-23.167 21.571,-34.996c20.992,-35.884 42.208,-71.659 61.953,-108.221c2.527,-4.681 -3.144,-13.792 -5.02,-20.85c-8.838,2.898 -21.621,3.069 -25.839,9.167c-20.292,29.345 -33.565,64.979 -58.096,89.646c-45.349,45.595 -86.681,93.861 -128.435,142.494c-31.674,36.9 -40.843,69.365 -43.18,114.556c-1.994,38.612 17.321,89.54 -37.895,114.03c-6.322,2.802 -10.435,31.448 -5.267,35.761c21.823,18.229 25.328,-5.327 34.731,-18.53c7.442,-10.442 19.839,-17.364 37.86,-22.263l17.736,-22.189l-9.166,-6.975c-5.465,8.524 -10.927,17.055 -24.214,21.994Zm-1111.859,-92.701c-10.407,8.204 -23.763,14.529 -30.504,25.079c-8.934,13.978 -22.303,38.819 -16.886,45.718c16.661,21.238 34.396,10.85 53.329,-7.069c38.019,-35.987 83.413,-60.21 133.679,-78.092c46.335,-16.484 89.11,-43.051 133.407,-65.272c13.501,-6.774 26.84,-13.869 40.257,-20.817c1.397,15.917 3.403,31.811 3.935,47.757c0.263,7.838 -2.201,15.77 -3.434,23.656c10.139,-2.717 22.27,-2.884 29.86,-8.843c8.087,-6.347 14.809,-17.54 17.033,-27.723c9.945,-45.565 44.756,-59.255 82.868,-75.014c31.489,-13.022 58.849,-36.718 86.405,-57.824c3.697,-2.834 -1.72,-18.341 -4.343,-27.573c-0.272,-0.96 -11.094,-0.702 -15.676,1.63c-162.171,82.496 -326.127,160.889 -509.931,224.386Zm593.125,584.526c18.481,-26.566 38.947,-51.998 54.984,-79.971c23.213,-40.487 30.25,-84.425 94.516,-97.359c55.008,-11.074 63.49,-85.201 87.208,-134.552c3.23,-6.73 -3.029,-18.016 -4.895,-27.199c-8.378,4.011 -20.268,5.73 -24.604,12.378c-49.764,76.283 -149.113,111.643 -173.006,209.405c-0.773,3.165 -12.309,2.708 -14.893,6.573c-28.7,42.909 -57.127,86.027 -84.311,129.906c-5.315,8.576 -4.967,20.655 -7.229,31.118c12.218,-4.661 26.192,-7.015 36.172,-14.619c10.247,-7.806 16.595,-20.739 36.058,-35.681Zm398.763,-395.21c-10.915,3.162 -27.753,2.988 -31.733,10.057c-19.048,33.832 -26.69,74.569 -75.929,83.765c-14.715,2.749 -26.694,24.775 -37.93,39.497c-4.252,5.572 -2.864,15.455 -4.048,23.369c4.839,-0.825 9.9,-1.022 14.481,-2.604c13.556,-4.67 31.682,-5.984 39.536,-15.576c32.536,-39.699 57.43,-55.094 86.166,5.006c7.687,16.082 42.998,16.732 58.202,31.916c20.462,20.452 78.82,0.187 63.78,58.127c5.478,0.398 14.043,3.242 15.962,0.815c25.736,-32.516 6.451,-82.276 -33.46,-87.903c-70.522,-9.94 -107.841,-36.152 -109.224,-82.593c-0.568,-19.107 -0.476,-49.484 37.857,-35.131c8.776,3.288 21.765,-4.679 32.817,-7.47c-2.862,-10.715 -3.316,-28.627 -9.113,-30.566c-10.272,-3.436 -23.799,2.833 -47.366,9.292Zm38.834,-105.379c31.929,-18.004 35.855,-49.067 36.774,-80.931c0.265,-9.187 -3.307,-18.485 -5.116,-27.731c-8.419,4.038 -22.043,6.143 -24.394,12.446c-13.1,35.147 -43.705,54.48 -65.791,81.21c-39.874,48.262 -68.867,105.551 -101.893,159.378c-2.419,3.946 -0.723,10.417 -0.942,15.713c7.344,-1.437 16.749,-0.533 21.603,-4.804c9.908,-8.718 15.686,-22.523 26.135,-30.17c38.352,-28.056 42.051,-102.212 113.543,-86.111c-2.365,-7.775 -4.733,-15.558 0.082,-39Zm317.243,-299.919c5.159,2.365 14.215,7.636 14.928,6.679c43.189,-57.866 86.094,-115.958 127.713,-174.959c4.887,-6.934 2.322,-19.127 3.209,-28.887c-10.648,3.963 -25.709,4.738 -31.25,12.403c-41.036,56.763 -100.301,101.214 -114.599,184.764Zm-1056.344,302.266l19.119,56.14c15.05,-10.413 30.463,-20.357 45.044,-31.394c11.335,-8.579 21.637,-18.524 32.397,-27.865c-0.46,14.405 -2.247,28.941 -0.804,43.142c0.667,6.577 6.448,15.705 12.085,17.784c5.173,1.906 16.191,-2.067 19.59,-6.953c16.384,-23.543 5.071,-70.927 -22.638,-87.404c-20.901,-12.427 -45.727,-30.194 -57.902,13.329c-2.497,8.932 -23.181,12.783 -46.891,23.223Zm850.754,228.859l25.435,29.496c5.447,-5.808 16.526,-13.021 15.492,-17.221c-12.664,-51.197 -26.87,-102.026 -41.838,-152.609c-0.708,-2.392 -17.991,-2.636 -18.118,-2.005c-4.157,20.892 -10.346,42.148 -9.5,63.069c0.981,24.172 8.316,48.078 28.529,79.271Zm-973.298,-209.225l-83.017,21.197c20.62,33.167 53.386,14.118 80.67,18.307c4.906,0.752 10.417,-3.716 15.842,-4.804c21.422,-4.298 40.397,46.334 60.35,3.328c1.697,-3.666 -35.538,-25.44 -54.764,-38.685c-2.297,-1.579 -5.099,-2.41 -19.081,0.658Zm1038.141,-386.41c-33.442,25.437 -71.143,47.01 -98.858,77.632c-19.222,21.239 -24.695,54.944 -36.302,83.08c19.155,-17.717 39.617,-34.24 57.175,-53.423c28.41,-31.038 54.909,-63.826 77.985,-107.29Zm-707.303,263.271c-11.563,18.344 -27.496,35.402 -33.419,55.417c-5.529,18.677 -0.431,40.494 -0.007,60.93c15.566,-14.032 32.055,-27.193 46.308,-42.455c7.132,-7.637 4.087,-59.452 -12.881,-73.893Zm411.073,-256.919l17.176,-93.769c-16.22,26.622 -33.163,52.84 -48.393,80.016c-9.678,17.263 -17.769,35.613 -24.517,54.213c-2.099,5.791 2.515,14.014 4.058,21.127c8.918,-2.413 21.36,-2.023 26.004,-7.853c8.573,-10.77 12.585,-25.183 25.671,-53.735Zm206.53,767.386c12.652,5.799 24.791,14.249 38.072,16.817c23.679,4.582 42.027,40.284 71.294,12.939c-19.803,-14.921 -37.87,-33.923 -60.014,-43.321c-14.874,-6.319 -35.521,0.958 -49.352,13.566Zm-657.202,-196.99c-15.149,33.053 -31.191,65.753 -44.674,99.474c-2.599,6.503 4.828,17.013 7.629,25.672c7.976,-4.65 21.382,-7.881 23.038,-14.183c9.964,-38.013 17.241,-76.731 14.006,-110.964Zm315.058,-480.952l1.257,29c8.902,-2.477 24.228,-3.085 25.59,-7.756c5.854,-20.097 5.398,-42.051 11.398,-62.087c8.705,-29.069 21.001,-57.057 31.766,-85.507c-16.217,26.578 -32.731,52.987 -48.49,79.837c-5.711,9.734 -9.615,20.537 -21.521,46.513Zm200.112,574.948c-28.345,-11.103 -56.29,-23.508 -85.334,-32.291c-6.507,-1.968 -23.049,7.8 -23.975,13.843c-1.352,8.818 6.572,27.11 11.721,27.542c33.76,2.847 67.84,1.975 97.588,-9.093Zm188.043,-18.043c-18.149,40.185 21.363,55.963 35.974,81.832c3.921,6.936 19.576,7.224 29.847,10.564c-1.928,-11.823 -0.489,-25.846 -6.456,-35.042c-14.112,-21.75 -31.748,-41.216 -59.366,-57.354Zm-450.709,-585.576c5.869,-12.805 12.152,-25.438 17.377,-38.499c1.852,-4.627 1.117,-10.287 1.563,-15.479c-4.351,-0.055 -11.102,-1.956 -12.676,0.108c-17.714,23.169 -34.979,46.717 -50.943,71.091c-1.027,1.569 11.717,16.483 14.546,15.46c8.58,-3.106 15.43,-10.996 30.132,-32.681Zm-460.934,262.484c-16.184,-4.257 -32.726,-12.892 -48.454,-11.589c-16.89,1.405 -46.971,11.928 -47.085,18.853c-0.538,31.865 30.529,-8.53 42.4,13.818c2.635,4.962 29.987,-3.264 53.139,-21.082Zm204.061,-114.921c-0.963,-2.593 -1.489,-5.519 -3.05,-7.675c-0.961,-1.326 -4.307,-2.647 -5.232,-2.011c-12.774,8.76 -26.271,16.809 -37.62,27.192c-10.14,9.273 -17.851,21.217 -26.629,31.983c14.769,-0.006 31.562,4.317 43.691,-1.36c10.069,-4.716 14.648,-21.2 28.84,-48.129Zm115.365,-3.972c-2.12,17.634 -4.917,35.243 -5.64,52.935c-0.108,2.719 9.366,5.817 14.403,8.742c1.072,-21.964 45.348,-42.244 -8.763,-61.677Zm-150.732,328.866c2.379,-5.192 7.383,-10.789 6.655,-15.499c-2.478,-16.149 -6.972,-31.984 -10.693,-47.941c-5.434,14.534 -12.594,28.738 -15.543,43.755c-1.403,7.169 5.196,15.904 19.581,19.684Zm398.24,-641.8c-25.65,3.252 -37.456,15.818 -29.026,42.519c1.911,6.065 2.678,12.497 3.973,18.757c8.57,-14.028 17.187,-28.022 25.678,-42.097c1.468,-2.432 2.414,-5.17 -0.625,-19.178Zm445.958,327.571c2.352,-5.131 5.371,-10.069 6.895,-15.434c2.157,-7.591 3.207,-15.494 4.728,-23.264c-4.365,0.207 -12.125,-0.665 -12.585,0.778c-7.555,23.857 -14.196,48.005 -21.043,72.091c3.765,-3.604 7.79,-6.982 11.19,-10.904c1.777,-2.044 2.46,-5.037 10.815,-23.265Zm32.944,-51.225c11.333,-17.855 23.403,-35.3 33.6,-53.782c3.427,-6.219 2.111,-15.06 2.958,-22.703c-6.677,6.596 -15.121,12.168 -19.649,20.006c-8.271,14.316 -14.223,29.969 -16.909,56.479Zm-622.454,36.857c5.746,-7.841 15.698,-15.445 16.168,-23.586c0.568,-9.883 -6.856,-20.218 -10.829,-30.355c-6.63,7.912 -14.834,15.04 -19.347,24.017c-3.154,6.271 -1.269,15.082 14.008,29.924Zm122.782,-474.325c-4.71,10.473 -9.61,20.881 -13.464,31.662c-0.162,0.452 13.666,6.791 13.907,6.374c5.656,-9.955 10.337,-20.464 -0.444,-38.036Zm-375.666,1087.999l15.454,-57.706c-9.908,18.083 -19.954,36.09 -29.481,54.37c-0.848,1.629 1.67,5.013 14.028,3.336Zm387.977,-949.707c7.744,-10.012 16.168,-19.601 22.841,-30.284c2.158,-3.461 -0.27,-9.78 -0.602,-14.79c-5.443,3.843 -12.194,6.712 -16,11.788c-4.755,6.339 -7.088,14.499 -6.24,33.287Zm229.726,654.846l-14.998,29.58l27.504,4.172l-12.506,-33.752Zm-12.172,212.347c9.996,7.742 19.571,16.16 30.233,22.829c3.449,2.158 9.772,-0.279 14.781,-0.617c-3.839,-5.441 -6.696,-12.192 -11.765,-16.001c-6.328,-4.755 -14.479,-7.084 -33.249,-6.211Zm-948.436,-387.327l21.668,4.921c0.633,-3.801 2.06,-10.864 1.782,-10.93c-9.128,-2.216 -18.417,-3.762 -23.45,6.008Zm213.808,-53.606l10.564,-6.529c-4.936,-1.629 -9.863,-3.254 -10.564,6.529Zm-370.575,85.978l-6.511,-10.567c-1.631,4.941 -3.265,9.874 6.511,10.567Z" style="fill:#fff;fill-rule:nonzero;stroke:#dc0048;stroke-width:25.47px;stroke-linecap:butt;stroke-linejoin:round;stroke-miterlimit:2;"/><path d="M1035.486,4239.013c8.304,-18.117 11.946,-29.085 17.966,-38.537c10.617,-16.671 22.678,-32.421 34.137,-48.56c-1.016,20.875 1.209,42.59 -3.917,62.405c-5.579,21.563 -16.738,42.059 -27.78,61.723c-9.67,17.222 -22.549,32.643 -34.011,48.859c0.979,-20.88 1.547,-41.792 3.228,-62.614c0.431,-5.294 4.431,-10.304 10.377,-23.276Zm157.734,-3.511c1.551,-10.318 7.014,-18.849 12.479,-27.373l9.17,6.977c-5.916,7.393 -11.829,14.792 -21.649,20.396Zm189.196,-41.198c4.071,2.819 2.438,7.752 0.806,12.693c-2.167,-3.526 -4.342,-7.045 -0.806,-12.693Z" style="fill:#fff;fill-rule:nonzero;"/><path d="M2297.8,1246.274c29.459,-24.962 43.773,-61.213 33.071,-86.71c-0.654,-1.554 -14.464,-1.109 -17.085,2.303c-13.8,17.96 -25.671,37.393 -38.939,55.785c-2.877,3.988 -8.743,5.812 -13.229,8.633c-1.214,-6.74 -5.411,-14.933 -2.993,-19.911c4.487,-9.243 12.963,-16.507 19.557,-24.772c51.351,-64.363 114.293,-117.584 170.113,-177.642c9.222,-9.922 16.113,-22.086 25.686,-31.594c9.379,-9.315 11.059,-37.192 36.84,-15.853c3.445,2.85 25.852,-17.731 39.792,-26.979c15.026,-9.969 30.418,-19.373 45.649,-29.025c-2.017,17.92 -2.763,36.091 -6.287,53.707c-11.845,59.223 -44.411,109.304 -71.48,162.025c-23.148,45.092 -40.481,92.817 -69.121,135.565c-21.773,32.503 -3.839,67.456 8.982,98.364c9.468,22.824 28.07,41.817 42.388,62.663c3.684,5.367 8.487,10.99 9.441,17.025c3.09,19.553 45.11,-0.603 33.493,34.73c-5.134,15.607 -2.829,33.603 -4.343,50.475c-2.237,24.946 -13.3,31.91 -37.403,30.94c-55.153,-2.223 -106.577,-20.522 -159.405,-33.088c-24.178,-5.751 -50.145,-12.178 -73.923,-8.733c-17.63,2.551 -40.21,16.897 -48.044,32.354c-20.493,40.436 -51.706,71.227 -80.919,103.792c-39.849,44.418 -70.737,94.549 -100.073,145.948c-3.044,5.334 -4.785,11.623 -8.622,16.225c-2.947,3.527 -8.242,5.095 -12.492,7.532c-0.778,-4.106 -1.244,-8.302 -2.377,-12.306c-12.988,-45.85 -12.91,-92.585 -13.763,-139.921c-1.002,-55.692 -9.813,-111.26 -15.967,-166.797c-0.647,-5.829 -6.208,-11.104 -9.489,-16.638c-1.438,6.591 -2.06,13.508 -4.54,19.675c-2.402,5.968 -6.646,11.214 -10.222,16.683c-1.649,2.521 -3.64,4.815 -5.478,7.213c-1.248,-3.494 -3.694,-7.035 -3.557,-10.475c1.233,-30.658 3.595,-61.29 3.945,-91.948c0.076,-6.543 -6.665,-13.161 -10.263,-19.743c-2.853,5.428 -8.372,10.998 -8.098,16.262c1.246,24.161 -19.873,17.239 -30.606,20.897c-18.311,6.24 -39.259,4.708 -57.573,10.938c-16.722,5.692 -7.085,-6.733 -10.108,-9.522c-7.42,-6.838 -17.984,-13.93 -27.455,-14.169c-27.146,-0.688 -54.382,2.93 -81.573,2.804c-9.472,-0.045 -23.028,-3.459 -27.247,-10.098c-4.47,-7.032 -2.427,-20.578 0.876,-29.809c17.631,-49.31 57.414,-75.402 101.413,-99.216c78.124,-42.283 154.924,-87.137 220.085,-149.048c4.982,-4.736 14.186,-5.614 21.664,-6.958c7.476,-1.345 23.935,-14.811 15.531,10.105c-2.4,7.111 -1.589,15.304 -2.252,23.001l14.873,-1.914c-8.102,8.796 13.616,21.062 -5.462,31.226c-10.164,5.414 -14.065,22.69 -20.455,34.788c-0.147,0.276 4.795,4.353 5.594,3.848c13.109,-8.299 30.544,-11.603 32.334,-32.295c2.378,-27.516 26.817,-53.989 2.728,-82.986c-2.437,-2.934 0.744,-15.822 4.576,-17.826c21.572,-11.257 16.481,-33.82 23.204,-51.018c15.69,-40.127 24.696,-79.62 -22.177,-107.297c-16.682,-9.85 3.25,-13.275 4.294,-13.103c9.804,1.613 21.485,2.102 28.582,7.885c19.643,16.012 24.214,16.343 31.685,-5.746c5.224,-15.453 8.205,-31.662 13.272,-47.179c2.325,-7.11 6.078,-14.626 11.387,-19.6c3.903,-3.658 11.385,-3.49 17.27,-5.029c1.278,5.375 3.822,10.793 3.628,16.111c-1.128,30.66 -2.738,61.309 -4.599,91.932c-0.384,6.318 -4.89,13.17 -3.411,18.668c4.504,16.757 11.001,32.974 16.719,49.4c27.048,-8.568 -5.688,-31.675 13.445,-44.619c8.687,-3.958 14.506,-5.921 19.873,-8.749c0.705,-0.371 -0.927,-5.186 -1.477,-7.941c-5.062,2.286 -10.343,4.202 -15.092,7.024c-2.211,1.314 -3.381,4.383 -5.023,6.657c-7.886,-33.465 -3.006,-66.154 6.537,-98.417c4.087,-13.823 11.789,-28.161 -12.249,-30.954c-1.108,-0.126 -2.86,-9.82 -1.414,-14.073c5.566,-16.334 11.711,-32.543 18.926,-48.204c2.677,-5.807 8.911,-9.971 13.52,-14.883c4.861,6.026 14.822,13.203 13.763,17.889c-7.705,34.073 5.113,66.63 5.175,99.9c0.151,80.573 -0.407,161.146 -0.668,241.718c-0.025,7.596 1.129,15.42 -0.351,22.718c-1.152,5.704 -5.54,10.751 -8.49,16.093c-4.863,-3.328 -11.2,-5.647 -14.296,-10.181c-7.307,-10.718 -8.323,-26.068 -20.459,-0.225c-12.703,27.045 -19.568,52.093 -24.067,82.062c-5.459,36.369 4.352,77.365 -25.191,112.098c-16.252,19.109 -15.753,52.287 -23.816,78.816c-1.296,4.264 -7.898,6.916 -12.045,10.313c-2.232,-4.817 -7.532,-10.797 -6.216,-14.271c12.295,-32.448 15.576,-66.887 33.962,-98.867c15.166,-26.376 11.501,-63.711 15.642,-96.257c1.345,-10.574 0.875,-21.37 1.462,-32.054c0.337,-6.165 1.128,-12.31 1.711,-18.462c-4.786,4.455 -10.508,8.263 -14.139,13.519c-5.18,7.498 -11.796,15.772 -12.6,24.209c-2.898,30.459 -1.654,61.411 -6.015,91.593c-2.073,14.307 -15.465,26.613 -19.953,41.004c-14.066,45.1 -17.592,91.574 -19.226,138.848c-0.825,23.821 -7.401,49.587 -27.155,69.518c-26.741,26.98 -38.224,60.291 -44.862,98.946c-4.885,28.447 -18.553,55.902 -15.953,86.336c0.291,3.421 2.601,6.669 3.975,9.996c1.769,-2.441 4.598,-4.681 5.113,-7.363c1.754,-9.182 3.075,-18.495 3.707,-27.817c0.189,-2.765 -4.111,-7.815 -3.526,-8.284c29.943,-24.052 21.318,-63.494 37.354,-93.144c14.64,-27.063 27.566,-55.084 40.466,-83.045c10.436,-22.615 14.547,-50.658 30.6,-67.639c31.775,-33.61 38.286,-75.382 49.544,-116.051c6.057,-21.883 13.358,-41.71 34.281,-53.741c5.267,-3.029 12.65,-7.053 13.781,-11.861c7.965,-33.933 34.637,-53.38 59.15,-75.742c0.223,8.529 -1.919,16.417 -7.068,26.027c-19.435,27.134 -35.781,52.591 -52.318,77.931c-17.019,26.086 -34.416,51.988 -39.603,83.619c-0.454,2.78 1.138,5.893 1.777,8.849c2.331,-1.447 5.491,-2.347 6.87,-4.427c17.559,-26.459 32.483,-55.119 52.885,-79.12c21.276,-25.029 21.488,-55.965 32.112,-83.842Zm-293.195,220.166l8.57,3.07c-2.428,-2.601 -4.856,-5.202 -5.999,-12.535l-8.572,-3.073c2.431,2.602 4.856,5.204 6.001,12.539Zm-126.387,-151.19l3.073,-8.581c-2.599,2.432 -5.198,4.866 -12.524,6.014l-3.073,8.584c2.599,-2.432 5.198,-4.866 12.525,-6.017Zm177.042,114.133l-0.692,12.75l6.691,-0.215c-1.572,-5.755 -3.143,-11.51 -3.43,-21.998c6.298,-23.191 12.817,-46.323 18.644,-69.63c0.859,-3.427 -1.576,-7.677 -2.49,-11.546c-1.388,0.795 -3.848,1.419 -4.009,2.412c-4.518,27.825 -25.775,52.994 -14.715,88.226Zm66.035,-149.743c-24.461,9.045 -29.771,31.711 -25.423,51.122c8.116,36.214 -3.374,68.289 -10.734,101.954c-7.76,35.48 -13.117,71.488 -19.033,107.348c-0.365,2.23 4.361,7.669 5.356,7.348c4.559,-1.461 11.717,-3.784 12.402,-6.979c7.537,-35.281 19.956,-70.875 19.44,-106.204c-0.775,-53.01 25.471,-100.843 27.444,-152.021l3.073,-8.584c-2.6,2.435 -5.198,4.866 -12.525,6.017Zm273.169,3.045c1.673,-12.378 0.003,-26.581 5.589,-36.826c24.909,-45.699 45.531,-92.877 58.707,-143.3c1.956,-7.478 6.065,-14.377 8.85,-21.666c8.442,-22.11 17.02,-44.181 24.697,-66.555c0.982,-2.865 -3.052,-7.452 -4.764,-11.241c-4.693,2.452 -11.856,3.741 -13.656,7.558c-8.659,18.373 -12.789,39.623 -24.264,55.764c-21.214,29.836 -39.924,60.797 -58.836,92.004c-14.346,23.677 -16.467,42.765 -13.564,68.362c2.482,21.87 18.08,48.669 -10.645,67.574c-3.289,2.163 -2.927,18.634 0.378,20.575c13.956,8.202 13.727,-5.354 17.776,-13.646c3.206,-6.559 9.522,-11.602 19.185,-16.034l7.89,-14.116l-5.798,-3.062c-2.274,5.297 -4.546,10.597 -11.547,14.61Zm-633.06,51.656c-5.079,5.578 -11.99,10.376 -14.791,16.93c-3.713,8.684 -8.904,23.881 -5.218,27.25c11.338,10.373 20.329,2.885 29.29,-8.945c17.995,-23.756 41.228,-41.594 67.789,-56.326c24.484,-13.579 46.028,-32.489 68.832,-49.101c6.95,-5.064 13.779,-10.293 20.666,-15.446c2.269,8.809 4.879,17.547 6.665,26.453c0.879,4.377 0.235,9.062 0.278,13.605c5.441,-2.471 12.238,-3.697 15.944,-7.751c3.95,-4.319 6.68,-11.232 6.98,-17.158c1.335,-26.517 19.607,-37.452 39.541,-49.857c16.47,-10.25 29.624,-26.11 43.131,-40.534c1.812,-1.936 -2.677,-10.139 -5.011,-15.08c-0.242,-0.514 -6.296,0.64 -8.652,2.378c-83.379,61.457 -168.143,120.776 -265.443,173.581Zm387.62,272.938c7.901,-16.643 17.022,-32.835 23.419,-50.04c9.26,-24.902 9.113,-50.235 43.998,-63.493c29.859,-11.35 27.708,-53.771 36.424,-83.698c1.186,-4.081 -3.382,-9.835 -5.286,-14.818c-4.331,3.034 -10.848,5.108 -12.663,9.246c-20.831,47.482 -73.326,76.607 -77.626,133.739c-0.139,1.85 -6.66,2.669 -7.751,5.081c-12.115,26.775 -24.057,53.641 -35.231,80.819c-2.185,5.312 -0.863,12.063 -1.157,18.15c6.427,-3.757 14.055,-6.383 18.95,-11.584c5.026,-5.34 7.385,-13.195 16.922,-23.402Zm187.077,-259.144c-5.835,2.794 -15.307,4.267 -16.883,8.608c-7.542,20.777 -8.033,44.367 -34.827,54.124c-8.008,2.916 -12.68,16.403 -17.617,25.719c-1.868,3.526 -0.167,8.947 -0.093,13.501c2.641,-0.915 5.464,-1.497 7.889,-2.813c7.177,-3.887 17.234,-6.316 20.75,-12.436c14.569,-25.33 27.113,-36.297 48.857,-5.227c5.817,8.315 25.708,5.386 35.663,12.495c13.399,9.577 44.282,-7.247 41.241,26.694c3.113,-0.288 8.189,0.511 9.04,-1.031c11.42,-20.661 -4.052,-46.807 -26.991,-46.245c-40.532,0.996 -63.935,-10.243 -69.044,-36.195c-2.101,-10.677 -4.883,-27.745 17.983,-23.261c5.235,1.028 11.786,-4.658 17.733,-7.256c-2.607,-5.751 -4.533,-15.767 -7.969,-16.316c-6.089,-0.971 -13.101,3.811 -25.733,9.637Zm11.979,-62.803c16.252,-13.089 15.559,-30.9 13.103,-48.881c-0.708,-5.184 -3.582,-10.073 -5.46,-15.097c-4.351,3.053 -11.806,5.506 -12.539,9.265c-4.078,20.96 -19.462,34.673 -29.372,51.744c-17.891,30.823 -28.829,65.701 -42.355,99.01c-0.991,2.442 0.566,5.918 0.937,8.912c3.99,-1.492 9.356,-1.862 11.684,-4.713c4.751,-5.82 6.708,-14.112 11.863,-19.381c18.921,-19.334 14.081,-61.324 55.732,-58.951c-2.054,-4.146 -4.109,-8.296 -3.592,-21.91Zm150.185,-198.025c3.118,0.847 8.695,2.962 9.006,2.359c18.857,-36.526 37.533,-73.152 55.402,-110.169c2.098,-4.35 -0.48,-10.958 -0.893,-16.522c-5.61,3.219 -13.996,5.059 -16.393,9.88c-17.75,35.706 -46.887,66.197 -47.123,114.452Zm-565.04,268.288l15.974,29.744c7.481,-7.252 15.209,-14.274 22.368,-21.833c5.566,-5.876 10.423,-12.421 15.595,-18.671c1.085,8.132 1.438,16.463 3.573,24.303c0.988,3.631 5.086,8.218 8.446,8.86c3.083,0.588 8.9,-2.671 10.353,-5.732c7.005,-14.75 -3.768,-40.305 -20.867,-46.974c-12.897,-5.029 -28.496,-12.691 -31.274,12.887c-0.569,5.249 -11.826,9.341 -24.168,17.416Zm499.126,49.166l17.036,14.192c2.517,-3.77 8.066,-8.854 7.094,-11.116c-11.888,-27.571 -24.607,-54.791 -37.732,-81.802c-0.621,-1.278 -10.35,0.198 -10.362,0.564c-0.385,12.121 -1.878,24.635 0.548,36.305c2.806,13.483 9.155,26.225 23.416,41.857Zm-566.114,-26.708l-44.644,19.648c14.674,16.703 31.298,2.949 47.011,2.756c2.825,-0.035 5.504,-3.058 8.449,-4.176c11.629,-4.412 27.009,22.253 34.202,-3.761c0.611,-2.217 -22.331,-10.972 -34.364,-16.617c-1.437,-0.673 -3.088,-0.878 -10.654,2.15Zm546.968,-313.845c-16.408,17.405 -35.568,33.037 -48.276,52.819c-8.814,13.721 -8.743,33.16 -12.637,50.044c9.105,-11.736 19.055,-22.925 27.125,-35.335c13.06,-20.081 24.883,-40.966 33.788,-67.528Zm-372.658,213.83c-4.782,11.38 -12.139,22.447 -13.599,34.24c-1.363,11.005 3.535,22.781 5.68,34.219c7.433,-9.332 15.465,-18.261 22.046,-28.162c3.293,-4.954 -3.25,-33.769 -14.127,-40.296Zm206.89,-182.629l0.899,-54.262c-6.626,16.464 -13.695,32.768 -19.713,49.451c-3.825,10.598 -6.657,21.657 -8.712,32.733c-0.639,3.448 2.72,7.636 4.25,11.486c4.783,-2.187 11.807,-3.129 13.871,-6.836c3.81,-6.848 4.718,-15.317 9.404,-32.572Zm187.569,411.694c7.646,2.076 15.251,5.689 22.95,5.893c13.725,0.364 27.36,18.703 41.245,0.616c-12.513,-6.533 -24.432,-15.518 -37.744,-18.731c-8.943,-2.161 -19.859,3.851 -26.451,12.222Zm-387.456,-49.323c-5.425,19.975 -11.383,39.836 -15.809,60.031c-0.853,3.895 4.298,9.104 6.679,13.706c4.046,-3.355 11.273,-6.42 11.615,-10.114c2.05,-22.277 2.525,-44.7 -2.485,-63.623Zm132.07,-299.489l3.411,16.169c4.768,-2.221 13.319,-3.992 13.648,-6.743c1.413,-11.833 -0.891,-24.119 0.609,-35.931c2.177,-17.137 6.472,-34.002 9.863,-50.983c-6.628,16.439 -13.439,32.81 -19.784,49.359c-2.299,5.999 -3.484,12.43 -7.747,28.129Zm166.014,304.22c-16.954,-3.591 -33.805,-7.951 -50.935,-10.175c-3.838,-0.498 -12.217,6.531 -12.173,10.011c0.064,5.078 6.22,14.612 9.151,14.374c19.225,-1.55 38.283,-5.219 53.957,-14.21Zm103.921,-27.674c-6.444,24.261 17.217,29.436 27.836,42.601c2.849,3.53 11.668,2.231 17.748,3.149c-2.186,-6.46 -2.685,-14.469 -6.894,-19.077c-9.954,-10.898 -21.674,-20.185 -38.689,-26.672Zm-307.739,-286.813c2.102,-7.739 4.452,-15.419 6.167,-23.242c0.608,-2.771 -0.332,-5.881 -0.566,-8.839c-2.449,0.375 -6.417,-0.063 -7.108,1.243c-7.787,14.664 -15.286,29.499 -21.978,44.676c-0.431,0.977 8.118,8.164 9.611,7.325c4.529,-2.545 7.64,-7.614 13.874,-21.164Zm-234.373,190.406c-9.486,-0.881 -19.581,-4.187 -28.293,-1.988c-9.354,2.364 -25.266,11.08 -24.684,14.98c2.67,17.945 16.349,-7.638 25.1,3.805c1.943,2.541 16.536,-4.63 27.876,-16.797Zm103.879,-83.574c-0.783,-1.367 -1.351,-2.96 -2.429,-4.026c-0.664,-0.655 -2.666,-1.085 -3.126,-0.641c-6.357,6.111 -13.185,11.89 -18.591,18.78c-4.83,6.154 -8.046,13.581 -11.971,20.445c8.294,-1.381 18.128,-0.52 24.41,-4.839c5.215,-3.588 6.249,-13.272 11.707,-29.719Zm64.418,-12.992c0.455,10.101 0.526,20.251 1.771,30.254c0.193,1.537 5.802,2.393 8.904,3.566c-1.447,-12.435 21.527,-27.954 -10.675,-33.82Zm-53.973,198.749c0.852,-3.138 3.14,-6.748 2.292,-9.325c-2.898,-8.838 -6.899,-17.312 -10.477,-25.926c-1.696,8.669 -4.392,17.314 -4.648,26.023c-0.119,4.157 4.402,8.447 12.833,9.228Zm163.781,-397.579c-14.101,4.219 -19.56,12.377 -12.335,26.586c1.639,3.228 2.67,6.769 3.981,10.163c3.504,-8.677 7.038,-17.34 10.494,-26.037c0.597,-1.503 0.874,-3.129 -2.14,-10.712Zm281.003,142.362c0.842,-3.101 2.077,-6.156 2.432,-9.311c0.503,-4.464 0.356,-9 0.485,-13.506c-2.432,0.524 -6.871,0.758 -6.995,1.611c-2.018,14.103 -3.494,28.283 -5.093,42.449c1.778,-2.375 3.723,-4.648 5.267,-7.168c0.807,-1.313 0.912,-3.058 3.903,-14.075Zm13.723,-31.841c4.699,-11.085 9.85,-22.007 13.853,-33.338c1.345,-3.812 -0.219,-8.655 -0.457,-13.026c-3.134,4.327 -7.357,8.244 -9.169,13.068c-3.309,8.811 -5.192,18.157 -4.227,33.295Zm-346.128,78.762c2.495,-4.939 7.375,-10.138 6.88,-14.754c-0.603,-5.603 -5.736,-10.715 -8.913,-16.037c-2.985,5.062 -6.928,9.83 -8.625,15.293c-1.187,3.816 0.694,8.588 10.658,15.498Zm24.707,-277.831c-1.668,6.321 -3.449,12.623 -4.608,19.037c-0.049,0.269 8.308,2.539 8.405,2.282c2.248,-6.118 3.897,-12.456 -3.797,-21.32Zm-109.481,646.056l3.296,-33.849c-3.877,11.079 -7.84,22.129 -11.485,33.284c-0.324,0.994 1.405,2.66 8.189,0.565Zm129.295,-569.54c3.415,-6.345 7.252,-12.516 10.003,-19.138c0.889,-2.145 -1.064,-5.467 -1.718,-8.25c-2.698,2.666 -6.222,4.907 -7.886,8.112c-2.079,4.003 -2.628,8.804 -0.399,19.276Zm190.098,346.328l-5.664,18.011l15.835,-0.223l-10.172,-17.788Zm12.972,120.388c6.336,3.416 12.499,7.25 19.108,10.001c2.138,0.89 5.462,-1.068 8.243,-1.725c-2.663,-2.698 -4.898,-6.223 -8.1,-7.889c-3.997,-2.08 -8.792,-2.628 -19.252,-0.387Zm-568.766,-129.048l12.628,0.743c0.001,-2.194 0.143,-6.293 -0.019,-6.304c-5.333,-0.393 -10.694,-0.395 -12.609,5.562Zm115.073,-50.049l5.323,-4.652c-2.924,-0.454 -5.842,-0.907 -5.323,4.652Zm-200.092,82.853l-4.642,-5.327c-0.455,2.927 -0.912,5.85 4.642,5.327Z" style="fill:#fff;fill-rule:nonzero;stroke:#dc0048;stroke-width:14.5px;stroke-linecap:butt;stroke-linejoin:round;stroke-miterlimit:2;"/><path d="M2219.618,1235.206c2.973,-10.949 3.996,-17.448 6.495,-23.318c4.407,-10.352 9.711,-20.323 14.642,-30.455c1.377,11.818 4.652,23.806 3.622,35.412c-1.122,12.63 -5.477,25.181 -9.843,37.255c-3.824,10.574 -9.619,20.435 -14.543,30.611c-1.398,-11.818 -3.03,-23.615 -4.028,-35.465c-0.252,-3.013 1.527,-6.2 3.656,-14.039Zm88.255,-16.686c-0.091,-5.939 2.181,-11.24 4.455,-16.536l5.801,3.063c-2.633,4.704 -5.263,9.411 -10.255,13.473Zm102.408,-40.785c2.549,1.203 2.092,4.126 1.637,7.053c-1.546,-1.778 -3.096,-3.551 -1.637,-7.053Z" style="fill:#fff;fill-rule:nonzero;"/><path d="M754.114,3279.695c33.839,-28.673 50.28,-70.314 37.987,-99.601c-0.751,-1.785 -16.614,-1.274 -19.625,2.645c-15.851,20.63 -29.487,42.952 -44.728,64.079c-3.305,4.581 -10.043,6.676 -15.196,9.916c-1.395,-7.742 -6.216,-17.153 -3.438,-22.871c5.155,-10.617 14.891,-18.961 22.464,-28.455c58.985,-73.932 131.286,-135.066 195.404,-204.052c10.593,-11.398 18.509,-25.369 29.504,-36.291c10.773,-10.7 12.703,-42.722 42.317,-18.21c3.958,3.274 29.695,-20.367 45.708,-30.99c17.26,-11.451 34.94,-22.253 52.436,-33.34c-2.317,20.584 -3.173,41.457 -7.222,61.691c-13.606,68.028 -51.014,125.554 -82.107,186.114c-26.59,51.796 -46.5,106.617 -79.397,155.719c-25.01,37.336 -4.41,77.485 10.317,112.988c10.876,26.217 32.243,48.034 48.69,71.98c4.232,6.165 9.748,12.624 10.845,19.556c3.549,22.46 51.817,-0.693 38.472,39.894c-5.897,17.927 -3.25,38.599 -4.988,57.979c-2.569,28.655 -15.277,36.655 -42.964,35.54c-63.353,-2.554 -122.423,-23.573 -183.104,-38.008c-27.773,-6.607 -57.6,-13.988 -84.913,-10.031c-20.252,2.93 -46.188,19.409 -55.186,37.164c-23.539,46.448 -59.393,81.816 -92.95,119.224c-45.773,51.022 -81.253,108.606 -114.951,167.647c-3.497,6.127 -5.497,13.351 -9.904,18.637c-3.386,4.052 -9.467,5.852 -14.349,8.652c-0.894,-4.717 -1.429,-9.536 -2.731,-14.136c-14.919,-52.667 -14.83,-106.35 -15.809,-160.723c-1.151,-63.972 -11.272,-127.801 -18.34,-191.595c-0.743,-6.695 -7.131,-12.755 -10.9,-19.112c-1.652,7.571 -2.367,15.516 -5.215,22.6c-2.759,6.856 -7.634,12.881 -11.742,19.163c-1.895,2.896 -4.181,5.531 -6.292,8.285c-1.433,-4.014 -4.244,-8.081 -4.086,-12.032c1.417,-35.216 4.13,-70.402 4.531,-105.618c0.087,-7.516 -7.656,-15.117 -11.789,-22.678c-3.278,6.235 -9.617,12.633 -9.302,18.68c1.432,27.753 -22.828,19.802 -35.157,24.003c-21.033,7.168 -45.096,5.408 -66.132,12.564c-19.208,6.538 -8.139,-7.733 -11.611,-10.938c-8.523,-7.855 -20.658,-16.001 -31.537,-16.276c-31.182,-0.79 -62.468,3.365 -93.7,3.22c-10.881,-0.052 -26.451,-3.973 -31.298,-11.599c-5.135,-8.078 -2.788,-23.637 1.007,-34.24c20.252,-56.641 65.95,-86.612 116.491,-113.967c89.739,-48.569 177.957,-100.092 252.806,-171.207c5.723,-5.44 16.295,-6.449 24.885,-7.993c8.587,-1.545 27.493,-17.012 17.84,11.607c-2.757,8.168 -1.826,17.579 -2.587,26.42l17.084,-2.199c-9.306,10.104 15.641,24.193 -6.275,35.868c-11.676,6.219 -16.157,26.063 -23.496,39.96c-0.169,0.317 5.508,5 6.425,4.42c15.058,-9.533 35.085,-13.328 37.142,-37.097c2.732,-31.607 30.805,-62.015 3.134,-95.323c-2.799,-3.37 0.855,-18.174 5.257,-20.476c24.78,-12.93 18.931,-38.849 26.654,-58.603c18.023,-46.093 28.368,-91.457 -25.474,-123.249c-19.162,-11.314 3.734,-15.249 4.933,-15.051c11.261,1.853 24.679,2.414 32.831,9.057c22.563,18.392 27.814,18.772 36.396,-6.6c6.001,-17.75 9.424,-36.37 15.245,-54.193c2.67,-8.167 6.982,-16.8 13.08,-22.514c4.483,-4.202 13.078,-4.009 19.837,-5.777c1.468,6.174 4.39,12.398 4.167,18.506c-1.296,35.218 -3.145,70.424 -5.282,105.6c-0.442,7.257 -5.617,15.127 -3.918,21.444c5.174,19.249 12.636,37.876 19.204,56.744c31.069,-9.841 -6.534,-36.385 15.444,-51.253c9.979,-4.546 16.663,-6.801 22.827,-10.05c0.809,-0.426 -1.064,-5.957 -1.696,-9.122c-5.815,2.625 -11.881,4.827 -17.335,8.068c-2.54,1.509 -3.884,5.035 -5.77,7.647c-9.058,-38.441 -3.453,-75.989 7.509,-113.049c4.695,-15.878 13.541,-32.348 -14.07,-35.556c-1.272,-0.145 -3.285,-11.279 -1.624,-16.165c6.393,-18.762 13.452,-37.382 21.74,-55.37c3.075,-6.67 10.235,-11.453 15.53,-17.096c5.584,6.922 17.025,15.166 15.809,20.549c-8.851,39.139 5.873,76.536 5.944,114.752c0.174,92.552 -0.468,185.104 -0.767,277.655c-0.029,8.726 1.297,17.713 -0.403,26.095c-1.323,6.552 -6.364,12.349 -9.753,18.485c-5.586,-3.823 -12.865,-6.487 -16.421,-11.695c-8.394,-12.311 -9.56,-29.943 -23.501,-0.258c-14.591,31.066 -22.477,59.837 -27.645,94.263c-6.27,41.776 4.999,88.867 -28.937,128.764c-18.668,21.95 -18.095,60.061 -27.357,90.533c-1.489,4.898 -9.072,7.944 -13.835,11.846c-2.564,-5.533 -8.652,-12.402 -7.14,-16.393c14.123,-37.272 17.892,-76.831 39.011,-113.566c17.42,-30.297 13.211,-73.183 17.968,-110.568c1.545,-12.146 1.005,-24.547 1.679,-36.819c0.387,-7.082 1.296,-14.14 1.965,-21.207c-5.498,5.118 -12.071,9.491 -16.241,15.529c-5.95,8.613 -13.55,18.117 -14.473,27.808c-3.329,34.987 -1.899,70.541 -6.909,105.21c-2.381,16.434 -17.764,30.57 -22.919,47.1c-16.157,51.805 -20.208,105.189 -22.085,159.491c-0.948,27.363 -8.502,56.96 -31.192,79.854c-30.716,30.991 -43.907,69.255 -51.532,113.656c-5.611,32.676 -21.311,64.214 -18.325,99.172c0.334,3.93 2.987,7.66 4.566,11.482c2.032,-2.804 5.282,-5.377 5.873,-8.457c2.015,-10.548 3.532,-21.244 4.258,-31.952c0.217,-3.176 -4.722,-8.977 -4.051,-9.516c34.394,-27.628 24.487,-72.934 42.908,-106.992c16.816,-31.086 31.664,-63.273 46.483,-95.392c11.987,-25.977 16.71,-58.19 35.149,-77.695c36.499,-38.607 43.978,-86.589 56.909,-133.305c6.957,-25.137 15.344,-47.911 39.378,-61.731c6.051,-3.48 14.531,-8.102 15.83,-13.624c9.149,-38.978 39.787,-61.316 67.944,-87.003c0.256,9.798 -2.204,18.857 -8.119,29.896c-22.324,31.168 -41.101,60.41 -60.097,89.517c-19.55,29.964 -39.532,59.718 -45.491,96.051c-0.522,3.193 1.307,6.769 2.041,10.165c2.678,-1.662 6.307,-2.696 7.892,-5.086c20.17,-30.393 37.312,-63.313 60.747,-90.883c24.439,-28.75 24.683,-64.285 36.886,-96.307Zm-336.785,252.899l9.844,3.526c-2.789,-2.987 -5.578,-5.975 -6.891,-14.399l-9.846,-3.53c2.792,2.988 5.578,5.978 6.894,14.403Zm-145.177,-173.668l3.529,-9.857c-2.985,2.793 -5.971,5.59 -14.386,6.909l-3.53,9.86c2.985,-2.793 5.971,-5.59 14.387,-6.912Zm203.363,131.102l-0.794,14.645l7.686,-0.246c-1.805,-6.611 -3.611,-13.221 -3.939,-25.269c7.234,-26.639 14.722,-53.21 21.416,-79.982c0.986,-3.937 -1.81,-8.818 -2.861,-13.263c-1.594,0.913 -4.42,1.631 -4.605,2.771c-5.19,31.962 -29.607,60.873 -16.902,101.343Zm75.852,-172.006c-28.097,10.39 -34.198,36.425 -29.203,58.722c9.323,41.599 -3.876,78.442 -12.33,117.111c-8.913,40.754 -15.068,82.117 -21.863,123.308c-0.419,2.561 5.009,8.81 6.152,8.44c5.237,-1.678 13.459,-4.347 14.245,-8.017c8.658,-40.527 22.923,-81.412 22.331,-121.993c-0.89,-60.891 29.257,-115.835 31.524,-174.623l3.53,-9.86c-2.986,2.797 -5.971,5.59 -14.387,6.912Zm313.781,3.497c1.921,-14.219 0.003,-30.533 6.42,-42.301c28.612,-52.493 52.301,-106.685 67.436,-164.605c2.246,-8.59 6.967,-16.514 10.166,-24.887c9.697,-25.398 19.55,-50.749 28.369,-76.45c1.128,-3.291 -3.506,-8.56 -5.472,-12.912c-5.391,2.817 -13.618,4.297 -15.686,8.682c-9.946,21.104 -14.69,45.513 -27.872,64.054c-24.368,34.272 -45.86,69.836 -67.583,105.683c-16.479,27.198 -18.915,49.123 -15.58,78.525c2.851,25.121 20.768,55.905 -12.227,77.62c-3.778,2.485 -3.362,21.405 0.434,23.633c16.031,9.421 15.768,-6.15 20.419,-15.675c3.682,-7.534 10.937,-13.327 22.038,-18.418l9.063,-16.214l-6.66,-3.517c-2.612,6.084 -5.222,12.173 -13.264,16.783Zm-727.179,59.335c-5.834,6.407 -13.772,11.919 -16.99,19.447c-4.266,9.975 -10.228,27.431 -5.994,31.301c13.024,11.915 23.351,3.314 33.645,-10.274c20.67,-27.288 47.357,-47.778 77.867,-64.7c28.124,-15.598 52.871,-37.32 79.065,-56.4c7.983,-5.817 15.828,-11.823 23.739,-17.742c2.606,10.118 5.604,20.156 7.655,30.386c1.01,5.028 0.27,10.409 0.32,15.628c6.249,-2.839 14.057,-4.247 18.315,-8.904c4.537,-4.961 7.674,-12.902 8.017,-19.709c1.533,-30.459 22.522,-43.02 45.419,-57.27c18.918,-11.774 34.028,-29.992 49.543,-46.56c2.081,-2.224 -3.075,-11.647 -5.756,-17.322c-0.278,-0.59 -7.232,0.736 -9.938,2.731c-95.775,70.594 -193.141,138.732 -304.907,199.388Zm445.249,313.517c9.075,-19.118 19.553,-37.717 26.901,-57.48c10.637,-28.605 10.468,-57.703 50.539,-72.933c34.298,-13.038 31.827,-61.765 41.84,-96.142c1.363,-4.687 -3.885,-11.297 -6.072,-17.021c-4.975,3.485 -12.461,5.868 -14.545,10.621c-23.928,54.541 -84.228,87.997 -89.166,153.622c-0.159,2.125 -7.65,3.066 -8.903,5.836c-13.917,30.755 -27.634,61.616 -40.468,92.834c-2.51,6.102 -0.991,13.857 -1.329,20.848c7.382,-4.316 16.145,-7.332 21.768,-13.306c5.774,-6.134 8.483,-15.157 19.437,-26.881Zm214.89,-297.672c-6.702,3.21 -17.583,4.901 -19.393,9.888c-8.663,23.866 -9.228,50.963 -40.005,62.171c-9.198,3.35 -14.565,18.842 -20.236,29.543c-2.146,4.05 -0.191,10.277 -0.107,15.509c3.033,-1.051 6.277,-1.72 9.062,-3.231c8.244,-4.465 19.797,-7.255 23.835,-14.284c16.735,-29.096 31.144,-41.694 56.121,-6.004c6.682,9.551 29.53,6.186 40.965,14.352c15.391,11.001 50.866,-8.325 47.372,30.663c3.576,-0.33 9.406,0.587 10.384,-1.184c13.118,-23.733 -4.655,-53.766 -31.004,-53.12c-46.558,1.144 -73.441,-11.766 -79.309,-41.576c-2.414,-12.265 -5.609,-31.87 20.657,-26.719c6.014,1.181 13.539,-5.351 20.37,-8.335c-2.994,-6.606 -5.207,-18.111 -9.154,-18.742c-6.995,-1.116 -15.049,4.378 -29.559,11.07Zm13.76,-72.14c18.668,-15.035 17.872,-35.494 15.051,-56.148c-0.813,-5.955 -4.114,-11.57 -6.272,-17.341c-4.998,3.507 -13.562,6.325 -14.403,10.643c-4.684,24.076 -22.356,39.828 -33.739,59.437c-20.551,35.405 -33.115,75.469 -48.653,113.73c-1.138,2.805 0.65,6.798 1.076,10.238c4.584,-1.714 10.747,-2.139 13.421,-5.414c5.457,-6.686 7.706,-16.21 13.626,-22.263c21.734,-22.208 16.174,-70.441 64.018,-67.715c-2.359,-4.762 -4.72,-9.529 -4.126,-25.167Zm172.513,-227.467c3.581,0.973 9.988,3.403 10.345,2.709c21.66,-41.957 43.113,-84.028 63.639,-126.548c2.41,-4.997 -0.552,-12.588 -1.025,-18.978c-6.444,3.697 -16.077,5.811 -18.83,11.349c-20.389,41.014 -53.858,76.039 -54.129,131.468Zm-649.046,308.175l18.349,34.166c8.593,-8.33 17.47,-16.396 25.693,-25.079c6.393,-6.749 11.973,-14.268 17.913,-21.447c1.247,9.342 1.651,18.91 4.104,27.916c1.135,4.171 5.842,9.44 9.702,10.177c3.541,0.675 10.223,-3.068 11.892,-6.585c8.046,-16.943 -4.329,-46.297 -23.969,-53.958c-14.815,-5.777 -32.733,-14.578 -35.924,14.802c-0.653,6.029 -13.584,10.73 -27.761,20.005Zm573.333,56.476l19.568,16.302c2.892,-4.331 9.266,-10.17 8.149,-12.769c-13.655,-31.67 -28.266,-62.936 -43.341,-93.963c-0.713,-1.467 -11.888,0.227 -11.903,0.648c-0.443,13.923 -2.158,28.297 0.63,41.703c3.223,15.488 10.516,30.124 26.897,48.08Zm-650.28,-30.679l-51.282,22.569c16.855,19.186 35.952,3.387 54,3.166c3.246,-0.04 6.322,-3.513 9.705,-4.797c13.358,-5.068 31.024,25.561 39.287,-4.32c0.702,-2.547 -25.651,-12.603 -39.473,-19.087c-1.651,-0.773 -3.548,-1.008 -12.238,2.469Zm628.287,-360.505c-18.847,19.992 -40.856,37.948 -55.453,60.672c-10.124,15.761 -10.043,38.09 -14.516,57.484c10.458,-13.481 21.888,-26.333 31.158,-40.589c15.001,-23.066 28.582,-47.057 38.811,-77.567Zm-428.063,245.62c-5.493,13.072 -13.944,25.784 -15.62,39.33c-1.565,12.641 4.061,26.168 6.524,39.306c8.538,-10.72 17.765,-20.976 25.324,-32.349c3.782,-5.691 -3.734,-38.79 -16.227,-46.287Zm237.649,-209.782l1.033,-62.329c-7.611,18.911 -15.731,37.64 -22.644,56.803c-4.393,12.173 -7.646,24.877 -10.007,37.599c-0.734,3.96 3.124,8.771 4.882,13.194c5.494,-2.512 13.562,-3.594 15.934,-7.852c4.377,-7.866 5.42,-17.594 10.802,-37.414Zm215.455,472.901c8.783,2.385 17.519,6.535 26.362,6.769c15.766,0.419 31.428,21.483 47.377,0.708c-14.373,-7.504 -28.064,-17.825 -43.356,-21.516c-10.272,-2.482 -22.811,4.424 -30.383,14.039Zm-445.06,-56.656c-6.231,22.945 -13.075,45.758 -18.16,68.956c-0.98,4.474 4.938,10.458 7.672,15.743c4.647,-3.854 12.949,-7.375 13.342,-11.618c2.354,-25.589 2.9,-51.345 -2.854,-73.082Zm151.706,-344.014l3.918,18.573c5.477,-2.551 15.299,-4.586 15.677,-7.746c1.623,-13.592 -1.024,-27.705 0.7,-41.273c2.501,-19.685 7.434,-39.057 11.33,-58.563c-7.613,18.883 -15.437,37.688 -22.726,56.698c-2.641,6.891 -4.002,14.278 -8.899,32.311Zm190.695,349.45c-19.475,-4.125 -38.831,-9.133 -58.508,-11.687c-4.408,-0.572 -14.033,7.502 -13.983,11.499c0.073,5.833 7.145,16.784 10.512,16.511c22.083,-1.781 43.974,-5.995 61.978,-16.323Zm119.371,-31.788c-7.402,27.867 19.777,33.812 31.975,48.934c3.273,4.054 13.402,2.563 20.386,3.617c-2.511,-7.42 -3.085,-16.62 -7.919,-21.914c-11.434,-12.519 -24.896,-23.186 -44.441,-30.637Zm-353.491,-329.454c2.414,-8.889 5.114,-17.712 7.084,-26.697c0.699,-3.183 -0.382,-6.756 -0.65,-10.153c-2.813,0.431 -7.371,-0.072 -8.165,1.428c-8.944,16.844 -17.559,33.884 -25.245,51.319c-0.495,1.122 9.325,9.378 11.04,8.414c5.202,-2.923 8.775,-8.746 15.936,-24.311Zm-269.217,218.714c-10.896,-1.012 -22.492,-4.81 -32.499,-2.284c-10.745,2.716 -29.022,12.727 -28.354,17.207c3.067,20.613 18.78,-8.774 28.832,4.371c2.231,2.919 18.995,-5.319 32.021,-19.294Zm119.324,-95.999c-0.899,-1.57 -1.552,-3.401 -2.79,-4.624c-0.762,-0.752 -3.062,-1.246 -3.59,-0.737c-7.302,7.02 -15.146,13.658 -21.355,21.572c-5.548,7.068 -9.242,15.6 -13.751,23.485c9.527,-1.586 20.823,-0.597 28.039,-5.559c5.99,-4.121 7.178,-15.245 13.448,-34.138Zm73.995,-14.924c0.522,11.603 0.604,23.262 2.034,34.752c0.221,1.765 6.665,2.749 10.228,4.096c-1.662,-14.284 24.727,-32.11 -12.262,-38.848Zm-61.997,228.298c0.979,-3.604 3.606,-7.751 2.633,-10.711c-3.329,-10.152 -7.925,-19.885 -12.035,-29.78c-1.948,9.958 -5.045,19.888 -5.338,29.892c-0.137,4.775 5.056,9.703 14.741,10.6Zm188.131,-456.688c-16.198,4.846 -22.468,14.218 -14.168,30.538c1.882,3.708 3.067,7.775 4.573,11.674c4.025,-9.967 8.084,-19.918 12.054,-29.908c0.686,-1.726 1.004,-3.594 -2.458,-12.304Zm322.781,163.528c0.967,-3.562 2.386,-7.071 2.794,-10.695c0.578,-5.128 0.408,-10.338 0.557,-15.514c-2.794,0.601 -7.893,0.87 -8.035,1.85c-2.318,16.199 -4.014,32.488 -5.85,48.76c2.042,-2.728 4.277,-5.339 6.05,-8.233c0.928,-1.509 1.047,-3.513 4.484,-16.167Zm15.763,-36.575c5.398,-12.733 11.315,-25.279 15.912,-38.295c1.545,-4.379 -0.252,-9.941 -0.525,-14.962c-3.6,4.97 -8.45,9.47 -10.532,15.011c-3.801,10.121 -5.964,20.857 -4.856,38.245Zm-397.588,90.472c2.866,-5.674 8.472,-11.646 7.902,-16.947c-0.693,-6.436 -6.589,-12.308 -10.238,-18.422c-3.429,5.814 -7.958,11.292 -9.907,17.566c-1.363,4.383 0.797,9.865 12.243,17.803Zm28.381,-319.137c-1.916,7.261 -3.962,14.5 -5.293,21.868c-0.056,0.309 9.544,2.916 9.655,2.622c2.582,-7.028 4.476,-14.308 -4.362,-24.489Zm-125.758,742.107l3.786,-38.881c-4.454,12.727 -9.005,25.42 -13.192,38.232c-0.372,1.142 1.614,3.055 9.407,0.649Zm148.517,-654.216c3.923,-7.289 8.33,-14.377 11.49,-21.983c1.021,-2.464 -1.222,-6.28 -1.973,-9.477c-3.1,3.063 -7.147,5.636 -9.058,9.319c-2.388,4.599 -3.019,10.113 -0.458,22.141Zm218.36,397.818l-6.506,20.689l18.189,-0.256l-11.684,-20.433Zm14.901,138.287c7.278,3.923 14.357,8.328 21.949,11.487c2.456,1.023 6.274,-1.227 9.469,-1.982c-3.059,-3.099 -5.626,-7.148 -9.304,-9.061c-4.591,-2.389 -10.099,-3.019 -22.114,-0.444Zm-653.326,-148.234l14.505,0.853c0.001,-2.52 0.165,-7.229 -0.022,-7.241c-6.126,-0.452 -12.284,-0.453 -14.483,6.389Zm132.181,-57.49l6.115,-5.344c-3.359,-0.522 -6.711,-1.042 -6.115,5.344Zm-229.841,95.171l-5.332,-6.119c-0.523,3.362 -1.048,6.72 5.332,6.119Z" style="fill:#fff;fill-rule:nonzero;stroke:#dc0048;stroke-width:16.66px;stroke-linecap:butt;stroke-linejoin:round;stroke-miterlimit:2;"/><path d="M664.308,3266.982c3.415,-12.577 4.59,-20.042 7.46,-26.785c5.062,-11.892 11.155,-23.344 16.818,-34.983c1.581,13.575 5.343,27.345 4.16,40.677c-1.289,14.508 -6.291,28.925 -11.307,42.794c-4.393,12.146 -11.049,23.473 -16.705,35.162c-1.606,-13.575 -3.48,-27.125 -4.627,-40.738c-0.289,-3.461 1.754,-7.122 4.2,-16.127Zm101.376,-19.166c-0.105,-6.822 2.505,-12.911 5.117,-18.995l6.663,3.518c-3.024,5.403 -6.046,10.81 -11.78,15.477Zm117.634,-46.848c2.928,1.382 2.403,4.74 1.88,8.102c-1.775,-2.042 -3.556,-4.079 -1.88,-8.102Z" style="fill:#fff;fill-rule:nonzero;"/><path d="M2345.092,4274.417c33.839,-28.673 50.28,-70.314 37.987,-99.601c-0.751,-1.785 -16.614,-1.274 -19.625,2.645c-15.851,20.63 -29.487,42.952 -44.728,64.079c-3.305,4.581 -10.043,6.676 -15.196,9.916c-1.395,-7.742 -6.216,-17.153 -3.438,-22.871c5.155,-10.617 14.891,-18.961 22.464,-28.455c58.985,-73.932 131.286,-135.066 195.404,-204.052c10.593,-11.398 18.509,-25.369 29.504,-36.291c10.773,-10.7 12.703,-42.722 42.317,-18.21c3.958,3.274 29.695,-20.367 45.708,-30.99c17.26,-11.451 34.94,-22.253 52.436,-33.34c-2.317,20.584 -3.173,41.457 -7.222,61.691c-13.606,68.028 -51.014,125.554 -82.107,186.114c-26.59,51.796 -46.5,106.617 -79.397,155.719c-25.01,37.336 -4.41,77.485 10.317,112.988c10.876,26.217 32.243,48.034 48.69,71.98c4.232,6.165 9.748,12.624 10.845,19.556c3.549,22.46 51.817,-0.693 38.472,39.894c-5.897,17.927 -3.25,38.599 -4.988,57.979c-2.569,28.655 -15.277,36.655 -42.964,35.54c-63.353,-2.554 -122.423,-23.573 -183.104,-38.008c-27.773,-6.607 -57.6,-13.988 -84.913,-10.031c-20.252,2.93 -46.188,19.409 -55.186,37.164c-23.539,46.448 -59.393,81.816 -92.95,119.224c-45.773,51.022 -81.253,108.606 -114.951,167.647c-3.497,6.127 -5.497,13.351 -9.904,18.637c-3.386,4.052 -9.467,5.852 -14.349,8.652c-0.894,-4.717 -1.429,-9.536 -2.731,-14.136c-14.919,-52.667 -14.83,-106.35 -15.809,-160.723c-1.151,-63.972 -11.272,-127.801 -18.34,-191.595c-0.743,-6.695 -7.131,-12.755 -10.9,-19.112c-1.652,7.571 -2.367,15.516 -5.215,22.6c-2.759,6.856 -7.634,12.881 -11.742,19.163c-1.895,2.896 -4.181,5.531 -6.292,8.285c-1.433,-4.014 -4.244,-8.081 -4.086,-12.032c1.417,-35.216 4.13,-70.402 4.531,-105.618c0.087,-7.516 -7.656,-15.117 -11.789,-22.678c-3.278,6.235 -9.617,12.633 -9.302,18.68c1.432,27.753 -22.828,19.802 -35.157,24.003c-21.033,7.168 -45.096,5.408 -66.132,12.564c-19.208,6.538 -8.139,-7.733 -11.611,-10.938c-8.523,-7.855 -20.658,-16.001 -31.537,-16.276c-31.182,-0.79 -62.468,3.365 -93.7,3.22c-10.881,-0.052 -26.451,-3.973 -31.298,-11.599c-5.135,-8.078 -2.788,-23.637 1.007,-34.24c20.252,-56.641 65.95,-86.612 116.491,-113.967c89.739,-48.569 177.957,-100.092 252.806,-171.207c5.723,-5.44 16.295,-6.449 24.885,-7.993c8.587,-1.545 27.493,-17.012 17.84,11.607c-2.757,8.168 -1.826,17.579 -2.587,26.42l17.084,-2.199c-9.306,10.104 15.641,24.193 -6.275,35.868c-11.676,6.219 -16.157,26.063 -23.496,39.96c-0.169,0.317 5.508,5 6.425,4.42c15.058,-9.533 35.085,-13.328 37.142,-37.097c2.732,-31.607 30.805,-62.015 3.134,-95.323c-2.799,-3.37 0.855,-18.174 5.257,-20.476c24.78,-12.93 18.931,-38.849 26.654,-58.603c18.023,-46.093 28.368,-91.457 -25.474,-123.249c-19.162,-11.314 3.734,-15.249 4.933,-15.051c11.261,1.853 24.679,2.414 32.831,9.057c22.563,18.392 27.814,18.772 36.396,-6.6c6.001,-17.75 9.424,-36.37 15.245,-54.193c2.67,-8.167 6.982,-16.8 13.08,-22.514c4.483,-4.202 13.078,-4.009 19.837,-5.777c1.468,6.174 4.39,12.398 4.167,18.506c-1.296,35.218 -3.145,70.424 -5.282,105.6c-0.442,7.257 -5.617,15.127 -3.918,21.444c5.174,19.249 12.636,37.876 19.204,56.744c31.069,-9.841 -6.534,-36.385 15.444,-51.253c9.979,-4.546 16.663,-6.801 22.827,-10.05c0.809,-0.426 -1.064,-5.957 -1.696,-9.122c-5.815,2.625 -11.881,4.827 -17.335,8.068c-2.54,1.509 -3.884,5.035 -5.77,7.647c-9.058,-38.441 -3.453,-75.989 7.509,-113.049c4.695,-15.878 13.541,-32.348 -14.07,-35.556c-1.272,-0.145 -3.285,-11.279 -1.624,-16.165c6.393,-18.762 13.452,-37.382 21.74,-55.37c3.075,-6.67 10.235,-11.453 15.53,-17.096c5.584,6.922 17.025,15.166 15.809,20.549c-8.851,39.139 5.873,76.536 5.944,114.752c0.174,92.552 -0.468,185.104 -0.767,277.655c-0.029,8.726 1.297,17.713 -0.403,26.095c-1.323,6.552 -6.364,12.349 -9.753,18.485c-5.586,-3.823 -12.865,-6.487 -16.421,-11.695c-8.394,-12.311 -9.56,-29.943 -23.501,-0.258c-14.591,31.066 -22.477,59.837 -27.645,94.263c-6.27,41.776 4.999,88.867 -28.937,128.764c-18.668,21.95 -18.095,60.061 -27.357,90.533c-1.489,4.898 -9.072,7.944 -13.835,11.846c-2.564,-5.533 -8.652,-12.402 -7.14,-16.393c14.123,-37.272 17.892,-76.831 39.011,-113.566c17.42,-30.297 13.211,-73.183 17.968,-110.568c1.545,-12.146 1.005,-24.547 1.679,-36.819c0.387,-7.082 1.296,-14.14 1.965,-21.207c-5.498,5.118 -12.071,9.491 -16.241,15.529c-5.95,8.613 -13.55,18.117 -14.473,27.808c-3.329,34.987 -1.899,70.541 -6.909,105.21c-2.381,16.434 -17.764,30.57 -22.919,47.1c-16.157,51.805 -20.208,105.189 -22.085,159.491c-0.948,27.363 -8.502,56.96 -31.192,79.854c-30.716,30.991 -43.907,69.255 -51.532,113.656c-5.611,32.676 -21.311,64.214 -18.325,99.172c0.334,3.93 2.987,7.66 4.566,11.482c2.032,-2.804 5.282,-5.377 5.873,-8.457c2.015,-10.548 3.532,-21.244 4.258,-31.952c0.217,-3.176 -4.722,-8.977 -4.051,-9.516c34.394,-27.628 24.487,-72.934 42.908,-106.992c16.816,-31.086 31.664,-63.273 46.483,-95.392c11.987,-25.977 16.71,-58.19 35.149,-77.695c36.499,-38.607 43.978,-86.589 56.909,-133.305c6.957,-25.137 15.344,-47.911 39.378,-61.731c6.051,-3.48 14.531,-8.102 15.83,-13.624c9.149,-38.978 39.787,-61.316 67.944,-87.003c0.256,9.798 -2.204,18.857 -8.119,29.896c-22.324,31.168 -41.101,60.41 -60.097,89.517c-19.55,29.964 -39.532,59.718 -45.491,96.051c-0.522,3.193 1.307,6.769 2.041,10.165c2.678,-1.662 6.307,-2.696 7.892,-5.086c20.17,-30.393 37.312,-63.313 60.747,-90.883c24.439,-28.75 24.683,-64.285 36.886,-96.307Zm-336.785,252.899l9.844,3.526c-2.789,-2.987 -5.578,-5.975 -6.891,-14.399l-9.846,-3.53c2.792,2.988 5.578,5.978 6.894,14.403Zm-145.177,-173.668l3.529,-9.857c-2.985,2.793 -5.971,5.59 -14.386,6.909l-3.53,9.86c2.985,-2.793 5.971,-5.59 14.387,-6.912Zm203.363,131.102l-0.794,14.645l7.686,-0.246c-1.805,-6.611 -3.611,-13.221 -3.939,-25.269c7.234,-26.639 14.722,-53.21 21.416,-79.982c0.986,-3.937 -1.81,-8.818 -2.861,-13.263c-1.594,0.913 -4.42,1.631 -4.605,2.771c-5.19,31.962 -29.607,60.873 -16.902,101.343Zm75.852,-172.006c-28.097,10.39 -34.198,36.425 -29.203,58.722c9.323,41.599 -3.876,78.442 -12.33,117.111c-8.913,40.754 -15.068,82.117 -21.863,123.308c-0.419,2.561 5.009,8.81 6.152,8.44c5.237,-1.678 13.459,-4.347 14.245,-8.017c8.658,-40.527 22.923,-81.412 22.331,-121.993c-0.89,-60.891 29.257,-115.835 31.524,-174.623l3.53,-9.86c-2.986,2.797 -5.971,5.59 -14.387,6.912Zm313.781,3.497c1.921,-14.219 0.003,-30.533 6.42,-42.301c28.612,-52.493 52.301,-106.685 67.436,-164.605c2.246,-8.59 6.967,-16.514 10.166,-24.887c9.697,-25.398 19.55,-50.749 28.369,-76.45c1.128,-3.291 -3.506,-8.56 -5.472,-12.912c-5.391,2.817 -13.618,4.297 -15.686,8.682c-9.946,21.104 -14.69,45.513 -27.872,64.054c-24.368,34.272 -45.86,69.836 -67.583,105.683c-16.479,27.198 -18.915,49.123 -15.58,78.525c2.851,25.121 20.768,55.905 -12.227,77.62c-3.778,2.485 -3.362,21.405 0.434,23.633c16.031,9.421 15.768,-6.15 20.419,-15.675c3.682,-7.534 10.937,-13.327 22.038,-18.418l9.063,-16.214l-6.66,-3.517c-2.612,6.084 -5.222,12.173 -13.264,16.783Zm-727.179,59.335c-5.834,6.407 -13.772,11.919 -16.99,19.447c-4.266,9.975 -10.228,27.431 -5.994,31.301c13.024,11.915 23.351,3.314 33.645,-10.274c20.67,-27.288 47.357,-47.778 77.867,-64.7c28.124,-15.598 52.871,-37.32 79.065,-56.4c7.983,-5.817 15.828,-11.823 23.739,-17.742c2.606,10.118 5.604,20.156 7.655,30.386c1.01,5.028 0.27,10.409 0.32,15.628c6.249,-2.839 14.057,-4.247 18.315,-8.904c4.537,-4.961 7.674,-12.902 8.017,-19.709c1.533,-30.459 22.522,-43.02 45.419,-57.27c18.918,-11.774 34.028,-29.992 49.543,-46.56c2.081,-2.224 -3.075,-11.647 -5.756,-17.322c-0.278,-0.59 -7.232,0.736 -9.938,2.731c-95.775,70.594 -193.141,138.732 -304.907,199.388Zm445.249,313.517c9.075,-19.118 19.553,-37.717 26.901,-57.48c10.637,-28.605 10.468,-57.703 50.539,-72.933c34.298,-13.038 31.827,-61.765 41.84,-96.142c1.363,-4.687 -3.885,-11.297 -6.072,-17.021c-4.975,3.485 -12.461,5.868 -14.545,10.621c-23.928,54.541 -84.228,87.997 -89.166,153.622c-0.159,2.125 -7.65,3.066 -8.903,5.836c-13.917,30.755 -27.634,61.616 -40.468,92.834c-2.51,6.102 -0.991,13.857 -1.329,20.848c7.382,-4.316 16.145,-7.332 21.768,-13.306c5.774,-6.134 8.483,-15.157 19.437,-26.881Zm214.89,-297.672c-6.702,3.21 -17.583,4.901 -19.393,9.888c-8.663,23.866 -9.228,50.963 -40.005,62.171c-9.198,3.35 -14.565,18.842 -20.236,29.543c-2.146,4.05 -0.191,10.277 -0.107,15.509c3.033,-1.051 6.277,-1.72 9.062,-3.231c8.244,-4.465 19.797,-7.255 23.835,-14.284c16.735,-29.096 31.144,-41.694 56.121,-6.004c6.682,9.551 29.53,6.186 40.965,14.352c15.391,11.001 50.866,-8.325 47.372,30.663c3.576,-0.33 9.406,0.587 10.384,-1.184c13.118,-23.733 -4.655,-53.766 -31.004,-53.12c-46.558,1.144 -73.441,-11.766 -79.309,-41.576c-2.414,-12.265 -5.609,-31.87 20.657,-26.719c6.014,1.181 13.539,-5.351 20.37,-8.335c-2.994,-6.606 -5.207,-18.111 -9.154,-18.742c-6.995,-1.116 -15.049,4.378 -29.559,11.07Zm13.76,-72.14c18.668,-15.035 17.872,-35.494 15.051,-56.148c-0.813,-5.955 -4.114,-11.57 -6.272,-17.341c-4.998,3.507 -13.562,6.325 -14.403,10.643c-4.684,24.076 -22.356,39.828 -33.739,59.437c-20.551,35.405 -33.115,75.469 -48.653,113.73c-1.138,2.805 0.65,6.798 1.076,10.238c4.584,-1.714 10.747,-2.139 13.421,-5.414c5.457,-6.686 7.706,-16.21 13.626,-22.263c21.734,-22.208 16.174,-70.441 64.018,-67.715c-2.359,-4.762 -4.72,-9.529 -4.126,-25.167Zm172.513,-227.467c3.581,0.973 9.988,3.403 10.345,2.709c21.66,-41.957 43.113,-84.028 63.639,-126.548c2.41,-4.997 -0.552,-12.588 -1.025,-18.978c-6.444,3.697 -16.077,5.811 -18.83,11.349c-20.389,41.014 -53.858,76.039 -54.129,131.468Zm-649.046,308.175l18.349,34.166c8.593,-8.33 17.47,-16.396 25.693,-25.079c6.393,-6.749 11.973,-14.268 17.913,-21.447c1.247,9.342 1.651,18.91 4.104,27.916c1.135,4.171 5.842,9.44 9.702,10.177c3.541,0.675 10.223,-3.068 11.892,-6.585c8.046,-16.943 -4.329,-46.297 -23.969,-53.958c-14.815,-5.777 -32.733,-14.578 -35.924,14.802c-0.653,6.029 -13.584,10.73 -27.761,20.005Zm573.333,56.476l19.568,16.302c2.892,-4.331 9.266,-10.17 8.149,-12.769c-13.655,-31.67 -28.266,-62.936 -43.341,-93.963c-0.713,-1.467 -11.888,0.227 -11.903,0.648c-0.443,13.923 -2.158,28.297 0.63,41.703c3.223,15.488 10.516,30.124 26.897,48.08Zm-650.28,-30.679l-51.282,22.569c16.855,19.186 35.952,3.387 54,3.166c3.246,-0.04 6.322,-3.513 9.705,-4.797c13.358,-5.068 31.024,25.561 39.287,-4.32c0.702,-2.547 -25.651,-12.603 -39.473,-19.087c-1.651,-0.773 -3.548,-1.008 -12.238,2.469Zm628.287,-360.505c-18.847,19.992 -40.856,37.948 -55.453,60.672c-10.124,15.761 -10.043,38.09 -14.516,57.484c10.458,-13.481 21.888,-26.333 31.158,-40.589c15.001,-23.066 28.582,-47.057 38.811,-77.567Zm-428.063,245.62c-5.493,13.072 -13.944,25.784 -15.62,39.33c-1.565,12.641 4.061,26.168 6.524,39.306c8.538,-10.72 17.765,-20.976 25.324,-32.349c3.782,-5.691 -3.734,-38.79 -16.227,-46.287Zm237.649,-209.782l1.033,-62.329c-7.611,18.911 -15.731,37.64 -22.644,56.803c-4.393,12.173 -7.646,24.877 -10.007,37.599c-0.734,3.96 3.124,8.771 4.882,13.194c5.494,-2.512 13.562,-3.594 15.934,-7.852c4.377,-7.866 5.42,-17.594 10.802,-37.414Zm215.455,472.901c8.783,2.385 17.519,6.535 26.362,6.769c15.766,0.419 31.428,21.483 47.377,0.708c-14.373,-7.504 -28.064,-17.825 -43.356,-21.516c-10.272,-2.482 -22.811,4.424 -30.383,14.039Zm-445.06,-56.656c-6.231,22.945 -13.075,45.758 -18.16,68.956c-0.98,4.474 4.938,10.458 7.672,15.743c4.647,-3.854 12.949,-7.375 13.342,-11.618c2.354,-25.589 2.9,-51.345 -2.854,-73.082Zm151.706,-344.014l3.918,18.573c5.477,-2.551 15.299,-4.586 15.677,-7.746c1.623,-13.592 -1.024,-27.705 0.7,-41.273c2.501,-19.685 7.434,-39.057 11.33,-58.563c-7.613,18.883 -15.437,37.688 -22.726,56.698c-2.641,6.891 -4.002,14.278 -8.899,32.311Zm190.695,349.45c-19.475,-4.125 -38.831,-9.133 -58.508,-11.687c-4.408,-0.572 -14.033,7.502 -13.983,11.499c0.073,5.833 7.145,16.784 10.512,16.511c22.083,-1.781 43.974,-5.995 61.978,-16.323Zm119.371,-31.788c-7.402,27.867 19.777,33.812 31.975,48.934c3.273,4.054 13.402,2.563 20.386,3.617c-2.511,-7.42 -3.085,-16.62 -7.919,-21.914c-11.434,-12.519 -24.896,-23.186 -44.441,-30.637Zm-353.491,-329.454c2.414,-8.889 5.114,-17.712 7.084,-26.697c0.699,-3.183 -0.382,-6.756 -0.65,-10.153c-2.813,0.431 -7.371,-0.072 -8.165,1.428c-8.944,16.844 -17.559,33.884 -25.245,51.319c-0.495,1.122 9.325,9.378 11.04,8.414c5.202,-2.923 8.775,-8.746 15.936,-24.311Zm-269.217,218.714c-10.896,-1.012 -22.492,-4.81 -32.499,-2.284c-10.745,2.716 -29.022,12.727 -28.354,17.207c3.067,20.613 18.78,-8.774 28.832,4.371c2.231,2.919 18.995,-5.319 32.021,-19.294Zm119.324,-95.999c-0.899,-1.57 -1.552,-3.401 -2.79,-4.624c-0.762,-0.752 -3.062,-1.246 -3.59,-0.737c-7.302,7.02 -15.146,13.658 -21.355,21.572c-5.548,7.068 -9.242,15.6 -13.751,23.485c9.527,-1.586 20.823,-0.597 28.039,-5.559c5.99,-4.121 7.178,-15.245 13.448,-34.138Zm73.995,-14.924c0.522,11.603 0.604,23.262 2.034,34.752c0.221,1.765 6.665,2.749 10.228,4.096c-1.662,-14.284 24.727,-32.11 -12.262,-38.848Zm-61.997,228.298c0.979,-3.604 3.606,-7.751 2.633,-10.711c-3.329,-10.152 -7.925,-19.885 -12.035,-29.78c-1.948,9.958 -5.045,19.888 -5.338,29.892c-0.137,4.775 5.056,9.703 14.741,10.6Zm188.131,-456.688c-16.198,4.846 -22.468,14.218 -14.168,30.538c1.882,3.708 3.067,7.775 4.573,11.674c4.025,-9.967 8.084,-19.918 12.054,-29.908c0.686,-1.726 1.004,-3.594 -2.458,-12.304Zm322.781,163.528c0.967,-3.562 2.386,-7.071 2.794,-10.695c0.578,-5.128 0.408,-10.338 0.557,-15.514c-2.794,0.601 -7.893,0.87 -8.035,1.85c-2.318,16.199 -4.014,32.488 -5.85,48.76c2.042,-2.728 4.277,-5.339 6.05,-8.233c0.928,-1.509 1.047,-3.513 4.484,-16.167Zm15.763,-36.575c5.398,-12.733 11.315,-25.279 15.912,-38.295c1.545,-4.379 -0.252,-9.941 -0.525,-14.962c-3.6,4.97 -8.45,9.47 -10.532,15.011c-3.801,10.121 -5.964,20.857 -4.856,38.245Zm-397.588,90.472c2.866,-5.674 8.472,-11.646 7.902,-16.947c-0.693,-6.436 -6.589,-12.308 -10.238,-18.422c-3.429,5.814 -7.958,11.292 -9.907,17.566c-1.363,4.383 0.797,9.865 12.243,17.803Zm28.381,-319.137c-1.916,7.261 -3.962,14.5 -5.293,21.868c-0.056,0.309 9.544,2.916 9.655,2.622c2.582,-7.028 4.476,-14.308 -4.362,-24.489Zm-125.758,742.107l3.786,-38.881c-4.454,12.727 -9.005,25.42 -13.192,38.232c-0.372,1.142 1.614,3.055 9.407,0.649Zm148.517,-654.216c3.923,-7.289 8.33,-14.377 11.49,-21.983c1.021,-2.464 -1.222,-6.28 -1.973,-9.477c-3.1,3.063 -7.147,5.636 -9.058,9.319c-2.388,4.599 -3.019,10.113 -0.458,22.141Zm218.36,397.818l-6.506,20.689l18.189,-0.256l-11.684,-20.433Zm14.901,138.287c7.278,3.923 14.357,8.328 21.949,11.487c2.456,1.023 6.274,-1.227 9.469,-1.982c-3.059,-3.099 -5.626,-7.148 -9.304,-9.061c-4.591,-2.389 -10.099,-3.019 -22.114,-0.444Zm-653.326,-148.234l14.505,0.853c0.001,-2.52 0.165,-7.229 -0.022,-7.241c-6.126,-0.452 -12.284,-0.453 -14.483,6.389Zm132.181,-57.49l6.115,-5.344c-3.359,-0.522 -6.711,-1.042 -6.115,5.344Zm-229.841,95.171l-5.332,-6.119c-0.523,3.362 -1.048,6.72 5.332,6.119Z" style="fill:#fff;fill-rule:nonzero;stroke:#dc0048;stroke-width:16.66px;stroke-linecap:butt;stroke-linejoin:round;stroke-miterlimit:2;"/><path d="M2255.287,4261.704c3.415,-12.577 4.59,-20.042 7.46,-26.785c5.062,-11.892 11.155,-23.344 16.818,-34.983c1.581,13.575 5.343,27.345 4.16,40.677c-1.289,14.508 -6.291,28.925 -11.307,42.794c-4.393,12.146 -11.049,23.473 -16.705,35.162c-1.606,-13.575 -3.48,-27.125 -4.627,-40.738c-0.289,-3.461 1.754,-7.122 4.2,-16.127Zm101.376,-19.166c-0.105,-6.822 2.505,-12.911 5.117,-18.995l6.663,3.518c-3.024,5.403 -6.046,10.81 -11.78,15.477Zm117.634,-46.848c2.928,1.382 2.403,4.74 1.88,8.102c-1.775,-2.042 -3.556,-4.079 -1.88,-8.102Z" style="fill:#fff;fill-rule:nonzero;"/></svg>