<?xml version="1.0" encoding="UTF-8" standalone="no"?><!DOCTYPE svg PUBLIC "-//W3C//DTD SVG 1.1//EN" "http://www.w3.org/Graphics/SVG/1.1/DTD/svg11.dtd"><svg width="100%" height="100%" viewBox="0 0 3334 3534" version="1.1" xmlns="http://www.w3.org/2000/svg" xmlns:xlink="http://www.w3.org/1999/xlink" xml:space="preserve" xmlns:serif="http://www.serif.com/" style="fill-rule:evenodd;clip-rule:evenodd;"><path d="M1774.807,217.987l35.997,-2.842l36.27,-12.895l33.757,-21.777l28.131,-29.422l12.236,-17.46l10.214,-18.647l6.882,-20.739l2.294,-23.86l-4.479,-23.019l-1.147,-11.74l3.332,-8.698l14.42,-11.397l29.885,-15.49l15.783,31.157l24.646,48.633l4.903,21.315l12.559,32.269l46.666,92.04l36.387,96.467l5.935,10.483l18.967,23.408l7.269,19.643l88.085,125.615l34.193,49.624l40.946,45.241l5.806,4.738l27.441,32.182l1.419,13.581l0.129,16.336l3.269,13.843l18.709,10.38l5.419,11.134l15.441,50.126l6.882,11.606l8.258,4.938l6.925,7.15l24.043,47.14l14.451,18.11l4.989,9.969l1.935,10.559l3.656,10.234l25.505,27.971l8.129,22.925l7.226,50.037l9.935,27.511l27.096,37.641l2.064,7.89l-3.097,7.62l-4.903,7.27l-3.097,7.108l-0.215,6.383l3.828,20.619l4.645,58.834l4.903,27.143l17.548,55.391l1.419,27.098l-5.505,25.054l-11.914,22.746l-9.677,26.978l-5.296,-0.226l-17.643,-4.032l-16.933,7.471l-36.597,-13.468l5.845,-15.607l-1.639,-14.646l-4.643,-16.227l-1.42,-18.387l7.046,-17.443l5.681,-16.533l-4.151,-4.89l-4.534,-4.296l2.13,-14.928l-38.728,-2.888l-11.362,-6.438l-12.126,-5.182l-4.971,-12.098l-3.878,-14.005l-17.425,-8.228l-10.87,-16.392l-2.349,-21.332l3.824,-16.337l9.013,-6.809l9.887,-3.694l15.404,6.077l12.509,-9.329l-5.135,-15.189l-16.496,-9.913l-18.08,-4.207l-14.366,7.563l-13.82,3.492l-19.5,-8.925l-20.702,-3.475l-6.992,2.845l-5.79,-0.715l-4.479,-5.98l-6.446,-2.675l-15.021,11.669l-15.841,6.2l-1.202,-11.549l1.311,-11.466l-9.177,-4.55l-10.214,-2.335l-7.429,-13.005l-14.42,-1.125l-14.366,6.716l-9.614,11.691l3.496,16.22l-1.693,15.142l-3.114,14.081l-13.492,-1.26l-15.786,-3.388l-13.055,-5.466l-13.546,-7.169l-10.597,-6.83l-10.706,-4.633l-13.437,-1.55l-13.765,-2.709l-13.929,-8.996l-12.563,-9.492l-12.618,0.085l-12.727,4.056l-11.362,2.011l-9.614,0.716l-3.824,-8.674l-10.488,-10.858l0.929,-9.411l-5.244,-5.763l-25.181,2.865l-16.059,5.354l-4.807,2.25l-4.698,-0.102l-7.483,-4.126l-5.79,-6.513l9.067,-14.019l15.24,-10.815l6.118,-13.906l-9.504,-2.85l-30.152,-4.745l-29.496,-10.481l-12.236,9.423l-10.433,5.462l-12.618,-2.645l-10.597,8.158l-17.479,9.709l-17.534,4.231l-6.555,-9.162l0,-14.181l-20.101,-21.22l-26.929,9.083l-9.996,12.222l2.895,32.094l-10.706,7.317l-3.55,4.315l-4.097,3.564l-4.534,-2.114l-4.479,-2.78l-16.168,-1.126l-16.059,3.786l4.534,-31.864l-56.207,7.661l-55.825,15.25l28.677,-52.917l23.488,-57.538l32.555,-69.26l4.042,-14.877l-3.059,-14.899l6.937,-12.06l9.778,-11.874l10.488,-4.336l5.517,-11.809l-6.009,-10.201l-7.866,-6.704l-12.563,-1.389l-12.891,-4.888l-17.807,-2.384l-29.715,-16.399l-13.383,-5.456l-13.273,-8.7l-14.584,-2.248l-14.147,4.462l-11.744,-9.886l0.929,-10.763l5.572,-11.298l2.185,-13.087l0.164,-13.485l-13.983,4.501l-6.282,-8.11l15.404,-18.045l-2.567,-12.034l-4.261,-11.951l3.059,-9.064l-0.164,-10.838l-1.038,-10.255l26.82,-19.742l10.87,-3.529l6.063,-9.298l2.731,-27.042l-12.509,-19.128l-10.269,-2.086l-9.778,-4.499l-7.374,-19.724l-11.689,-0.586l-12.509,0.828l-13.656,-9.951l-6.5,-17.666l-2.677,-31.431l-5.08,-15.836l-3.55,-3.057l-4.151,0.691l-2.786,2.694l-3.496,0.501l-9.013,-6.356l-22.068,7.79l-20.265,-4.905l-8.193,-4.975l-8.357,-7.532l-0.273,-12.614l4.097,-11.891l3.004,-4.529l2.13,-4.339l-3.496,-2.922l-4.479,-1.072l-4.261,0.899l-3.714,2.87l-6.992,9.059l-7.811,7.899l-12.017,2.057l-10.597,-7.19l-1.966,-6.534l-0.819,-6.621l-3.824,-2.334l-4.042,4.253l-1.366,6.811l-0.109,22.018l-6.882,10.746l-19.391,-9.156l-17.752,-16.002l-6.227,-6.534l-6.555,0.83l-5.845,-8.471l-3.66,-11.031l-4.807,-5.793l-5.735,-4.583l-4.424,-10.517l-7.871,-4.991l-18.621,-11.81l-10.468,-5.12l3.094,-3.933l28.977,-23.824l33.675,-21.046l35.423,-14.33l34.085,-3.674l16.824,1.785l65.165,-5.685l50.117,15.164l15.923,-1.456l31.053,-9.393l101.954,-8.909l4.343,2.947l6.746,9.741l6.5,6.55l7.265,1.854l34.931,-7.33l55.442,3.223Z" style="fill:#ffdc49;fill-rule:nonzero;stroke:#ecf0f1;stroke-width:4.17px;"/><path d="M1085.474,533.666l-3.669,-57.338l2.786,-15.895l6.364,-4.638l9.778,-1.069l13.628,-5.174l21.03,-16.732l45.146,-68.833l9.231,-9.365l20.374,-15.762l8.712,-10.044l10.732,-26.488l7.185,-17.741l6.52,-8.286l10.468,5.12l18.621,11.81l7.871,4.991l4.424,10.517l5.735,4.583l4.807,5.793l3.66,11.031l5.845,8.471l6.555,-0.83l6.227,6.534l17.752,16.002l19.391,9.156l6.882,-10.746l0.109,-22.018l1.366,-6.811l4.042,-4.253l3.824,2.334l0.819,6.621l1.966,6.534l10.597,7.19l12.017,-2.057l7.811,-7.899l6.992,-9.059l3.714,-2.87l4.261,-0.899l4.479,1.072l3.496,2.922l-2.13,4.339l-3.004,4.529l-4.097,11.891l0.273,12.614l8.357,7.532l8.193,4.975l20.265,4.905l22.068,-7.79l9.013,6.356l3.496,-0.501l2.786,-2.694l4.151,-0.691l3.55,3.057l5.08,15.836l2.677,31.431l6.5,17.666l13.656,9.951l12.509,-0.828l11.689,0.586l7.374,19.724l9.778,4.499l10.269,2.086l12.509,19.128l-2.731,27.042l-6.063,9.298l-10.87,3.529l-26.82,19.742l1.038,10.255l0.164,10.838l-3.059,9.064l4.261,11.951l2.567,12.034l-15.404,18.045l6.282,8.11l13.983,-4.501l-0.164,13.485l-2.185,13.087l-5.572,11.298l-0.929,10.763l11.744,9.886l14.147,-4.462l14.584,2.248l13.273,8.7l13.383,5.456l29.715,16.399l17.807,2.384l12.891,4.888l12.563,1.389l7.866,6.704l6.009,10.201l-5.517,11.809l-10.488,4.336l-9.778,11.874l-6.937,12.06l3.059,14.899l-4.042,14.877l-32.555,69.26l-23.488,57.538l-28.677,52.917l-3.714,7.026l-4.261,6.377l-4.261,2.967l-4.097,3.29l-3.059,5.148l-2.567,5.608l-25.236,46.8l-13.273,9.229l-3.004,-3.967l-10.324,-2.162l-8.193,8.683l-4.37,10.946l-6.391,8.255l-13.546,5.837l-8.63,9.324l-4.752,19.374l-17.589,5.884l-22.45,10.78l-23.706,6.936l-24.963,-3.366l-20.429,-17.104l-22.832,-10.374l-43.917,18.723l-20.702,-0.017l-24.635,-5.05l-0.163,-0.034l6.748,-5.132l7.957,-3.75l5.72,-6.428l3.613,-15.967l-1.032,-2.84l-4.903,-5.172l-0.946,-1.367l2.839,-2.653l2.839,-0.348l2.71,0.107l7.355,-4.074l4.688,-0.697l3.484,-2.305l1.376,-7.64l-31.612,8.846l-4.774,6.728l1.677,20.365l-3.828,4.608l-12.301,4.018l-17.505,-2.438l-20.774,-12.082l-18.752,-18.384l-7.13,-17.603l31.646,-3.469l0,-4.103l-2.194,-1.046l-4.989,-3.808l5.935,-0.778l5.634,0.322l5.161,1.77l4.559,3.54l-2.237,-12.552l-7.226,-11.187l-5.247,-12.826l3.871,-17.393l-5.978,-2.685l-4.602,6.094l-2.839,10.495l-0.946,10.6l-2.452,11.51l-5.032,2.656l-4.989,-4.99l-10.107,2.093l-10.193,2.602l-24.344,-7.297l0.163,-7.469l-2.292,-6.563l1.915,-8.881l-1.033,-11.303l6.127,-11.198l7.303,-9.997l8.41,-4.038l9,-3.433l13.375,-0.208l14.279,-3.869l2.968,-4.406l0.817,-12.226l-3.269,-2.392l-7.355,4.004l-10.968,9.486l-6.839,-1.397l-5.032,-2.956l-2.71,-5.213l0.043,-8.063l-12.559,6.397l-10.193,7.256l-18.838,20.364l-4.86,3.868l-6.107,2.175l-5.677,-0.188l-3.441,-3.384l0.215,-6.07l3.226,-5.91l7.785,-10.962l-15.398,3.547l-4.903,-1.532l-1.677,-9.029l2.839,-6.692l6.452,-3.79l7.355,-2.5l5.333,-2.984l6.409,-8.738l-1.677,-2.259l-14.15,1.963l-4.688,-2.877l-3.699,-7.099l-3.527,-8.876l-4.258,-8.232l2.366,-0.673l1.505,-1.049l3.355,-3.175l3.871,2.96l5.849,-0.323l10.279,-2.637l8.387,2.314l7.011,4.331l6.925,2.233l8.129,-3.981l-0.645,7.371l0.645,7.155l2.581,5.54l5.032,2.501l5.548,-2.178l2.581,-6.212l2.624,-14.176l8.903,-13.292l7.312,1.023l8.258,4.978l11.656,-1.695l-2.495,-5.409l-3.226,-4.01l-4.086,-2.691l-4.946,-1.453l-7.342,0.274l-3.354,-5.042l-7.897,-1.428l-6.365,2.012l-6.335,-0.359l-10.005,-1.984l-16.56,-5.229l-22.999,-17.415l-1.218,-7.639l10.241,-14.857l6.966,-7.009l16.662,-4.856l3.932,-2.897l6.938,-5.113l7.538,-14.517l4.971,-16.336l-5.025,-8.222l-8.521,-5.567l-5.681,-13.005l0.055,-15.665l-31.135,-29.835l-27.106,0.959l-24.067,0.851l-2.582,-5.836l-4.123,-9.815l-4.68,-7.712l-5.452,-9.306l-6.036,-5.885l-0.121,-8.965l-2.179,-13.404l-5.677,-20.936l-7.613,-54.682l2.064,-8.993l7.011,-1.3l29.118,10.402l9.29,-2.004l7.742,-3.63l6.882,-1.354l7.054,4.713l2.624,7.855l1.032,12.267l-0.774,12.589l-2.882,8.607l-0.215,15.586l16.215,13.553l20.559,8.627l12.774,0.784l-9.935,-10.25l-30.451,-21.914l8.86,-23.602l2.624,-14.134l-2.237,-9.967l-4.989,-10.43l-0.431,-5.697l-0.602,-7.607l2.409,-13.362l5.548,-10.654l-3.957,-4.962l-5.204,0.732l-8.017,5.461m237,184.378l4.861,-18.802l-0.328,-16.217l-5.517,-14.78l-3.496,-21.157l-9.067,-15.564l-19.009,-1.546l-16.496,3.935l-10.542,11.252l-7.429,15.697l-12.181,15.452l-23.706,2.266l-3.059,10.538l-0.874,11.428l-11.198,6.794l-12.563,4.254l-16.933,-10.293l-14.803,-0.944l-7.92,16.966l12.509,15.263l10.488,14.898l2.786,19.04l10.542,6.922l15.294,4.591l15.513,20.33l22.669,0.771l9.668,-1.575l9.286,-5.309l13.11,-4.076l13.219,-3.049l6.063,13.872l15.513,-7.775l15.076,-3.494l13.71,-8.119l5.025,-8.669l9.067,-12.337l-4.261,-4.764l-0.164,-11.999l8.03,-5.315l7.374,-3.721l1.42,-9.895l-4.042,-9.656l-10.761,0.154l-12.399,4.46l-14.475,0.172Z" style="fill:#ffdc49;fill-rule:nonzero;stroke:#ecf0f1;stroke-width:4.17px;"/><path d="M888.763,550.543l10.408,-0.163l9.677,1.518l4.903,5.529l-3.484,11.814l-9.376,8.073l-11.613,0.758l-22.021,-4.714l-4.86,1.896l-5.935,3.142l-5.118,0.135l-2.107,-7.233l1.161,-2.276l6.064,-18.372l6.495,-6.288l7.441,-2.006l8.473,2.169l9.892,6.017Z" style="fill:#ffdc49;fill-rule:nonzero;stroke:#ecf0f1;stroke-width:4.17px;"/><path d="M921.235,621.989l6.581,5.196l5.075,5.737l1.032,6.331l-5.591,7.196l-10.71,0.649l-35.871,-27.869l4.645,-4.222l2.194,-5.278l3.011,-12.508l1.634,-3.222l2.581,-3.412l2.968,-2.492l3.054,-0.758l1.978,1.11l1.29,2.031l0.774,2.816l1.634,12.184l0.602,2.301l2.538,4.385l3.355,3.735l7.226,6.09Z" style="fill:#ffdc49;fill-rule:nonzero;stroke:#ecf0f1;stroke-width:4.17px;"/><path d="M1001.105,687.304l-4.043,0.459l-3.183,-1.459l-5.548,-6.001l-4,-2.433l-2.839,1l-2.194,2.244l-2.021,1.243l-27.785,1.514l-10.322,-4.811l-10.839,-14.464l16.258,-4.245l3.871,-2.569l4.473,-7.005l-0.602,-3.219l-2.968,-2.029l-2.71,-3.625l-18.838,-35.831l-1.161,-5.442l1.935,-7.148l-0.516,-31.531l2.194,-7.181l5.118,-1.924l12.473,-14.447l9.634,-2.494l8.43,6.073l7.957,9.406l8,7.317l16.989,8.535l6.753,6.773l2.71,10.699l-0.602,5.362l-2.753,9.017l-0.602,4.007l1.204,4.494l4.903,8.987l1.118,4.926l1.72,23.919l-1.72,5.572l2.925,3.57l2.968,7.112l1.677,2.92l-6.839,4.083l-5.935,14.004l-5.29,4.622Z" style="fill:#ffdc49;fill-rule:nonzero;stroke:#ecf0f1;stroke-width:4.17px;"/><path d="M62.924,431.85l5.806,7.199l-0.86,9.779l-7.312,5.35l-10.279,-6.192l-13.462,1.168l-2.796,1.331l0.215,7.006l5.161,2.58l6.193,1.113l2.882,2.552l-10.796,8.471l-21.591,-3.013l-16.086,-13.712l5.505,-23.632l13.419,4.782l29.333,-10.27l14.666,5.489Z" style="fill:#ffdc49;fill-rule:nonzero;stroke:#ecf0f1;stroke-width:4.17px;"/><path d="M785.495,931.7l-3.742,2.098l-2.194,-0.753l0.043,-2.367l1.634,-10.813l2.968,-8.932l3.871,-5.354l4.258,2.933l3.699,6.269l3.785,3.094l13.032,6.832l4,4.411l-2.194,4.088l-6.71,6.83l-4.774,2.017l-6.193,0.941l-5.247,-2.393l-3.441,-5.97l-1.376,-3.362l-1.419,0.43Z" style="fill:#ffdc49;fill-rule:nonzero;stroke:#ecf0f1;stroke-width:4.17px;"/><path d="M988.546,897.99l5.462,3.633l2.064,7.992l-2.323,2.744l-5.677,1.937l-2.194,4.358l-0.43,4.062l-4.602,5.379l-5.978,1.452l-4.086,-3.012l-4.344,0.43l-3.441,-2.152l-1.204,-8.339l0.989,-8.556l4.344,-6.027l9.333,-4.952l12.086,1.05Z" style="fill:#ffdc49;fill-rule:nonzero;stroke:#ecf0f1;stroke-width:4.17px;"/><path d="M1057.191,913.731l1.29,3.067l1.29,5.649l-2.796,6.079l-26.967,21.431l-12.258,1.532l0.129,-3.334l5.763,-7.797l0.774,-4.464l-2.409,-3.846l6.882,-7.827l0.215,-7.909l-2.839,-9.766l-3.914,-6.781l-3.828,-4.387l1.161,-1.346l8.688,4.198l7.441,-6.513l1.677,0.538l-1.548,5.733l2.194,5.194l6.193,3.552l10.064,4.197l2.796,2.798Z" style="fill:#ffdc49;fill-rule:nonzero;stroke:#ecf0f1;stroke-width:4.17px;"/><path d="M567.95,632.543l5.806,0.758l3.699,3.869l-1.634,7.223l-5.032,4.977l-3.054,1.461l-1.72,-3.679l-2.839,-8.224l0.645,-5.736l4.129,-0.649Z" style="fill:#ffdc49;fill-rule:nonzero;stroke:#ecf0f1;stroke-width:4.17px;"/><path d="M54.365,520.938l4.215,2.17l0.731,4.176l-2.366,5.965l-1.634,6.832l-2.151,5.747l-3.914,2.141l-4.129,-0.352l-3.484,1.247l-2.71,2.819l-1.419,0.515l0,-1.762l0.086,-0.867l-1.72,-3.253l-4.215,-5.476l1.591,-5.232l8.903,-7.077l5.677,-5.912l2.667,-2.115l3.871,0.434Z" style="fill:#ffdc49;fill-rule:nonzero;stroke:#ecf0f1;stroke-width:4.17px;"/><path d="M946.981,1437.496l3.974,12.103l7.14,10.964l3.011,10.217l-5.032,-2.341l-23.484,1.33l-7.613,-1.224l-1.441,-9.781l2.548,-3.482l4.06,-3.723l2.145,-5.794l-12.602,7.931l-5.892,-2.821l1.634,-9.769l9.548,-13.179l-3.613,-4.047l-7.226,8.521l-2.448,-5.883l-5.548,2.959l2.887,-15.71l-2.031,-23.983l-2.436,-14.501l-5.462,-18.295l4.569,-5.966l9.364,-8.68l10.075,-3.426l7.03,11.228l0.946,4.027l-2.295,4.805l-4.031,3.22l0.475,4.501l8.904,20.103l1.419,6.395l-2.323,5.329l2.727,4.701l5.995,3.539l4.696,8.169l-11.097,0l0,4.048l3.613,0.719l7.484,4.181l-0.584,4.121l-0.531,3.24l1.441,6.253Z" style="fill:#ffdc49;fill-rule:nonzero;stroke:#ecf0f1;stroke-width:4.17px;"/><path d="M1161.91,1706.031l-10.871,3.333l-10.667,7.334l-8.946,8.577l-9.892,4.738l-11.785,1.985l-11.054,4.87l-8.043,-3.917l-2.71,-4.526l-0.86,-5.956l-2.753,-8.181l-4.387,-7.07l-8.903,-11.679l-4.774,-7.92l7.355,-5.934l-3.441,-4.08l-7.226,-3.021l-6.617,-2.204l-12.093,-20.721l-9.291,-4.022l-7.027,4.049l-3.325,-0.029l-0.272,-7.176l-11.942,-7.619l-10.319,1.622l-3.207,12.272l-1.757,4.216l-3.613,-3.314l2.105,-19.036l17.946,-9.074l15.847,-4.986l22.166,6.368l-7.828,-12.892l-4.43,-5.068l-5.892,-4.299l-3.527,-0.823l-4.215,2.468l-3.011,-1.645l-3.957,-4.299l-3.269,-4.618l11.097,-30.424l6.366,-13.412l7.742,-5.127l-5.849,-7.147l-22.451,-6.855l-8.086,-4.278l7.957,-7.335l23.527,-5.688l4.903,-6.805l-3.398,-8.668l-8.344,-2.18l-17.419,-0.106l-3.613,-2.5l-6.236,-7.579l-4.258,-3.75l0,-4.416l6.882,0l-7.919,-14.656l9.574,-5.285l10.909,-3.292l10.169,-14.789l21.765,-6.047l10.297,-5.486l-30.838,0l-7.441,4.234l-11.398,16.931l-8.387,1.597l-5.247,-6.361l-4.817,-12.086l-3.054,-12.409l0.344,-7.324l11.011,-12.867l5.118,-7.94l-1.677,-3.571l-10.133,3.653l-4.576,-4.292l-4.149,-2.745l-2.507,-0.514l-2.454,-6.019l2.312,-5.489l-0.445,-6.006l-2.661,-11.262l-3.217,-4.775l-0.232,-2.745l7.293,-0.456l10.568,-4.897l11.024,0.362l0.822,-7.986l3.171,-7.064l-4.311,-5.693l-6.266,-1.303l-8.486,-8.374l5.368,-7.683l7.438,-5.968l-5.031,-9.094l-12.671,-2.37l-2.562,-10.961l4.05,-8.075l12.364,-1.961l-7.097,-8.068l-2.452,-4.061l-1.634,-5.772l-4.43,3.768l-7.484,8.149l-8.387,3.58l-1.677,4.648l0.301,4.621l3.735,5.708l0.658,11.13l-3.893,12.792l2.322,17.174l-5.611,14.658l-4.784,5.995l-9.783,-7.614l-10.22,-0.454l-10.169,-6.673l2.547,-35.429l3.139,-12.8l-6.071,-2.881l1.829,-16.646l-5.677,-6.787l-8.516,1.496l-4.774,8.55l-1.29,10.498l-3.828,7.692l-12.043,0.187l4.946,10.094l9.634,15.35l3.484,10.809l-5.806,4.91l0.774,5.417l8.903,12.032l-8.086,1.6l-6.839,3.894l-5.72,5.601l-4.602,6.8l0.086,-4.8l-0.602,-4.88l-1.204,-4.427l-1.806,-3.788l7.269,-16.007l-15.527,-25.409l4.645,-12.736l-4,-17.921l-9.763,5.449l-13.978,17.626l-10.322,3.818l-6.064,1.201l-5.419,2.136l-5.419,0.374l-6.409,-3.711l-1.548,-3.044l-2.194,-6.115l-0.817,-6.035l2.581,-2.724l21.806,0.214l5.548,-3.766l-0.129,-9.91l-5.677,-10.313l-8.129,-3.982l-8.516,-2.485l-6.839,-5.612l-2.71,7.857l-1.548,16.352l-2.968,7.586l-6.193,5.609l-2.064,-5.288l0.645,-16.456l-1.032,-15.981l1.462,-4.437l13.548,-17.164l2.667,-5.99l2.107,-8.398l1.677,6.365l2.28,5.723l2.839,5.401l3.656,5.347l2.796,-2.62l3.484,0.267l4,1.39l4.516,0.962l-5.548,-7.807l-5.634,-10.108l15.054,4.493l6.193,-1.605l4,-7.809l-13.505,-0.963l-8.301,-3.745l-0.989,-8.186l8.731,-14.021l-11.957,-9.876l0.774,-9.155l9.118,-7.39l12.903,-4.632l-3.355,16.064l1.29,4.444l7.269,1.552l13.118,-0.241l3.527,-2.436l3.441,-5.916l0.946,-14.806l-1.333,-19.901l2.452,-16.237l12.301,-3.779l-1.591,9.084l0.387,14.226l2.323,14.41l6.581,17.324l-3.226,6.103l-5.161,5.46l-3.226,5.7l0.172,6.048l3.312,9.685l0.43,2.622l-2.882,3.103l-9.505,6.206l-1.978,1.712l0.516,5.67l1.72,5.99l2.796,3.503l3.785,-1.738l8.903,-8.183l6.667,-0.187l15.226,10.429l-10.925,-23.588l-3.871,-14.688l5.634,-6.583l8.516,10.864l5.204,3.371l2.409,-7.117l2.237,-2.221l5.505,-2.221l10.581,-2.676l0,-4.095l-4.215,-0.642l-10.193,-4.256l0,-4.095l12.731,-2.971l7.484,-12.128l1.935,-14.783l-4.129,-10.929l-4.602,-1.527l-13.849,-0.241l-6.839,-2.76l-5.118,-6.216l-1.677,-6.11l2.538,-2.144l7.613,5.494l3.484,-10.211l-3.742,-6.058l-8.129,-2.466l-9.677,0.724l3.914,-5.067l5.247,-3.646l5.677,-0.965l5.161,2.922l5.032,3.861l4.43,0.885l2.021,-2.037l-2.323,-4.96l0,-4.907l19.484,-0.322l9.333,3.271l3.957,8.714l-2.667,5.388l-5.075,5.709l-3.097,7.477l3.355,10.665l4.645,-4.635l5.978,-3.242l5.161,0.107l2.194,5.52l0.602,4.608l2.452,4.179l0.559,4.5l-0.946,1.714l-4.774,5.678l-1.505,4.071l0,29.397l1.763,8.511l3.871,5.967l3.871,2.248l1.72,-3.077l2.151,-16.378l9.677,-31.434l2.237,-15.483l2.839,-3.644l6.409,4.34l9.161,10.126l3.742,7.125l2.71,6.588l4,4.338l7.527,0.321l0,-4.07l-3.785,-5.008l-4.602,-13.419l-4.043,-6.697l-32.387,-34.144l-2.323,-1.85l1.806,-7.105l4.516,0.804l5.419,5.094l8.43,10.509l4.473,3.967l5.419,2.466l6.581,0.027l4.946,-2.895l0.473,-4.53l-3.613,-4.236l-7.484,-1.85l-10.064,-4.826l-10.948,-10.22l-4.933,-15.221l-1.151,-10.205l9.677,-0.268l8.43,4.051l7.57,6.626l10.578,7.537l10.1,6.958l4.144,4.214l8.02,5.448l7.731,4.254l5.285,8.994l-2.491,8.907l-5.131,6.024l1.032,4.716l5.247,10.02l0.645,6.161l-1.935,10.821l5.806,-4.017l2.323,-4.875l1.419,-5.465l-2.011,-16.156l2.153,-5.337l3.353,-5.623l4.889,-9.177l8.721,-4.071l8.185,-0.075l9.152,1.17l10.128,3.697l12.819,3.433l9.191,6.014l11.14,11.417l0.774,14.066l-8.301,28.442l6.322,-4.177l9.935,-12.774l5.419,-0.991l3.785,5.41l2.194,9.693l1.161,18.792l-0.559,4.015l-2.452,8.938l-0.516,5.191l1.032,5.404l4.688,7.865l4.473,20.458l-1.505,5.855l-8.688,2.647l1.591,5.533l2.064,3.769l3.054,2.566l4.387,2.004l3.097,-14.754l5.204,-8.769l2.667,-9.359l-4.387,-16.476l10.71,3.103l11.226,1.391l-18.15,-20.066l-5.419,-11.053l10.796,-4.818l9.72,-1.606l22.967,-9.236l10.155,-7.721l0.163,0.034l24.635,5.05l20.702,0.017l43.917,-18.723l22.832,10.374l20.429,17.104l24.963,3.366l4.151,9.756l6.227,6.526l7.101,4.112l9.067,18.211l6.937,4.858l-0.546,13.517l4.37,3.99l3.496,6.604l1.147,7.452l-1.311,7.417l-2.567,6.923l-1.639,7.177l-0.71,5.649l-2.677,5.021l-4.916,1.374l-5.025,-0.78l-4.424,4.732l-11.143,19.297l-14.639,21.154l-75.201,-29.877l-12.318,33.978l1.652,99.251l-8.03,7.66l-4.807,13.711l48.123,9.415l36.027,-9.815l28.314,44.244l9.58,18.617l2.737,47.357l10.949,35.489l26.004,-6.758l23,-17.136l7.593,-2.563l13.82,-11.115l7.647,-28.228l6.937,-11.107l2.567,-15.348l6.937,-9.322l8.904,-6.469l7.319,3.294l6.773,2.246l-2.021,11.332l-8.685,6.535l-5.353,9.724l-4.807,10.938l-11.962,21.463l-6.336,25.231l-0.929,18.039l1.42,18.554l17.042,-3.522l15.677,5.072l16.223,9.906l5.462,19.385l-0.71,22.526l4.534,22.331l10.761,19.092l12.017,18.614l-12.509,12.506l-12.836,11.243l-15.677,4.335l-15.568,0.722l-11.416,2.789l-30.589,-3.999l-2.185,-5.226l3.714,-7.428l-3.168,-6.488l-6.773,-1.715l-17.534,-8.792l-23.761,-42.671l-16.878,-14.944l-8.849,9.038l-7.101,11.021l-11.088,2.288l-7.483,3.331l-7.647,2.658l-29.114,5.652l-14.803,5.719l-15.622,2.909l-11.252,-17.459l4.698,-28.742l-19.5,-3.888l-54.732,17.201l-29.715,6.361l-25.29,2.759l-23.789,29.237Z" style="fill:#ffdc49;fill-rule:nonzero;stroke:#ecf0f1;stroke-width:4.17px;"/><path d="M1113.267,833.095l-1.524,-4.494l-27.7,-3.53l-12.901,16.41l-13.346,-10.169l5.441,-12.037l7.001,-10.516l-4.397,-7.436l-9.462,-5.121l-8.678,-4.584l1.218,-12.112l-1.73,-9.512l5.149,-8.902l15.159,-4.559l4.533,-2.316l1.132,-5.521l-7.128,-1.934l-1.929,5.776l-10.874,1.183l-2.825,-6.627l-1.163,-12.145l2.583,-16.055l24.067,-0.851l27.106,-0.959l31.135,29.835l-0.055,15.665l5.681,13.005l8.521,5.567l5.025,8.222l-4.971,16.336l-7.538,14.517l-6.938,5.113l-3.932,2.897l-16.662,4.856Z" style="fill:#ffdc49;fill-rule:nonzero;stroke:#ecf0f1;stroke-width:4.17px;"/><path d="M1030.427,742.023l2.076,2.131l2.066,3.239l2.801,2.639l2.187,4.473l1.314,3.478l-2.875,1.193l-4.462,3.314l-1.806,2.402l-9.235,2.208l-4.086,-0.676l-5.616,2.635l-12.346,5.381l-6.653,5.956l-3.685,6.49l-23.043,17.345l-5.189,-1.18l-4.841,0.554l-2.1,-0.521l-2.211,-8.085l-4.181,-2.639l-1.924,2.1l-1.744,0.595l-0.602,-1.366l0.9,-2.335l-1.321,-3.227l-3.214,-0.414l-2.128,2.803l-3.269,2.559l-3.947,-1.777l-5.686,-1.428l3.358,-3.327l-1.169,-3.597l-5.78,-5.486l-1.409,-3.455l2.025,-4.911l3.144,-0.951l4.374,2.269l23.951,-16.725l17.146,-1.871l11.655,0.282l10.744,-5.655l3.674,-14.866l7.489,-2.762l6.103,6.142l2.968,1.161l3.054,1.728l3.011,1.242l2.968,0.162l3.186,0.623l4.33,2.15Z" style="fill:#ffdc49;fill-rule:nonzero;stroke:#ecf0f1;stroke-width:4.17px;"/><path d="M963.622,2144.565l-7.29,-8.264l-2.581,-6.88l3.871,-15.261l9.075,-18.892l14.32,-33.338l12.076,-17.328l17.24,-6.158l19.643,-4.028l16.797,-0.905l7.749,-6.188l7.443,-10.708l10.524,-2.693l9.432,10.55l9.677,11.92l7.097,2.368l-6.882,-24.158l-4.903,-10.977l-8,-4.581l-74.986,12.211l-26.12,-16.225l1.59,-17.412l0.431,-6.968l12.377,-6.136l10.802,-10.631l9.999,-11.42l15.861,-9.217l19.461,-10.691l14.78,-20.57l2.25,-19.359l8.121,-4.813l6.005,-3.784l3.191,-2.765l18.957,-1.908l18.553,2.286l11.762,9.046l8.43,2.111l5.634,9.71l2.194,-5.277l1.806,-7.336l0.774,-7.628l-7.06,-5.607l-4.864,-3.544l-10.105,-4.997l-11.48,-7.801l-9.329,-6.961l-4.903,-2.483l1.419,-5.599l4.387,-6.023l4.387,-3.593l4.817,-1.11l29.505,1.902l6.452,-0.528l4.774,-2.483l3.226,-5.839l1.204,-4.783l2.538,-3.303l7.269,-1.242l2.323,-2.114l-2.753,-4.757l-5.634,-4.89l-6.236,-2.3l-1.677,1.322l-38.838,15.647l-13.032,0.634l-25.588,-1.668l-25.264,-1.992l-0.238,-11.183l-1.601,-15.39l-4.88,-4.242l-15.769,-5.393l-23.257,3.635l-2.283,-19.606l47.898,-5.143l26.05,-3.231l26.35,-1.552l8.516,-5.107l9.075,2.646l11.097,-5.663l19.484,-14.743l24.731,-9.822l10.451,-7.467l0.946,-9.402l-30.978,9.537l23.789,-29.237l25.29,-2.759l29.715,-6.361l54.732,-17.201l19.5,3.888l-4.698,28.742l11.252,17.459l15.622,-2.909l14.803,-5.719l29.114,-5.652l7.647,-2.658l7.483,-3.331l11.088,-2.288l7.101,-11.021l8.849,-9.038l16.878,14.944l23.761,42.671l17.534,8.792l6.773,1.715l3.168,6.488l-3.714,7.428l2.185,5.226l30.589,3.999l11.416,-2.789l15.568,-0.722l15.677,-4.335l12.836,-11.243l12.509,-12.506l4.534,5.43l5.025,4.589l4.261,-1.042l3.441,-4.589l8.958,5.261l7.92,9.361l23.652,7.747l4.916,6.133l8.467,2.419l16.988,-10.367l19.5,-8.772l7.702,7.327l7.756,4.184l6.773,-6.184l6.773,-7.092l21.631,36.811l-2.458,41.382l-19.337,20.687l-5.135,13.636l-26.274,13.917l-13,3.973l-7.21,-0.771l-5.189,3.336l-9.941,21.435l-11.416,11.895l-12.072,10.67l-5.899,16.98l-1.529,19.92l-6.664,14.525l-8.193,15.274l-6.172,19.517l-4.534,20.161l-7.374,15.007l-0.546,16.272l13.546,5.712l1.966,7.131l0.983,8.165l5.845,15.225l-0.929,16.522l5.408,12.197l7.593,5.055l-3.168,17.712l-22.068,26.307l-3.496,17.264l-0.765,15.909l-11.088,11.292l-30.152,-24.235l-33.812,-12.18l-19.173,10.647l-15.404,16.525l-16.551,2.298l-17.534,0.133l-19.173,2.565l-19.446,-0.35l-9.013,-5.246l-8.03,-6.18l-9.286,2.365l-10.979,-0.15l-15.95,2.632l-15.185,9.06l-19.664,-2.914l-12.727,-13.508l0.71,-21.327l-10.761,-12.117l-3.223,-11.97l4.698,-18.611l-10.651,-16.181l-15.568,0.851l-3.824,6.64l-5.189,4.971l-3.387,8.54l-1.256,9.205l-16.332,0.2l-24.799,-33.493l-16.168,-13.2l-9.231,-3.906l-9.614,-0.684l-8.794,10.414l-17.916,-1.752l-13.273,11.881l-0.055,8.725l0.492,8.74l-4.861,7.338l-6.664,4.886l0.382,6.886l1.038,6.602l-4.424,9.135l-6.992,6.05l-8.63,4.15l-9.067,2.633l-7.647,4.632l-7.101,5.232l-17.698,2.632l-16.769,6.064l-15.731,3.931l-13.164,-4.414l0.765,-17.477l3.387,-17.366l3.059,-23.609l-15.24,-4.086l-51.346,14.291l-11.013,3.53Z" style="fill:#ffdc49;fill-rule:nonzero;stroke:#ecf0f1;stroke-width:4.17px;"/><path d="M869.107,2015.313l-2.323,-2.422l-1.677,-4.264l1.032,-4.107l5.548,-2.896l-0.774,-1.053l-2.624,-1.685l1.29,-1.527l2.925,-1.633l1.978,-2.791l3.183,-0.527l1.892,-0.869l-0.903,-3.555l2.28,0.105l5.978,1.08l4,-3.239l1.935,-2.133l2.28,1.738l1.118,3.871l-1.978,4.819l-9.72,8.373l-6.538,7.266l-4.129,3.185l-1.72,1.579l-3.054,0.684Z" style="fill:#ffdc49;fill-rule:nonzero;stroke:#ecf0f1;stroke-width:4.17px;"/><path d="M1686.67,2410.635l-3.466,-0.962l-21.419,0.209l-7.14,-1.202l-2.839,-3.265l-1.29,-4.885l-3.097,-6.218l-6.064,-4.808l-1.419,4.939l0.903,7.681l1.161,3.37l-3.828,11.833l-2.107,4.048l-4.903,5.641l-20,15.926l-11.097,4.934l-7.957,-6.813l-9.978,-20.262l-8.258,-3.291l-5.763,8.2l-2.839,12.846l0.602,10.729l4.903,11.353l8.172,14.664l9.376,12.782l8.387,5.373l5.935,7.667l5.548,2.66l6.581,-4.12l16.387,-15.335l11.355,-1.513l9.677,1.878l9.032,0.574l9.935,-5.295l-0.602,12.65l-1.72,8.971l-5.247,18.119l-6.064,31.974l-4.387,7.398l-18.58,6.199l-14.709,-7.345l-11.785,-2.501l-9.677,21.147l-3.097,-2.031l-0.774,0.182l-0.731,1.172l-2.624,0.677l4.129,8.436l3.097,9.007l3.871,28.573l-2.409,5.307l-5.462,-3.018l-8.645,-9.054l-12.645,-1.561l-9.419,-5.178l-6.064,-9.447l-2.581,-14.317l3.226,-13.539l6.882,-13.334l4.989,-12.608l-2.452,-10.813l-4.258,-6.02l-8.387,-18.064l-2.194,-1.408l-2.968,-0.078l-3.097,-0.469l-2.581,-2.764l-0.258,-3.285l0.903,-3.859l1.548,-2.451l-8,-16.797l-1.376,-6.261l0.473,-3.783l2.323,-6.262l0.516,-3.288l-1.161,-3.601l-2.452,-2.819l-2.452,-0.809l-1.161,2.662l-1.806,1.435l-9.032,22.857l-3.484,4.852l-1.806,1.252l-2.71,0.313l-18.021,6.338l-10.494,1.304l-22.838,-0.574l-8.602,2.556l6.968,5.711l13.634,5.945l11.226,3.285l0,4.041l-22.451,7.142l-11.355,6.36l-1.935,8.73l4.516,3.674l9.935,-3.987l5.29,2.267l3.742,6.097l-1.118,2.241l-2.839,0.729l-1.462,1.719l7.355,25.472l15.269,13.643l16.516,10.568l11.312,16.186l-5.419,-0.833l-9.29,-0.052l-3.957,0.885l22.709,8.716l2.933,7.079l1.496,13.32l-4.836,4.824l-5.443,4.608l-10.322,-0.494l-6.538,1.638l-24.043,-14.926l-7.742,-2.497l-6.839,1.3l-8.516,3.901l-7.226,5.149l-3.054,4.888l1.247,2.028l6.322,13.258l7.41,1.618l4.475,2.957l20.089,-5.222l10.994,9.328l-25.068,22.922l-8.904,12.603l-9.684,-4.422l-15.23,11.511l1.596,11.129l6.753,7.321l-14.625,0.072l-21.586,-28.43l-7.444,-15.244l-19.828,-21.386l-6.064,1.377l-20.946,10.914l2.107,6.548l1.505,2.546l-8.602,-2.962l-8.301,-1.611l-7.097,-3.716l-4.903,-9.173l-0.645,-9.383l3.355,-5.459l11.742,-6.941l3.785,-3.354l10.667,-14.068l6.581,-13.786l3.785,-4.735l7.699,-3.747l-0.516,10.667l-2.581,10.352l-7.742,18.671l15.484,-1.014l12.946,-4.706l7.742,-10.662l-0.172,-18.885l-3.097,-7.389l-4.086,-4.215l-3.14,-4.944l-0.473,-9.682l2.839,-5.076l15.226,-16.793l5.505,2.89l3.613,3.906l0.903,4.999l-2.796,6.092l3.183,8.355l4.516,5.83l6.064,1.978l8.172,-3.045l3.441,-4.45l7.226,-15.462l4.129,-6.665l-7.355,-10.911l-2.839,-11.408l-3.742,-5.158l-10.021,7.789l-11.527,4.871l-9.548,-7.944l-13.032,-20.974l-7.484,11.726l-10.667,27.324l-7.398,9.009l-7.613,3.072l-6.452,-0.338l-13.247,-2.734l-6.236,2.187l-5.806,5.311l-9.548,12.572l-4.258,3.591l-19.355,11.267l-10.451,7.935l-6.71,3.902l-6.452,1.691l-4,2.055l-0.903,5.28l0.258,7.048l-0.989,7.463l-3.484,5.252l-4.903,5.719l-2.452,6.81l3.957,8.317l-29.161,28.579l0.946,26.383l-4.946,4.387l-14.064,-7.009l-4.645,5.582l-2.194,6.256l0.258,6.852l2.968,7.448l-6.839,-2.154l-14.796,-10.511l-20.301,-5.918l-4.645,-2.804l-4.129,-12.229l2.194,-32.338l-2.021,-12.525l2.925,-7.979l-0.645,-9.826l-3.484,-8.606l-6.021,-4.498l-5.72,1.638l-5.763,5.408l-4.43,6.916l-1.763,6.083l2.151,8.837l3.355,7.692l0.172,5.379l-16.301,5.43l2.107,7.793l11.828,14.986l-20.258,11.711l-7.613,6.984l7.871,3.115l1.806,1.428l0.516,3.115l-0.602,3.115l-1.72,1.402l-3.226,-0.649l-4.903,-2.959l-2.581,-0.701l-6.968,1.038l-1.419,2.933l-0.086,4.749l-2.71,6.306l-4.129,2.776l-15.656,3.944l-5.892,4.955l-2.107,4.125l-12.86,43.044l-1.075,6.169l0,7.36l-12.903,-2.747l-24.344,7.981l-6.107,-1.244l-0.731,-7.515l4.989,-15.318l-0.989,-7.233l-4.817,-4.122l-6.667,-1.322l-13.806,0.7l0,-3.967l2.796,-3.682l0.903,-2.541l1.032,-10.037l1.806,-0.337l2.366,0.778l2.28,-1.556l7.484,-13.542l1.419,-6.513l-2.021,-6.513l-2.624,-2.076l-3.871,-1.35l-7.871,-0.934l-5.677,-1.557l-0.774,-3.452l1.548,-3.141l1.204,-0.909l0.215,-8.177l1.978,-7.867l-0.946,-4.207l-8.473,2.804l2.323,-15.401l10.537,-7.741l14.064,-2.702l13.161,-0.312l-2.409,-4.936l-3.269,-3.794l-4.129,-2.65l-4.989,-1.715l8.344,-5.821l5.161,-6.81l0.172,-5.979l-6.452,-3.561l-2.366,0.936l-4.774,5.927l-3.355,2.261l-4.387,-0.052l-6.839,-4.211l-3.57,-0.104l-3.226,2.911l-2.194,4.367l-1.806,5.77l-4.688,1.04l-4.516,-0.156l-5.161,-0.884l-11.312,0.208l-6.193,1.091l-7.785,3.066l-0.989,-10.136l-4.516,-5.874l-12.559,-6.161l0.172,-2.028l-2.624,-5.148l-3.183,-3.094l-1.591,4.108l-1.548,2.444l-3.742,2.158l-4.258,0.858l-3.355,-1.3l-10.968,-10.452l-1.376,-0.65l-1.806,-6.423l0.903,-1.847l2.151,-0.858l2.064,-3.537l2.107,2.991l5.29,0.078l3.828,-3.069l-2.194,-6.555l-14.15,-6.92l-10.968,-8.014l-0.903,-18.426l4.602,-20.489l5.548,-14.246l0.559,-4.845l-0.43,-5.94l0.774,-5.002l4.301,-2.084l3.957,0.391l4.129,1.172l3.097,2.11l3.484,7.633l16.129,24.065l-5.032,6.613l-1.548,6.404l0.903,6.534l1.72,7.027l10.925,30.57l6.581,3.927l26.193,4.369l11.226,7.723l6.064,-0.546l4.301,-11.104l-5.935,0.884l-3.14,-1.56l-10.877,-2.359l-5.125,-7.982l-6.729,-6.709l1.871,-14.689l-6.979,1.272l-3.373,9.045l-5.489,0.492l-3.318,-11.94l-1.627,-15.969l4.019,-9.104l-3.048,-11.188l14.458,-1.425l22.151,4.819l2.883,5.116l-1.396,8.319l0.129,2.577l-0.215,2.473l1.247,3.853l5.504,3.547l3.201,4.316l6.89,4.48l9.484,3.742l5.733,5.54l7.364,5.277l5.594,3.66l2.293,-2.821l-11.066,-14.566l6.577,-1.424l9.768,5.606l12.597,6.854l15.236,4.846l11.06,-2.825l-11.14,-1.873l-9.032,-5.698l-15.871,-13.897l3.871,-4.763l-11.441,-8.33l-17.29,-22.081l-9.591,-4.532l-13.161,-2.631l-15.631,1.009l-10.777,-6.974l-13.317,3.587l-12.218,-4.012l-1.608,-6.08l7.558,-9.431l7.405,-3.023l15.749,2.449l20.094,-8.949l24.164,17.747l8.129,-1.563l2.064,1.407l1.29,1.303l1.419,1.12l2.452,0.938l-2.323,-12.325l1.032,-11.259l6.322,-8.237l12.946,-3.207l24.215,7.221l12.387,0.912l-3.742,-8.133l8.172,-4.093l4.387,-0.913l5.505,0.287l-7.871,-9.022l-12,-2.191l-27.441,2.451l2.064,-6.207l-0.688,-4.225l-1.376,-4.382l0,-6.678l1.935,-4.226l2.796,-3.131l2.323,-3.914l0.172,-6.654l-4.258,-9.474l-7.269,-2.193l-7.871,3.68l-5.806,7.986l-0.645,5.324l3.484,10.802l0.774,5.791l-0.903,0.861l-6.322,12.624l-5.935,21.85l-5.505,7.455l-10.494,0.938l0,-1.486l-3.312,-2.502l2.151,-3.415l2.839,-6.674l2.194,-3.389l-7.183,-3.65l-4.817,2.138l-4.645,4.067l-6.968,2.164l-14.064,-3.129l-4.473,2.112l-0.884,6.615l-7.245,-0.124l-11.398,3.754l-5.548,-2.815l-1.806,-6.804l3.785,-6.362l10.796,-10.744l3.914,-5.894l2.194,-4.643l0.903,-4.356l0.215,-4.983l-1.419,-9.576l1.806,-4.723l6.839,-6.003l-6.581,-5.168l-5.763,-10.729l-3.14,-12.559l1.032,-10.551l7.355,-6.739l9.978,-6.818l3.097,-5.643l-13.204,-3.136l-6.021,1.097l-3.527,3.057l-2.839,3.188l-4,1.437l-5.161,2.639l0.774,6.27l2.581,7.366l0.172,6.007l-7.398,6.711l-9.548,0.653l-9.247,-3.003l-6.624,-4.361l5.032,-3.447l2.194,-0.94l-4.645,-3.317l-3.957,-3.996l-3.269,-4.78l-2.581,-5.8l6.064,-3.109l5.935,0.314l13.204,2.796l-1.591,-13.796l14.752,-14.61l-3.914,-13.464l-15.054,-20.791l-9.29,-8.476l-10.107,-3.453l4.172,14.44l-3.656,8.265l-7.484,0.262l-7.484,-9.782l4.946,-6.854l-13.591,-18.001l-1.892,-10.678l7.613,-8.822l10.796,-1.44l9.591,4.895l4.215,10.182l6.71,-4.292l3.742,-7.382l4.258,-14.714l3.742,7.331l0.688,6.179l-1.419,11.884l-2.366,6.019l-0.645,3.716l1.032,3.82l2.107,0l2.452,-0.916l1.634,1.099l2.107,8.477l0.516,3.636l1.935,2.093l6.322,3.767l5.118,1.805l8.903,0.314l4,2.275l-3.054,7.323l0.86,7.06l3.785,6.563l5.634,5.777l13.333,-30.097l1.376,-10.202l-0.258,-11.46l-2.581,-4.108l-9.935,-2.486l-4.215,-2.355l-3.484,-3.533l-5.419,-14.45l-17.333,-20.189l-4,-9.299l1.161,-3.144l2.452,-2.646l2.495,-3.485l1.161,-5.948l-5.591,-3.931l-2.71,-5.11l1.032,-8.911l-6.796,2.674l-7.011,1.127l-15.054,0.183l5.892,-7.261l9.677,-2.228l10.968,-0.603l9.591,-2.333l-3.14,-1.206l-1.677,-1.468l-1.935,-1.285l-4.129,-0.813l2.581,-5.821l3.097,-3.409l3.398,-2.622l3.441,-3.724l1.806,-4.878l-0.86,-4.223l-1.677,-4.066l-0.903,-4.46l1.806,-10.049l4.602,-9.92l11.613,-17.667l3.097,3.203l7.742,10.028l9.333,2.835l4.731,-0.315l-1.29,-4.725l-10.129,-11.479l11.013,-3.53l51.346,-14.291l15.24,4.086l-3.059,23.609l-3.387,17.366l-0.765,17.477l13.164,4.414l15.731,-3.931l16.769,-6.064l17.698,-2.632l7.101,-5.232l7.647,-4.632l9.067,-2.633l8.63,-4.15l6.992,-6.05l4.424,-9.135l-1.038,-6.602l-0.382,-6.886l6.664,-4.886l4.861,-7.338l-0.492,-8.74l0.055,-8.725l13.273,-11.881l17.916,1.752l8.794,-10.414l9.614,0.684l9.231,3.906l16.168,13.2l24.799,33.493l16.332,-0.2l1.256,-9.205l3.387,-8.54l5.189,-4.971l3.824,-6.64l15.568,-0.851l10.651,16.181l-4.698,18.611l3.223,11.97l10.761,12.117l-0.71,21.327l12.727,13.508l19.664,2.914l15.185,-9.06l15.95,-2.632l10.979,0.15l9.286,-2.365l8.03,6.18l9.013,5.246l19.446,0.35l19.173,-2.565l17.534,-0.133l16.551,-2.298l15.404,-16.525l19.173,-10.647l33.812,12.18l30.152,24.235l-2.84,14.053l10.87,12.767l5.298,16.491l2.24,34.214l7.156,12.802l13,9.441l11.799,12.331l4.588,13.591l5.681,11.86l32.938,35.746l7.101,17.424l-0.055,11.928l1.336,2.85m-433.076,-181.108l-27.257,-10.188l-14.475,4.328l-13.874,3.146l-18.954,-5.011l-11.416,10.753l14.475,31.68l28.786,17.213l32.61,5.188l20.811,-27.657l-10.706,-29.453Z" style="fill:#ffdc49;fill-rule:nonzero;stroke:#ecf0f1;stroke-width:4.17px;"/><path d="M1352.671,2713.678l16.516,-1.948l8.602,0.649l7.226,3.48l5.763,10.361l-1.72,11.864l-6.968,9.708l-9.763,3.997l-21.806,3.996l-8.43,-1.194l-6.193,-3.01l-12.645,-8.461l0,-4.75l2.882,-3.556l0.516,-2.96l-2.064,-2.856l-4.946,-3.323l7.312,-5.375l8.43,-3.428l17.29,-3.194Z" style="fill:#ffdc49;fill-rule:nonzero;stroke:#ecf0f1;stroke-width:4.17px;"/><path d="M933.579,2704.276l0.817,8.779l-1.419,9.816l-2.839,9.503l-10.408,22.218l-4.215,6.747l-5.247,3.529l-0.903,-1.972l-9.032,-8.511l-4.172,-2.595l0,3.996l-2.151,10.223l-50.322,27.339l-6.064,2.074l-22.236,1.867l-6.15,-1.556l-1.161,-5.549l2.968,-4.668l3.914,-3.89l1.505,-3.268l-2.839,-3.943l-15.226,-9.547l0,13.49l-11.097,-13.049l6.581,-21.305l15.054,-17.237l14.752,-1.09l4.774,-13.789l3.097,-4.909l4.903,-5.455l5.677,-3.117l5.032,-0.857l3.828,-2.832l1.462,-9.042l6.193,7.587l8.387,0.857l7.484,-4.91l3.226,-9.718l-4.043,-7.979l-13.591,-10.683l3.527,-5.304l8.559,-0.624l8.731,4.758l7.57,6.005l5.634,2.963l1.29,1.793l1.548,4.029l2.538,4.392l3.527,2.833l2.409,-0.78l11.957,-7.511l0.473,5.536l15.699,25.358Z" style="fill:#ffdc49;fill-rule:nonzero;stroke:#ecf0f1;stroke-width:4.17px;"/><path d="M1674.559,2585.332l5.505,1.406l4.817,7.601l3.785,9.37l4.473,16.029l0.473,9.339l-1.591,9.077l-3.828,8.79l-5.29,5.408l-5.935,0.468l-5.935,-3.172l-18.709,-18.985l-2.194,-7.388l3.183,-11.76l2.323,-3.071l9.892,-7.469l1.763,-3.826l4,-16.244l-8,-8.488l0.946,-5.182l5.763,-2.656l6.581,-0.755l5.677,2.552l1.419,5.99l-2.71,7.056l-6.409,5.91Z" style="fill:#ffdc49;fill-rule:nonzero;stroke:#ecf0f1;stroke-width:4.17px;"/><path d="M726.915,2566.923l6.322,5.703l1.634,2.656l0.688,4.895l-1.161,5.025l-2.194,4.686l-8,10.75l-3.699,2.707l-3.656,0.312l-5.419,-0.494l-0.043,-2.004l-7.656,-4.477l-8.301,-3.514l-2.323,0.859l-4.774,-10.673l3.613,-4.947l15.613,-6.249l9.591,-13.126l3.269,-1.667l1.978,1.302l4.516,8.256Z" style="fill:#ffdc49;fill-rule:nonzero;stroke:#ecf0f1;stroke-width:4.17px;"/><path d="M736.507,2523.621l0.215,13.604l-2.452,-1.12l-6.021,-1.694l-2.667,-1.564l-4.559,6.019l-7.226,0.052l-6.624,-1.407l-2.925,1.668l-1.075,8.598l-2.839,7.555l-4.602,5.652l-6.279,2.839l-6.193,-0.729l-4.559,-4.298l-2.753,-6.799l-0.903,-8.441l1.591,-7.973l4.215,-5.629l5.806,-3.753l6.452,-2.502l7.183,2.763l9.462,-2.059l17.29,-6.595l3.527,-0.469l2.538,0.417l1.935,1.877l1.462,3.988Z" style="fill:#ffdc49;fill-rule:nonzero;stroke:#ecf0f1;stroke-width:4.17px;"/><path d="M762.313,2438.556l2.28,-8.512l5.161,-1.279l5.892,4.047l4.172,7.232l1.247,9.241l-1.634,8.952l-4.043,7.672l-6.15,5.297l-7.613,2.27l-4.387,-1.67l-3.441,-2.974l-4.473,-1.618l-17.247,3.862l-6.495,0.13l0,-3.992l5.204,-4.54l9.505,-15.137l7.226,-6.578l3.398,0.209l5.032,1.384l4.387,-0.078l1.978,-3.916Z" style="fill:#ffdc49;fill-rule:nonzero;stroke:#ecf0f1;stroke-width:4.17px;"/><path d="M791.173,2350.24l-2.839,0.732l-14.064,-3.74l-5.032,0.811l-1.935,-1.438l-1.29,-1.412l-1.376,-1.098l-2.323,-0.392l4.129,-20.405l2.796,-5.966l3.656,-2.093l6.279,-2.094l5.806,-2.826l2.581,-4.135l4,-8.743l9.548,-6.178l10.839,-2.566l8.086,2.173l-16.086,9.346l-3.699,5.418l-0.43,6.438l2.323,6.621l7.097,11.434l-5.677,2.354l-5.935,5.781l-4.516,6.748l-1.935,5.231Z" style="fill:#ffdc49;fill-rule:nonzero;stroke:#ecf0f1;stroke-width:4.17px;"/><path d="M1424.584,3008.761l3.097,2.738l3.785,1.059l1.376,2.169l-0.645,3.125l-7.484,-3.615l-7.226,-1.679l-1.29,-1.989l-1.806,-4.339l-1.161,-5.295l-1.978,-1.395l-1.634,-2.015l-1.29,-4.34l0.774,-2.558l-0.258,-2.945l0.387,-2.635l1.677,-0.543l1.935,0.646l2.452,-0.775l1.419,-1.654l0.774,-0.233l1.29,2.713l-1.806,5.891l0.903,6.562l6.71,11.107Z" style="fill:#ffdc49;fill-rule:nonzero;stroke:#ecf0f1;stroke-width:4.17px;"/><path d="M1542.346,2734.814l2.366,6.334l0,3.764l-4,4.282l-9.634,6.228l-8.43,2.569l-3.011,-1.713l-0.215,-5.45l-3.57,-3.737l-5.333,-1.713l-2.452,-3.296l1.419,-2.544l-5.763,-3.66l-3.527,-2.622l1.892,-4.777l-0.344,-3.583l-0.903,-2.856l2.581,-1.454l3.742,1.61l3.957,2.285l7.398,1.869l0.129,1.662l2.452,-0.623l4.774,-4.726l4.86,-0.26l11.613,12.41Z" style="fill:#ffdc49;fill-rule:nonzero;stroke:#ecf0f1;stroke-width:4.17px;"/><path d="M1675.032,2698.821l3.484,1.922l2.323,3.663l-1.161,3.974l-6.581,2.26l-4.301,0.182l-1.118,-1.117l-1.72,-2.571l-4.903,-2.727l-7.699,-2.572l-5.161,-3.975l-2.366,-5.43l-2.581,-3.949l-4.344,-2.339l-3.742,-4.495l2.839,-5.457l8.903,-4.236l9.677,-1.3l6.882,5.094l8,15.539l-0.946,4.469l0.258,2.286l4.258,0.779Z" style="fill:#ffdc49;fill-rule:nonzero;stroke:#ecf0f1;stroke-width:4.17px;"/><path d="M785.624,2641.483l1.204,1.196l0.989,3.251l-0.473,6.631l-1.634,7.098l-0.473,6.161l-2.968,3.197l-4.258,3.145l-4.43,4.184l-10.408,6.159l-5.763,0.884l-6.107,-1.767l-1.892,-3.274l3.054,-1.066l3.226,-0.156l2.667,-2.677l3.14,-2.391l-0.516,-2.183l-11.742,-2.599l2.839,-3.379l7.312,-1.118l7.656,-0.234l6.021,-4.601l2.624,-6.24l-2.581,-6.397l-5.29,-8.452l-3.355,-10.743l4,-2.992l6.452,5.177l3.828,3.98l6.495,3.641l0.387,5.566Z" style="fill:#ffdc49;fill-rule:nonzero;stroke:#ecf0f1;stroke-width:4.17px;"/><path d="M752.851,2658.904l-5.032,2.314l-4.258,-3.562l-2.064,-22.181l1.892,-12.33l4.43,-5.62l6.753,14.75l5.634,8.193l4.43,8.971l-1.462,7.488l-4.774,1.612l-5.548,0.364Z" style="fill:#ffdc49;fill-rule:nonzero;stroke:#ecf0f1;stroke-width:4.17px;"/><path d="M439.822,2582.833l6.064,-1.562l1.032,2.604l-4.645,4.582l-2.452,2.916l-1.376,3.644l-8.344,9.708l-1.634,4.502l-3.484,5.803l-2.71,3.721l-2.151,2.368l-5.161,-2.159l-3.398,-9.159l0.559,-8.536l2.925,-7.782l3.527,-6.872l3.828,-6.014l4.43,-3.281l4.344,-0.859l2.366,1.849l1.763,4.634l4.516,-0.104Z" style="fill:#ffdc49;fill-rule:nonzero;stroke:#ecf0f1;stroke-width:4.17px;"/><path d="M824.721,2554.447l1.806,5.6l0.215,6.85l-3.054,6.12l-6.71,0.651l-6.193,-6.12l-4.903,-7.11l-5.677,-0.078l-2.839,2.526l-1.849,0.886l-3.957,0.339l-3.742,-2.735l-0.903,-5.47l-4.817,-8.805l-10.408,-10.943l-2.194,-5.316l5.118,1.355l4.172,0.026l3.914,-2.007l5.634,-0.573l6.667,1.016l4.946,2.189l3.14,3.414l4.645,2.345l6.279,0.417l5.161,1.251l3.527,3.205l1.892,3.517l-0.387,3.204l0.516,4.246Z" style="fill:#ffdc49;fill-rule:nonzero;stroke:#ecf0f1;stroke-width:4.17px;"/><path d="M821.882,2516.349l-1.677,1.668l-1.806,4.118l1.118,8.653l-3.183,3.388l-6.322,1.668l-6.15,-3.492l-6.882,-5.89l-8.86,-3.284l-6.495,-3.806l5.204,-4.353l13.161,-2.164l7.699,-3.337l4,-3.285l5.075,2.242l3.828,5.214l1.29,2.659Z" style="fill:#ffdc49;fill-rule:nonzero;stroke:#ecf0f1;stroke-width:4.17px;"/><path d="M774.7,2496.899l-4.43,-6.103l-3.656,-6.677l1.591,-5.087l7.742,-3.887l6.322,-0.652l5.032,2.844l4.903,-0.157l1.419,-3.861l-1.032,-7.514l5.032,-4.906l6.925,0.13l3.355,-0.339l2.624,1.461l2.538,3.653l0.559,3.966l-7.097,4.54l2.581,9.965l-1.29,6.051l-3.742,2.321l-5.204,-0.235l-3.312,3.755l0.129,7.145l-1.72,6.101l-5.634,3.181l-4.774,-0.391l-1.161,-3.78l0.215,-2.555l-7.914,-8.97Z" style="fill:#ffdc49;fill-rule:nonzero;stroke:#ecf0f1;stroke-width:4.17px;"/><path d="M862.957,2436.885l-4.688,2.036l-6.452,-0.209l-2.624,-5.796l1.075,-6.11l4.129,-2.246l9.032,0l3.097,1.253l0.129,2.768l-1.72,6.632l-1.978,1.671Z" style="fill:#ffdc49;fill-rule:nonzero;stroke:#ecf0f1;stroke-width:4.17px;"/><path d="M827,2351.966l1.333,2.876l0.516,3.295l-0.129,6.275l-2.237,2.039l-2.667,1.49l-2.839,-1.072l-4.731,-5.229l-2.151,-1.464l-2.839,1.412l-2.538,-0.261l-0.774,-2.798l-2.021,-1.02l-2.624,0.078l-0.731,-1.412l3.828,-2.903l-1.505,-0.837l-2.366,0.418l-2.28,-0.68l0.989,-2.903l4.086,-2.694l3.398,-0.523l4.602,2.118l6.753,-0.549l4.688,1.334l2.237,3.007Z" style="fill:#ffdc49;fill-rule:nonzero;stroke:#ecf0f1;stroke-width:4.17px;"/><path d="M271.695,2990.68l-2.581,-1.653l-10.322,-9.457l-5.892,-3.618l-1.29,-4.936l2.581,-6.694l4.043,-3.722l5.849,1.965l4.645,5.738l7.57,15.583l0.516,5.038l-1.634,2.842l-2.323,-0.439l-1.161,-0.646Z" style="fill:#ffdc49;fill-rule:nonzero;stroke:#ecf0f1;stroke-width:4.17px;"/><path d="M1049.277,2914.386l4.602,1.94l4.387,5.484l-1.29,2.82l-2.194,-1.992l-1.892,-0.31l-0.946,2.483l-1.978,-0.776l-4.817,-2.639l-4.946,0.129l-2.839,2.768l-1.806,3.414l-5.892,3.983l-5.247,4.733l-7.957,4.784l-10.107,-0.44l-5.634,-7.448l-0.387,-9.622l4.645,-9.443l9.376,-6.52l8.043,0l10.451,6.65l3.097,0.388l4.387,-1.345l5.935,0.103l3.011,0.854Z" style="fill:#ffdc49;fill-rule:nonzero;stroke:#ecf0f1;stroke-width:4.17px;"/><path d="M1087.9,2924.164l2.108,1.164l1.806,3.104l-1.677,1.914l-2.323,0.362l-0.774,3.776l0,6.413l-2.667,4.991l-5.204,1.422l-2.71,-1.603l-0.946,-2.948l-2.538,-2.017l-2.71,-0.595l-1.161,-8.534l3.355,-14.667l1.161,-8.176l-3.484,-3.234l-1.032,-2.924l4.387,-4.192l0.258,-2.174l4.516,0.052l8.946,4.581l1.247,6.211l-5.032,4.321l-0.903,4.838l5.376,7.916Z" style="fill:#ffdc49;fill-rule:nonzero;stroke:#ecf0f1;stroke-width:4.17px;"/><path d="M1213.318,2895.91l5.075,4.581l3.183,3.571l-1.376,7.97l-1.29,3.415l-3.355,5.924l-6.193,3.337l-7.871,0.673l-5.806,-3.001l-4.774,-4.294l-3.484,0.414l-1.806,3.182l-1.978,-1.164l-2.151,-9.779l3.269,-6.598l0.86,-6.056l2.064,-4.814l3.742,-3.572l7.527,-3.702l9.032,2.304l5.333,7.61Z" style="fill:#ffdc49;fill-rule:nonzero;stroke:#ecf0f1;stroke-width:4.17px;"/><path d="M1056.244,2882.89l2.151,3.106l0.43,5.565l-3.656,3.08l-1.849,7.246l-7.699,0.414l-4.258,0.88l2.581,4.554l-2.667,2.225l-8.043,-2.173l-4.172,-3.881l-1.032,-2.562l-2.237,-0.802l-2.495,-0.518l-0.516,-2.122l2.71,-7.609l1.548,-2.847l0.215,-1.941l-1.032,-1.527l0.43,-1.398l1.935,-0.958l1.247,-1.372l-0.344,-1.812l-2.71,-4.427l1.763,-1.528l4.172,1.346l4.086,2.201l11.011,1.864l5.677,2.951l2.753,2.045Z" style="fill:#ffdc49;fill-rule:nonzero;stroke:#ecf0f1;stroke-width:4.17px;"/><path d="M779.603,2825.751l-0.516,7.074l0.86,4.586l-2.495,3.653l-5.118,0.648l-2.968,2.461l-2.323,-1.088l-2.194,-3.42l-1.806,0.078l-0.903,3.161l-3.355,0.492l-10.925,-4.534l-3.699,-5.286l-0.344,-3.472l2.237,-3.032l0.258,-3.136l3.957,-2.618l18.193,3.81l7.613,-1.166l3.527,1.788Z" style="fill:#ffdc49;fill-rule:nonzero;stroke:#ecf0f1;stroke-width:4.17px;"/><path d="M1183.985,2825.363l-2.237,2.306l-4.774,0.985l-2.581,-3.68l-1.075,-4.898l-2.839,-3.862l-4.086,-1.737l-5.419,0.804l-6.322,2.229l-5.075,-0.052l-2.021,-1.037l-2.021,-1.322l-11.699,-5.158l-0.731,-2.152l5.419,-0.7l5.29,-1.555l2.323,-1.348l1.935,-0.933l4.172,0.648l4.817,2.256l5.849,-2.437l7.14,-5.808l5.376,-1.348l3.097,2.36l3.828,1.011l2.237,-0.156l2.237,-0.415l5.892,0.622l7.484,1.815l4.645,2.722l-1.032,4.666l-3.054,3.577l-0.817,2.177l-0.516,4.432l-3.312,3.628l-4.559,-0.881l-4.903,0.907l-2.667,2.332Z" style="fill:#ffdc49;fill-rule:nonzero;stroke:#ecf0f1;stroke-width:4.17px;"/><path d="M1309.618,2802.189l1.806,1.556l1.032,2.981l-3.226,0.674l-4.473,-2.255l-5.247,-1.167l-3.785,1.478l1.376,1.737l3.226,1.841l-3.828,3.811l-9.333,7.309l-5.419,2.436l-0.516,-5.624l2.624,-3.966l3.355,-2.229l-1.892,-2.54l-11.57,-2.385l1.548,-2.541l-1.247,-3.215l-3.527,-2.126l-8.86,-0.83l-3.441,-1.167l-1.505,-1.011l1.247,-1.193l3.914,-0.778l3.054,-2.075l4.903,-5.913l5.247,-4.357l-0.43,-1.66l1.677,0.571l3.742,3.631l3.441,5.135l1.978,5.757l4.129,1.815l7.226,-2.282l5.29,-0.596l2.452,2.152l1.806,2.904l3.226,4.123Z" style="fill:#ffdc49;fill-rule:nonzero;stroke:#ecf0f1;stroke-width:4.17px;"/><path d="M1136.458,2824.922l1.032,3.939l2.968,7.1l-1.806,1.71l-2.581,-0.363l-2.581,-0.725l-4.731,-2.047l-4.043,-2.617l-2.237,0.441l-0.516,3.731l-2.538,1.477l-4.645,-2.125l-8,-1.866l-9.935,-3.472l-0.086,-4.12l4.903,-3.732l-1.29,-4.691l-4.559,-1.218l-5.505,1.426l-6.882,-1.892l-6.193,-4.044l-3.699,-4.666l-1.548,-6.922l-0.516,-7.883l0.43,-8.039l2.107,-8.041l4.172,-6.148l5.677,-2.724l3.054,-0.7l9.29,-0.934l6.064,1.998l5.677,3.84l6.279,7.393l4.903,12.293l1.462,10.087l1.677,4.667l2.882,3.889l1.634,5.444l9.677,9.538Z" style="fill:#ffdc49;fill-rule:nonzero;stroke:#ecf0f1;stroke-width:4.17px;"/><path d="M1135.684,2777.942l-2.581,-0.182l-2.323,-2.36l1.935,-3.787l2.452,-3.736l3.656,-8.043l7.441,-9.809l10.451,-5.762l10.968,-2.596l6.581,1.142l2.495,3.815l0.43,4.204l-2.753,2.829l0.43,1.531l4.903,2.984l4.043,4.515l3.527,5.111l0.473,3.891l-3.871,0.649l-10.839,-3.321l-4.516,1.116l-2.667,3.917l-13.935,6.485l-4.903,6.562l-1.548,6.846l-2.839,1.997l-3.441,-3.993l0.086,-6.587l-1.118,-5.55l-2.538,-1.868Z" style="fill:#ffdc49;fill-rule:nonzero;stroke:#ecf0f1;stroke-width:4.17px;"/><path d="M912.762,2470.345l10.021,3.522l1.075,13.591l-10.365,9.545l-5.677,-2.138l3.355,-3.782l1.677,-3.678l-1.376,-2.556l-14.752,-8.087l-2.194,-1.174l-15.613,2.531l-6.925,3.391l-7.828,1.252l-6.279,-2.139l-3.226,-4.174l2.839,-3.365l8.387,-0.548l10.753,-3.914l1.892,-2.401l1.72,-1.774l0.516,-2.714l6.624,-2.035l2.366,-3.993l0.258,-4.698l-4.129,-5.638l-1.763,-6.344l5.763,-2.976l9.161,2.193l9.419,4.751l6.71,6.735l-0.688,3.785l-4.602,0.6l-8.043,5.324l-0.989,2.975l0.301,3.784l0.731,3.001l3.398,1.07l7.484,0.078Z" style="fill:#ffdc49;fill-rule:nonzero;stroke:#ecf0f1;stroke-width:4.17px;"/><path d="M856.505,2352.881l0.989,-3.138l-3.613,-1.098l-13.548,-2.275l-3.011,-2.615l-4.645,-0.445l-2.28,-0.471l-2.28,-2.066l-3.011,-1.517l-2.839,-3.479l-5.677,-13.212l3.226,-5.181l6.71,-2.25l6.193,2.277l4.946,3.297l4.473,-1.544l5.075,-2.669l3.269,1.622l1.118,2.826l2.581,-0.105l3.269,-0.942l1.333,4.186l-3.656,3.689l-4.86,0.314l-2.064,2.381l0,3.427l5.806,5.964l4.903,2.223l5.505,0.366l3.14,4.446l1.591,5.701l2.667,3.609l0.946,4.916l-2.064,6.222l-2.064,1.673l-1.376,-2.013l-6.15,-1.412l-2.581,-3.294l-2.107,-3.791l0.086,-5.622Z" style="fill:#ffdc49;fill-rule:nonzero;stroke:#ecf0f1;stroke-width:4.17px;"/><path d="M2298.572,2297.376l-2.52,-2.259l-4.791,7.027l-16.132,28.356l-7.308,0.504l-0.506,-13.048l0.502,-12.297l-3.52,-0.512l-4.584,10.195l-3.734,15.413l-13.098,-1.503l-34.801,0.559l-1.999,-11.809l-3.539,-6.266l-4.803,17.844l-5.294,2.521l-12.304,-5.526l-5.758,-10.761l-6.322,-0.733l-8.129,6.254l0,-28.136l-2.194,-2.33l-4.516,1.859l-3.828,5.916l-0.301,9.946l-8.387,-6.543l-6.538,-9.424l-7.226,-5.839l-10.624,4.241l2.323,-9.086l-4.387,-12.911l2.064,-4.793l-5.29,-16.924l-3.097,-1.782l-6.064,5.503l-6.581,10.322l-0.129,6.889l6.71,13.959l3.742,17.018l2.194,5.968l4.516,7.747l8.817,11.854l1.29,5.965l-2.495,8.554l4.172,0.575l6.538,2.825l3.742,0.994l-4.645,3.086l-4.645,1.229l-10.71,0.026l-5.634,-1.308l-1.591,-3.4l-0.258,-4.29l-1.763,-4.133l-5.075,-5.337l-3.613,-2.93l-28.516,-10.021l-8,-0.497l-17.505,3.323l-4.774,2.355l0.344,4.526l6.107,8.581l-9.806,1.962l-18.107,9.102l-20.774,5.649l-2.71,8.132l-1.032,8.837l-5.634,5.803l0,4.365l52.731,-27.922l8.946,-0.601l1.806,11.296l3.183,8.287l1.075,7.371l-4.258,8.546l-6.753,3.763l-10.322,1.725l-10.322,-0.47l-6.839,-2.822l-3.57,6.271l2.452,3.031l4.774,2.769l3.57,5.486l0.516,3.344l0.172,4.806l-0.688,13.371l-3.957,26.263l4.86,4.619l4.645,-1.54l3.656,-5.115l1.634,-6.317l7.14,8.353l-7.355,13.153l-13.333,17.323l-11.83,3.546l-15.88,-1.061l0.272,-9.807l10.191,-0.139l4.344,-0.783l2.624,-4.305l-32.817,-3.679l-6.839,-2.714l-7.57,-10.491l-1.075,-5.272l5.419,-3.393l12.172,-4.699l-12,-24.023l-8.645,8.514l-8.688,16.71l-12.258,0.783l-11.183,-14.986l-5.849,-3.734l-12,-1.227l-5.29,3.186l-2.925,7.755l-1.075,9.842l0.258,9.501l-11.183,-1.879l-24.559,1.096l-9.677,-5.377l-1.118,-3.472l-0.129,-9.398l-0.559,-2.48l-2.452,-0.627l-5.892,1.071l-7.613,-1.749l-12.43,-1.071l-4.387,-2.376l-2.452,-5.144l0.258,-5.04l1.333,-4.832l0.86,-4.31l-0.86,-47.591l0.86,-7.661l1.548,-3.557l2.71,-4.708l2.323,-6.173l0.645,-7.874l-8.258,9.862l-6.796,11.508l-8.387,8.629l-12.688,1.098l9.677,22.742l-6.581,4.443l-14.322,-0.314l-13.677,8.623l-5.548,-15.418l-3.355,-6.299l-5.935,-4.574l-1.548,20.7l-5.677,16.355l-11.054,9.873l-14.107,1.254l-5.634,-2.22l-5.032,-1.28l-4.172,0.47l-3.226,3.03l-7.871,-6.477l-5.523,-1.494l-1.336,-2.85l0.055,-11.928l-7.101,-17.424l-32.938,-35.746l-5.681,-11.86l-4.588,-13.591l-11.799,-12.331l-13,-9.441l-7.156,-12.802l-2.24,-34.214l-5.298,-16.491l-10.87,-12.767l2.84,-14.053l11.088,-11.292l0.765,-15.909l3.496,-17.264l22.068,-26.307l3.168,-17.712l-7.593,-5.055l-5.408,-12.197l0.929,-16.522l-5.845,-15.225l-0.983,-8.165l-1.966,-7.131l-13.546,-5.712l0.546,-16.272l7.374,-15.007l4.534,-20.161l6.172,-19.517l8.193,-15.274l6.664,-14.525l1.529,-19.92l5.899,-16.98l12.072,-10.67l11.416,-11.895l9.941,-21.435l5.189,-3.336l7.21,0.771l13,-3.973l26.274,-13.917l5.135,-13.636l19.337,-20.687l4.261,14.43l10.706,6.207l4.916,3.69l4.861,4.126l0.437,5.132l2.13,5.249l4.261,1.928l4.315,1.442l16.005,1.241l6.937,5.801l8.576,5.767l15.185,1.173l14.967,-0.134l13.656,4.593l10.051,10.894l7.046,13.337l11.689,8.242l2.95,6.063l1.803,5.577l8.139,5.024l7.046,8.255l-0.328,15.283l-6.336,14.61l8.303,29.909l32.61,1.371l15.95,-2.241l15.24,2.542l14.311,6.856l13.546,10.131l15.021,3.009l28.295,-14.478l14.475,2.926l13.055,-18.545l12.181,-9.401l4.37,35.787l13.328,16.213l16.551,10.444l19.173,-2.155l19.774,-3.526l17.261,5.263l16.496,8.654l19.719,0.568l17.206,-13.6l7.593,-2.807l7.647,-1.003l7.265,-6.267l6.063,-7.806l19.118,-7.824l20.32,5.032l15.568,7.305l14.803,-4.931l2.24,25.719l-13.219,26.558l7.92,15.962l32.555,4.974l13.71,10.381l22.832,26.028l27.202,14.927l12.126,9.421l3.55,17.903l11.525,11.365l15.021,5.299l2.132,1.834l-2.489,8.573l-0.912,11.886l-3.127,6.166l-3.567,5.28l2.985,8.787l0.172,3.618l-5.981,12.083l-8.409,17.831l-9.4,11.286l-5.078,10.539l-0.957,1.924l-1.036,-2.313l-10.651,-10.827l-9.559,-12.294l-12.072,-9.734l-9.45,-13.081l-2.95,-14.133l-10.378,-6.61l-13.383,-0.516l-12.454,4.979l-10.051,7.259l-7.538,9.322l-5.517,38.035l-7.538,11.442l-8.03,9.943l-4.385,7.996Z" style="fill:#ffdc49;fill-rule:nonzero;stroke:#ecf0f1;stroke-width:4.17px;"/><path d="M1826.514,2501.801l2.71,7.275l-1.548,6.413l-2.925,6.803l-1.548,8.366l1.462,13.211l-0.43,7.555l-3.011,3.282l-4.215,2.37l4.473,12.996l-2.194,6.51l-8.129,1.51l-7.742,-4.635l-8.344,-3.646l-9.806,4.531l-8.602,1.146l-5.247,-12.396l-5.935,-25.869l-8.688,-4.691l-6.925,4.769l-4.688,10.787l-1.763,13.363l-3.226,5.626l-7.484,0.234l-7.914,-2.709l-4.817,-3.151l-3.269,-5.756l-0.774,-4.741l-0.129,-5.601l-1.161,-8.129l-14.58,-47.316l-1.935,-11.425l1.419,-11.271l6.064,-11.534l4.043,-2.949l4.129,-0.757l3.183,-2.14l2.495,-14.175l3.097,-4.047l8.473,-6.606l6.968,-3.369l8,2.455l7.011,6.241l4.086,8.015l-0.731,8.432l-4.645,8.065l-11.871,12.369l2.151,4.436l2.452,11.218l2.968,5.843l4.516,3.13l11.312,3.782l6.366,11.343l10.236,-1.799l12.989,-5.085l12.258,-2.608l17.806,2.973l3.613,1.356Z" style="fill:#ffdc49;fill-rule:nonzero;stroke:#ecf0f1;stroke-width:4.17px;"/><path d="M2185.348,2467.214l-0.602,7.592l-2.366,8.061l-4.645,4.486l-7.183,-3.026l2.925,8.607l6.839,14.498l1.419,9.933l-4.043,1.59l-9.247,-3.18l-9.935,-5.214l-6.021,-4.328l-1.634,8.942l-1.634,4.849l-9.161,10.634l-2.968,8.313l6.279,4.794l8.688,3.621l4.387,4.924l-8.258,7.241l-38.279,11.824l-11.527,0.781l18.064,-13.074l-7.484,-3.542l-2.839,-5.679l0.43,-7.634l2.667,-9.381l-16.387,8.365l-4.86,-3.361l-2.366,-7.375l0.301,-7.402l3.312,-3.362l13.161,-2.659l3.742,-7.065l0.258,-9.986l2.839,-11.292l-7.226,-4.382l-5.419,6.677l-18.967,8.371l-8.387,6.858l-6.021,-9.335l-7.527,-8.241l-6.15,-9.234l-1.634,-12.21l3.398,-7.359l6.968,-6.785l8.043,-5.22l6.882,-2.924l19.785,-4.072l5.419,0.104l8.688,3.655l6.925,4.516l7.097,3.471l9.806,0.679l0,-3.993l-9.806,-6.421l-5.591,-9.581l-2.495,-10.941l-0.559,-10.264l6.968,0.862l37.032,-21.005l-6.322,-11.786l2.968,-11.71l8.129,-6.484l9.333,3.66l2.323,5.333l0.172,6.221l-3.441,23.832l0.258,3.762l2.452,7.549l3.226,6.033l2.323,6.215l-0.129,8.434l-2.107,7.65l-8.344,21.794l10.71,-3.758l5.118,-3.523l1.72,1.253l0.516,10.803Z" style="fill:#ffdc49;fill-rule:nonzero;stroke:#ecf0f1;stroke-width:4.17px;"/><path d="M1828.191,2482.502l2.151,1.695l2.925,4.408l-5.591,1.408l-23.914,-6.286l-13.075,4.199l-7.656,-0.913l-7.871,-4.773l-4.645,-9.131l3.613,-9.889l7.226,-9.317l4.602,-8.77l4.817,-6.187l8.387,-2.271l2.71,7.101l-3.699,10.362l-1.849,7.072l0.516,5.897l2.796,1.905l3.097,-6.967l6.193,-9.787l5.075,-0.861l1.548,4.489l2.71,2.558l2.624,1.461l1.204,7.698l3.011,10.645l3.097,4.252Z" style="fill:#ffdc49;fill-rule:nonzero;stroke:#ecf0f1;stroke-width:4.17px;"/><path d="M2235.154,2369.065l-2.323,13.278l-3.484,4.756l-2.71,0.915l-1.29,-2.796l-2.581,-11.239l-4,-4.182l-1.419,-3.294l0.645,-4.549l-1.806,-5.334l-2.796,-5.073l1.462,-4.629l5.591,-3.165l6.064,-0.628l5.29,1.569l3.613,8.107l-0.258,16.263Z" style="fill:#ffdc49;fill-rule:nonzero;stroke:#ecf0f1;stroke-width:4.17px;"/><path d="M1945.437,2614.117l1.333,1.431l-0.774,3.408l-5.075,6.244l-2.28,1.509l-3.398,0.494l-4.989,-1.119l-4.129,0.598l-5.634,2.783l-2.753,2.575l-3.14,0.676l-0.516,-2.393l1.849,-4.084l-0.516,-3.304l-2.323,-2.315l-1.978,-0.442l-2.323,-1.769l0.215,-3.2l1.419,-2.914l0.215,-3.487l2.107,-2.03l3.57,-0.885l16.731,8.899l0.043,3.955l2.409,0.26l9.935,-4.891Z" style="fill:#ffdc49;fill-rule:nonzero;stroke:#ecf0f1;stroke-width:4.17px;"/><path d="M1993.649,2498.522l5.04,-2.066l8.138,-2.034l9.229,-0.594l5.164,5.048l1.394,8.226l-2.802,5.142l1.925,3.079l-2.294,3.857l-5.319,-2.138l-2.101,1.271l0.152,1.612l4.342,0.848l4.35,3.579l-2.134,3.859l-5.397,6.745l-8.746,0.099l-3.833,-4.879l-2.071,-5.012l-4.425,-0.169l1.04,-4.202l-1.454,-4.199l-6.818,-1.008l-2.432,-1.951l5.057,-4.006l0.961,-4.879l-5.112,-4.026l-9.524,-3.28l-6.036,1.897l-3.584,-0.185l-1.133,-4.211l4.252,-4.66l6.203,-1.57l8.148,3.299l6.218,4.745l3.603,1.76Z" style="fill:#ffdc49;fill-rule:nonzero;stroke:#ecf0f1;stroke-width:4.17px;"/><path d="M1916.534,2488.24l7.914,8.815l2.968,4.981l-2.107,3.442l-5.677,0l-2.667,1.408l0.387,4.536l-1.591,1.955l-4.989,-1.408l-3.097,-1.512l-5.806,-4.041l-3.355,-5.006l0.645,-3.468l3.613,-5.894l7.097,-5.347l6.667,1.539Z" style="fill:#ffdc49;fill-rule:nonzero;stroke:#ecf0f1;stroke-width:4.17px;"/><path d="M2423.562,2277.909l-2.604,5.236l-8.166,-0.163l-6.033,-0.264l-7.435,1.213l-5.462,-0.314l-5.746,2.577l-6.314,0.74l-0.508,9.04l4.22,6.267l0.698,7.511l-2.712,8.555l-11.834,5.511l-9.572,-8.301l-5.797,-4.78l-4.311,-5.293l-13.854,14.801l-6.309,11.787l-2.023,12.548l-4.285,3.005l-2.535,-6.317l-6.306,-6.81l0.522,6.073l1.261,13.067l-4.033,-0.008l-1.778,-4.326l-2.269,-1.022l-5.416,3.62l-5.147,3.215l-3.529,-4.33l-4.274,-14.479l1.767,-13.044l4.036,-16.562l0.759,-9.284l4.385,-7.996l8.03,-9.943l7.538,-11.442l5.517,-38.035l7.538,-9.322l10.051,-7.259l12.454,-4.979l13.383,0.516l10.378,6.61l2.95,14.133l9.45,13.081l12.072,9.734l9.559,12.294l10.651,10.827l1.036,2.313Z" style="fill:#ffdc49;fill-rule:nonzero;stroke:#ecf0f1;stroke-width:4.17px;"/><path d="M2560.859,1989.328l0.811,0.964l3.533,6.23l-2.002,14.095l-1.129,16.702l-3.568,25.093l-5.376,10.625l-8.688,11.674l-8,4.312l-3.484,-11.384l-3.097,-14.832l-6.839,-11.127l-7.355,-1.894l-4.387,12.627l7.226,1.657l4.301,5.444l2.064,7.968l0.473,9.176l-2.323,8.675l-5.419,2.024l-6.064,0.552l-4.215,4.205l0.774,4.625l0.677,12.006l2.155,12.387l-4.925,7.938l-4.479,7.938l4.409,6.198l3.533,3.546l-0.724,8.767l-10.871,3.554l-10.233,6.146l-14.689,14.508l-12.428,-0.463l-0.195,0.672l-2.132,-1.834l-15.021,-5.299l-11.525,-11.365l-3.55,-17.903l-12.126,-9.421l-27.202,-14.927l-22.832,-26.028l-13.71,-10.381l-32.555,-4.974l-7.92,-15.962l13.219,-26.558l-2.24,-25.719l12.727,-10.265l13.601,-7.909l8.139,-0.201l3.332,-6.355l-5.08,-8.363l-2.895,-9.067l17.807,-13.77l22.341,-7.782l18.299,-2.762l17.916,3.749l18.626,7.999l4.861,7.965l0.273,9.67l1.311,8.631l6.555,4.7l8.849,2.291l49.161,-8.847l41.841,10.202l0.465,-0.125Z" style="fill:#ffdc49;fill-rule:nonzero;stroke:#ecf0f1;stroke-width:4.17px;"/><path d="M2541.602,1334.14l0.129,1.094l2.71,25.763l7.226,26.869l2.882,27.068l-3.269,55.847l-3.226,11.997l-16.344,19.705l-6.366,11.086l-2.796,12.917l-2.237,78.867l1.806,10.692l3.226,5.942l3.527,2.387l2.839,3.289l3.054,22.168l3.914,16.964l4.258,2.968l2.839,3.657l-1.978,10.174l-4.258,5.722l-5.505,2.649l-5.204,1.695l-8.808,7.249l-0.488,8.908l11.14,10.298l8.004,8.944l8.441,10.28l10.718,1.834l13.574,-10.603l33.591,-36.645l6.46,-10.79l8.723,6.923l1.935,11.177l3.742,11.625l2.753,12.946l-8.248,12.872l-19.055,37.766l-1.454,16.909l-5.658,44.458l-13.698,38.594l0.758,24.126l-14.019,41.895l-10.332,20.35l-4.504,10.173l4.398,11.553l4.059,4.828l-0.465,0.125l-41.841,-10.202l-49.161,8.847l-8.849,-2.291l-6.555,-4.7l-1.311,-8.631l-0.273,-9.67l-4.861,-7.965l-18.626,-7.999l-17.916,-3.749l-18.299,2.762l-22.341,7.782l-17.807,13.77l2.895,9.067l5.08,8.363l-3.332,6.355l-8.139,0.201l-13.601,7.909l-12.727,10.265l-14.803,4.931l-15.568,-7.305l-20.32,-5.032l-19.118,7.824l-6.063,7.806l-7.265,6.267l-7.647,1.003l-7.593,2.807l-17.206,13.6l-19.719,-0.568l-16.496,-8.654l-17.261,-5.263l-19.774,3.526l-19.173,2.155l-16.551,-10.444l-13.328,-16.213l-4.37,-35.787l-12.181,9.401l-13.055,18.545l-14.475,-2.926l-28.295,14.478l-15.021,-3.009l-13.546,-10.131l-14.311,-6.856l-15.24,-2.542l-15.95,2.241l-32.61,-1.371l-8.303,-29.909l6.336,-14.61l0.328,-15.283l-7.046,-8.255l-8.139,-5.024l-1.803,-5.577l-2.95,-6.063l-11.689,-8.242l-7.046,-13.337l-10.051,-10.894l-13.656,-4.593l-14.967,0.134l-15.185,-1.173l-8.576,-5.767l-6.937,-5.801l-16.005,-1.241l-4.315,-1.442l-4.261,-1.928l-2.13,-5.249l-0.437,-5.132l-4.861,-4.126l-4.916,-3.69l-10.706,-6.207l-4.261,-14.43l2.458,-41.382l-21.631,-36.811l12.836,-6.269l13.273,-4.438l8.193,-15.939l4.424,-16.701l4.097,-7.267l5.08,-6.141l1.147,-10.719l-0.109,-8.92l-2.95,-17.508l12.782,-10.912l12.673,2.341l11.252,0.674l-6.009,-33.996l-11.962,-8.797l-26.984,6.455l-10.269,-4.854l-14.967,-12.457l-12.782,-4.164l-21.248,4.99l-3.168,-31.012l11.689,-10.072l7.593,-15.052l-5.845,-10.313l-3.332,-11.26l3.168,-15.705l2.13,-35.632l5.244,-14.96l9.614,-9.35l-25.891,-37.469l-20.702,-3.503l-5.954,-14.979l7.811,-3.623l7.756,-1.405l7.647,-8.161l11.908,-15.936l2.95,-6.691l-0.328,-6.116l1.366,-7.794l16.442,-11.134l18.463,-8.729l11.471,-17.057l20.156,8.716l37.471,5.934l-7.702,-14.751l-10.105,-12.991l3.55,-13.47l6.609,-14.356l6.391,-10.795l8.467,5.585l10.542,-0.9l8.685,-11.662l9.013,-5.79l8.521,5.484l16.332,5.721l15.24,1.188l3.714,-10.831l2.622,-10.239l5.517,-8.679l6.882,-6.778l6.882,7.695l8.794,6.25l12.454,10.749l7.866,15.873l18.845,6.178l44.245,-18.537l7.811,-25.797l-6.992,-6.422l-3.714,-6.439l6.719,-12.269l5.517,-12.374l11.635,-16.578l16.332,-11.548l4.643,-8.386l6.555,-5.444l10.925,-3.42l8.794,-8.508l13.437,-11.199l12.181,-12.87l5.135,-3.269l6.282,2.418l7.156,-4.121l6.446,-7.306l13.546,7.169l13.055,5.466l15.786,3.388l13.492,1.26l3.114,-14.081l1.693,-15.142l-3.496,-16.22l9.614,-11.691l14.366,-6.716l14.42,1.125l7.429,13.005l10.214,2.335l9.177,4.55l-1.311,11.466l1.202,11.549l15.841,-6.2l15.021,-11.669l6.446,2.675l4.479,5.98l5.79,0.715l6.992,-2.845l20.702,3.475l19.5,8.925l13.82,-3.492l14.366,-7.563l18.08,4.207l16.496,9.913l5.135,15.189l-12.509,9.329l-15.404,-6.077l-9.887,3.694l-9.013,6.809l-3.824,16.337l2.349,21.332l10.87,16.392l17.425,8.228l3.878,14.005l4.971,12.098l12.126,5.182l11.362,6.438l38.728,2.888l-2.13,14.928l4.534,4.296l4.151,4.89l-5.681,16.533l-7.046,17.443l1.42,18.387l4.643,16.227l1.639,14.646l-5.845,15.607l36.597,13.468l16.933,-7.471l17.643,4.032l5.296,0.226m-360.072,500.9l8.248,-8.488l2.84,-10.268l-0.273,-10.991l-1.092,-10.306l-5.681,-4.818l-4.261,-6.38l-0.164,-16.423l2.567,-4.333l0.273,-5.14l-6.719,-11.659l-21.194,-15.494l-27.912,1.815l-33.648,4.504l-24.853,20.565l3.332,29.624l-9.067,9.938l-5.681,12.772l5.025,0.822l4.643,1.712l-0.983,6.477l-2.24,6.14l-8.521,1.392l-7.92,0.05l-7.319,10.182l3.168,11.991l8.193,3.186l7.702,7.545l6.282,12.103l9.341,7.542l6.5,4.189l4.861,4.005l4.042,-3.435l7.538,-13.139l7.538,-5.934l17.097,1.71l30.534,7.928l11.799,-7.123l1.584,-6.085l0.055,-4.191l4.971,-12.978l0.71,-5.484l-0.273,-4.26l4.971,-0.436l3.987,1.174Z" style="fill:#ffdc49;fill-rule:nonzero;stroke:#ecf0f1;stroke-width:4.17px;"/><path d="M3324.301,721.185l9.032,6.806l-0.645,16.848l-5.849,18.759l-6.15,12.466l-10.064,5.045l-13.462,-2.617l-13.075,-7.824l-8.688,-10.443l-2.753,-13.523l4.473,-10.097l9.505,-6.318l18.795,-3.187l12.559,-4.618l6.322,-1.296Z" style="fill:#ffdc49;fill-rule:nonzero;stroke:#ecf0f1;stroke-width:4.17px;"/><path d="M1232.715,3351.722l4,8.186l-2.452,2.797l-5.118,1.488l-3.656,4.361l0.258,3.668l3.355,5.823l0,3.411l-1.806,3.385l-4.516,5.924l-0.903,1.846l-9.535,10.982l-17.957,14.288l-5.569,11.907l-7.947,13.901l-0.379,5.57l-3.516,8.19l-13.032,1.511l-5.032,2.638l-13.882,-1.218l-20.268,15.948l-53.416,9.779l-17.866,15.132l-21.876,4.844l-23.423,-2.333l-26.767,4.971l-22.253,-6.663l-50.224,0.717l-15.663,7.301l-9.326,16.457l-8.516,1.765l-8.516,-4.067l-12.032,-19.414l-16.028,-5.427l-15.552,-16.231l-5.419,-19.767l9.419,-25.615l8.903,-15.888l5.505,-5.587l18.365,-10.843l15.688,-27.166l14.422,-3.682l6.669,-14.351l24.731,-8.504l53.918,-15.403l13.506,-11.594l51.529,-5.38l35.074,-15.237l8.4,2.367l42.711,-6.868l24.763,-2.046l16.387,2.751l6.262,9.378l7.785,6.061l25.505,10.091l7.742,7.83l5.204,18.89l5.118,7.39l2.452,-2.874l3.355,-2.746l1.419,-2.643Z" style="fill:#ffdc49;fill-rule:nonzero;stroke:#ecf0f1;stroke-width:4.17px;"/><path d="M1289.919,629.976l19.009,1.546l9.067,15.564l3.496,21.157l5.517,14.78l0.328,16.217l-4.861,18.802l14.475,-0.172l12.399,-4.46l10.761,-0.154l4.042,9.656l-1.42,9.895l-7.374,3.721l-8.03,5.315l0.164,11.999l4.261,4.764l-9.067,12.337l-5.025,8.669l-13.71,8.119l-15.076,3.494l-15.513,7.775l-6.063,-13.872l-13.219,3.049l-13.11,4.076l-9.286,5.309l-9.668,1.575l-22.669,-0.771l-15.513,-20.33l-15.294,-4.591l-10.542,-6.922l-2.786,-19.04l-10.488,-14.898l-12.509,-15.263l7.92,-16.966l14.803,0.944l16.933,10.293l12.563,-4.254l11.198,-6.794l0.874,-11.428l3.059,-10.538l23.706,-2.266l12.181,-15.452l7.429,-15.697l10.542,-11.252l16.496,-3.935Z" style="fill:#ffdc49;fill-rule:nonzero;stroke:#ecf0f1;stroke-width:4.17px;"/><path d="M1428.545,1584.899l-10.949,-35.489l-2.737,-47.357l-9.58,-18.617l-28.314,-44.244l24.203,-6.595l34.323,-9.354l12.072,1.015l-1.202,5.005l1.857,4.751l3.769,4.125l4.588,2.214l3.059,7.336l-2.021,11.458l15.95,4.528l17.042,-3.768l6.172,-8.94l7.374,1.825l-0.929,7.452l6.5,3.329l0.929,11.674l5.462,17.396l-2.567,15.348l-6.937,11.107l-7.647,28.228l-13.82,11.115l-7.593,2.563l-23,17.136l-26.004,6.758Z" style="fill:#ffdc49;fill-rule:nonzero;stroke:#ecf0f1;stroke-width:4.17px;"/><path d="M1316.316,1284.993l75.201,29.877l-10.324,22.381l0.983,11.026l-6.609,18.811l-2.458,20.124l38.892,-7.785l40.202,2.539l-0.382,7.124l-2.677,6.125l-1.038,4.991l1.748,4.195l0.382,3.315l0.601,3.315l-1.038,6.799l-2.24,6.426l-12.072,-1.015l-34.323,9.354l-24.203,6.595l-36.027,9.815l-48.123,-9.415l4.807,-13.711l8.03,-7.66l-1.652,-99.251l12.318,-33.978Z" style="fill:#ffdc49;fill-rule:nonzero;stroke:#ecf0f1;stroke-width:4.17px;"/><path d="M1521.575,1081.993l13.273,-9.229l25.236,-46.8l2.567,-5.608l3.059,-5.148l4.097,-3.29l4.261,-2.967l4.261,-6.377l3.714,-7.026l55.825,-15.25l56.207,-7.661l-4.534,31.864l16.059,-3.786l16.168,1.126l4.479,2.78l4.534,2.114l4.097,-3.564l3.55,-4.315l10.706,-7.317l-2.895,-32.094l9.996,-12.222l26.929,-9.083l20.101,21.22l0,14.181l6.555,9.162l17.534,-4.231l17.479,-9.709l10.597,-8.158l12.618,2.645l10.433,-5.462l12.236,-9.423l29.496,10.481l30.152,4.745l9.504,2.85l-6.118,13.906l-15.24,10.815l-9.067,14.019l5.79,6.513l7.483,4.126l4.698,0.102l4.807,-2.25l16.059,-5.354l25.181,-2.865l5.244,5.763l-0.929,9.411l10.488,10.858l3.824,8.674l9.614,-0.716l11.362,-2.011l12.727,-4.056l12.618,-0.085l12.563,9.492l13.929,8.996l13.765,2.709l13.437,1.55l10.706,4.633l10.597,6.83l-6.446,7.306l-7.156,4.121l-6.282,-2.418l-5.135,3.269l-12.181,12.87l-13.437,11.199l-8.794,8.508l-10.925,3.42l-6.555,5.444l-4.643,8.386l-16.332,11.548l-11.635,16.578l-5.517,12.374l-6.719,12.269l3.714,6.439l6.992,6.422l-7.811,25.797l-44.245,18.537l-18.845,-6.178l-7.866,-15.873l-12.454,-10.749l-8.794,-6.25l-6.882,-7.695l-6.882,6.778l-5.517,8.679l-2.622,10.239l-3.714,10.831l-15.24,-1.188l-16.332,-5.721l-8.521,-5.484l-9.013,5.79l-8.685,11.662l-10.542,0.9l-8.467,-5.585l-6.391,10.795l-6.609,14.356l-3.55,13.47l10.105,12.991l7.702,14.751l-37.471,-5.934l-20.156,-8.716l-11.471,17.057l-18.463,8.729l-16.442,11.134l-1.366,7.794l0.328,6.116l-2.95,6.691l-11.908,15.936l-7.647,8.161l-7.756,1.405l-7.811,3.623l5.954,14.979l20.702,3.503l25.891,37.469l-9.614,9.35l-5.244,14.96l-2.13,35.632l-3.168,15.705l3.332,11.26l5.845,10.313l-7.593,15.052l-11.689,10.072l3.168,31.012l21.248,-4.99l12.782,4.164l14.967,12.457l10.269,4.854l26.984,-6.455l11.962,8.797l6.009,33.996l-11.252,-0.674l-12.673,-2.341l-12.782,10.912l2.95,17.508l0.109,8.92l-1.147,10.719l-5.08,6.141l-4.097,7.267l-4.424,16.701l-8.193,15.939l-13.273,4.438l-12.836,6.269l-6.773,7.092l-6.773,6.184l-7.756,-4.184l-7.702,-7.327l-19.5,8.772l-16.988,10.367l-8.467,-2.419l-4.916,-6.133l-23.652,-7.747l-7.92,-9.361l-8.958,-5.261l-3.441,4.589l-4.261,1.042l-5.025,-4.589l-4.534,-5.43l-12.017,-18.614l-10.761,-19.092l-4.534,-22.331l0.71,-22.526l-5.462,-19.385l-16.223,-9.906l-15.677,-5.072l-17.042,3.522l-1.42,-18.554l0.929,-18.039l6.336,-25.231l11.962,-21.463l4.807,-10.938l5.353,-9.724l8.685,-6.535l2.021,-11.332l-6.773,-2.246l-7.319,-3.294l-8.904,6.469l-6.937,9.322l-5.462,-17.396l-0.929,-11.674l-6.5,-3.329l0.929,-7.452l-7.374,-1.825l-6.172,8.94l-17.042,3.768l-15.95,-4.528l2.021,-11.458l-3.059,-7.336l-4.588,-2.214l-3.769,-4.125l-1.857,-4.751l1.202,-5.005l2.24,-6.426l1.038,-6.799l-0.601,-3.315l-0.382,-3.315l-1.748,-4.195l1.038,-4.991l2.677,-6.125l0.382,-7.124l-40.202,-2.539l-38.892,7.785l2.458,-20.124l6.609,-18.811l-0.983,-11.026l10.324,-22.381l14.639,-21.154l11.143,-19.297l4.424,-4.732l5.025,0.78l4.916,-1.374l2.677,-5.021l0.71,-5.649l1.639,-7.177l2.567,-6.923l1.311,-7.417l-1.147,-7.452l-3.496,-6.604l-4.37,-3.99l0.546,-13.517l-6.937,-4.858l-9.067,-18.211l-7.101,-4.112l-6.227,-6.526l-4.151,-9.756l23.706,-6.936l22.45,-10.78l17.589,-5.884l4.752,-19.374l8.63,-9.324l13.546,-5.837l6.391,-8.255l4.37,-10.946l8.193,-8.683l10.324,2.162l3.004,3.967Z" style="fill:#ffdc49;fill-rule:nonzero;stroke:#ecf0f1;stroke-width:4.17px;"/><path d="M1226.338,2219.34l27.257,10.188l10.706,29.453l-20.811,27.657l-32.61,-5.188l-28.786,-17.213l-14.475,-31.68l11.416,-10.753l18.954,5.011l13.874,-3.146l14.475,-4.328Z" style="fill:#ffdc49;fill-rule:nonzero;stroke:#ecf0f1;stroke-width:4.17px;"/><path d="M2156.075,1730.74l21.194,15.494l6.719,11.659l-0.273,5.14l-2.567,4.333l0.164,16.423l4.261,6.38l5.681,4.818l1.092,10.306l0.273,10.991l-2.84,10.268l-8.248,8.488l-3.987,-1.174l-4.971,0.436l0.273,4.26l-0.71,5.484l-4.971,12.978l-0.055,4.191l-1.584,6.085l-11.799,7.123l-30.534,-7.928l-17.097,-1.71l-7.538,5.934l-7.538,13.139l-4.042,3.435l-4.861,-4.005l-6.5,-4.189l-9.341,-7.542l-6.282,-12.103l-7.702,-7.545l-8.193,-3.186l-3.168,-11.991l7.319,-10.182l7.92,-0.05l8.521,-1.392l2.24,-6.14l0.983,-6.477l-4.643,-1.712l-5.025,-0.822l5.681,-12.772l9.067,-9.938l-3.332,-29.624l24.853,-20.565l33.648,-4.504l27.912,-1.815Z" style="fill:#ffdc49;fill-rule:nonzero;stroke:#ecf0f1;stroke-width:4.17px;"/></svg>