<svg version="1.1"
      xmlns="http://www.w3.org/2000/svg"
      xmlns:xlink="http://www.w3.org/1999/xlink"  id="snapshot-22919" width="250" height="300" viewBox="0 0 250 300"><desc>This image was made on Patterninja.com</desc><defs>
<!-- image 42839 -->
<g id="transformed-42839" data-image="42839" transform="translate(-70, -125) rotate(0, 70, 125)"><g><svg version="1.1" width="140px" height="250px" viewBox="0 0 140 250"><g id="original-42839"><svg xmlns="http://www.w3.org/2000/svg" version="1.1" viewBox="0 0 717 1280" xmlns:xlink="http://www.w3.org/1999/xlink" preserveAspectRatio="xMidYMid meet">
  <path d="M356 50.6c28.9 1.8 39.3 2.8 40.7 3.7.7.4 2.1.2 3.1-.4 1.2-.8 2.7-.9 3.8-.4 1.1.5 3.5.9 5.4 1 1.9 0 6 .4 9 .8 3.5.5 5 .4 4-.1-4.3-2.7-48.1-6.3-73.5-6l-14 .1 21.5 1.3z" fill="rgba(0, 0, 0, 1)" stroke="none"/>
  <path d="M393.8 69c.3 12.8.3 13-2 14-2.2.9-2.1 1 .6.7l3-.2V70.1c.1-8.1-.3-13.6-.9-13.8-.6-.2-.9 4.3-.7 12.7z" fill="rgba(0, 0, 0, 1)" stroke="none"/>
  <path d="M329.4 67.5c0 6 .1 8.4.3 5.2.2-3.2.2-8.1 0-11-.2-2.9-.3-.3-.3 5.8z" fill="rgba(0, 0, 0, 1)" stroke="none"/>
  <path d="M409.1 63l.2 6.5.7-5.5c.4-3 .3-5.9-.1-6.5-.5-.5-.8 1.9-.8 5.5z" fill="rgba(0, 0, 0, 1)" stroke="none"/>
  <path d="M428 57.4c0 .3 1 1.6 2.3 2.9 1.6 1.7 2.8 2.2 4.2 1.7 1.7-.6 1.4-1-2.2-2.9-2.4-1.2-4.3-1.9-4.3-1.7z" fill="rgba(0, 0, 0, 1)" stroke="none"/>
  <path d="M403.3 61.5c0 2.2.2 3 .4 1.7.2-1.2.2-3 0-4-.3-.9-.5.1-.4 2.3z" fill="rgba(0, 0, 0, 1)" stroke="none"/>
  <path d="M318.9 69.5c-.4 5.5-.5 10.2-.3 10.4 1.1 1.2 1.4-1.6 1.2-10.5l-.3-9.9-.6 10z" fill="rgba(0, 0, 0, 1)" stroke="none"/>
  <path d="M301.3 65c0 2.5.2 3.5.4 2.2.2-1.2.2-3.2 0-4.5-.2-1.2-.4-.2-.4 2.3z" fill="rgba(0, 0, 0, 1)" stroke="none"/>
  <path d="M309.4 70.5c0 5.5.1 7.6.3 4.7.2-2.9.2-7.4 0-10-.2-2.6-.3-.2-.3 5.3z" fill="rgba(0, 0, 0, 1)" stroke="none"/>
  <path d="M413.1 63.6c0 1.1.3 1.4.6.6.3-.7.2-1.6-.1-1.9-.3-.4-.6.2-.5 1.3z" fill="rgba(0, 0, 0, 1)" stroke="none"/>
  <path d="M437 63.4c0 .9.5 1.6 1 1.6.6 0 1-.4 1-.9 0-.6-.4-1.3-1-1.6-.5-.3-1 .1-1 .9z" fill="rgba(0, 0, 0, 1)" stroke="none"/>
  <path d="M385.3 70.5c0 3.8.2 5.3.4 3.2.2-2 .2-5.2 0-7-.2-1.7-.4-.1-.4 3.8z" fill="rgba(0, 0, 0, 1)" stroke="none"/>
  <path d="M429.1 66.6c0 1.1.3 1.4.6.6.3-.7.2-1.6-.1-1.9-.3-.4-.6.2-.5 1.3z" fill="rgba(0, 0, 0, 1)" stroke="none"/>
  <path d="M438.2 69.5c0 1.6.2 2.2.5 1.2.2-.9.2-2.3 0-3-.3-.6-.5.1-.5 1.8z" fill="rgba(0, 0, 0, 1)" stroke="none"/>
  <path d="M292.3 74c0 3.6.2 5 .4 3.2.2-1.7.2-4.7 0-6.5-.2-1.7-.4-.3-.4 3.3z" fill="rgba(0, 0, 0, 1)" stroke="none"/>
  <path d="M348.2 70.5c0 1.6.2 2.2.5 1.2.2-.9.2-2.3 0-3-.3-.6-.5.1-.5 1.8z" fill="rgba(0, 0, 0, 1)" stroke="none"/>
  <path d="M418.3 75.5c0 3.8.2 5.3.4 3.2.2-2 .2-5.2 0-7-.2-1.7-.4-.1-.4 3.8z" fill="rgba(0, 0, 0, 1)" stroke="none"/>
  <path d="M424.3 76.5c0 2.7.2 3.8.4 2.2.2-1.5.2-3.7 0-5-.2-1.2-.4 0-.4 2.8z" fill="rgba(0, 0, 0, 1)" stroke="none"/>
  <path d="M300.3 77c0 2.5.2 3.5.4 2.2.2-1.2.2-3.2 0-4.5-.2-1.2-.4-.2-.4 2.3z" fill="rgba(0, 0, 0, 1)" stroke="none"/>
  <path d="M410.1 77.6c0 1.1.3 1.4.6.6.3-.7.2-1.6-.1-1.9-.3-.4-.6.2-.5 1.3z" fill="rgba(0, 0, 0, 1)" stroke="none"/>
  <path d="M347.8 80.3c-.3 1.9-.2 2.5.4 1.9.6-.6.8-1.8.6-2.8-.3-1.4-.5-1.2-1 .9z" fill="rgba(0, 0, 0, 1)" stroke="none"/>
  <path d="M410.2 82c0 1.4.2 1.9.5 1.2.2-.6.2-1.8 0-2.5-.3-.6-.5-.1-.5 1.3z" fill="rgba(0, 0, 0, 1)" stroke="none"/>
  <path d="M386.5 82c-.3.5-.1 1 .4 1 .6 0 1.1-.5 1.1-1 0-.6-.2-1-.4-1-.3 0-.8.4-1.1 1z" fill="rgba(0, 0, 0, 1)" stroke="none"/>
  <path d="M335.5 83c-.3.5.1 1 1 1s1.3-.5 1-1c-.3-.6-.8-1-1-1-.2 0-.7.4-1 1z" fill="rgba(0, 0, 0, 1)" stroke="none"/>
  <path d="M377.6 83.1c.6 1.1 5.4 1.2 5.4.1 0-.4-1.3-.7-3-.8-1.6-.1-2.7.3-2.4.7z" fill="rgba(0, 0, 0, 1)" stroke="none"/>
  <path d="M325.8 83.7c.7.3 1.6.2 1.9-.1.4-.3-.2-.6-1.3-.5-1.1 0-1.4.3-.6.6z" fill="rgba(0, 0, 0, 1)" stroke="none"/>
  <path d="M296.2 87c-7.7 1.1-7.9 2.4-.2 1.6 3.6-.3 16.9-.9 29.5-1.1 17.3-.4 22.4-.3 20.5.6-1.4.6-6.3 1.4-11 1.8-4.7.3 10 .6 32.7.6 27.9 0 40.6-.3 39.5-1-1-.6-13.3-1.1-29.1-1.3-17.1-.2-26.9-.7-26-1.3 1.7-1.1-48.2-1-55.9.1z" fill="rgba(0, 0, 0, 1)" stroke="none"/>
  <path d="M354.8 86.7c.7.3 1.6.2 1.9-.1.4-.3-.2-.6-1.3-.5-1.1 0-1.4.3-.6.6z" fill="rgba(0, 0, 0, 1)" stroke="none"/>
  <path d="M435.5 87.9c.3 1.2-.3 2.4-1.9 3.6-2.8 2.1-2.5 3.5.6 3.5 1.7 0 1.8.2.8 1.5s-.9 1.5.8 1.5c2.6 0 5.2-2.5 5.2-5.1 0-1 .5-1.9 1.2-1.9 1.8 0-2.4-3.6-5-4.2-1.9-.5-2.2-.3-1.7 1.1z" fill="rgba(0, 0, 0, 1)" stroke="none"/>
  <path d="M341.5 92.2c-13.7.5-26.8 1.3-29 1.8-2.7.7.6.7 10.5.3 17.6-.9 43.4-.9 67.5 0 12.9.4 16.7.3 13.5-.4-13.8-3-20-3.2-62.5-1.7z" fill="rgba(0, 0, 0, 1)" stroke="none"/>
  <path d="M423 96c1.4.4 4.3.8 6.5.8 3.8 0 3.9-.1 1-.8-1.6-.4-4.6-.8-6.5-.8-3.2 0-3.3.1-1 .8z" fill="rgba(0, 0, 0, 1)" stroke="none"/>
  <path d="M382.3 99.7c1.5.2 3.7.2 5 0 1.2-.2 0-.4-2.8-.4-2.7 0-3.8.2-2.2.4z" fill="rgba(0, 0, 0, 1)" stroke="none"/>
  <path d="M436 99.9c0 .5-1.2 1.4-2.7 1.9-2.6 1-2.4 1 2.1 1.1 4.8.1 4.9.1 3.1-1.9-2-2.2-2.5-2.4-2.5-1.1z" fill="rgba(0, 0, 0, 1)" stroke="none"/>
  <path d="M315.2 101c-7.9.4-14.6 1-14.9 1.4-.4.3.7.7 2.3.7 2.5.2 2.3.3-1.1.9-4.5.8 24.8.2 45-1l13-.7-10.8-.2c-6.9 0-10.6-.5-10.2-1.1.7-1.1-1.1-1.1-23.3 0zm12.6 1.7c-1.5.2-4.2.2-6 0-1.8-.2-.6-.4 2.7-.4 3.3 0 4.8.2 3.3.4z" fill="rgba(0, 0, 0, 1)" stroke="none"/>
  <path d="M430.3 105.7c-4.5.6-4.1 2 .7 2.8 4.1.7 7.6-.7 6.4-2.6-.5-.9-1.2-.9-7.1-.2z" fill="rgba(0, 0, 0, 1)" stroke="none"/>
  <path d="M372.5 106.9c-5.8 1.4 9.9 2.4 20.8 1.4 5.6-.6 14-.9 18.7-.8l8.5.3-7-.8c-8.8-.9-37-1-41-.1z" fill="rgba(0, 0, 0, 1)" stroke="none"/>
  <path d="M414.4 112c9.6 1.2 20.3 3.9 21.6 5.6 1.5 1.7.4 3.4-2.3 3.5-2 .1-2 .2.3.9 1.4.4 3.9.8 5.5.9 4.4.1 4.2-3.5-.2-6.2-3.6-2.1-4.3-3.7-1.6-3.7.9 0 1.4-.2 1.1-.5-.3-.3-7.5-.8-15.9-1-11.8-.3-13.8-.1-8.5.5z" fill="rgba(0, 0, 0, 1)" stroke="none"/>
  <path d="M320.5 115.1c-8.2.5-16.3 1.3-18 1.9-2.6.9-2.4.9 2 .5 2.8-.3 12.9-.8 22.5-1.1 9.6-.4 18.4-1 19.5-1.5 2.5-1-5.6-.9-26 .2z" fill="rgba(0, 0, 0, 1)" stroke="none"/>
  <path d="M388 116.1c0 .7-1.4.8-3.9.4-2.4-.4-4.2-.2-4.6.4-.4.7.9 1.1 3.7 1.1 2.4 0 7.4.3 11.2.7 5.1.4 6.7.3 6.2-.5-.4-.7-3-1.2-5.7-1.2-3.1 0-4.8-.4-4.4-1 .3-.6-.1-1-.9-1-.9 0-1.6.5-1.6 1.1z" fill="rgba(0, 0, 0, 1)" stroke="none"/>
  <path d="M338.8 117.7c2.8.2 7.6.2 10.5 0 2.8-.2.5-.3-5.3-.3s-8.1.1-5.2.3z" fill="rgba(0, 0, 0, 1)" stroke="none"/>
  <path d="M321.5 123c-.5.8 7.9 1 28.2.9 15.8-.1 30.9.1 33.6.6 2.6.4 9.1.4 14.5-.1l9.7-.9-7-.5c-13.7-1.1-78.3-1.1-79 0z" fill="rgba(0, 0, 0, 1)" stroke="none"/>
  <path d="M427.6 123.9c-.6.9 4.8 2.1 9.3 2.1 2.4 0 2.4 0 .5-1.5-2.1-1.6-9-2-9.8-.6z" fill="rgba(0, 0, 0, 1)" stroke="none"/>
  <path d="M399.6 127.8c-.3.5 3.9 1.4 10.7 2.2 6.1.7 14.3 1.9 18 2.6 9.2 1.9 10.9 1.7 6.7-.6l-3.5-1.9 4.5-.1c4-.1 4.3-.2 2.5-1.3-2.5-1.5-38-2.4-38.9-.9z" fill="rgba(0, 0, 0, 1)" stroke="none"/>
  <path d="M312 133c-4.6 1 11.6 1 26.5 0 10.7-.6 10.5-.7-6-.7-9.3 0-18.6.3-20.5.7z" fill="rgba(0, 0, 0, 1)" stroke="none"/>
  <path d="M382.5 133.9c-.6.5-1.9 1.1-3 1.3-3.8.8 21 1.7 26 .9 4.9-.6 4.7-.7-5.3-1.9-12.2-1.4-16.5-1.5-17.7-.3z" fill="rgba(0, 0, 0, 1)" stroke="none"/>
  <path d="M318.8 135.7c1.7.2 4.7.2 6.5 0 1.7-.2.3-.4-3.3-.4-3.6 0-5 .2-3.2.4z" fill="rgba(0, 0, 0, 1)" stroke="none"/>
  <path d="M437.5 136c-.3.5-.3 1.4 0 2 .4.6-3.5.8-10.7.5-11.8-.4-9 .1 10.9 2 7.9.7 8.2.7 7.7-1.3-.8-2.9-6.6-5.3-7.9-3.2z" fill="rgba(0, 0, 0, 1)" stroke="none"/>
  <path d="M342 139c-16 .6-15.7.6 8 .7 13.5 0 25.4-.3 26.5-.7 2.2-.9-8.4-.9-34.5 0z" fill="rgba(0, 0, 0, 1)" stroke="none"/>
  <path d="M322.1 143.8c-8.1.2-11.7.7-12.7 1.7-.8.7-1 1.6-.5 1.9 1.4.9 85.3 1.1 88.8.3 2-.5 3-1.3 2.7-2.1-.6-1.5-19.1-3-24.3-2l-3.3.7 2.8 1.3c2.5 1.1.8 1.2-12.6 1.3-9.5 0-15-.3-14.1-.8 1-.7.1-1.1-3-1.5-8-1-12.3-1.1-23.8-.8z" fill="rgba(0, 0, 0, 1)" stroke="none"/>
  <path d="M257.3 144.7c.9.2 2.3.2 3 0 .6-.3-.1-.5-1.8-.5-1.6 0-2.2.2-1.2.5z" fill="rgba(0, 0, 0, 1)" stroke="none"/>
  <path d="M251.8 145.7c.7.3 1.6.2 1.9-.1.4-.3-.2-.6-1.3-.5-1.1 0-1.4.3-.6.6z" fill="rgba(0, 0, 0, 1)" stroke="none"/>
  <path d="M320.3 151.7c2.6.2 6.7.2 9 0s.2-.3-4.8-.3c-4.9 0-6.8.1-4.2.3z" fill="rgba(0, 0, 0, 1)" stroke="none"/>
  <path d="M318 156.1c-10.7.5-24 1.3-29.5 1.8l-10 .8 7 .3 7 .2-5.4.9c-7.5 1.3-7.8 2.1-.6 1.8 3.3-.2 17.7-.1 32 .1 22.9.4 24.5.5 13.5 1l-12.5.7 14-.3c7.7-.2 16.5-.5 19.5-.8 4.7-.4 4.9-.3 1.5.4-2.2.4 11.7.7 31.8.5 19.6-.1 36 .1 36.2.5.9 1.4 13.2 2.2 15.5 1 1.2-.6 1.9-1.4 1.6-1.7-.2-.3-6.5-1.1-13.8-1.8l-13.3-1.3 16.1.5c10.5.4 16.4.2 16.8-.5.9-1.4-2.8-5.7-4.2-4.8-.7.4-1.2 1.6-1.2 2.7 0 2.3 2.5 2.3-28.2 0-31.2-2.4-68-3.2-93.8-2zm54.3 6.6c-1.8.2-4.8.2-6.5 0-1.8-.2-.4-.4 3.2-.4s5 .2 3.3.4zm10.5 0c-1 .2-2.6.2-3.5 0-1-.3-.2-.5 1.7-.5s2.7.2 1.8.5z" fill="rgba(0, 0, 0, 1)" stroke="none"/>
  <path d="M272.8 159.7c.6.2 1.8.2 2.5 0 .6-.3.1-.5-1.3-.5-1.4 0-1.9.2-1.2.5z" fill="rgba(0, 0, 0, 1)" stroke="none"/>
  <path d="M260.3 160.7c.9.2 2.3.2 3 0 .6-.3-.1-.5-1.8-.5-1.6 0-2.2.2-1.2.5z" fill="rgba(0, 0, 0, 1)" stroke="none"/>
  <path d="M267.5 163c-1.4.7-.8.8 2 .3 2.2-.3 4.2-.7 4.4-.9.9-.8-4.5-.2-6.4.6z" fill="rgba(0, 0, 0, 1)" stroke="none"/>
  <path d="M325.1 165.4c.2.2 14.8.5 32.4.8 17.6.2 27.3.1 21.5-.3-11.1-.7-54.6-1.2-53.9-.5z" fill="rgba(0, 0, 0, 1)" stroke="none"/>
  <path d="M423.8 168.7c.6.2 1.8.2 2.5 0 .6-.3.1-.5-1.3-.5-1.4 0-1.9.2-1.2.5z" fill="rgba(0, 0, 0, 1)" stroke="none"/>
  <path d="M323.3 170.8c-13.1.1-21.3.6-21.3 1.2s1 1.1 2.3 1.1c1.2.1-.8.7-4.4 1.3-6.2 1.1-11 3.8-9.1 5 .5.3 6.5.8 13.3 1.2 8 .5 11.6 1 10.4 1.6-2.9 1.2 96.4.2 100-1.1 2.3-.8.1-.9-9-.7-7.8.2-9.6.1-5.1-.3 4.2-.4 7.1-1.1 7.4-1.9.2-.8-.8-1.2-3-1.3l-3.3-.1 3.5-1c4.2-1.2 18.4.6 21.8 2.8 1.6 1.1 2.7 1.2 4 .5 1.6-1 1.6-1-.2-1.1-1.2 0-1.6-.5-1.3-1.4.7-1.8-.5-2.2-9.8-3.6-6.2-.9-18.2-1.3-63.5-2.3-6.3-.1-21.1-.1-32.7.1zm83 2.9c-.7.2-1.9.2-2.5 0-.7-.3-.2-.5 1.2-.5s1.9.2 1.3.5z" fill="rgba(0, 0, 0, 1)" stroke="none"/>
  <path d="M270.2 174c-1.8.4-3.6 1-3.9 1.4-1.1 1 2 .6 6.7-.8 4.8-1.5 2.8-1.9-2.8-.6z" fill="rgba(0, 0, 0, 1)" stroke="none"/>
  <path d="M411.4 178.1c-.3.5.9.9 2.5.9 1.7 0 3.1-.2 3.1-.4 0-.8-5.1-1.3-5.6-.5z" fill="rgba(0, 0, 0, 1)" stroke="none"/>
  <path d="M434.8 177.7c.7.3 1.6.2 1.9-.1.4-.3-.2-.6-1.3-.5-1.1 0-1.4.3-.6.6z" fill="rgba(0, 0, 0, 1)" stroke="none"/>
  <path d="M265 179l-2.5.8 2.8.1c1.5.1 2.7-.4 2.7-.9 0-.6-.1-1-.2-.9-.2.1-1.4.5-2.8.9z" fill="rgba(0, 0, 0, 1)" stroke="none"/>
  <path d="M265.5 181.9c-1.9.8-1.9.8.2 1.9 2.5 1.4 8 1.4 10.8.1 1.5-.6.6-.8-3.1-.6-3.8.1-5-.1-4.7-1.1.6-1.3-.2-1.4-3.2-.3z" fill="rgba(0, 0, 0, 1)" stroke="none"/>
  <path d="M421.5 184c-.4.6.8 1 3 1s3.4-.4 3-1c-.3-.6-1.7-1-3-1s-2.7.4-3 1z" fill="rgba(0, 0, 0, 1)" stroke="none"/>
  <path d="M318.3 185.7c2 .2 5.4.2 7.5 0 2-.2.3-.4-3.8-.4s-5.8.2-3.7.4z" fill="rgba(0, 0, 0, 1)" stroke="none"/>
  <path d="M342.3 185.7c.9.2 2.5.2 3.5 0 .9-.3.1-.5-1.8-.5-1.9 0-2.7.2-1.7.5z" fill="rgba(0, 0, 0, 1)" stroke="none"/>
  <path d="M374.3 185.7c2 .2 5.4.2 7.5 0 2-.2.3-.4-3.8-.4s-5.8.2-3.7.4z" fill="rgba(0, 0, 0, 1)" stroke="none"/>
  <path d="M316.5 198.1c-11.5.3-21.1.6-21.1.7-.1.1-.2 4.1-.2 8.9 0 4.9-.3 13.7-.6 19.8-.4 6-.9 18.6-1.2 28-.6 20.4-.7 21.8-2.2 22.3-.7.2-1 .8-.7 1.3.3.5.1 1.8-.5 2.9-1.3 2.4-.9 2.4 5.4.5 8-2.4 16.8-3.6 20.1-2.7 5.1 1.4 4.5 4.8-2.3 14.5-3.4 4.7-3.5 4.8-7.6 4.1-5.9-.9-7.9-2.2-7.2-4.5 2-6.5 2-6.2-.5-5.4-4.1 1.2-10.7 5.8-11.8 8.2-.9 2-.6 2.5 3.7 4.9 18.1 10.3 20.7 13.7 16.2 21.1-2.3 3.8-7.8 6.9-15.1 8.4-4.1.9-4.9 1.3-3.5 2.1.9.5 1.4 1.3 1.1 1.9-.4.5-.2.9.4.9 1.1 0 .9 33.9-.2 35.7-.5.8-.4 1.3.3 1.3s.8.6 0 1.9c-.7 1.4-.7 2.2 0 2.6.6.4.7 1.2.3 1.8-1.1 1.8-1 8.1.1 8.9.6.4 25.4.8 55.1.9 29.7 0 57.8.4 62.5.7l8.5.7.7 20c.4 13.9 1.4 24.9 3.2 36 1.4 8.8 2.6 18.1 2.6 20.6 0 6.7 2.6 14.5 7.6 22.5 5.7 9.2 9.7 18.4 11.8 26.8 1 3.7 2.5 8.2 3.5 9.9 2 3.8 3.8 9.6 4.6 15.2.3 2.2.8 4.6 1 5.3 2.9 8.4 4.8 56.3 3.5 83.7-2.1 41.6-3.1 56.7-5 72.5-1.1 9.1-2.2 18.5-2.5 21-.7 5.5-2.2 37.6-3.2 68.5-1 29.1-1 85.8-.1 112.5.5 11.3 1.1 29.7 1.4 41 .6 22.2 3.4 52.5 7.8 84.5.9 6 1.6 16.7 1.6 23.8 0 12.6 2.2 31.2 4 34.7 1.1 2.1.5 49.3-.6 51.2-.5.8-1.6-.4-2.9-3.5l-2.2-4.7-3.4 2.5c-1.9 1.3-4.5 2.9-5.9 3.5-1.3.6-2.7 1.5-3 1.9-1.1 1.7-9.4 4.1-14 4.1-2.7 0-5.2.5-5.6 1.1-.7 1.1-7.9.8-13.4-.7-3.8-.9-7.8-1.3-15.2-1.5-3.8 0-7-.4-7.2-.8-.3-.4-2.7-.8-5.3-.9-2.6-.1-11.4-.8-19.5-1.5s-15.5-1-16.5-.6-2.3.3-2.9-.2c-.6-.5-5.7-1-11.3-1.2-5.5-.1-10.1-.5-10.1-.8 0-.6-.9-.7-17-1.4-10.5-.5-11.9-.6-20.3-2.4-3.2-.7-6.4-1-7.2-.7-.8.3-1.5 0-1.7-.6-.2-.5-1.9-1.1-3.8-1.3-1.9-.2-3.8-.3-4.2-.4-.5-.1-.8-.7-.8-1.5s-.8-1.7-1.7-2c-1-.3-3.4-1.9-5.3-3.6-1.9-1.6-4.4-3-5.5-3.1-1.1 0-1.4-.3-.8-.6 1-.3.9-.8-.2-2-.8-.8-1.3-1.8-1-2.3.3-.4-.1-1.3-.8-1.9-1.7-1.3-1.5-3-2.3 21.9-.5 16.8-.4 20.8.7 21.7 1.2 1 12.8 1.8 36.2 2.5 3.1.1 5.7.6 5.7 1.1 0 .5 1.7.8 3.8.7 2-.1 3.9-.1 4.2 0 2.1 1 24.6 1.2 34.8.3 3.4-.3 6.2-.1 6.2.4s3.8.9 8.5.9c4.7-.1 8.5-.4 8.5-.7 0-.3 3.9-.4 8.8-.2 10.9.4 8.8.4 21.7-.2 6-.3 11.5-1.1 12.2-1.7.7-.6 2.8-.7 4.8-.4 1.9.4 4.3.2 5.3-.3 1.6-.9 4.9-1.3 18.3-2.4 1.4-.1 3.3-.8 4.3-1.6 1.4-1.2 1.6-1.2 1.1 0-.9 2.3 3.4 3.4 14.5 3.7 11 .3 22 3.1 22 5.7 0 1.8 5.5 3.8 8.2 3 1.6-.5 2-.4 1.3.4-.6.5-2.6 1.1-4.5 1.3-1.9.1-3.7.5-4 .9-.3.4-4.3 1-8.8 1.4-4.6.3-9.9 1.2-11.9 2-1.9.8-4.7 1.5-6.1 1.5-1.4 0-2.3.3-2 .6.4.3 5.9 0 12.3-.6 8.4-.8 12.1-.8 12.8-.1.8.8.6 1.1-.8 1.1-1.8 0-1.8 0 .1 1.6 1.4 1.1 1.5 1.4.3 1.1-.9-.3-2.2-.1-3 .4-1.1.7-1 .9.6.9 1.5 0 1.7.3.7.9-.8.4-1.4 1.2-1.5 1.7-.1.5-1.9.7-4.1.6-2.3-.3-3.6 0-3.2.6.3.5 0 1-.7.9-6.3-.2-12.7.5-12.2 1.3.8 1.3 8.5 1.3 16.1 0 3.2-.6 7.4-1.3 9.2-1.6 1.7-.3 3.2-.8 3.2-1.3 0-.4-1.4-.6-3-.3-2.3.3-2.9.1-2.5-1 .4-.9 2-1.3 5-1.2 3.4.1 4.5-.2 4.5-1.3 0-.8-.6-1.3-1.2-1-5.3 2.1-5.4 2.2-3.9.4 1.1-1.3 2.9-1.7 8.6-1.6 8 .1 9.9.8 9 3.1-.7 1.8-3.7 2.7-10.5 3.4-2.4.3-4.7.8-5 1.2-.7 1.1-10.5 3.2-15 3.2-2.1 0-4.2.5-4.6 1.2-.7 1.1 3.9.9 16.6-.7 1.9-.2.6.3-3 1.1-11.1 2.6-18 4.7-17.5 5.2.2.3 6-.2 12.7-1.1 20.7-2.8 30.2-3.6 31.2-2.6 1.7 1.6-.1 2.1-10.6 2.9-16.9 1.4-37.7 5-28.9 5 1.2 0 2.4.7 2.7 1.5.4.8 1.4 1.5 2.3 1.6 3 .1-2.2 1.7-8.5 2.5l-5.9.9 5 .5 5 .6-4 1.2c-9.6 3-35.9 4.2-91.5 4.4-52.8.2-83.9-1-96-3.4-3-.7-5.8-1.1-6.2-1-.5.1-.8-.2-.8-.8 0-.5-1.1-1-2.4-1-1.4 0-3.7-1.1-5.3-2.4-4.7-3.9-7.2-4.8-19.8-7.1-6.6-1.2-14.1-3.2-16.5-4.4l-4.5-2.2 5.5.6c3 .3 7.8 1.2 10.5 2 7 1.9 15.9 3 15.2 1.8-.4-.6.4-.8 1.8-.5 3.6.6 3.1-1.5-.5-2.3-1.6-.4-3.2-1.1-3.5-1.6-.4-.5-1.9-.9-3.6-.9-1.6 0-2.9-.4-2.9-.9s-.8-1.2-1.7-1.4c-1-.3.3-.5 2.8-.6 2.5 0 4.9-.4 5.2-.8.4-.3-1.9-1.6-5-2.9-3.1-1.3-6.1-2.8-6.6-3.3-1.6-1.6 0-2.6 1.8-1.1.8.7 1.5.8 1.5.2 0-.5-.6-1.2-1.4-1.5-.8-.3-1.2-1.4-1-2.4.3-1.1-.3-2.6-1.5-3.7-1.1-1-1.7-2.4-1.5-3.1.3-.7-.5-4.1-1.6-7.6-1.9-5.6-2.2-8.8-2.3-26.4-.3-27.7.4-34.4 3.7-38.8 1.4-1.8 2.6-4.2 2.6-5.3 0-1 1.2-7.3 2.5-13.9 2.3-10.7 5.8-36.5 7.1-51.5.2-3 .9-9.1 1.4-13.5 2.5-20.5 4.2-44.9 6.1-87 1.1-24.4.7-123.3-.6-143.5-.3-4.1-1-15.6-1.5-25.5-1.7-29.4-2.1-34.5-3.6-46-2.6-19-3.3-23.5-6.4-42-1.7-9.9-3.5-24.3-4.1-32-1.2-15.4-.5-63.7 1.1-76.9 1.2-10.4 4.5-20 8.6-25.9 1.9-2.6 3.4-5.3 3.4-6.1 0-1.5 8.1-17.4 11.1-21.6 5.8-8.4 17.3-68.6 20.4-106.7.7-8 .7-8.1-1.7-8.5-1.7-.2-2.4-1-2.6-3.1-.2-1.5-.8-2.5-1.3-2.2-.5.4-.9-.1-.9-1s.5-1.3 1-1c.6.3 1-.1 1-.9 0-.9-.6-1.6-1.2-1.6-1 0-1-.2-.1-.8 1.2-.8 2.3-12.5 2.6-29.4.1-4.2.5-7.9.9-8.3.4-.4.4-1.3.1-2.1-.3-.8.2-1.7 1.1-2 .9-.3 1.6-1 1.6-1.6 0-.5-.4-.6-1-.3-.5.3-1 .2-1-.4 0-.5.6-1.1 1.3-1.4.6-.2-.5-.7-2.6-1.1-3.7-.7-3.9-.9-3.3-3.9.3-1.8.8-5.1 1.2-7.5.5-3.3 1.2-4.4 3-4.8 2.2-.6 2.4-1.1 2.4-7.8.1-3.9.1-20.2.1-36.3.1-29.1.1-29.2 2.2-29.6l2.2-.4-2.2-.2c-2.6-.1-2.1-3.1.6-3.2 1.1 0 .8-.3-.7-1-2.4-.9-2.2-2.9.4-2.9 2.3 0 1.6-1.8-.8-2.3l-2.3-.4 2.3-.8c2.6-.9 2.9-2.2.5-2.8-1.7-.4-1.7-.5 0-.6.9 0 1.7-.4 1.8-.9.3-2.8.8-9.6 1-15 .1-3.8.6-6.2 1.3-6.2.6 0 .4-.4-.4-1-1.2-.7-1.2-1.1.3-2.8 1.7-1.9 1.7-2 0-2.4-1-.2-4-.2-6.8 0-4.8.3-5 .5-4.9 3.3 0 1.6.4 3.2.7 3.6.4.3.2 1.2-.3 1.9-.8.8-.6 1.7.5 2.8 1.2 1.2 1.3 1.6.3 1.6-.8 0-1.3 1.2-1.4 3-.1 2.3.3 3 1.7 3 1.1 0 1.9.4 1.9 1 0 .5-.9 1-2 1-2.7 0-2.5 1.6.3 2.5l2.2.8-2.2.4c-3.1.6-2.9 1.7.5 3 2.4 1 2.5 1.1.5 1.2-3.1.1-3.9 2.1-.9 2.1 1.4 0 2.6.4 2.6 1 0 .5-1.2 1-2.6 1-1.6 0-2.4.5-2.1 1.2.2.7 1.4 1.2 2.5 1 1.2-.2 2.2.1 2.2.7 0 .5-1 1.1-2.2 1.3-3 .4-3 2.2 0 2.6 2.7.4 1.9 2.2-.9 2.2-1.1 0-1.8.4-1.5.9.3.5 1.6.7 2.7.4 1.6-.4 2-.2 1.7.8-.3.8-1.3 1.4-2.3 1.4-1 0-2 .6-2.3 1.3-.3.9.4 1.1 2.2.8 1.8-.3 2.6 0 2.6 1 0 .8-1 1.4-2.5 1.4-1.4 0-2.5.4-2.5 1 0 .5 1.1 1 2.5 1s2.5.4 2.5 1c0 .5-1.1 1-2.5 1s-2.5.5-2.5 1c0 .6 1.1.8 2.5.6 1.7-.3 2.5 0 2.5 1 0 1.4-1.1 1.8-3.7 1.5-.7-.1-1.3.3-1.3.9 0 .5 1.1 1 2.5 1s2.5.4 2.5 1c0 .5-1.2 1-2.6 1-1.6 0-2.4.5-2.1 1.2.2.7 1.4 1.2 2.5 1 1.2-.2 2.2.2 2.2.7 0 .6-1.1 1.1-2.5 1.1-1.6 0-2.5.6-2.5 1.6 0 1.2.7 1.5 2.5 1.2 1.4-.3 2.5-.1 2.5.3 0 .5-1.1.9-2.5.9-2 0-2.5.5-2.6 2.7-.3 8.7-.5 9.8-1.6 9.9-.7.1-1.7.2-2.2.3-.6 0-1 .9-1 1.8-.1 5.8-.8 13.1-1.5 14.1-.4.7-.5 1.6-.2 2.1.4.5.2 2.1-.3 3.4-1.1 2.9-2.8 14.9-3.6 26.2-.4 4.4-.8 9.1-1 10.5-1.9 12.1-5.5 43.9-5.5 47.9 0 10.6-6.4 52-10 65-1.2 4.1-1.8 8.6-1.5 10.1 1.7 7.6-16.6 47.6-27 59-7.6 8.3-11.8 43.2-11 91 .4 23.5 1.7 33 5.9 42.3 1.4 3.2 2.5 6.6 2.4 7.5-.2.9.5 5.1 1.4 9.2 3.9 17.8 5.2 28.6 5 41-.2 6.9.2 15.6.7 19.5 1.3 9.3 2.4 21.8 2.4 28 0 3.1.2 4.3.7 3 .8-2.2 4 16.5 4 23.7.1 2.4.7 8.6 1.5 13.8 1.5 9.3 2.6 24.8 4.4 60l.9 17.5-.4-16c-.6-22.4-.6-55.6.1-56.3.3-.3.5 1.1.5 3 0 2 .5 3.8 1 4 3.1 1 3.8 74.2.9 99.3-1.2 10.5-1.4 13.4-1.7 25.2-.3 13-1.7 7.7-1.7-6.5 0-7.5-.3-14.8-.7-16.2-.4-1.8-.7-1.1-.7 2.6-.2 12.9-4.3 32.4-6.8 32.4-.6 0 .1-4.4 1.2-7.3.5-1.2.3-1.6-.7-1.2-1.4.6-3.7 15.5-4.3 28-.1 2.2-.5 4.7-.8 5.5-.3.8-1 6-1.6 11.5-1.8 16.7-3.7 29.3-6.9 44.5-3.5 16.8-4.1 19.8-4.5 22.5-.2 1.1-.9 3-1.6 4.3-1.7 3.2-5.3 20.1-4.5 21.3.3.6-.2 2.7-1.1 4.7-1 2.1-2.1 4.4-2.5 5.3-1.8 3.7-4.1 21.9-3.9 30.8.1 5.3-.2 11.8-.6 14.4-1 6.4 2.2 41.3 4.6 49.4 4 13.6 8.2 17.5 25.7 23.8 12 4.3 22 5.6 64.2 8.7 23.7 1.7 114.7 1.7 133.5 0 7.7-.7 21.4-1.9 30.5-2.8 18.8-1.7 41.2-6.7 50-11.2 6.1-3.1 8.2-6.3 12-19 2.4-7.6 2.2-9.4-.6-7.1-1.6 1.3-1.7 1.2-1-1.1 2.6-8.5 3.6-12.9 3.6-16 0-2.4.3-3.1.9-2.1.9 1.4 1.5-3 2.7-19.5.4-5.9.2-9.4-.4-9.8-.6-.3-1.4-.2-1.7.4-.5.8-1.1.7-2.1-.1-1.1-.9-1.5-.8-1.8.2-.8 2.6-2.6 15.8-2.6 18.8 0 3.2-1.9 4.1-4.9 2.2-1.1-.7-.9-1 .7-1.5 2.1-.7 3.9-3.6 2.2-3.6-.6 0-1-1-1-2.2 0-1.2-.4-3.5-.9-5.2-.5-1.7-1.9-9.5-3-17.4-1.9-13.2-1.9-14.5-.5-16.8 2.1-3.1 4-3 7.3.5 2.2 2.3 2.9 2.6 3.9 1.5 1.9-2.1 1.4-7.3-1.4-14.9-2.7-7.4-8.4-28.8-8.4-31.5 0-.8-.9-3.3-2.1-5.4-1.8-3.4-4.1-14.9-5.4-27.1-.2-1.7-.9-4.3-1.4-5.8-.6-1.6-1.1-4.1-1.1-5.7 0-1.5-.9-7.2-2.1-12.7-1.1-5.4-2-10.5-2-11.3 0-.8-.6-3.3-1.4-5.5-.7-2.2-1.6-6.5-1.9-9.5-.4-3-1.3-8-2.1-11-1.4-5.3-1.4-5.3-1.1-1.2.2 2.3 0 4-.5 3.6-.5-.3-.9-1.8-.9-3.4 0-1.6-.6-3.3-1.3-3.7-.9-.5-2-5.8-3.1-14.8-1-7.7-2.1-16.9-2.7-20.5-2.4-16.9-3-42.1-2.5-99 .6-62.3.9-68.4 5.6-91 1.2-5.8 3.1-13.4 4.2-16.9 2.1-6.9 7.5-18.8 8.9-19.7 1.3-.8 1.1.3-.9 4.4-2.4 4.8-5.5 15.9-4.7 17.2.3.5-.4 4.6-1.6 9.2-3 11.8-4.8 23.3-5.9 38.3-.5 7.1-1.2 15.4-1.5 18.2-.5 3.7-.3 5.3.5 5.3.9 0 1 2.6.5 9.8-.5 7.1-.3 9.3.5 8.2.8-1.1.9.6.4 6.5-.4 4.4-.4 7.8-.1 7.5.3-.3 1.5-10 2.7-21.5 1.2-11.6 2.8-23.3 3.5-26 1.7-6.1 5.5-36.3 3.9-31.2-.3.9-1 1.5-1.5 1.2-.5-.4-.3-1.8.5-3.3 1.5-2.9 2.8-11.3 3.1-19.7.2-5.7 2-17.8 3.4-23.3.5-2 1.3-6.8 1.7-10.5.3-3.8 1.7-10.8 3-15.5 7-25.1 6.8-23.9 6.9-59.2 0-35.5-.7-51.6-2.8-62.7-.8-4.3-1-7-.4-6.6.6.4.7-.3.3-1.8-.5-1.3-.8-3.2-.9-4.2-.1-.9-.7-1.7-1.4-1.7-1.5 0-3.3-3.2-3.3-5.7 0-1.5.4-1.4 2 .7 2 2.5 2 2.5 0-2.3-1.1-2.7-2-5.3-2-5.8 0-.4-1.1-3.4-2.5-6.6-1.8-4-2.9-5.4-3.4-4.4-.6 1-1 .9-1.5-.4-.3-.9-1-1.3-1.6-1-.5.3-1 .2-1-.4 0-.5-1.3-2.9-2.9-5.3-5.2-7.8-14.1-31.9-14.1-38.5 0-1.7-.4-3.4-.9-3.7-.4-.3-1.1-2.7-1.4-5.3-.4-2.7-1.5-8.9-2.7-13.8-2.4-10.6-7-45.7-7-53.4 0-3-.9-13.4-2-23-3.1-28.1-6.7-65-10-101.1-1.6-18.4-3.2-34.6-3.5-36-.5-2.5-1.2-11.8-1.9-24.5-.2-3.8-.8-7-1.2-7.2-1.9-.6-95-.8-114.9-.2zm74.3 77c.4 3.4-2.4 5.8-7.9 6.5-5.1.6-8.6-1.2-7.6-4 .9-2.3 8.5-5.7 12.2-5.4 2.4.2 3.1.8 3.3 2.9zm-38.8 6.8c1.4 1 3.4 3.4 4.5 5.3 1.7 3.3 1.8 4.3.8 11.2-1.3 9.6-6.7 21-12.3 26.5-4.7 4.5-13.2 9.1-16.9 9.1-8.4 0-15.7-5.9-18.1-14.5-2.5-9 .8-17.6 10.6-27.2 12.5-12.2 23.6-15.9 31.4-10.4zm56.7-1.3c.3.8-.4 2.5-1.7 4-1.8 1.9-3.3 2.4-6.9 2.4-5.9 0-8-1.3-6.5-3.7 1.7-2.7 5.4-4.3 10.2-4.3 2.9 0 4.4.5 4.9 1.6zm-23.9 7.5c.2.9-1.3 3.9-3.1 6.8-1.9 2.9-4.5 8-5.6 11.4-6.4 18-12.9 29.4-20.8 36.1-4.9 4.3-8.1 5.6-13.4 5.6-6.8 0-11.4-6.5-7.1-10.2 3.3-2.9 6.3-4.1 7.5-2.9.6.6 2.3 1.1 3.8 1.1 3.6 0 8.5-5.8 10.4-12.5.8-2.8 2.4-8.4 3.6-12.5 1.1-4.1 3-9 4.1-10.8 2-3.3 1.8-5.6-.4-3.4-.7.7-1.8 1.2-2.5 1.2-1.8 0-1.7-6.4.2-8 4.6-3.8 22.6-5.3 23.3-1.9zm17.1 3.8c1.2.8.5 3-3.9 12.3-2.9 6.2-6.5 14.7-7.9 18.8-2.4 6.9-2.9 7.5-5.7 7.8-4.5.4-6.7-2.5-6.6-9 .1-9.6 7.8-27.9 12.5-29.8 2.9-1.2 9.8-1.2 11.6-.1zM447.6 401c.6 6.3 1.7 14.2 2.3 17.4 1.3 7.2 1.4 14.3.2 15-1.6 1-1.7.3-7-37.6-.8-6.2-.6-7 1.8-6.6 1.2.3 1.8 2.9 2.7 11.8zm-12.9-4.3c-.2 1.6-.4.5-.4-2.2 0-2.8.2-4 .4-2.8.2 1.3.2 3.5 0 5zM218 723.4c0 2.6-.6 1.8-1.4-1.9-.5-2.2-.4-2.6.4-1.5.5.8 1 2.4 1 3.4zm4.9 31c.1 5.4-.5 4.2-1.2-2.4-.4-3.6-.3-4.8.3-3.5.5 1.1.9 3.8.9 5.9zm.8 9.3c-.3 1-.5.4-.5-1.2 0-1.7.2-2.4.5-1.8.2.7.2 2.1 0 3zm250 9.5c-.3.8-.6.5-.6-.6-.1-1.1.2-1.7.5-1.3.3.3.4 1.2.1 1.9zm-248 25c-.3.7-.5.2-.5-1.2s.2-1.9.5-1.3c.2.7.2 1.9 0 2.5zm245 6c-.3.7-.5.2-.5-1.2s.2-1.9.5-1.3c.2.7.2 1.9 0 2.5zm-13 130.5c-.2 1.6-.4.3-.4-2.7s.2-4.3.4-2.8c.2 1.6.2 4 0 5.5zm1 10c-.3 1-.5.2-.5-1.7s.2-2.7.5-1.8c.2 1 .2 2.6 0 3.5zm-234 5.5c-.3.7-.5.2-.5-1.2s.2-1.9.5-1.3c.2.7.2 1.9 0 2.5zM476.9 980c0 .9-.4.8-.9-.5-.5-1.1-.9-2.7-.9-3.5 0-.9.4-.8.9.5.5 1.1.9 2.7.9 3.5zm7.9 125.5c0 1.6-.2 1.5-.8-.5-.4-1.4-.8-3.6-.8-5 0-2.2.1-2.2.8.5.4 1.6.8 3.9.8 5zm16 55.7c.3 2.7-3.1 10.7-5.2 12-.6.4-2.1.8-3.3.8-2.9 0-3.1-3-.3-5.5 1.1-1 2-2.4 2-3 0-.7.7-1.8 1.5-2.5s1.5-2.1 1.5-3.2c0-3.1 3.4-1.8 3.8 1.4zm-17.8 5.2c0 .3-.4.8-1 1.1-.5.3-1 .1-1-.4 0-.6.5-1.1 1-1.1.6 0 1 .2 1 .4zM206.5 1184c.3.5.2 1-.4 1-.5 0-1.3-.5-1.6-1-.3-.6-.2-1 .4-1 .5 0 1.3.4 1.6 1zm277.5 2.5c-1.9.7-4.8 1.3-6.5 1.3h-3l3-1.3c1.7-.8 4.6-1.4 6.5-1.4l3.5.1-3.5 1.3zm-242.2 18.6c1.7.5.3.6-3.8.2-3.6-.3-7.6-1-9-1.4-1.5-.5 0-.6 3.8-.3 3.5.4 7.6 1 9 1.5z" fill="rgba(0, 0, 0, 1)" stroke="none"/>
  <path d="M332.2 299c-8 12.5-9.9 17.1-8.4 20.5 4 8.7 19.2-5.8 19.2-18.4 0-4-2.7-12.1-4-12-.3 0-3.3 4.4-6.8 9.9z" fill="rgba(0, 0, 0, 1)" stroke="none"/>
  <path d="M259 270c0 .5.5 1 1 1 .6 0 1-.5 1-1 0-.6-.4-1-1-1-.5 0-1 .4-1 1z" fill="rgba(0, 0, 0, 1)" stroke="none"/>
  <path d="M258.8 278.7c.7.3 1.6.2 1.9-.1.4-.3-.2-.6-1.3-.5-1.1 0-1.4.3-.6.6z" fill="rgba(0, 0, 0, 1)" stroke="none"/>
  <path d="M287.5 314.2c-1.3 2-1.4 2.3-.1 2.6 2.4.5 5.6-1.7 5-3.3-.9-2.2-3.1-1.8-4.9.7z" fill="rgba(0, 0, 0, 1)" stroke="none"/>
  <path d="M412.7 406.7c.2 8.2.8 17 1.2 19.8.7 3.6.8 1.3.6-8.5-.2-7.4-.4-16.3-.4-19.8-.1-3.4-.5-6.2-.9-6.2-.5 0-.7 6.6-.5 14.7z" fill="rgba(0, 0, 0, 1)" stroke="none"/>
  <path d="M253.6 563.2c-1.9 18.1-1.6 64.7.7 86.6.8 8.2 1.5 5.2 1.6-7.5.2-18.9.9-37.1 1.8-46.5 1.6-16.3.1-38.8-2.6-38.8-.4 0-1.1 2.8-1.5 6.2z" fill="rgba(0, 0, 0, 1)" stroke="none"/>
  <path d="M500.3 601c0 2.5.2 3.5.4 2.2.2-1.2.2-3.2 0-4.5-.2-1.2-.4-.2-.4 2.3z" fill="rgba(0, 0, 0, 1)" stroke="none"/>
  <path d="M499 623.5c0 1.9.2 3.5.4 3.5s.6-1.6.8-3.5c.2-1.9 0-3.5-.4-3.5s-.8 1.6-.8 3.5z" fill="rgba(0, 0, 0, 1)" stroke="none"/>
  <path d="M214.6 780.5c.3 6 .9 15.8 1.4 21.7 1.7 20.1 2.3 79.2 1.1 107.3-.7 14.8-1.4 27.8-1.7 28.7-.3 1-.1 1.8.4 1.8.9 0 1.8-4.1 3.8-17 1.7-10.6 2-90.3.4-107.5-.6-6.6-1.5-16.7-2.1-22.5-.5-5.8-1.6-13.4-2.4-17l-1.4-6.5.5 11z" fill="rgba(0, 0, 0, 1)" stroke="none"/>
  <path d="M480 790.3c0 1.5-.4 2.7-.8 2.7-2.4 0-5.1 39.9-5.2 74.5 0 23.7 1.8 53 4 63.3l1.9 8.7-.7-21c-1-29.4-.5-101.5.8-116.9.6-7.1.8-13.1.5-13.4-.3-.3-.5.7-.5 2.1z" fill="rgba(0, 0, 0, 1)" stroke="none"/>
  <path d="M469.1 825.6c0 1.1.3 1.4.6.6.3-.7.2-1.6-.1-1.9-.3-.4-.6.2-.5 1.3z" fill="rgba(0, 0, 0, 1)" stroke="none"/>
  <path d="M469.3 833c0 2.5.2 3.5.4 2.2.2-1.2.2-3.2 0-4.5-.2-1.2-.4-.2-.4 2.3z" fill="rgba(0, 0, 0, 1)" stroke="none"/>
  <path d="M224.3 897.5c0 4.4.2 6.1.4 3.7.2-2.3.2-5.9 0-8-.2-2-.4-.1-.4 4.3z" fill="rgba(0, 0, 0, 1)" stroke="none"/>
  <path d="M473.2 951c0 1.4.2 1.9.5 1.2.2-.6.2-1.8 0-2.5-.3-.6-.5-.1-.5 1.3z" fill="rgba(0, 0, 0, 1)" stroke="none"/>
  <path d="M508.2 1111c0 1.4.2 1.9.5 1.2.2-.6.2-1.8 0-2.5-.3-.6-.5-.1-.5 1.3z" fill="rgba(0, 0, 0, 1)" stroke="none"/>
  <path d="M453.6 1121.6c-.4 1-.2 2.2.3 2.7.7.7 1.3.5 1.7-.7.4-1 .2-2.2-.3-2.7-.7-.7-1.3-.5-1.7.7z" fill="rgba(0, 0, 0, 1)" stroke="none"/>
  <path d="M330.4 1135.1c-.3.5.6.9 2 .9 3.1 0 3.4-.6.6-1.3-1.1-.3-2.3-.1-2.6.4z" fill="rgba(0, 0, 0, 1)" stroke="none"/>
  <path d="M254.5 1172.9c-1.1.5-1.8 1-1.5 1.1 1 .3 7.7 1 19.3 1.9 6.5.5 12.1 1.2 12.5 1.6.4.4-2.9.5-7.3.1-22.9-1.7-28-1.8-26.9-.7 1.2 1.3 64.2 3.8 67.1 2.6 1-.3 9.9-.6 19.8-.6s20.7-.4 24-.7c3.3-.4 8.7-.3 12 .2 6.2.9 44.9.9 49.8 0 4.1-.8 3.2-2.5-1-2-2.1.3-9 .7-15.3 1-15.2.5-8.4-.8 12.5-2.6 13.7-1.1 15.1-1.4 10-1.8-3.3-.3-11.6-.2-18.5.3-12.4.9-50 1.2-63.5.5-3.8-.2-8 0-9.2.4-1.4.4-2.3.3-2.3-.2 0-.6-1.1-.8-2.4-.4-1.3.3-2.7.1-3-.5-1-1.5-3.6-1.4-6.9.4-2.2 1.1-6.2 1.3-20.5.9-9.7-.2-19.7-.6-22.2-.8-16.5-1.3-24.8-1.5-26.5-.7zm45.5 4.1c0 .5-1 1-2.2 1-1.9 0-2-.2-.8-1 1.9-1.3 3-1.3 3 0zm14 .9c4.4.8 4.4.9-2.2 1-3.7 0-7-.4-7.3-.9-.7-1.2 3.1-1.2 9.5-.1zm80.3-.2c-.7.2-2.1.2-3 0-1-.3-.4-.5 1.2-.5 1.7 0 2.4.2 1.8.5zm-7 1c-1.3.2-3.3.2-4.5 0-1.3-.2-.3-.4 2.2-.4s3.5.2 2.3.4z" fill="rgba(0, 0, 0, 1)" stroke="none"/>
  <path d="M436 1174c0 1.3 2 1.3 4 0 1.2-.8.9-1-1.2-1-1.6 0-2.8.4-2.8 1z" fill="rgba(0, 0, 0, 1)" stroke="none"/>
  <path d="M366.3 1179.7c.9.2 2.5.2 3.5 0 .9-.3.1-.5-1.8-.5-1.9 0-2.7.2-1.7.5z" fill="rgba(0, 0, 0, 1)" stroke="none"/>
  <path d="M265.5 1186.1c2.2.4 4.5.4 5.2.2.7-.3 1.3-.1 1.3.4 0 .6 24.9.9 67.3.6 36.9-.2 68.9-.3 70.9-.3s3.9-.4 4.2-.8c.2-.4-34.1-.7-76.2-.7-42.2 0-74.9.3-72.7.6z" fill="rgba(0, 0, 0, 1)" stroke="none"/>
  <path d="M437.8 1185.7c.7.3 1.6.2 1.9-.1.4-.3-.2-.6-1.3-.5-1.1 0-1.4.3-.6.6z" fill="rgba(0, 0, 0, 1)" stroke="none"/>
  <path d="M230.8 1187.7c.7.3 1.6.2 1.9-.1.4-.3-.2-.6-1.3-.5-1.1 0-1.4.3-.6.6z" fill="rgba(0, 0, 0, 1)" stroke="none"/>
  <path d="M280.8 1192.7c.7.3 1.6.2 1.9-.1.4-.3-.2-.6-1.3-.5-1.1 0-1.4.3-.6.6z" fill="rgba(0, 0, 0, 1)" stroke="none"/>
  <path d="M336.3 1192.7c2 .2 5.4.2 7.5 0 2-.2.3-.4-3.8-.4s-5.8.2-3.7.4z" fill="rgba(0, 0, 0, 1)" stroke="none"/>
  <path d="M242.8 1193.7c.7.3 1.6.2 1.9-.1.4-.3-.2-.6-1.3-.5-1.1 0-1.4.3-.6.6z" fill="rgba(0, 0, 0, 1)" stroke="none"/>
</svg>
</g></svg></g></g>
<!-- /image 42839 -->
</defs><rect x="0" y="0" width="250" height="300" fill="rgba(255, 220, 73, 1)"></rect><use xlink:href="#transformed-42839" transform="translate(-250, -300)"></use><use xlink:href="#transformed-42839" transform="translate(0, -300)"></use><use xlink:href="#transformed-42839" transform="translate(250, -300)"></use><use xlink:href="#transformed-42839" transform="translate(-250, 0)"></use><use xlink:href="#transformed-42839" transform="translate(0, 0)"></use><use xlink:href="#transformed-42839" transform="translate(250, 0)"></use><use xlink:href="#transformed-42839" transform="translate(-250, 300)"></use><use xlink:href="#transformed-42839" transform="translate(0, 300)"></use><use xlink:href="#transformed-42839" transform="translate(250, 300)"></use></svg>