<?xml version="1.0" standalone="no"?>
<!DOCTYPE svg PUBLIC "-//W3C//DTD SVG 20010904//EN"
 "http://www.w3.org/TR/2001/REC-SVG-20010904/DTD/svg10.dtd">
<svg version="1.0" xmlns="http://www.w3.org/2000/svg"
 width="122.000000pt" height="121.000000pt" viewBox="0 0 122.000000 121.000000"
 preserveAspectRatio="xMidYMid meet">

<g transform="translate(0.000000,121.000000) scale(0.100000,-0.100000)"
fill="#000000" stroke="none">
<path d="M525 1149 c-54 -9 -134 -36 -150 -51 -5 -5 15 0 45 12 30 12 98 28
150 35 57 8 77 13 50 13 -25 0 -67 -4 -95 -9z"/>
<path d="M683 1143 c9 -2 23 -2 30 0 6 3 -1 5 -18 5 -16 0 -22 -2 -12 -5z"/>
<path d="M740 1133 c75 -25 103 -32 95 -24 -13 11 -74 31 -94 30 -13 0 -14 -1
-1 -6z"/>
<path d="M540 1081 c0 -11 6 -21 13 -24 8 -3 4 -11 -12 -26 -25 -22 -22 -25
15 -15 19 5 20 9 10 45 -11 41 -26 53 -26 20z"/>
<path d="M593 1055 c0 -27 2 -38 4 -22 2 15 2 37 0 50 -2 12 -4 0 -4 -28z"/>
<path d="M670 1073 c-6 -15 -13 -34 -15 -41 -9 -24 -30 -7 -37 29 -6 34 -6 34
-5 -6 2 -35 5 -40 27 -40 17 0 26 7 31 25 6 23 7 23 8 3 2 -41 21 -36 21 6 0
49 -16 62 -30 24z"/>
<path d="M298 1055 c-25 -18 -49 -40 -54 -47 -4 -7 4 -4 17 8 13 12 42 33 64
48 22 14 35 26 30 26 -6 0 -31 -16 -57 -35z"/>
<path d="M501 1068 c-1 -15 4 -30 9 -33 12 -7 12 12 0 40 -8 18 -9 17 -9 -7z"/>
<path d="M722 1067 c-7 -16 -12 -36 -11 -45 0 -14 2 -13 9 3 8 19 9 19 9 -2 1
-30 17 -29 25 1 3 13 8 32 12 43 3 10 -1 7 -9 -7 l-15 -25 -4 30 -4 30 -12
-28z"/>
<path d="M427 1063 c-2 -5 5 -21 15 -38 11 -16 17 -21 13 -10 -5 11 -8 28 -9
38 0 17 -11 23 -19 10z"/>
<path d="M773 1036 c-13 -27 -14 -39 -5 -48 12 -12 42 5 42 25 0 6 -6 2 -14
-9 -20 -27 -28 -13 -15 24 11 32 23 40 32 22 3 -6 4 -5 3 2 -5 26 -26 18 -43
-16z"/>
<path d="M480 1032 c0 -11 4 -23 8 -26 10 -6 9 30 -1 40 -4 4 -7 -2 -7 -14z"/>
<path d="M985 1002 c17 -17 32 -29 34 -26 6 6 -20 34 -43 46 -15 8 -12 2 9
-20z"/>
<path d="M387 1014 c-8 -8 1 -24 14 -24 5 0 9 7 9 15 0 15 -12 20 -23 9z"/>
<path d="M348 986 c12 -16 22 -33 22 -37 0 -19 -19 -7 -39 24 -12 19 -21 25
-21 16 0 -9 9 -24 20 -34 11 -10 20 -23 20 -28 0 -6 -14 2 -31 19 -21 20 -28
23 -23 10 6 -16 4 -17 -17 -11 -24 7 -24 7 4 -22 37 -39 34 -49 -7 -24 -18 12
-36 21 -40 21 -16 0 -3 -29 24 -55 23 -22 30 -25 30 -12 0 9 7 17 15 17 19 0
19 24 0 40 -21 17 -12 24 14 10 26 -14 61 3 61 29 0 9 -12 28 -27 42 l-27 24
22 -29z m-68 -108 c0 -6 -6 -5 -15 2 -8 7 -15 14 -15 16 0 2 7 1 15 -2 8 -4
15 -11 15 -16z"/>
<path d="M836 1003 c-11 -11 -6 -23 9 -23 8 0 15 4 15 9 0 13 -16 22 -24 14z"/>
<path d="M896 992 c-3 -9 -13 -27 -22 -39 -25 -34 -12 -27 23 11 21 24 26 36
18 40 -7 2 -16 -3 -19 -12z"/>
<path d="M498 966 c-54 -19 -120 -60 -148 -93 -14 -15 -18 -22 -10 -15 8 7 41
12 76 12 53 0 64 3 69 19 3 10 11 18 18 18 7 -1 29 7 50 18 32 16 40 17 47 5
5 -8 6 -18 4 -22 -3 -4 2 -8 10 -8 9 0 16 -6 16 -14 0 -12 25 -15 131 -18
l131 -3 -42 37 c-61 54 -133 78 -233 78 -45 -1 -98 -7 -119 -14z"/>
<path d="M930 965 c-7 -8 -9 -22 -6 -31 4 -9 1 -22 -4 -30 -9 -9 -6 -15 10
-24 11 -6 18 -15 15 -21 -4 -5 -1 -9 5 -9 6 0 8 -4 5 -10 -10 -16 5 -12 41 11
19 11 34 25 34 30 0 6 -13 1 -29 -10 -42 -30 -46 -26 -15 14 28 38 20 44 -26
20 -36 -18 -38 -10 -7 24 12 14 14 19 4 12 -23 -18 -32 -8 -17 18 13 24 8 27
-10 6z m45 -75 c-3 -5 -11 -10 -16 -10 -6 0 -7 5 -4 10 3 6 11 10 16 10 6 0 7
-4 4 -10z"/>
<path d="M1074 896 c22 -35 43 -63 44 -61 5 4 -64 111 -76 119 -5 3 9 -23 32
-58z"/>
<path d="M150 900 c-6 -11 -8 -20 -6 -20 3 0 10 9 16 20 6 11 8 20 6 20 -3 0
-10 -9 -16 -20z"/>
<path d="M111 829 c-6 -18 -9 -34 -7 -36 2 -2 9 10 15 28 6 18 9 34 7 36 -2 2
-9 -10 -15 -28z"/>
<path d="M190 855 c0 -2 18 -14 39 -25 29 -14 42 -17 47 -8 4 6 3 8 -3 5 -5
-3 -22 3 -39 14 -28 19 -44 24 -44 14z"/>
<path d="M1003 839 c-18 -12 -33 -24 -33 -29 0 -4 11 -19 25 -34 l25 -27 30
21 c37 26 37 30 3 29 -24 0 -25 -2 -9 -8 19 -7 19 -8 1 -15 -10 -3 -21 -3 -24
2 -3 5 -15 12 -26 16 -20 7 -20 8 1 24 12 9 30 22 40 29 11 6 15 12 9 12 -5 0
-25 -9 -42 -20z"/>
<path d="M210 810 c46 -25 63 -25 25 0 -16 11 -37 20 -45 20 -8 -1 1 -9 20
-20z"/>
<path d="M1122 815 c0 -5 6 -26 13 -45 7 -19 14 -28 14 -20 0 8 -6 29 -14 45
-7 17 -13 26 -13 20z"/>
<path d="M162 789 c2 -5 18 -19 36 -30 27 -18 32 -19 32 -5 0 9 6 16 13 16 20
1 -14 17 -51 24 -22 4 -32 2 -30 -5z m58 -19 c0 -5 -4 -10 -9 -10 -6 0 -13 5
-16 10 -3 6 1 10 9 10 9 0 16 -4 16 -10z"/>
<path d="M1065 750 c-19 -8 -19 -9 3 -9 12 -1 22 4 22 9 0 6 -1 10 -2 9 -2 0
-12 -4 -23 -9z"/>
<path d="M81 734 c0 -11 3 -14 6 -6 3 7 2 16 -1 19 -3 4 -6 -2 -5 -13z"/>
<path d="M251 715 c-12 -44 -15 -154 -5 -204 l7 -31 132 0 c131 0 133 0 149
25 21 32 14 107 -14 146 -11 16 -16 35 -13 52 l5 27 -120 0 c-87 0 -122 3
-125 13 -2 6 -9 -6 -16 -28z"/>
<path d="M960 743 c0 -9 -21 -13 -70 -13 l-70 0 0 -35 c0 -28 -4 -36 -24 -41
-14 -3 -29 -3 -35 0 -15 9 -59 -11 -70 -32 -8 -14 -5 -28 9 -54 12 -23 15 -40
9 -49 -7 -11 -9 -9 -9 9 0 12 -5 22 -11 22 -7 0 -17 6 -23 14 -6 7 -25 16 -42
19 -25 5 -33 2 -37 -11 -3 -9 -12 -34 -21 -54 l-16 -38 215 0 c118 0 215 1
215 3 0 1 5 29 10 62 7 41 6 79 -1 120 -10 57 -28 105 -29 78z"/>
<path d="M1151 704 c0 -11 3 -14 6 -6 3 7 2 16 -1 19 -3 4 -6 -2 -5 -13z"/>
<path d="M72 680 c0 -19 2 -27 5 -17 2 9 2 25 0 35 -3 9 -5 1 -5 -18z"/>
<path d="M190 700 c8 -5 20 -10 25 -10 6 0 3 5 -5 10 -8 5 -19 10 -25 10 -5 0
-3 -5 5 -10z"/>
<path d="M1022 679 c-1 -29 0 -30 41 -27 30 2 43 8 45 21 3 14 -4 17 -38 17
-25 0 -39 4 -35 10 3 6 2 10 -3 10 -5 0 -9 -14 -10 -31z m78 -9 c0 -5 -16 -10
-36 -10 -21 0 -33 4 -29 10 3 6 19 10 36 10 16 0 29 -4 29 -10z"/>
<path d="M130 669 c0 -5 5 -7 10 -4 6 3 10 8 10 11 0 2 -4 4 -10 4 -5 0 -10
-5 -10 -11z"/>
<path d="M173 663 c9 -2 25 -2 35 0 9 3 1 5 -18 5 -19 0 -27 -2 -17 -5z"/>
<path d="M1163 590 c0 -36 2 -50 4 -32 2 17 2 47 0 65 -2 17 -4 3 -4 -33z"/>
<path d="M157 624 c-8 -8 1 -24 14 -24 5 0 9 7 9 15 0 15 -12 20 -23 9z"/>
<path d="M1050 600 c0 -5 9 -10 21 -10 11 0 17 5 14 10 -3 6 -13 10 -21 10 -8
0 -14 -4 -14 -10z"/>
<path d="M184 566 c-18 -14 -18 -15 4 -13 12 1 22 7 22 14 0 16 -2 16 -26 -1z"/>
<path d="M73 535 c0 -22 2 -30 4 -17 2 12 2 30 0 40 -3 9 -5 -1 -4 -23z"/>
<path d="M138 553 c7 -3 16 -2 19 1 4 3 -2 6 -13 5 -11 0 -14 -3 -6 -6z"/>
<path d="M1018 554 c-13 -13 -9 -34 7 -34 9 0 12 6 8 17 -5 13 -2 15 18 10 13
-4 30 -7 37 -7 25 0 11 -20 -15 -21 -26 -2 -26 -2 -4 -6 28 -6 50 12 35 27
-14 14 -77 24 -86 14z"/>
<path d="M150 520 l-25 -8 25 0 c14 0 34 3 45 8 l20 9 -20 -1 c-11 0 -31 -4
-45 -8z"/>
<path d="M1033 490 c26 -21 52 -26 61 -11 3 4 -12 13 -33 20 -53 15 -58 14
-28 -9z"/>
<path d="M158 493 c-10 -2 -18 -8 -18 -13 0 -8 13 -5 70 13 19 7 -29 6 -52 0z"/>
<path d="M81 474 c0 -11 3 -14 6 -6 3 7 2 16 -1 19 -3 4 -6 -2 -5 -13z"/>
<path d="M1000 480 c0 -12 44 -30 68 -29 9 1 2 6 -15 11 -18 6 -33 15 -33 19
0 5 -4 9 -10 9 -5 0 -10 -5 -10 -10z"/>
<path d="M167 463 c-9 -2 -15 -9 -12 -14 4 -5 14 -5 26 2 12 6 23 8 26 5 3 -3
-6 -10 -21 -15 -14 -6 -26 -15 -26 -20 0 -5 18 0 40 12 22 12 40 25 40 30 0 7
-43 8 -73 0z"/>
<path d="M91 440 c0 -8 4 -22 9 -30 12 -18 12 -2 0 25 -6 13 -9 15 -9 5z"/>
<path d="M982 439 c3 -8 16 -13 32 -11 14 1 26 -2 26 -7 0 -6 -8 -8 -17 -5
-13 4 -12 1 4 -13 26 -21 17 -50 -13 -39 -17 5 -17 5 1 -9 18 -14 20 -13 32 7
7 13 10 31 7 41 -4 12 0 17 13 18 16 0 16 1 -2 8 -11 5 -35 12 -54 16 -26 5
-32 4 -29 -6z"/>
<path d="M195 410 c-38 -25 -21 -25 25 0 19 11 28 19 20 20 -8 0 -28 -9 -45
-20z"/>
<path d="M1102 362 c-18 -37 -25 -58 -16 -47 17 21 56 106 52 111 -2 1 -18
-27 -36 -64z"/>
<path d="M213 389 c-18 -12 -30 -25 -27 -31 3 -5 11 -3 17 5 7 8 23 21 37 31
36 24 11 19 -27 -5z"/>
<path d="M960 386 c0 -2 7 -7 16 -10 8 -3 12 -2 9 4 -6 10 -25 14 -25 6z"/>
<path d="M125 350 c9 -16 18 -30 21 -30 2 0 -2 14 -11 30 -9 17 -18 30 -21 30
-2 0 2 -13 11 -30z"/>
<path d="M269 365 c-1 -3 -2 -8 -3 -12 -1 -5 -5 -14 -9 -20 -5 -7 -5 -13 -1
-13 8 0 33 32 34 43 0 8 -19 10 -21 2z"/>
<path d="M980 345 c19 -14 36 -25 39 -25 10 1 -53 50 -63 50 -6 0 5 -11 24
-25z"/>
<path d="M234 344 c-7 -3 -10 -14 -7 -24 8 -28 21 -25 19 5 0 14 -1 25 -1 24
0 0 -5 -3 -11 -5z"/>
<path d="M363 322 c12 -13 51 -37 86 -55 61 -30 73 -32 171 -32 96 0 110 3
162 29 31 16 67 39 79 52 l22 24 -24 0 c-13 0 -72 3 -130 6 -112 7 -143 -3
-92 -28 16 -7 28 -20 28 -28 0 -21 -36 -25 -47 -6 -5 9 -19 16 -31 16 -13 0
-26 9 -32 23 -9 21 -16 22 -112 22 l-102 0 22 -23z"/>
<path d="M280 311 c-14 -14 -21 -23 -16 -18 18 13 27 7 16 -12 -16 -30 -12
-36 10 -16 11 10 18 20 15 23 -2 3 0 13 5 23 16 29 -3 29 -30 0z"/>
<path d="M945 318 c3 -12 11 -29 20 -37 13 -14 15 -13 15 2 0 9 6 17 13 17 12
0 -32 39 -45 40 -4 0 -5 -10 -3 -22z m25 -8 c0 -5 -2 -10 -4 -10 -3 0 -8 5
-11 10 -3 6 -1 10 4 10 6 0 11 -4 11 -10z"/>
<path d="M909 302 c12 -22 11 -23 -8 -17 -28 9 -27 4 11 -31 18 -16 26 -21 19
-11 -18 23 -7 34 15 16 16 -13 16 -12 7 6 -6 11 -21 29 -34 40 l-22 20 12 -23z"/>
<path d="M315 300 c-4 -6 1 -7 11 -3 15 6 15 2 -4 -24 -26 -37 -28 -53 -6 -53
17 0 53 38 54 57 0 7 -9 17 -19 23 -24 12 -28 13 -36 0z m26 -53 c-29 -30 -39
-12 -10 19 14 15 25 20 27 14 3 -7 -5 -21 -17 -33z"/>
<path d="M857 283 c-8 -13 32 -77 41 -68 3 3 -2 13 -10 22 -9 10 -18 27 -20
38 -2 14 -6 16 -11 8z"/>
<path d="M1045 270 c-10 -11 -14 -20 -9 -20 5 0 15 9 22 20 7 11 11 20 9 20
-2 0 -12 -9 -22 -20z"/>
<path d="M202 240 c19 -21 47 -49 64 -61 16 -12 2 5 -31 39 -68 71 -82 80 -33
22z"/>
<path d="M428 200 c-9 -22 -13 -40 -9 -40 3 0 13 15 21 33 7 17 15 35 18 40 2
4 0 7 -5 7 -4 0 -16 -18 -25 -40z"/>
<path d="M372 219 c2 -6 8 -10 13 -10 5 0 11 4 13 10 2 6 -4 11 -13 11 -9 0
-15 -5 -13 -11z"/>
<path d="M748 218 c-25 -20 -30 -52 -13 -74 15 -18 16 -16 11 26 l-5 45 16
-37 c17 -40 20 -43 41 -29 11 7 11 15 -2 45 -16 39 -24 43 -48 24z m39 -28 c7
-18 7 -32 2 -36 -8 -5 -29 35 -29 57 0 20 16 7 27 -21z"/>
<path d="M820 215 c0 -9 5 -15 11 -13 6 2 11 8 11 13 0 5 -5 11 -11 13 -6 2
-11 -4 -11 -13z"/>
<path d="M971 193 c-24 -20 -71 -51 -104 -70 -34 -19 -51 -31 -37 -27 31 8
149 85 174 113 29 32 14 25 -33 -16z"/>
<path d="M467 198 c-4 -14 -10 -34 -13 -45 -5 -16 -4 -16 11 2 14 17 17 18 25
5 8 -13 10 -12 10 3 0 9 -4 17 -9 17 -5 0 -11 10 -13 23 -3 21 -4 21 -11 -5z"/>
<path d="M537 204 c-4 -4 -4 -17 -1 -29 4 -15 0 -24 -10 -28 -9 -4 -16 -12
-16 -18 0 -9 3 -9 14 0 11 9 15 9 19 -1 3 -7 6 8 6 35 1 48 0 52 -12 41z"/>
<path d="M696 183 c15 -60 22 -68 20 -24 -1 25 -8 47 -15 49 -8 3 -10 -4 -5
-25z"/>
<path d="M576 185 c-3 -9 -5 -31 -5 -48 1 -27 3 -24 9 13 8 48 6 61 -4 35z"/>
<path d="M604 161 c1 -30 6 -46 16 -48 10 -3 11 -2 3 4 -6 4 -13 26 -16 48 -4
40 -4 40 -3 -4z"/>
<path d="M650 166 c0 -26 5 -35 21 -39 18 -5 20 -2 13 26 -8 39 -12 47 -25 47
-5 0 -9 -15 -9 -34z m17 -18 c-3 -7 -5 -2 -5 12 0 14 2 19 5 13 2 -7 2 -19 0
-25z"/>
<path d="M370 116 c0 -9 61 -38 67 -32 3 3 -7 10 -22 16 -15 6 -32 13 -36 16
-5 3 -9 3 -9 0z"/>
<path d="M483 69 c31 -18 187 -21 247 -5 50 14 51 14 10 8 -58 -9 -184 -9
-235 0 -29 5 -35 4 -22 -3z"/>
</g>
</svg>
