<?xml version="1.0" standalone="no"?>
<!DOCTYPE svg PUBLIC "-//W3C//DTD SVG 20010904//EN"
 "http://www.w3.org/TR/2001/REC-SVG-20010904/DTD/svg10.dtd">
<svg version="1.0" xmlns="http://www.w3.org/2000/svg"
 width="500.000000pt" height="500.000000pt" viewBox="0 0 500.000000 500.000000"
 preserveAspectRatio="xMidYMid meet">

<g transform="translate(0.000000,500.000000) scale(0.100000,-0.100000)"
fill="#000000" stroke="none">
<path d="M2340 4430 c-387 -33 -778 -192 -1071 -436 -105 -87 -262 -254 -333
-353 -184 -257 -287 -510 -351 -861 -24 -131 -24 -418 0 -555 61 -351 175
-622 376 -891 267 -358 701 -635 1124 -718 187 -37 218 -40 410 -41 229 0 330
13 536 71 653 184 1175 724 1339 1384 45 184 55 269 55 480 0 187 -3 216 -41
405 -111 559 -529 1085 -1059 1334 -300 141 -665 208 -985 181z m286 -50 c350
-27 629 -122 919 -315 439 -292 732 -754 816 -1285 18 -111 18 -439 0 -550
-119 -758 -659 -1357 -1395 -1550 -164 -42 -271 -55 -471 -55 -241 1 -414 29
-631 106 -574 203 -1020 683 -1182 1274 -51 188 -57 239 -56 510 0 237 2 256
28 370 87 378 242 669 495 929 323 331 752 533 1206 565 66 4 125 9 131 10 6
0 69 -3 140 -9z"/>
<path d="M2258 4319 c-385 -53 -752 -231 -1035 -502 -243 -233 -432 -568 -509
-902 -72 -315 -56 -674 46 -985 42 -130 166 -375 248 -490 82 -115 278 -316
387 -396 302 -223 611 -338 974 -364 447 -32 866 92 1234 364 168 124 370 352
480 542 332 575 324 1295 -21 1863 -225 371 -585 659 -992 791 -202 66 -305
82 -540 86 -113 1 -235 -2 -272 -7z m234 -156 c11 -31 15 -33 60 -33 26 0 48
-4 48 -9 0 -5 -16 -23 -37 -40 l-36 -30 17 -46 c10 -25 16 -49 13 -51 -5 -5
-45 14 -79 38 -14 10 -22 8 -46 -15 -35 -33 -56 -35 -49 -4 19 84 20 80 -24
110 -48 33 -43 44 21 49 44 3 45 3 58 53 13 45 15 48 28 30 8 -10 20 -34 26
-52z m534 -3 c8 0 14 -10 14 -22 -1 -40 -59 -241 -75 -257 -15 -16 -67 -20
-98 -8 -11 4 -17 17 -17 38 0 30 2 31 30 26 16 -4 31 -3 34 1 2 4 17 55 31
112 32 122 32 123 52 116 8 -3 21 -6 29 -6z m-1074 -57 c11 -27 30 -70 43 -98
57 -128 57 -158 -1 -163 -23 -1 -46 12 -109 62 -44 36 -81 63 -83 62 -4 -4 49
-128 60 -141 17 -19 8 -45 -17 -51 -14 -4 -29 -4 -32 0 -8 7 -113 256 -113
267 0 9 53 39 69 39 5 0 44 -27 86 -61 42 -33 79 -59 81 -56 2 2 -9 34 -26 70
-16 37 -30 74 -30 82 0 12 24 29 48 34 2 1 12 -20 24 -46z m1313 -45 c20 -9
25 -18 24 -47 -1 -60 -25 -280 -31 -286 -3 -3 -17 -1 -32 4 -22 9 -26 17 -26
49 0 35 -3 40 -46 61 l-47 22 -21 -20 c-23 -22 -52 -27 -75 -12 -7 5 -12 14
-10 19 7 20 212 222 225 222 7 0 25 -5 39 -12z m-1659 -118 c17 0 74 -61 95
-102 44 -86 15 -164 -77 -208 -59 -29 -99 -21 -146 28 -91 95 -91 198 0 256
44 28 69 36 97 30 11 -2 25 -4 31 -4z m1909 -30 c93 -64 108 -116 50 -175 -40
-40 -64 -43 -127 -18 -32 13 -43 14 -46 4 -2 -7 -14 -24 -27 -39 -21 -24 -25
-25 -50 -14 -18 8 -25 18 -21 28 17 43 151 244 163 244 8 0 34 -13 58 -30z
m-753 -101 c273 -54 505 -183 701 -388 243 -256 367 -567 367 -923 0 -327
-120 -640 -342 -891 -128 -144 -330 -282 -513 -350 -360 -133 -731 -115 -1070
53 -379 188 -648 545 -722 958 -21 121 -21 361 2 476 113 586 592 1027 1180
1086 110 11 281 2 397 -21z m-1417 -140 c30 -26 35 -37 35 -74 0 -27 -7 -51
-20 -68 -26 -33 -26 -37 12 -68 29 -25 31 -29 20 -53 -6 -14 -18 -26 -25 -26
-22 0 -227 180 -227 199 1 18 39 63 84 99 40 31 78 28 121 -9z m2438 3 l27
-28 -66 -125 c-37 -68 -73 -132 -82 -142 -14 -16 -16 -16 -34 0 -19 17 -20 46
-4 84 5 10 -3 28 -20 48 -25 31 -30 32 -75 26 -42 -6 -49 -4 -59 15 -7 12 -8
26 -3 30 10 10 264 118 279 119 5 1 22 -12 37 -27z m-2607 -236 c27 -27 34
-42 34 -72 -1 -22 -7 -50 -15 -64 -20 -35 -19 -36 20 -60 39 -24 44 -48 17
-73 -16 -15 -25 -10 -126 58 -144 98 -142 95 -122 133 9 17 33 49 55 72 50 53
88 55 137 6z m2802 -11 c20 -43 14 -60 -44 -135 -31 -39 -55 -73 -53 -75 2 -1
38 13 79 32 l75 34 17 -21 c16 -20 15 -50 -2 -50 -5 0 -55 -22 -112 -49 -141
-66 -143 -66 -162 -39 -9 12 -16 30 -16 40 0 10 29 56 65 103 36 47 63 85 60
85 -3 0 -38 -16 -77 -35 -83 -41 -112 -42 -116 -4 -3 22 3 29 35 42 21 9 76
34 123 56 47 22 92 40 101 40 9 1 21 -10 27 -24z m-2923 -285 c66 -24 124 -46
129 -51 5 -4 6 -19 2 -33 -5 -19 -13 -26 -29 -25 -34 0 -260 84 -265 98 -2 6
-1 23 2 37 8 30 -4 32 161 -26z m-76 -147 c75 -14 140 -30 145 -34 5 -4 6 -23
2 -43 -7 -37 -4 -36 -199 -93 -30 -8 -12 -16 76 -33 77 -15 82 -17 85 -43 2
-16 -2 -29 -10 -32 -24 -10 -281 50 -291 67 -7 11 -6 25 2 47 14 32 12 31 174
77 33 10 16 21 -51 33 -86 15 -96 22 -88 55 3 14 9 26 13 26 3 0 67 -12 142
-27z m3133 -135 c3 -52 4 -53 44 -68 23 -8 43 -19 44 -25 1 -5 -16 -16 -39
-23 l-41 -14 0 -54 c0 -30 -3 -54 -6 -54 -4 0 -23 18 -43 41 -33 38 -38 40
-64 30 -16 -6 -37 -11 -48 -11 -19 0 -18 2 6 46 l26 46 -26 33 c-32 42 -33 60
-2 51 73 -22 83 -20 106 18 13 20 27 36 31 36 5 0 10 -24 12 -52z m-3110 -482
c47 16 58 12 40 -16 -7 -11 -17 -29 -24 -39 -12 -20 -6 -41 24 -83 18 -25 5
-31 -41 -17 -36 11 -43 10 -61 -6 -11 -10 -22 -26 -25 -36 -4 -11 -13 -19 -21
-19 -10 0 -14 13 -14 50 0 49 0 49 -40 60 -56 15 -58 27 -6 50 42 18 46 22 46
54 0 67 10 73 47 28 l34 -41 41 15z m3078 -145 c109 -43 125 -52 128 -73 6
-48 -24 -67 -123 -79 -49 -5 -94 -11 -99 -13 -6 -1 27 -17 72 -35 45 -18 85
-37 88 -42 7 -12 -14 -49 -29 -49 -12 0 -230 84 -257 99 -8 5 -14 19 -12 32 5
44 26 55 138 68 118 15 119 10 -6 61 -30 12 -59 26 -63 30 -11 10 10 50 26 50
7 0 68 -22 137 -49z m-95 -320 c113 -52 129 -68 103 -103 -12 -16 -23 -13
-138 38 -151 67 -159 73 -136 108 19 29 7 32 171 -43z m-2778 -43 c13 -12 23
-27 23 -35 0 -7 -23 -56 -51 -109 -28 -53 -47 -95 -43 -93 5 2 41 26 80 52 72
49 98 53 107 16 4 -15 -18 -35 -111 -99 -64 -44 -124 -80 -133 -80 -9 0 -24
15 -34 33 l-17 33 43 84 c24 47 46 89 48 93 2 5 -28 -12 -65 -37 -38 -25 -76
-46 -86 -46 -22 0 -34 38 -17 55 16 15 222 155 228 155 3 0 15 -10 28 -22z
m2698 -89 c69 -39 125 -76 125 -83 0 -20 -59 -114 -82 -130 -34 -24 -82 -20
-116 9 -39 32 -47 70 -28 126 8 24 14 44 13 44 -46 26 -77 49 -77 56 0 17 20
49 31 49 5 0 66 -32 134 -71z m-2532 -167 c14 -15 15 -24 5 -55 -11 -36 -10
-40 20 -70 30 -30 33 -31 68 -18 33 12 38 11 56 -7 11 -11 17 -25 13 -32 -4
-6 -68 -40 -143 -76 -126 -60 -137 -63 -158 -49 -12 8 -25 23 -28 33 -8 25
117 292 137 292 8 0 21 -8 30 -18z m2372 -78 c55 -48 103 -92 107 -99 5 -7 -7
-32 -29 -59 -63 -81 -119 -96 -171 -48 -46 43 -51 77 -19 134 l27 47 -37 35
c-37 34 -37 35 -19 55 11 12 24 21 30 21 6 0 56 -39 111 -86z m-233 -174 c48
-40 93 -130 83 -167 -10 -42 -31 -70 -77 -103 -75 -55 -154 -31 -208 64 -41
71 -41 123 2 172 62 71 140 84 200 34z m-1830 -27 c10 -9 18 -20 18 -24 0 -16
-162 -239 -174 -239 -18 0 -89 53 -114 85 -24 31 -28 65 -11 98 31 57 88 71
155 40 l36 -18 30 38 c34 42 35 43 60 20z m96 -59 c19 -13 23 -24 20 -53 -3
-34 0 -37 45 -61 30 -16 50 -21 55 -15 21 29 40 36 66 24 14 -7 26 -17 25 -23
0 -18 -228 -206 -248 -206 -10 0 -29 8 -42 19 l-23 19 28 148 c16 82 31 152
33 157 6 11 16 9 41 -9z m1460 -177 c28 -73 52 -136 52 -140 0 -5 -16 -15 -36
-23 -42 -17 -42 -17 -138 65 -33 28 -61 49 -63 47 -2 -1 11 -38 29 -80 32 -76
32 -78 13 -92 -10 -8 -24 -14 -30 -14 -12 0 -115 248 -115 276 0 14 38 34 63
34 7 0 48 -32 92 -70 43 -38 81 -67 84 -65 4 5 -25 79 -50 127 -11 21 -12 52
-2 61 3 4 16 7 27 7 18 0 30 -21 74 -133z m-1111 28 c26 -7 33 -23 22 -53 -7
-20 -12 -21 -30 -12 -12 7 -25 8 -29 3 -5 -4 -20 -55 -35 -113 -15 -58 -31
-109 -35 -113 -4 -4 -19 -5 -34 -1 -33 8 -33 22 0 144 32 116 40 135 68 148
21 10 29 10 73 -3z m483 -87 c0 -7 -4 -29 -9 -49 -10 -44 -1 -62 39 -79 43
-18 32 -34 -26 -40 -48 -5 -49 -5 -57 -47 -4 -24 -13 -43 -18 -43 -5 0 -18 20
-29 45 l-19 45 -53 0 -52 0 38 38 37 39 -17 42 c-9 23 -14 45 -10 48 3 3 24
-6 47 -21 l41 -27 34 23 c19 13 34 26 34 31 0 4 5 7 10 7 6 0 10 -6 10 -12z"/>
<path d="M3180 3945 c-18 -19 -32 -36 -29 -38 10 -9 51 -28 53 -25 4 5 16 98
13 98 -2 0 -18 -16 -37 -35z"/>
<path d="M1505 3855 c-33 -32 -31 -61 5 -118 36 -56 69 -69 108 -40 36 26 40
73 12 118 -42 68 -85 81 -125 40z"/>
<path d="M3453 3821 l-22 -38 22 -10 c13 -6 31 -7 45 -2 29 11 31 63 3 79 -26
13 -23 15 -48 -29z"/>
<path d="M2280 3765 c-269 -46 -482 -158 -686 -360 -145 -145 -229 -274 -297
-457 -59 -158 -72 -238 -72 -453 0 -176 2 -198 28 -298 112 -432 420 -768 832
-908 143 -48 236 -62 410 -63 228 0 380 35 580 134 241 119 464 345 576 584
186 398 167 840 -52 1211 -195 331 -537 561 -914 615 -95 13 -314 11 -405 -5z
m565 -71 c102 -30 185 -63 185 -74 0 -4 -109 -131 -241 -281 -133 -151 -307
-348 -386 -439 -80 -91 -150 -169 -157 -174 -16 -11 -86 39 -86 61 0 8 11 33
24 56 13 23 44 80 68 127 25 47 88 164 140 260 52 96 130 243 172 325 43 83
83 156 89 164 14 17 72 10 192 -25z m-565 15 c0 -5 -36 -126 -81 -267 -44
-141 -96 -306 -115 -367 -63 -204 -72 -230 -80 -230 -28 1 -104 17 -108 23 -2
4 0 57 4 117 5 61 16 218 25 350 9 132 18 250 21 262 5 26 35 41 179 89 103
34 155 42 155 23z m-626 -381 c4 -40 13 -151 21 -246 21 -239 24 -218 -36
-229 -58 -12 -45 -31 -111 157 -68 194 -67 181 -28 231 54 70 134 159 141 159
4 0 10 -33 13 -72z m1761 10 c71 -78 178 -235 172 -252 -3 -7 -58 -36 -123
-66 -66 -29 -206 -95 -312 -147 -106 -51 -195 -93 -197 -93 -2 0 -70 -32 -152
-71 -310 -149 -376 -179 -392 -179 -17 0 -51 48 -50 72 0 7 44 47 97 89 120
94 413 330 676 546 110 90 205 163 212 163 7 0 38 -28 69 -62z m-2059 -415
c22 -30 74 -131 74 -146 0 -8 -16 -22 -35 -33 l-35 -18 -30 34 c-16 19 -29 45
-30 58 0 26 29 122 38 122 2 0 11 -8 18 -17z m2377 -288 c4 -38 6 -106 5 -150
l-3 -79 -40 -7 c-22 -4 -143 -17 -270 -28 -126 -12 -365 -35 -530 -51 -436
-42 -415 -43 -415 14 l0 33 258 72 c141 40 320 89 397 111 379 105 444 123
495 141 88 29 94 26 103 -56z m-898 -550 c121 -9 303 -22 405 -30 102 -8 231
-17 288 -21 56 -4 105 -11 108 -16 10 -15 -124 -247 -160 -277 -10 -8 -36 -4
-102 15 -49 15 -118 35 -154 45 -58 16 -578 168 -690 202 -44 13 -45 13 -41
52 1 22 5 44 8 48 2 4 30 5 61 2 32 -3 156 -12 277 -20z m-32 -473 c180 -90
327 -167 327 -172 0 -11 -171 -95 -210 -105 -21 -5 -41 6 -106 57 -45 35 -96
74 -114 88 -81 61 -316 244 -329 255 -11 11 -10 18 8 44 l22 30 37 -17 c20 -9
184 -90 365 -180z m-369 -187 c75 -82 136 -153 136 -157 0 -9 -123 -10 -197
-2 l-52 7 -92 139 c-50 76 -89 142 -85 145 3 3 27 20 53 38 l48 33 27 -26 c14
-15 88 -94 162 -177z m-425 8 c6 -31 8 -60 3 -65 -14 -14 -137 57 -140 80 -2
15 3 23 20 26 107 23 104 25 117 -41z"/>
<path d="M1242 3618 c-18 -18 -15 -32 13 -58 21 -19 30 -22 43 -14 25 16 26
40 3 63 -24 24 -42 26 -59 9z"/>
<path d="M3662 3598 l-44 -20 23 -24 c25 -26 26 -26 58 29 26 42 23 43 -37 15z"/>
<path d="M1067 3383 c-21 -20 18 -72 55 -73 22 0 35 45 18 65 -13 15 -61 21
-73 8z"/>
<path d="M3860 1691 c-12 -24 -4 -48 21 -61 25 -14 35 -13 53 6 23 22 20 32
-16 54 -41 25 -45 25 -58 1z"/>
<path d="M1310 1429 c-12 -23 -19 -43 -17 -46 3 -2 24 5 47 17 l42 21 -23 25
c-12 13 -24 24 -26 24 -1 0 -12 -18 -23 -41z"/>
<path d="M3692 1448 c-33 -33 16 -91 57 -68 28 15 26 34 -5 59 -31 24 -36 25
-52 9z"/>
<path d="M3371 1299 c-19 -18 -22 -29 -17 -57 8 -52 55 -106 95 -110 77 -8 97
74 35 146 -41 48 -77 55 -113 21z"/>
<path d="M1482 1234 c-24 -17 -29 -43 -10 -62 18 -18 38 -15 59 11 24 28 24
44 0 57 -25 13 -22 13 -49 -6z"/>
<path d="M1776 1112 c-2 -4 -7 -25 -12 -46 l-7 -39 31 22 c43 30 48 42 27 58
-21 15 -32 16 -39 5z"/>
</g>
</svg>
