<?xml version="1.0" standalone="no"?>
<!DOCTYPE svg PUBLIC "-//W3C//DTD SVG 20010904//EN"
 "http://www.w3.org/TR/2001/REC-SVG-20010904/DTD/svg10.dtd">
<svg version="1.0" xmlns="http://www.w3.org/2000/svg"
 width="705.000000pt" height="470.000000pt" viewBox="0 0 705.000000 470.000000"
 preserveAspectRatio="xMidYMid meet">

<g transform="translate(0.000000,470.000000) scale(0.100000,-0.100000)"
fill="#000000" stroke="none">
<path d="M6250 4591 c0 -14 18 -23 22 -10 7 20 38 -3 39 -30 0 -14 3 -20 6
-13 2 6 9 10 13 7 5 -3 7 -12 4 -19 -4 -9 7 -18 33 -26 83 -27 169 -97 222
-183 l24 -39 26 26 26 26 -19 35 c-23 43 -111 131 -162 162 -76 46 -234 89
-234 64z"/>
<path d="M5870 4581 c-36 -5 -46 -10 -48 -28 -3 -23 -34 -41 -40 -24 -6 18
-22 12 -22 -8 0 -14 6 -17 28 -14 15 2 65 3 111 3 124 -1 171 8 171 32 0 14 5
18 15 14 10 -4 15 1 15 14 0 19 -7 20 -92 18 -51 0 -113 -4 -138 -7z"/>
<path d="M6135 4569 c5 -14 1 -25 -12 -35 -16 -13 -11 -14 50 -12 37 1 67 6
67 10 0 5 -16 16 -35 25 -19 9 -35 20 -35 25 0 4 -9 8 -21 8 -16 0 -19 -4 -14
-21z"/>
<path d="M5673 4572 c-36 -5 -28 -72 8 -72 21 0 26 16 7 22 -6 2 -8 10 -4 17
5 7 15 10 23 7 15 -6 43 9 43 23 0 7 -43 9 -77 3z"/>
<path d="M5529 4568 c0 -2 -1 -20 -3 -40 l-3 -38 42 0 c50 0 65 14 58 53 -5
25 -9 27 -49 27 -24 0 -44 -1 -45 -2z"/>
<path d="M5298 4553 c-22 -5 -22 -7 -3 -43 13 -25 22 -30 52 -30 41 0 37 9
-10 26 l-32 11 38 8 c31 6 42 4 61 -14 22 -21 56 -29 56 -13 0 4 -6 20 -12 35
-12 25 -17 27 -73 26 -33 -1 -68 -3 -77 -6z"/>
<path d="M5460 4553 c0 -5 5 -15 10 -23 9 -13 11 -13 20 0 15 22 12 30 -10 30
-11 0 -20 -3 -20 -7z"/>
<path d="M5119 4546 c-2 -2 -76 -7 -164 -11 -88 -3 -162 -8 -164 -11 -3 -2 1
-10 7 -16 7 -7 12 -20 12 -30 0 -16 10 -18 80 -18 65 0 83 3 99 19 27 27 53
30 75 9 20 -18 79 -24 121 -12 17 4 20 12 17 40 -4 32 -6 34 -41 34 -21 0 -40
-2 -42 -4z"/>
<path d="M4509 4515 c-3 -3 -42 -5 -85 -6 -115 0 -167 -8 -154 -24 14 -17 0
-26 -29 -18 -13 3 -20 11 -17 19 4 10 -5 14 -34 14 -35 0 -40 -3 -47 -27 l-7
-28 -6 25 c-3 14 -11 25 -18 24 -7 -1 -27 -2 -46 -2 -29 -2 -34 -6 -40 -34 -3
-17 -4 -33 -2 -36 3 -2 114 2 248 8 210 11 246 15 267 31 29 23 45 24 37 4 -4
-13 8 -15 77 -15 45 0 92 3 104 6 22 6 22 7 6 35 -16 27 -21 29 -85 29 -39 0
-85 -7 -105 -15 -32 -14 -37 -14 -47 1 -6 8 -14 13 -17 9z m-329 -49 c0 -3 -4
-8 -10 -11 -5 -3 -10 -1 -10 4 0 6 5 11 10 11 6 0 10 -2 10 -4z"/>
<path d="M3640 4474 c-135 -8 -267 -14 -294 -14 l-48 0 6 -35 c4 -19 3 -35 -2
-35 -14 0 -33 26 -30 41 4 18 -66 23 -190 14 l-93 -7 15 -24 c22 -32 21 -34
-14 -34 -40 0 -103 27 -95 40 4 6 -18 10 -60 10 -62 0 -66 -1 -60 -20 8 -26
-2 -26 -24 1 -14 17 -23 20 -54 14 -20 -4 -37 -13 -37 -20 0 -8 -9 -16 -19
-20 -11 -3 -22 -13 -25 -22 -6 -14 5 -15 101 -9 60 3 221 10 358 16 138 6 265
13 283 16 29 4 31 7 21 25 -16 31 -6 32 21 4 25 -27 59 -32 78 -13 9 9 15 9
24 0 11 -11 141 -9 275 4 45 5 52 8 50 26 -1 11 6 25 15 31 14 9 23 7 46 -10
l29 -21 21 21 c12 11 25 17 29 13 5 -5 -2 -15 -14 -23 -30 -20 -29 -33 1 -33
27 0 34 7 46 50 l9 30 -62 -1 c-34 -1 -172 -8 -307 -15z"/>
<path d="M2065 4395 c-236 -13 -430 -23 -430 -24 -1 -1 -1 -16 0 -33 0 -32 1
-33 48 -36 43 -3 47 -1 47 19 0 21 1 21 18 6 26 -24 81 -21 109 5 l23 21 0
-22 c0 -22 3 -23 53 -17 28 3 124 8 212 12 88 4 165 11 172 16 6 5 9 17 6 25
-5 13 -2 15 12 10 9 -4 24 -2 31 4 19 16 44 4 44 -21 0 -17 6 -20 48 -20 63 0
93 30 69 68 -5 6 -14 11 -20 11 -7 -1 -205 -12 -442 -24z"/>
<path d="M2560 4410 c0 -5 4 -10 9 -10 6 0 13 5 16 10 3 6 -1 10 -9 10 -9 0
-16 -4 -16 -10z"/>
<path d="M1362 4363 l-82 -4 22 -32 c13 -18 24 -34 26 -37 4 -5 136 -2 218 6
l62 6 -8 28 c-5 16 -6 31 -2 34 5 6 -70 5 -236 -1z"/>
<path d="M985 4343 c-27 -1 -129 -7 -226 -13 -248 -15 -335 -44 -440 -149 -99
-99 -149 -226 -149 -377 0 -83 10 -96 57 -75 19 9 24 17 20 32 -11 41 11 189
37 244 49 108 171 209 281 234 28 6 144 15 260 21 345 17 400 21 409 30 16 16
-4 25 -25 12 -35 -22 -55 9 -21 34 14 11 5 13 -68 12 -47 -1 -107 -3 -135 -5z"/>
<path d="M6647 4277 c-26 -20 -27 -25 -17 -52 7 -17 16 -127 22 -245 5 -118
12 -222 15 -230 3 -8 5 -56 4 -107 -3 -107 3 -133 30 -133 14 0 19 -7 19 -26
0 -16 5 -24 13 -22 18 7 19 74 4 359 l-14 257 -31 40 c-31 39 -40 62 -24 62
17 0 33 67 22 94 -5 14 -11 26 -12 26 -2 0 -16 -10 -31 -23z"/>
<path d="M5443 4165 c-128 -6 -234 -13 -237 -15 -2 -3 1 -12 8 -22 11 -15 35
-15 345 0 273 13 345 13 394 3 200 -41 347 -222 347 -428 l0 -63 -37 0 c-101
-1 -576 -30 -582 -36 -6 -6 117 -3 465 12 l151 7 6 -24 c4 -13 7 -49 7 -79 0
-30 3 -92 6 -136 6 -73 9 -81 25 -77 23 6 23 15 9 273 -12 219 -29 300 -79
378 -42 63 -126 144 -181 172 -105 54 -168 57 -647 35z"/>
<path d="M6700 4150 c0 -5 5 -10 10 -10 6 0 10 5 10 10 0 6 -4 10 -10 10 -5 0
-10 -4 -10 -10z"/>
<path d="M4968 4143 c-60 -3 -68 -6 -68 -23 0 -18 7 -20 86 -20 70 0 93 4 120
21 19 11 34 23 34 25 0 4 -46 3 -172 -3z"/>
<path d="M4475 4119 c-82 -4 -235 -12 -340 -18 -219 -13 -568 -30 -1330 -66
-297 -14 -754 -36 -1015 -50 -261 -14 -531 -27 -600 -30 -178 -8 -227 -14
-295 -39 -119 -43 -229 -153 -276 -274 -29 -74 -34 -175 -21 -426 9 -163 14
-201 28 -217 16 -18 16 -19 -1 -19 -17 0 -17 -8 -11 -92 3 -50 6 -104 6 -120
0 -22 5 -28 22 -28 21 0 21 1 14 143 -3 78 -9 215 -13 305 l-6 162 44 0 c40 0
490 22 719 34 47 3 243 13 435 22 193 9 354 21 359 25 12 11 -36 11 -239 -1
-638 -37 -1309 -68 -1319 -59 -4 4 -7 52 -4 107 3 90 7 106 41 175 87 177 231
256 466 257 58 0 77 4 87 18 8 10 13 12 14 5 0 -9 20 -13 68 -13 70 0 743 32
1052 50 96 6 508 26 915 45 862 40 1549 76 1553 79 1 2 0 10 -3 19 -7 17 -96
19 -350 6z"/>
<path d="M3923 3953 c-47 -3 -63 -8 -63 -18 0 -12 19 -15 100 -15 108 0 106 2
94 -59 -6 -30 -8 -31 -64 -31 -101 0 -180 -12 -180 -26 0 -11 19 -14 76 -14
l75 0 -3 -27 c-3 -26 -7 -28 -50 -31 -34 -2 -48 -7 -48 -18 0 -11 19 -14 99
-14 l99 0 6 -45 c6 -36 11 -45 27 -45 16 0 19 7 19 43 0 76 -7 86 -59 89 -42
3 -46 5 -46 28 0 24 3 25 73 28 63 2 73 5 70 20 -2 10 -14 18 -32 20 -26 3
-28 6 -23 36 3 17 3 44 0 59 -6 30 -2 29 -170 20z"/>
<path d="M3710 3871 c0 -125 9 -171 33 -171 19 0 20 4 14 83 -4 45 -7 101 -7
125 0 35 -3 42 -20 42 -18 0 -20 -7 -20 -79z"/>
<path d="M3340 3872 c0 -33 3 -93 6 -135 6 -66 10 -77 25 -77 16 0 19 8 19 54
0 49 2 55 22 58 13 2 24 11 26 21 3 13 -3 17 -27 17 l-31 0 0 60 c0 53 -2 60
-20 60 -18 0 -20 -7 -20 -58z"/>
<path d="M3014 3850 c7 -66 6 -70 -13 -70 -18 0 -20 8 -23 62 -3 53 -6 63 -22
66 -18 4 -19 -2 -13 -154 4 -88 7 -165 7 -171 0 -7 9 -13 21 -13 19 0 20 5 18
83 -2 69 0 82 14 85 14 3 17 -5 17 -35 0 -21 3 -62 6 -90 6 -44 10 -53 26 -53
19 0 20 5 14 98 -17 270 -16 262 -38 262 -19 0 -20 -4 -14 -70z"/>
<path d="M3154 3909 c-12 -20 12 -29 59 -23 30 4 47 12 47 20 0 17 -95 20
-106 3z"/>
<path d="M3480 3867 c0 -30 3 -69 6 -86 l7 -32 76 3 c72 3 76 4 79 27 3 20 1
22 -15 16 -10 -5 -37 -10 -60 -13 -41 -4 -42 -3 -48 31 -12 60 -5 72 40 72 36
0 40 -3 43 -27 3 -25 6 -27 23 -17 15 8 19 19 17 42 l-3 32 -82 3 -83 3 0 -54z"/>
<path d="M2768 3868 c-14 -11 -16 -27 -10 -113 l7 -100 47 -3 c56 -4 110 9
116 28 4 10 -7 12 -56 7 -34 -4 -63 -3 -66 1 -2 4 -6 39 -7 77 l-3 70 47 3
c39 3 47 6 47 23 0 16 -7 19 -53 19 -29 0 -60 -6 -69 -12z"/>
<path d="M3153 3863 c-38 -3 -53 -8 -53 -19 0 -11 16 -14 74 -14 92 0 136 8
136 26 0 14 -31 16 -157 7z"/>
<path d="M3174 3809 c-52 -26 -48 -99 6 -117 52 -18 99 4 114 54 14 47 -67 90
-120 63z m70 -35 c18 -18 18 -17 10 -38 -11 -28 -84 -15 -84 15 0 13 31 39 45
39 7 0 21 -7 29 -16z"/>
<path d="M3540 3676 c0 -13 3 -38 6 -55 l7 -31 66 1 c90 1 154 11 159 27 3 9
-20 12 -91 12 -100 0 -107 3 -107 51 0 12 -7 19 -20 19 -14 0 -20 -7 -20 -24z"/>
<path d="M196 3654 c-3 -12 -4 -29 0 -38 3 -9 2 -22 -4 -29 -13 -16 4 -394 19
-421 6 -10 7 -21 2 -25 -6 -4 19 -616 26 -627 1 -1 11 -4 24 -8 l22 -6 -23
-18 -24 -18 12 -245 c14 -321 15 -326 43 -325 15 1 22 -5 21 -16 -1 -9 5 -19
14 -23 13 -5 14 7 9 92 -4 54 -7 112 -7 129 0 19 -6 34 -15 38 -13 5 -14 2 -4
-15 9 -17 8 -23 -2 -30 -16 -10 -29 7 -29 39 0 13 6 22 15 22 17 0 19 23 18
210 -1 109 -25 670 -39 903 -6 102 -8 109 -31 118 -25 9 -47 53 -39 76 3 7 17
13 31 13 25 0 25 1 25 84 0 97 -5 116 -30 116 -10 0 -20 6 -23 13 -2 7 -7 3
-11 -9z"/>
<path d="M3175 3650 c-8 -13 3 -68 16 -76 5 -3 56 -2 114 2 79 5 105 10 105
20 0 11 -21 14 -94 14 -90 0 -95 1 -98 22 -3 24 -32 36 -43 18z"/>
<path d="M5570 3603 c-19 -1 -215 -9 -435 -18 -220 -9 -420 -20 -445 -25 l-45
-8 54 -1 c51 -1 874 36 916 42 33 4 -5 13 -45 10z"/>
<path d="M4395 3550 c-66 -4 -145 -8 -174 -9 -34 0 -51 -5 -45 -10 11 -11 415
8 429 20 10 10 -21 9 -210 -1z"/>
<path d="M3565 3509 c-462 -24 -545 -29 -545 -37 0 -4 66 -4 147 0 713 32 871
41 893 48 38 13 -86 10 -495 -11z"/>
<path d="M2693 3466 c-116 -6 -215 -15 -220 -20 -5 -5 45 -6 117 -3 69 4 187
10 262 13 76 4 135 11 132 15 -3 5 -22 8 -42 7 -20 -1 -132 -6 -249 -12z"/>
<path d="M2250 3440 c-10 -7 10 -10 67 -10 45 0 85 5 88 10 8 13 -135 13 -155
0z"/>
<path d="M6683 3343 c4 -43 9 -145 12 -228 7 -181 10 -195 34 -195 31 0 34
-29 5 -40 l-26 -10 6 -103 c4 -56 7 -123 8 -149 0 -46 2 -47 25 -42 16 4 28 2
34 -7 4 -7 11 -10 15 -7 9 10 -5 60 -16 53 -5 -3 -11 -1 -15 5 -3 6 1 13 9 16
20 8 22 104 4 122 -8 8 -8 12 -1 12 7 0 9 27 5 86 -4 72 -9 90 -28 112 -29 31
-30 42 -4 42 19 0 20 7 20 104 0 58 -4 108 -10 111 -5 3 -7 19 -3 35 5 26 2
30 -15 30 -12 0 -26 9 -32 20 -9 17 -8 20 8 20 10 0 23 -5 30 -12 9 -9 12 -4
12 23 0 30 -5 36 -31 46 -17 7 -28 17 -24 22 3 6 -1 11 -11 11 -15 0 -16 -9
-11 -77z"/>
<path d="M6323 3218 c4 -40 9 -147 13 -236 5 -128 10 -165 21 -169 30 -11 32
13 22 192 -8 139 -14 184 -26 198 -13 14 -14 22 -5 43 17 36 15 44 -9 44 -21
0 -21 -3 -16 -72z"/>
<path d="M4055 3201 c6 -39 6 -40 -32 -50 -21 -6 -50 -11 -64 -11 -14 0 -29
-3 -33 -7 -4 -4 -36 -6 -72 -4 -35 1 -64 0 -64 -2 0 -3 4 -17 9 -31 7 -16 7
-26 0 -28 -6 -2 -1 -15 10 -30 12 -14 21 -29 21 -33 0 -7 -85 0 -144 12 l-29
5 47 30 47 29 -25 20 c-25 20 -32 20 -220 10 -107 -6 -245 -11 -307 -11 -93 0
-114 -3 -124 -17 -11 -15 -14 -15 -36 0 -14 10 -43 17 -71 17 -43 0 -50 3 -58
26 -13 32 -12 37 0 29 6 -3 10 1 10 9 0 20 -26 21 -33 2 -3 -8 -16 -16 -29
-18 -17 -2 -24 -11 -26 -30 -4 -33 25 -48 89 -48 36 0 40 -2 37 -22 -4 -33
-73 -44 -108 -18 -14 10 -24 25 -23 35 1 17 -3 14 -65 -43 -37 -34 -83 -64
-89 -58 -9 8 -43 -24 -43 -40 0 -8 -6 -11 -15 -8 -8 4 -15 1 -15 -5 0 -6 -7
-11 -15 -11 -8 0 -15 -5 -15 -11 0 -6 -9 -8 -21 -4 -15 5 -19 4 -14 -5 5 -7 1
-11 -11 -10 -11 1 -21 1 -24 0 -3 -1 -33 -3 -68 -5 -45 -3 -66 1 -77 11 -12
13 -17 10 -35 -27 -12 -22 -19 -48 -16 -56 4 -11 1 -13 -14 -8 -38 12 -22 -25
18 -42 20 -8 60 -26 88 -39 28 -13 57 -24 64 -24 8 0 11 -9 8 -25 -4 -19 -1
-25 13 -25 12 0 16 -5 13 -15 -4 -10 0 -15 11 -15 9 0 13 -4 10 -10 -3 -5 3
-10 15 -10 12 0 28 -13 40 -32 26 -43 26 -47 -12 -62 -28 -12 -34 -12 -43 1
-9 13 -16 13 -34 4 -12 -7 -19 -16 -16 -21 3 -5 -6 -12 -20 -16 -14 -3 -25 -9
-25 -13 0 -8 -123 -6 -137 2 -13 8 -54 -69 -46 -89 5 -14 3 -15 -16 -4 -20 10
-22 9 -19 -6 2 -11 19 -23 43 -30 23 -6 61 -21 85 -33 24 -11 56 -21 72 -21
23 0 28 -4 28 -24 0 -13 -6 -27 -12 -30 -7 -4 -3 -4 10 -2 14 3 22 -1 22 -10
0 -8 7 -14 16 -14 11 0 14 -5 10 -16 -5 -12 -2 -15 9 -10 11 4 19 -3 26 -21 5
-14 8 -27 7 -29 -2 -1 -40 -5 -85 -9 -80 -7 -83 -7 -83 14 0 12 -6 21 -15 21
-13 0 -15 -13 -13 -67 l3 -68 -96 -5 c-84 -4 -101 -8 -137 -33 -52 -37 -260
-203 -309 -248 -21 -19 -96 -86 -168 -150 -129 -114 -130 -115 -200 -128 -112
-19 -176 -43 -187 -67 -7 -15 -6 -39 1 -73 6 -29 11 -93 11 -143 l0 -91 113 7
c61 3 263 13 447 21 184 9 423 20 530 26 248 12 724 38 728 39 2 0 2 10 0 22
-5 35 55 38 91 6 l26 -24 240 12 c132 7 255 13 273 13 37 1 42 18 10 30 -24
10 -24 10 37 28 19 6 31 17 33 31 2 12 10 22 18 22 11 0 13 -6 9 -21 -5 -15
-4 -19 5 -14 8 5 11 -1 8 -21 -2 -21 -9 -30 -25 -32 -13 -2 -23 -7 -23 -12 0
-5 33 -7 73 -5 39 3 176 10 302 16 127 6 254 12 282 14 29 1 64 10 77 19 23
15 26 15 34 -1 9 -14 27 -15 208 -5 110 7 258 14 329 17 193 8 213 12 218 38
l4 22 2 -22 c1 -20 6 -23 44 -23 24 0 47 3 51 7 4 4 46 6 94 5 60 -2 82 0 72
7 -12 8 -11 14 10 35 28 31 37 32 45 6 8 -24 15 -25 41 -5 19 15 19 15 -3 34
-13 11 -23 22 -23 25 0 11 40 6 61 -6 17 -10 23 -10 26 0 3 6 11 12 19 12 9 0
12 4 9 10 -3 5 -1 10 4 10 6 0 11 6 11 13 1 6 17 24 36 39 35 26 36 26 55 7
10 -10 30 -19 43 -19 22 0 24 5 30 72 6 68 5 74 -16 90 -26 19 -88 34 -191 44
-67 6 -71 8 -203 105 -74 55 -141 99 -149 99 -7 0 -20 -8 -27 -17 -14 -18 -72
-53 -89 -53 -5 0 -9 17 -9 39 0 48 -15 78 -68 133 -30 31 -42 38 -42 25 0 -9
-4 -17 -10 -17 -5 0 -10 17 -10 38 0 37 -2 39 -76 81 l-77 44 -125 -7 c-109
-6 -123 -5 -113 8 7 8 19 12 27 9 27 -10 14 22 -19 45 -26 17 -47 22 -101 22
-58 0 -67 2 -62 16 3 9 6 22 6 31 0 9 6 13 15 9 18 -6 20 5 4 21 -8 8 -4 15
17 26 16 8 35 13 42 11 7 -1 8 0 2 3 -5 2 -10 16 -10 29 0 17 5 24 20 24 18 0
51 15 110 49 8 5 32 16 53 25 39 17 52 42 16 33 -15 -4 -19 -2 -15 8 2 7 -2
19 -10 25 -8 7 -14 17 -14 22 0 10 -25 38 -34 38 -2 0 -12 -7 -20 -16 -12 -12
-16 -12 -16 -2 0 10 -3 9 -10 -2 -5 -8 -10 -10 -10 -3 0 6 -9 9 -21 6 -14 -4
-17 -9 -10 -16 18 -18 13 -27 -21 -42 -29 -12 -35 -11 -51 2 -9 9 -20 33 -23
54 -7 42 -40 61 -60 34 -9 -12 -17 -13 -43 -4 -26 9 -31 15 -25 33 12 39 34
66 57 66 18 0 19 2 7 10 -12 8 -10 10 9 10 20 0 21 2 11 15 -10 13 -9 15 11
15 18 0 20 3 11 12 -19 19 -14 35 16 47 15 6 45 22 67 36 22 14 52 30 68 36
34 14 39 50 5 41 -21 -5 -22 -4 -9 11 8 10 9 17 3 17 -6 0 -14 10 -18 22 -3
12 -13 29 -21 37 -12 12 -16 12 -23 1 -4 -7 -19 -14 -32 -16 -12 -1 -23 -3
-23 -4 0 -1 -19 -3 -42 -4 -24 -2 -43 1 -43 7 0 5 -6 4 -14 -2 -10 -9 -16 -9
-21 -1 -4 6 -13 9 -21 6 -7 -3 -16 -1 -19 4 -3 5 -12 7 -20 3 -11 -3 -15 2
-15 18 0 32 -12 16 -20 -28 l-7 -38 -8 29 c-4 15 -4 31 1 35 17 12 14 36 -7
49 -15 10 -24 10 -34 2 -11 -9 -31 1 -94 46 -67 48 -80 62 -83 88 -2 25 -8 32
-30 34 -16 2 -28 8 -28 13 0 5 -7 9 -16 9 -13 0 -15 -7 -9 -39z m51 -2 c3 -5
2 -14 -1 -20 -7 -10 -45 16 -45 32 0 9 39 -1 46 -12z m-1078 -201 c-21 -16
-38 -23 -38 -14 0 1 5 17 11 35 11 31 12 31 31 14 19 -17 19 -17 -4 -35z
m1216 46 c12 -5 13 -9 4 -24 -14 -22 -28 -17 -28 11 0 21 1 22 24 13z m-209
-33 c-3 -6 -11 -11 -17 -11 -6 0 -6 6 2 15 14 17 26 13 15 -4z m-10 -30 c19
-8 19 -8 -1 -19 -16 -8 -24 -8 -32 0 -25 25 -8 35 33 19z m40 -11 c3 -5 1 -10
-4 -10 -6 0 -11 5 -11 10 0 6 2 10 4 10 3 0 8 -4 11 -10z m255 -10 c0 -5 -4
-10 -10 -10 -5 0 -10 5 -10 10 0 6 5 10 10 10 6 0 10 -4 10 -10z m-1110 -64
c0 -11 -19 -15 -25 -6 -3 5 1 10 9 10 9 0 16 -2 16 -4z m1203 -4 c3 -4 -6 -20
-19 -35 -24 -28 -29 -22 -18 21 6 21 28 30 37 14z m-1083 -12 c0 -5 -9 -14
-20 -20 -24 -13 -26 -7 -4 14 18 18 24 20 24 6z m63 -15 c-7 -21 -13 -19 -13
6 0 11 4 18 10 14 5 -3 7 -12 3 -20z m-157 -22 c-10 -10 -19 5 -10 18 6 11 8
11 12 0 2 -7 1 -15 -2 -18z m-628 -88 c-2 -2 -35 -7 -73 -10 -48 -3 -64 -2
-50 4 11 5 35 10 53 10 17 1 32 5 32 10 0 15 35 18 38 3 2 -7 2 -15 0 -17z
m-7 -45 c23 -13 51 -65 47 -88 -3 -12 -12 -5 -32 25 -16 25 -33 40 -41 37 -10
-4 -12 1 -8 15 6 24 8 25 34 11z m1694 -40 c10 -11 15 -20 10 -20 -4 0 0 -12
10 -26 20 -31 15 -39 -20 -30 -21 5 -24 11 -19 32 4 13 2 24 -2 23 -24 -4 -36
2 -30 16 4 13 2 13 -14 5 -23 -13 -50 -13 -50 -1 0 9 28 16 76 20 11 0 29 -8
39 -19z m-1714 -15 c1 -17 -18 -17 -25 0 -4 11 -1 15 10 13 8 -2 15 -7 15 -13z
m1649 -59 c0 -3 -4 -8 -10 -11 -5 -3 -10 -1 -10 4 0 6 5 11 10 11 6 0 10 -2
10 -4z m-1585 -26 c-3 -5 -12 -10 -18 -10 -7 0 -6 4 3 10 19 12 23 12 15 0z
m1810 -180 c8 -13 -3 -50 -15 -50 -13 0 -32 39 -25 50 8 13 32 13 40 0z m-82
-87 c-7 -2 -21 -2 -30 0 -10 3 -4 5 12 5 17 0 24 -2 18 -5z m-1718 -12 c3 -5
1 -12 -5 -16 -5 -3 -10 1 -10 9 0 18 6 21 15 7z m1477 -23 c-15 -15 -26 -4
-18 18 5 13 9 15 18 6 9 -9 9 -15 0 -24z m-812 -64 c0 -8 -5 -12 -10 -9 -6 4
-8 11 -5 16 9 14 15 11 15 -7z m158 -82 c2 -7 -3 -12 -12 -12 -9 0 -16 7 -16
16 0 17 22 14 28 -4z m-474 -11 c3 -5 -1 -11 -9 -15 -9 -3 -15 0 -15 9 0 16
16 20 24 6z m1595 -45 c-13 -27 -29 -35 -29 -14 0 13 31 50 37 44 2 -2 -2 -15
-8 -30z m-1557 -20 c-3 -5 -9 -1 -12 10 -4 10 -5 23 -2 28 3 5 9 1 12 -10 4
-10 5 -23 2 -28z m1648 36 c0 -13 -12 -22 -22 -16 -10 6 -1 24 13 24 5 0 9 -4
9 -8z m162 -24 c-7 -7 -12 -8 -12 -2 0 14 12 26 19 19 2 -3 -1 -11 -7 -17z
m-1852 -2 c0 -8 -7 -16 -15 -20 -8 -3 -15 -12 -15 -21 0 -8 -4 -15 -10 -15
-13 0 -13 26 0 51 12 22 40 26 40 5z m1698 -31 c17 -36 15 -41 -8 -20 -20 18
-27 45 -12 45 5 0 14 -11 20 -25z m-31 -31 c-3 -3 -12 -4 -19 -1 -8 3 -5 6 6
6 11 1 17 -2 13 -5z m-173 -20 c23 -9 20 -23 -4 -17 -11 3 -20 9 -20 14 0 11
3 11 24 3z m-829 -143 c94 -42 138 -107 141 -206 1 -33 5 -114 9 -181 l8 -121
-59 -6 c-32 -4 -143 -9 -246 -13 l-188 -7 0 46 c0 31 -5 47 -16 51 -9 4 -12
11 -7 18 10 17 10 39 1 60 -5 10 -3 18 5 21 9 3 11 29 9 96 -2 102 11 142 65
193 69 65 194 88 278 49z m535 -8 c0 -5 -4 -15 -10 -23 -11 -18 -25 -7 -17 15
6 15 27 21 27 8z m300 -52 c0 -11 -4 -23 -10 -26 -5 -3 -10 -1 -10 4 0 6 -8
11 -17 11 -15 0 -14 2 3 15 26 20 34 19 34 -4z m900 16 c0 -2 -11 -14 -25 -27
-27 -25 -35 -12 -9 14 14 14 34 22 34 13z m-1095 -37 c3 -5 1 -10 -4 -10 -6 0
-11 5 -11 10 0 6 2 10 4 10 3 0 8 -4 11 -10z m-1060 -10 c3 -5 -1 -10 -9 -10
-9 0 -16 5 -16 10 0 6 4 10 9 10 6 0 13 -4 16 -10z m2062 -97 c-3 -3 -11 -2
-17 2 -9 6 -9 10 1 16 14 8 27 -7 16 -18z m-267 -27 c0 -34 -32 -71 -54 -63
-16 6 -14 12 14 47 17 22 34 40 36 40 2 0 4 -11 4 -24z m620 -22 c0 -9 8 -23
18 -30 14 -10 15 -16 5 -32 -10 -17 -9 -21 8 -25 10 -3 19 -12 19 -21 0 -20
-35 -56 -55 -56 -8 0 -15 -4 -15 -10 0 -5 -13 -10 -30 -10 -16 0 -30 -5 -30
-11 0 -6 -12 -9 -27 -7 -19 2 -29 10 -33 28 -5 21 -11 25 -38 22 -28 -3 -32
-1 -32 22 0 14 9 31 22 40 30 21 41 20 35 -3 -3 -12 1 -22 9 -25 17 -7 17 -10
-2 53 -8 29 -13 56 -10 59 3 3 23 0 43 -6 20 -6 40 -8 43 -3 7 11 43 30 58 31
6 0 12 -7 12 -16z m-1150 -34 c0 -15 -27 -23 -47 -16 -15 6 -15 8 -3 16 20 13
50 12 50 0z m-146 -52 c5 -15 7 -31 3 -34 -8 -8 -46 36 -47 54 0 24 34 8 44
-20z m336 2 c0 -5 -4 -10 -10 -10 -5 0 -10 5 -10 10 0 6 5 10 10 10 6 0 10 -4
10 -10z m-1490 -15 c0 -9 -6 -12 -15 -9 -8 4 -15 10 -15 15 0 5 7 9 15 9 8 0
15 -7 15 -15z m-390 -17 c0 -5 -6 -8 -14 -5 -7 3 -19 0 -25 -6 -8 -8 -11 -8
-11 1 0 13 31 32 42 26 5 -3 8 -10 8 -16z m1980 12 c0 -5 -5 -10 -11 -10 -5 0
-7 5 -4 10 3 6 8 10 11 10 2 0 4 -4 4 -10z m91 -37 c-11 -41 -31 -41 -31 0 0
39 8 51 26 36 7 -6 9 -19 5 -36z m49 33 c0 -2 -3 -11 -6 -20 -9 -23 -24 -20
-24 4 0 11 7 20 15 20 8 0 15 -2 15 -4z m350 -16 c0 -11 -7 -20 -15 -20 -18 0
-19 12 -3 28 16 16 18 15 18 -8z m-3675 -10 c6 -10 -33 -75 -41 -68 -2 2 1 21
7 41 10 37 22 46 34 27z m62 -12 c-3 -8 -6 -5 -6 6 -1 11 2 17 5 13 3 -3 4
-12 1 -19z m809 8 c3 -8 -5 -34 -18 -58 l-23 -43 -3 44 c-2 24 -1 50 2 57 7
18 35 18 42 0z m-925 -35 c-15 -27 -14 -41 3 -41 24 0 29 -19 11 -46 -11 -18
-23 -24 -36 -21 -12 3 -19 0 -19 -8 0 -25 -21 -27 -46 -4 -13 12 -24 25 -24
29 0 14 114 132 118 122 2 -6 -1 -20 -7 -31z m540 -2 c4 -19 7 -26 8 -16 1 19
21 24 21 5 0 -7 -7 -21 -15 -32 -13 -17 -15 -16 -29 19 -19 45 -20 68 -3 63 6
-3 15 -20 18 -39z m1187 19 c-2 -6 -18 -16 -36 -24 -27 -11 -32 -11 -32 1 0
19 39 45 57 38 7 -3 12 -10 11 -15z m1329 6 c-3 -3 -12 -4 -19 -1 -8 3 -5 6 6
6 11 1 17 -2 13 -5z m-2717 -35 c0 -10 -27 -19 -34 -12 -3 4 -6 15 -6 25 0 16
3 16 20 6 11 -7 20 -16 20 -19z m498 7 c-12 -7 -25 -11 -28 -9 -8 8 32 33 42
27 6 -4 -1 -12 -14 -18z m419 -40 c-2 -6 -11 -12 -20 -14 -14 -3 -17 4 -17 35
l1 38 20 -24 c11 -13 18 -29 16 -35z m62 -32 c33 -24 11 -43 -23 -20 -28 18
-34 36 -13 36 7 0 23 -7 36 -16z m-1450 -40 c-15 -18 -22 -13 -13 10 3 9 10
13 16 10 5 -3 4 -12 -3 -20z m1654 -26 c-13 -12 -26 -19 -29 -15 -4 4 1 14 12
22 29 22 41 18 17 -7z m2277 12 c0 -5 -4 -10 -10 -10 -5 0 -10 5 -10 10 0 6 5
10 10 10 6 0 10 -4 10 -10z m-3925 -40 c-3 -5 -13 -10 -21 -10 -8 0 -12 5 -9
10 3 6 13 10 21 10 8 0 12 -4 9 -10z m95 0 c0 -5 -4 -10 -10 -10 -5 0 -10 5
-10 10 0 6 5 10 10 10 6 0 10 -4 10 -10z m-22 -44 c9 -19 8 -27 -4 -36 -11
-10 -14 -9 -14 8 0 11 -3 27 -6 36 -10 26 12 18 24 -8z m2597 14 c4 -6 -5 -10
-20 -10 -15 0 -24 4 -20 10 3 6 12 10 20 10 8 0 17 -4 20 -10z m-1210 -60 c-3
-5 -13 -10 -21 -10 -8 0 -12 5 -9 10 3 6 13 10 21 10 8 0 12 -4 9 -10z m-1240
-58 c-21 -5 -40 12 -30 28 5 8 13 6 27 -7 18 -16 19 -18 3 -21z"/>
<path d="M5596 1471 c-18 -7 -18 -8 -2 -14 27 -11 36 -8 36 8 0 16 -5 17 -34
6z"/>
<path d="M5971 3136 c-9 -11 -10 -20 -1 -35 6 -12 13 -21 16 -21 2 0 0 9 -6
20 -14 26 -3 45 16 29 12 -10 13 -9 8 5 -8 20 -18 20 -33 2z"/>
<path d="M5166 3043 c-6 -14 -5 -15 5 -6 7 7 10 15 7 18 -3 3 -9 -2 -12 -12z"/>
<path d="M5850 3041 c0 -6 4 -13 10 -16 6 -3 7 1 4 9 -7 18 -14 21 -14 7z"/>
<path d="M6063 3038 c3 -10 2 -20 -3 -23 -6 -4 -10 -11 -10 -18 0 -6 6 -2 14
9 15 19 15 19 30 -1 8 -11 16 -17 16 -13 0 4 -12 20 -27 35 -16 17 -24 21 -20
11z"/>
<path d="M5055 2990 c-9 -16 -13 -30 -11 -30 3 0 12 14 21 30 9 17 13 30 11
30 -3 0 -12 -13 -21 -30z"/>
<path d="M5170 2970 c-6 -11 -8 -20 -6 -20 3 0 10 9 16 20 6 11 8 20 6 20 -3
0 -10 -9 -16 -20z"/>
<path d="M1850 2936 c0 -2 7 -7 16 -10 8 -3 12 -2 9 4 -6 10 -25 14 -25 6z"/>
<path d="M6076 2916 c17 -27 17 -29 -1 -42 -20 -15 -17 -18 9 -8 22 8 20 27
-5 55 l-20 24 17 -29z"/>
<path d="M5404 2898 l-19 -23 23 19 c21 18 27 26 19 26 -2 0 -12 -10 -23 -22z"/>
<path d="M5720 2917 c0 -3 12 -12 26 -22 15 -9 23 -12 20 -6 -7 11 -46 35 -46
28z"/>
<path d="M5960 2890 c6 -11 13 -20 16 -20 2 0 0 9 -6 20 -6 11 -13 20 -16 20
-2 0 0 -9 6 -20z"/>
<path d="M1780 2890 c-8 -5 -12 -11 -10 -14 3 -2 14 2 24 10 22 15 10 19 -14
4z"/>
<path d="M5045 2889 c-4 -6 -5 -12 -2 -15 2 -3 7 2 10 11 7 17 1 20 -8 4z"/>
<path d="M988 2883 c7 -3 16 -2 19 1 4 3 -2 6 -13 5 -11 0 -14 -3 -6 -6z"/>
<path d="M1896 2819 c10 -15 23 -25 27 -22 5 3 7 6 5 7 -2 0 -14 10 -27 21
l-25 20 20 -26z"/>
<path d="M5040 2831 c0 -10 29 -36 34 -30 1 2 -6 12 -16 22 -10 9 -18 13 -18
8z"/>
<path d="M5155 2811 c-8 -16 -19 -32 -25 -34 -6 -3 -5 -4 2 -3 13 3 55 66 44
66 -3 0 -12 -13 -21 -29z"/>
<path d="M1875 2806 c10 -14 19 -26 22 -26 7 0 -17 39 -28 46 -6 3 -3 -5 6
-20z"/>
<path d="M1060 2800 c-6 -11 -8 -20 -6 -20 3 0 10 9 16 20 6 11 8 20 6 20 -3
0 -10 -9 -16 -20z"/>
<path d="M1750 2790 c12 -16 24 -30 26 -30 3 0 -4 14 -16 30 -12 17 -24 30
-26 30 -3 0 4 -13 16 -30z"/>
<path d="M1970 2791 c5 -11 15 -23 21 -27 6 -3 3 5 -6 20 -20 30 -30 35 -15 7z"/>
<path d="M5826 2795 c7 -18 6 -19 -12 -5 -18 14 -18 14 -3 -5 9 -11 22 -29 28
-40 11 -17 12 -16 6 15 -3 19 -10 39 -16 45 -7 7 -8 4 -3 -10z"/>
<path d="M6367 2762 c-20 -4 -20 14 -4 -306 21 -410 19 -386 38 -386 17 0 19
9 19 83 -1 45 -5 156 -10 247 -5 91 -11 209 -14 264 -3 54 -6 99 -8 100 -2 1
-11 0 -21 -2z"/>
<path d="M1870 2700 c12 -16 24 -30 26 -30 3 0 -4 14 -16 30 -12 17 -24 30
-26 30 -3 0 4 -13 16 -30z"/>
<path d="M642 2708 c-14 -14 -16 -28 -3 -28 9 0 24 30 18 36 -2 2 -9 -2 -15
-8z"/>
<path d="M5853 2675 c0 -27 2 -38 4 -22 2 15 2 37 0 50 -2 12 -4 0 -4 -28z"/>
<path d="M1957 2689 c4 -13 8 -18 11 -10 2 7 -1 18 -6 23 -8 8 -9 4 -5 -13z"/>
<path d="M940 2680 c-6 -11 -8 -20 -6 -20 3 0 10 9 16 20 6 11 8 20 6 20 -3 0
-10 -9 -16 -20z"/>
<path d="M1640 2667 c19 -20 36 -37 38 -37 9 0 -29 44 -50 58 -14 10 -10 2 12
-21z"/>
<path d="M855 2669 c-4 -6 -5 -12 -2 -15 2 -3 7 2 10 11 7 17 1 20 -8 4z"/>
<path d="M5302 2630 c0 -14 2 -19 5 -12 2 6 2 18 0 25 -3 6 -5 1 -5 -13z"/>
<path d="M630 2558 c0 -44 5 -67 18 -81 12 -15 14 -21 5 -24 -9 -3 -13 -31
-13 -94 0 -78 2 -89 18 -90 15 0 15 -2 2 -10 -12 -9 -14 -29 -8 -117 3 -59 8
-157 10 -218 2 -65 8 -117 15 -125 8 -11 9 -26 0 -62 -8 -36 -8 -50 1 -59 9
-9 15 -9 26 2 13 13 13 51 0 285 -18 354 -16 331 -36 327 -12 -2 -18 4 -18 18
0 11 7 20 15 20 18 0 20 36 3 43 -10 4 -10 8 1 15 11 8 12 32 6 121 -6 100 -9
111 -26 111 -17 0 -19 -8 -19 -62z"/>
<path d="M5310 2593 c0 -9 80 -56 85 -51 3 2 -11 12 -30 23 -19 10 -35 22 -35
27 0 4 -4 8 -10 8 -5 0 -10 -3 -10 -7z"/>
<path d="M1693 2558 c12 -16 23 -25 25 -19 5 16 -14 44 -31 47 -13 2 -12 -4 6
-28z"/>
<path d="M5524 2568 l-19 -23 23 19 c12 11 22 21 22 23 0 8 -8 2 -26 -19z"/>
<path d="M6053 2565 c0 -8 4 -12 9 -9 5 3 6 10 3 15 -9 13 -12 11 -12 -6z"/>
<path d="M6070 2540 c-6 -11 -8 -20 -6 -20 3 0 10 9 16 20 6 11 8 20 6 20 -3
0 -10 -9 -16 -20z"/>
<path d="M5145 2540 c3 -5 8 -10 11 -10 2 0 4 5 4 10 0 6 -5 10 -11 10 -5 0
-7 -4 -4 -10z"/>
<path d="M5478 2543 c7 -3 16 -2 19 1 4 3 -2 6 -13 5 -11 0 -14 -3 -6 -6z"/>
<path d="M6730 2446 c0 -71 4 -98 15 -110 8 -8 15 -21 15 -28 0 -10 -3 -9 -11
2 -7 11 -8 -36 -3 -155 5 -135 9 -172 22 -181 12 -9 12 -12 1 -16 -12 -5 -13
-31 -7 -154 4 -82 14 -300 23 -484 24 -523 27 -574 36 -585 4 -6 4 -17 -1 -25
-6 -8 -10 -28 -10 -45 -1 -84 -66 -212 -141 -275 -48 -40 -164 -102 -173 -92
-10 9 -6 -42 4 -58 8 -13 16 -13 62 4 150 53 266 178 304 326 23 90 17 331
-28 1140 -11 206 -22 413 -24 460 -1 47 -6 149 -10 228 l-6 142 -34 0 -34 0 0
-94z"/>
<path d="M1442 2500 c0 -14 2 -19 5 -12 2 6 2 18 0 25 -3 6 -5 1 -5 -13z"/>
<path d="M5060 2484 c0 -6 7 -19 16 -30 14 -18 14 -18 3 6 -14 31 -19 36 -19
24z"/>
<path d="M5418 2453 c13 -13 28 -23 35 -23 7 0 3 6 -8 12 -11 6 -27 16 -35 22
-9 6 -5 1 8 -11z"/>
<path d="M6070 2460 c-6 -11 -8 -20 -6 -20 3 0 10 9 16 20 6 11 8 20 6 20 -3
0 -10 -9 -16 -20z"/>
<path d="M5052 2445 c12 -14 23 -25 25 -25 2 0 -4 11 -13 25 -9 14 -20 25 -25
25 -5 0 1 -11 13 -25z"/>
<path d="M5986 2458 c5 -8 1 -9 -12 -4 -14 5 -16 4 -7 -5 6 -6 16 -8 22 -5 14
9 14 26 0 26 -5 0 -7 -5 -3 -12z"/>
<path d="M5170 2440 c6 -11 13 -20 16 -20 2 0 0 9 -6 20 -6 11 -13 20 -16 20
-2 0 0 -9 6 -20z"/>
<path d="M1176 2415 c6 -38 29 -95 40 -95 2 0 0 9 -6 21 -7 11 -9 23 -6 27 3
3 0 15 -8 27 -7 11 -16 30 -19 40 -4 11 -4 2 -1 -20z"/>
<path d="M6019 2441 c11 -7 10 -10 -5 -13 -17 -3 -17 -4 4 -10 14 -4 20 -2 15
5 -4 7 0 8 13 4 18 -7 18 -7 0 8 -11 8 -25 15 -30 15 -6 0 -5 -4 3 -9z"/>
<path d="M6080 2430 c-6 -11 -8 -20 -6 -20 3 0 10 9 16 20 6 11 8 20 6 20 -3
0 -10 -9 -16 -20z"/>
<path d="M5156 2417 c3 -10 9 -15 12 -12 3 3 0 11 -7 18 -10 9 -11 8 -5 -6z"/>
<path d="M6086 2377 c3 -10 9 -15 12 -12 3 3 0 11 -7 18 -10 9 -11 8 -5 -6z"/>
<path d="M5150 2361 c0 -6 4 -13 10 -16 6 -3 7 1 4 9 -7 18 -14 21 -14 7z"/>
<path d="M1251 2339 c8 -5 34 -8 59 -8 53 1 44 6 -24 12 -30 3 -43 1 -35 -4z"/>
<path d="M5294 2330 c0 -13 4 -16 10 -10 7 7 7 13 0 20 -6 6 -10 3 -10 -10z"/>
<path d="M6070 2330 c-6 -11 -8 -20 -6 -20 3 0 10 9 16 20 6 11 8 20 6 20 -3
0 -10 -9 -16 -20z"/>
<path d="M1850 2320 c-6 -11 -8 -20 -6 -20 3 0 10 9 16 20 6 11 8 20 6 20 -3
0 -10 -9 -16 -20z"/>
<path d="M5946 2331 c-3 -5 2 -15 12 -22 15 -12 16 -12 5 2 -7 9 -10 19 -6 22
3 4 4 7 0 7 -3 0 -8 -4 -11 -9z"/>
<path d="M5170 2326 c0 -2 8 -10 18 -17 15 -13 16 -12 3 4 -13 16 -21 21 -21
13z"/>
<path d="M1995 2309 c-11 -16 -1 -19 13 -3 7 8 8 14 3 14 -5 0 -13 -5 -16 -11z"/>
<path d="M1862 2266 c-16 -17 -19 -27 -11 -32 8 -4 9 -3 5 4 -4 7 -3 12 3 12
6 0 15 9 21 20 14 26 10 25 -18 -4z"/>
<path d="M1887 2255 c-4 -8 -3 -16 1 -19 4 -3 9 4 9 15 2 23 -3 25 -10 4z"/>
<path d="M955 2236 c10 -14 19 -26 22 -26 7 0 -17 39 -28 46 -6 3 -3 -5 6 -20z"/>
<path d="M5186 2245 c-3 -9 -10 -13 -16 -10 -5 3 -10 1 -10 -4 0 -6 4 -11 9
-11 12 0 35 29 29 36 -3 3 -8 -2 -12 -11z"/>
<path d="M870 2239 c0 -5 5 -7 10 -4 6 3 10 8 10 11 0 2 -4 4 -10 4 -5 0 -10
-5 -10 -11z"/>
<path d="M4720 2237 c0 -8 7 -18 16 -21 11 -4 14 -1 12 11 -4 21 -28 30 -28
10z"/>
<path d="M1896 2207 c3 -10 9 -15 12 -12 3 3 0 11 -7 18 -10 9 -11 8 -5 -6z"/>
<path d="M1393 2203 c9 -2 23 -2 30 0 6 3 -1 5 -18 5 -16 0 -22 -2 -12 -5z"/>
<path d="M1473 2203 c9 -2 23 -2 30 0 6 3 -1 5 -18 5 -16 0 -22 -2 -12 -5z"/>
<path d="M1765 2179 c-9 -17 -15 -33 -13 -35 3 -2 12 12 21 31 21 43 13 47 -8
4z"/>
<path d="M1776 2128 c3 -5 10 -6 15 -3 13 9 11 12 -6 12 -8 0 -12 -4 -9 -9z"/>
<path d="M1810 2116 c0 -3 9 -10 19 -16 15 -7 22 -7 27 2 4 7 4 10 -1 6 -4 -4
-16 -3 -26 3 -11 5 -19 7 -19 5z"/>
<path d="M1876 2104 c-8 -21 -8 -34 2 -34 4 0 8 11 8 25 2 29 -1 32 -10 9z"/>
<path d="M6390 1958 c0 -35 7 -193 15 -353 8 -159 15 -313 15 -342 0 -67 57
-58 -490 -79 -96 -4 -184 -10 -195 -15 -31 -12 31 -11 368 6 165 9 306 14 314
11 8 -3 13 -22 13 -50 0 -31 5 -46 16 -50 9 -4 19 -4 22 -2 4 5 -24 650 -33
741 -2 22 -4 75 -4 118 -1 70 -3 77 -21 77 -18 0 -20 -7 -20 -62z m40 -168 c0
-5 -4 -10 -10 -10 -5 0 -10 5 -10 10 0 6 5 10 10 10 6 0 10 -4 10 -10z"/>
<path d="M317 1824 c-3 -3 -3 -12 0 -20 6 -17 -9 -18 -25 -2 -6 6 -14 9 -17 7
-2 -3 2 -153 11 -335 13 -274 18 -331 31 -341 12 -9 13 -16 5 -26 -17 -20 -14
-137 3 -130 9 3 17 -9 25 -39 6 -23 13 -48 15 -55 5 -16 -12 -27 -20 -13 -16
26 -25 4 -25 -62 0 -86 7 -118 26 -118 7 0 16 -16 20 -37 5 -29 3 -39 -12 -50
-22 -16 -24 -42 -13 -179 14 -177 88 -316 207 -392 48 -31 92 -42 92 -22 0 6
7 10 15 10 30 0 14 25 -30 49 -67 35 -141 120 -180 205 -23 52 -39 74 -50 73
-10 -1 -22 6 -28 15 -9 14 -6 22 16 42 33 30 32 -13 7 496 -11 223 -25 504
-30 625 -6 121 -14 227 -17 235 -3 8 -5 27 -4 43 2 25 -8 35 -22 21z"/>
<path d="M705 1610 c-13 -20 -15 -46 -15 -165 0 -55 5 -101 10 -103 6 -2 6
-11 0 -23 -8 -13 -7 -25 0 -39 6 -11 8 -31 4 -45 -4 -18 -2 -25 9 -25 24 0 28
26 21 166 -5 102 -10 134 -21 134 -16 0 -17 22 -2 37 6 6 9 26 7 44 -2 27 -5
31 -13 19z"/>
<path d="M5894 1409 c-8 -13 -33 -94 -34 -111 0 -5 16 -8 36 -8 l37 0 -6 50
c-8 62 -20 89 -33 69z"/>
<path d="M5780 1369 c0 -28 27 -35 50 -14 24 22 20 27 -20 30 -24 2 -30 -1
-30 -16z"/>
<path d="M5715 1290 c-3 -5 1 -10 10 -10 9 0 13 5 10 10 -3 6 -8 10 -10 10 -2
0 -7 -4 -10 -10z"/>
<path d="M700 1180 c0 -19 3 -21 12 -12 9 9 9 15 0 24 -9 9 -12 7 -12 -12z"/>
<path d="M5445 1160 c-55 -4 -122 -8 -149 -9 -30 -1 -46 -5 -40 -10 5 -5 63
-5 139 0 72 4 149 8 173 9 23 0 42 5 42 10 0 11 -10 11 -165 0z"/>
<path d="M717 1148 c-16 -12 -16 -27 -7 -203 12 -209 28 -287 78 -366 70 -109
205 -199 327 -218 43 -6 286 2 845 29 432 21 786 39 787 39 0 1 -1 10 -4 21
-4 16 -14 20 -49 20 -33 0 -44 -4 -44 -15 0 -12 -3 -13 -19 -3 -25 15 -887
-24 -904 -41 -13 -13 -54 -15 -59 -2 -2 5 -109 4 -256 -2 -280 -12 -326 -8
-419 40 -72 36 -156 127 -195 209 -25 55 -32 82 -36 159 l-5 92 48 6 c26 4 64
7 83 7 19 0 32 3 28 7 -4 4 -43 6 -86 4 l-80 -3 -1 89 c-1 48 -4 101 -8 116
-5 25 -8 26 -24 15z"/>
<path d="M4988 1136 c-102 -6 -190 -15 -195 -20 -4 -5 37 -6 97 -2 58 3 158 9
223 12 64 4 117 11 117 15 0 5 -12 8 -27 7 -16 -1 -112 -6 -215 -12z"/>
<path d="M4670 1110 c0 -5 4 -10 9 -10 6 0 13 5 16 10 3 6 -1 10 -9 10 -9 0
-16 -4 -16 -10z"/>
<path d="M4303 1103 c-37 -2 -63 -9 -63 -15 0 -7 13 -8 38 -4 20 3 72 6 115 6
50 0 76 4 72 10 -6 10 -31 10 -162 3z"/>
<path d="M4490 1100 c0 -5 7 -7 15 -4 8 4 15 8 15 10 0 2 -7 4 -15 4 -8 0 -15
-4 -15 -10z"/>
<path d="M3906 1084 c-133 -7 -361 -18 -508 -25 -148 -7 -268 -16 -268 -21 0
-11 -36 -12 953 38 70 3 127 10 127 15 0 5 -14 8 -32 7 -17 -2 -140 -8 -272
-14z"/>
<path d="M6430 1030 c0 -19 3 -21 12 -12 9 9 9 15 0 24 -9 9 -12 7 -12 -12z"/>
<path d="M2830 1030 c-58 -4 -127 -8 -153 -9 -27 0 -46 -5 -42 -10 3 -6 33 -8
68 -5 34 2 138 9 231 14 93 5 171 12 174 15 7 6 -143 4 -278 -5z"/>
<path d="M5368 1023 c-31 -8 -19 -23 17 -23 24 0 35 5 35 15 0 15 -17 17 -52
8z"/>
<path d="M5570 1019 c0 -5 5 -7 10 -4 6 3 10 8 10 11 0 2 -4 4 -10 4 -5 0 -10
-5 -10 -11z"/>
<path d="M5263 908 c4 -62 7 -132 7 -156 l0 -43 83 3 c65 2 82 6 82 18 0 12
-12 14 -62 12 l-63 -4 0 34 c0 18 -3 43 -6 54 -5 20 -1 22 56 29 77 9 76 30
-1 30 l-54 0 -3 49 c-2 35 2 53 14 67 16 18 16 19 -21 19 l-38 0 6 -112z"/>
<path d="M2085 994 c-143 -7 -446 -22 -674 -33 -372 -18 -434 -23 -420 -34 7
-6 1550 71 1556 77 9 9 -169 5 -462 -10z"/>
<path d="M4803 1000 c-72 -29 -92 -197 -33 -280 42 -59 126 -55 163 7 26 46
25 167 -2 221 -27 52 -77 72 -128 52z m77 -42 c27 -29 35 -60 35 -134 0 -75
-22 -114 -65 -114 -41 0 -67 37 -74 108 -14 121 46 201 104 140z"/>
<path d="M5000 966 c0 -25 5 -48 11 -52 8 -5 8 -9 -1 -14 -20 -12 0 -205 20
-205 12 0 15 14 15 65 0 58 2 65 21 68 15 2 28 -8 47 -38 15 -22 31 -40 36
-40 4 0 13 -11 19 -25 11 -25 42 -35 42 -14 0 5 -18 37 -41 70 l-40 60 25 30
c32 38 35 90 6 119 -16 16 -33 20 -90 20 l-70 0 0 -44z m129 5 c8 -5 14 -24
14 -42 0 -39 -32 -69 -74 -69 -29 0 -29 1 -29 60 l0 60 38 0 c20 0 43 -4 51
-9z"/>
<path d="M5583 980 c-33 -20 -33 -21 -68 -160 -9 -36 -18 -73 -21 -82 -4 -13
0 -18 14 -18 13 0 22 10 28 33 9 31 12 32 65 35 51 3 56 1 67 -23 7 -14 20
-25 31 -25 19 0 18 4 -9 78 -15 42 -35 91 -44 107 -9 17 -16 40 -16 53 0 27
-6 27 -47 2z m36 -80 c29 -76 28 -80 -19 -80 -32 0 -40 4 -40 18 0 22 30 125
35 120 2 -1 13 -28 24 -58z"/>
<path d="M6439 993 c-9 -2 -19 -17 -23 -34 -26 -133 -177 -284 -313 -314 -24
-5 -33 -12 -33 -27 0 -18 4 -20 31 -14 17 3 36 6 41 6 6 0 5 7 -2 15 -10 12
-10 15 3 15 8 0 17 -5 19 -11 5 -14 48 6 48 22 0 6 7 17 15 26 12 11 19 12 29
3 22 -18 125 89 164 170 31 63 56 151 43 149 -3 -1 -13 -3 -22 -6z"/>
<path d="M4624 951 c-14 -22 -23 -45 -19 -50 3 -6 0 -11 -7 -11 -7 0 -22 -12
-34 -27 l-21 -27 -7 72 c-6 61 -10 72 -26 72 -16 0 -18 -7 -14 -82 11 -203 15
-229 32 -226 14 3 16 15 13 77 -2 46 0 72 7 70 5 -2 35 -34 67 -71 42 -50 64
-68 82 -68 l25 0 -29 34 c-15 19 -45 55 -66 80 l-39 45 23 33 c13 17 22 42 21
55 -1 13 4 23 12 23 7 0 21 9 31 20 18 19 17 20 -3 20 -14 0 -31 -14 -48 -39z"/>
<path d="M4066 962 l-58 -3 7 -117 c12 -197 12 -197 26 -197 10 0 15 20 17 73
l3 72 29 1 c17 1 35 3 40 4 6 1 17 3 25 4 8 0 15 8 15 16 0 12 -12 15 -57 13
l-58 -3 -3 52 -3 51 66 7 c36 4 65 11 65 16 0 5 -6 9 -14 9 -8 0 -20 1 -28 3
-7 2 -39 1 -72 -1z"/>
<path d="M3794 950 c-11 -4 -29 -25 -39 -47 -38 -79 -29 -183 21 -243 21 -25
33 -30 67 -30 23 0 50 7 59 14 43 32 61 144 38 227 -18 65 -88 103 -146 79z
m87 -46 c48 -52 33 -254 -20 -254 -58 0 -99 93 -86 191 12 85 59 113 106 63z"/>
<path d="M3324 926 c-53 -23 -77 -69 -78 -145 -1 -76 20 -130 62 -157 35 -23
106 -24 129 -2 23 24 13 30 -26 17 -47 -16 -85 3 -111 55 -22 47 -25 83 -10
137 15 53 43 74 96 72 48 -2 63 20 22 31 -33 8 -49 7 -84 -8z"/>
<path d="M3086 911 c-38 -3 -71 -10 -73 -16 -4 -12 48 -12 67 0 10 6 11 2 6
-21 l-7 -28 21 19 c12 11 27 20 33 21 7 0 18 2 25 2 6 1 12 9 12 17 0 8 -3 14
-7 13 -5 -1 -39 -4 -77 -7z"/>
<path d="M2759 893 c-4 -47 8 -305 14 -309 1 -1 38 2 82 5 96 7 102 25 10 29
l-65 3 -1 87 c-1 114 -11 184 -26 190 -7 2 -13 0 -14 -5z"/>
<path d="M2517 883 c-27 -4 -27 -5 -22 -71 3 -37 8 -106 11 -154 l6 -88 36 0
c49 0 107 17 122 35 7 8 12 31 13 51 1 28 -5 42 -27 61 -26 22 -27 25 -12 42
26 29 30 74 9 100 -19 24 -77 34 -136 24z m94 -33 c24 -13 25 -61 2 -83 -10
-8 -30 -18 -44 -22 -25 -6 -26 -5 -32 47 -2 29 -3 56 0 61 6 10 51 9 74 -3z
m22 -162 c34 -40 11 -80 -49 -82 l-39 -1 -3 44 c-5 63 2 74 40 66 18 -4 41
-16 51 -27z"/>
<path d="M2400 747 c0 -117 -2 -136 -18 -150 -45 -41 -102 -4 -102 66 0 23 -3
79 -7 125 -5 72 -8 82 -25 82 -18 0 -19 -6 -13 -112 8 -130 18 -172 48 -193
44 -31 123 -9 145 40 21 46 9 275 -14 275 -11 0 -14 -28 -14 -133z"/>
<path d="M1995 723 c7 -163 11 -183 30 -183 12 0 15 14 15 59 l0 58 40 7 c90
14 142 115 87 170 -23 23 -34 26 -102 26 l-76 0 6 -137z m137 90 c24 -21 23
-64 -2 -90 -19 -21 -76 -40 -87 -30 -3 3 -8 35 -10 71 l-6 66 43 0 c26 0 51
-7 62 -17z"/>
<path d="M1753 693 c4 -86 9 -158 11 -161 10 -10 160 13 164 26 3 9 -14 12
-62 12 -61 0 -66 2 -72 24 -3 13 -4 37 -2 52 3 27 7 29 53 34 35 3 50 9 50 20
0 11 -12 13 -52 11 l-53 -2 0 55 0 56 38 0 c46 0 82 9 82 21 0 5 -37 9 -82 9
l-81 0 6 -157z"/>
<path d="M1489 828 c-3 -33 2 -190 7 -245 5 -53 9 -63 25 -63 16 0 18 8 16 68
-2 61 0 67 18 67 12 0 35 -22 63 -62 28 -40 50 -63 63 -63 27 0 24 9 -21 74
-22 31 -40 60 -40 63 0 4 9 16 20 28 12 12 23 38 27 58 4 29 1 40 -20 61 -23
23 -35 26 -92 26 -45 0 -65 -4 -66 -12z m122 -28 c23 -13 25 -57 3 -88 -10
-15 -25 -22 -49 -22 -33 0 -33 0 -37 53 -3 28 -3 55 -1 60 6 11 61 9 84 -3z"/>
<path d="M3082 818 c-24 -24 -11 -158 15 -158 28 0 1 -20 -43 -31 -24 -6 -44
-15 -44 -20 0 -14 173 -6 178 9 2 8 -8 12 -31 12 -33 0 -34 1 -41 46 -3 26 -6
71 -6 100 0 55 -6 64 -28 42z"/>
<path d="M5839 626 c-2 -2 -94 -7 -204 -11 -110 -4 -203 -9 -206 -11 -4 -2
-84 -6 -180 -9 -95 -3 -177 -9 -182 -14 -4 -4 -5 -15 -1 -24 5 -15 17 -17 83
-12 42 3 164 10 271 16 107 6 222 12 255 15 33 2 93 3 133 3 56 0 78 4 93 17
10 9 19 21 19 26 0 8 -72 12 -81 4z"/>
<path d="M5964 615 c6 -17 -9 -21 -19 -5 -7 12 -25 4 -25 -11 0 -5 16 -9 35
-9 19 0 35 2 35 4 0 14 -14 36 -22 36 -6 0 -8 -7 -4 -15z"/>
<path d="M4505 558 c-210 -10 -361 -22 -363 -28 -5 -13 -39 -13 -44 -1 -2 6
-51 6 -128 0 -69 -5 -133 -9 -143 -9 -10 -1 -16 -7 -14 -13 3 -9 40 -11 133
-10 232 3 249 4 255 14 10 17 48 18 64 2 12 -12 22 -13 45 -4 17 5 37 8 45 5
15 -6 451 11 578 22 46 4 67 10 67 19 0 7 6 16 13 18 22 9 -141 5 -508 -15z"/>
<path d="M3490 507 c-80 -4 -174 -7 -209 -7 -77 1 -123 -8 -115 -22 3 -5 17
-7 30 -4 17 5 24 2 24 -9 0 -14 21 -21 32 -10 3 3 88 8 189 11 260 7 333 15
337 36 4 20 -10 20 -288 5z"/>
<path d="M2880 480 c-58 -4 -106 -8 -106 -9 -1 0 -4 -10 -7 -21 -5 -18 0 -20
36 -20 80 1 339 19 344 24 3 3 0 12 -7 21 -14 16 -69 17 -260 5z"/>
<path d="M6369 286 c-4 -4 -244 -16 -325 -16 -64 0 -89 -17 -80 -53 5 -21 13
-27 32 -27 17 0 24 4 21 13 -3 6 -8 20 -12 30 -5 12 -2 17 8 17 17 0 47 -26
47 -41 0 -5 14 -9 30 -9 23 0 30 5 30 19 0 10 7 21 15 25 12 4 14 0 9 -21 l-7
-26 99 6 c54 4 121 7 148 7 38 0 47 3 42 15 -3 8 4 21 16 29 l21 15 -27 11
c-27 10 -59 13 -67 6z"/>
<path d="M5728 253 c-14 -2 -32 -11 -38 -19 -16 -18 -30 -18 -30 1 0 10 -11
15 -35 15 -40 0 -45 -15 -19 -55 19 -29 42 -32 60 -7 10 14 15 15 25 5 7 -7
21 -13 30 -13 10 0 20 6 22 13 4 10 6 10 6 0 1 -15 108 -18 130 -4 12 7 12 13
0 40 -13 30 -16 31 -69 30 -30 -1 -67 -4 -82 -6z"/>
<path d="M5912 228 c2 -24 9 -34 23 -36 18 -2 19 -2 2 8 -12 8 -15 18 -11 36
4 15 2 24 -6 24 -7 0 -10 -13 -8 -32z"/>
<path d="M5275 230 c-60 -4 -134 -8 -163 -9 -60 -1 -77 -20 -46 -49 26 -23
147 -28 177 -7 24 17 67 20 67 5 0 -5 13 -10 30 -10 22 0 28 4 24 15 -8 19 5
19 25 1 11 -10 32 -12 69 -9 47 5 52 8 52 29 0 27 -3 28 -31 14 -15 -8 -22 -6
-36 10 -10 11 -27 19 -38 18 -11 -1 -69 -5 -130 -8z"/>
<path d="M5015 210 c-3 -5 1 -10 9 -10 9 0 16 5 16 10 0 6 -4 10 -9 10 -6 0
-13 -4 -16 -10z"/>
<path d="M4600 195 c-102 -7 -186 -13 -188 -14 -2 -1 0 -6 3 -11 3 -6 18 -7
32 -4 19 5 24 4 18 -5 -16 -27 27 -40 120 -36 50 2 158 7 240 10 83 4 152 9
155 12 2 2 -2 8 -9 13 -8 4 -11 15 -8 25 4 9 11 13 17 10 5 -3 10 -1 10 4 0
14 -144 12 -390 -4z"/>
<path d="M4025 169 c-71 -3 -152 -8 -180 -9 -27 -1 -44 -4 -36 -7 11 -4 8 -10
-9 -23 -15 -11 -19 -19 -11 -24 6 -4 11 -2 11 3 0 6 5 11 11 11 6 0 8 -9 4
-21 -6 -19 -4 -21 16 -16 13 3 113 9 223 13 182 6 199 8 203 25 7 24 12 24 28
2 12 -17 14 -17 34 1 20 18 22 18 40 2 25 -23 38 -3 20 30 -12 23 -16 24 -118
22 -58 -1 -164 -5 -236 -9z"/>
<path d="M5035 160 c-18 -8 -17 -9 8 -9 16 -1 26 3 22 9 -3 6 -7 10 -8 9 -1 0
-11 -4 -22 -9z"/>
<path d="M3595 150 c-66 -4 -234 -14 -372 -21 -139 -7 -253 -16 -253 -19 0 -4
18 -15 40 -25 22 -10 40 -23 40 -28 0 -7 48 -8 138 -3 75 4 175 9 222 11 316
14 371 18 363 26 -5 5 -28 10 -51 11 -47 1 -58 22 -17 32 22 6 38 29 18 25 -5
-1 -62 -5 -128 -9z"/>
<path d="M2759 106 c-2 -2 -71 -6 -152 -10 -110 -5 -154 -10 -172 -22 -20 -13
-31 -14 -56 -5 -18 6 -67 11 -110 11 -64 0 -79 -3 -79 -15 0 -18 -26 -20 -36
-4 -5 9 -61 10 -208 5 -287 -9 -313 -13 -319 -42 l-4 -24 221 0 c205 0 1125
38 1136 47 3 3 -3 9 -13 14 -9 6 -17 19 -17 29 0 18 -7 20 -93 20 -52 0 -96
-2 -98 -4z m-769 -76 c0 -5 -4 -10 -10 -10 -5 0 -10 5 -10 10 0 6 5 10 10 10
6 0 10 -4 10 -10z"/>
<path d="M1509 45 c-3 -2 -70 -7 -150 -9 -574 -19 -647 -33 -179 -35 306 -1
391 2 382 11 -18 18 -15 26 11 31 12 2 4 5 -19 6 -22 0 -43 -1 -45 -4z"/>
</g>
</svg>
