<?xml version="1.0" encoding="UTF-8" standalone="no"?><!DOCTYPE svg PUBLIC "-//W3C//DTD SVG 1.1//EN" "http://www.w3.org/Graphics/SVG/1.1/DTD/svg11.dtd"><svg width="100%" height="100%" viewBox="0 0 12450 22225" version="1.1" xmlns="http://www.w3.org/2000/svg" xmlns:xlink="http://www.w3.org/1999/xlink" xml:space="preserve" xmlns:serif="http://www.serif.com/" style="fill-rule:evenodd;clip-rule:evenodd;stroke-linejoin:round;stroke-miterlimit:2;"><path d="M6700.38,3914.916c39.019,-269.351 25.491,-547.763 0.498,-817.879c-37.06,-400.507 -43.556,-800.338 -64.153,-1201.446c-17.116,-333.243 -68.211,-663.957 -88.587,-996.908c-2.438,-40.119 21.785,-306.494 -58.455,-220.807c-468.376,500.075 -530.776,1284.011 -684.479,1895.799c-91.236,363.286 -224.728,716.939 -364.114,1066.825c-28.455,71.452 -63.688,127.479 -110.87,188.79c-24.148,31.38 -21.456,-75.447 -43.5,-108.131c-267.772,-397.544 -682.169,-747.76 -1039.002,-1075.009c-180.631,-165.637 -371.991,-321.731 -558.48,-481.794c-58.85,-50.505 -131.805,-128.257 -138.104,-7.552c-13.734,263.606 75.262,534.419 141.486,787.862c113.233,433.401 236.344,864.608 376.618,1291.421c76.088,231.541 158.607,460.502 222.036,695.359c29.972,111.016 101.406,268.732 83.693,387.278c-17.858,119.652 -425.67,-15.748 -506.962,-32.348c-756.002,-154.339 -1486.415,-396.017 -2245.071,-538.358c-238.772,-44.798 -477.929,-82.444 -718.068,-119.875c-5.505,-0.864 -233.77,-48.299 -218.213,-9.16c44.331,111.55 166.817,230.393 237.898,325.111c213.676,284.712 430.188,567.601 635.376,857.543c246.32,348.071 474.364,706.536 722.202,1053.743c184.032,257.8 383.17,506.522 559.772,768.742c34.815,51.661 88.31,94.378 38.455,149.248c-78.484,86.435 -177.306,159.457 -263.667,238.998c-210.824,194.11 -424.359,370.528 -596.935,594.802c-63.279,82.238 -131.218,142.939 -197.56,220.158c-38.455,44.789 -157.945,167.71 -214.098,176.603c-23.039,3.638 -73.627,-10.721 -90.504,1.712c-39.343,29.05 -72.439,75.456 -110.767,107.361c-17.144,14.295 -85.497,88.572 -54.167,100.919c266.692,105.112 663.601,138.269 945.243,99.053c220.773,-30.714 433.88,-102.428 645.719,-164.226c298.383,-87.05 606.141,-155.896 896.394,-264.332c229.772,-85.837 448.756,-194.931 678.721,-280.287c99.428,-36.898 93.068,-8.528 72.706,64.068c-139.734,498.518 -64.36,1034.825 38.042,1532.195c71.222,345.826 146.033,695.394 274.268,1028c33.561,87.071 69.512,288.742 138.01,359.381c21.522,22.16 40.423,-46.66 55.914,-72.661c60.654,-102.007 112.373,-208.194 173.093,-310.326c325.396,-547.548 667.274,-1082.461 1050.097,-1598.465c10.925,-14.751 152.688,-249.427 192.971,-195.925c86.027,114.186 126.385,269.093 180.956,397.075c309.656,725.905 683.409,1430.674 1074.803,2122.245c44.566,78.741 89.052,150.839 137.099,224.321c55.52,84.934 172.994,-376.166 180.561,-401.332c221.642,-735.65 260.496,-1484.58 219.171,-2244.576c-16.322,-299.936 -41.964,-600.293 -64.627,-899.924c-1.968,-25.945 -59.709,-271.136 36.365,-213.982c204.502,121.621 395.711,268.921 594.821,397.965c460.715,298.56 919.25,597.98 1369.87,909.337c161.481,111.563 343.884,238.951 508.836,351.107c39.77,27.041 160.425,128.64 227.1,137.881c41.799,5.81 -108.122,-332.439 -114.59,-347.121c-343.809,-778.659 -775.101,-1533.184 -1238.098,-2257.615c-234.211,-366.425 -483.735,-725.256 -723.371,-1088.809c-3.927,-5.96 -215.648,-316.415 -177.297,-310.343c103.796,16.501 217.367,98.063 306.02,143.059c322.991,163.835 651.938,317.994 984.535,464.803c681.765,300.946 1359.724,609.918 2044.904,904.177c20.508,8.829 393.109,162.041 389.074,140.84c-30.428,-160.141 -305.297,-374.988 -418.755,-480.379c-301.948,-280.463 -632.445,-535.068 -950.105,-800.213c-382.715,-319.46 -763.029,-640.933 -1162.526,-942.984c-534.182,-403.869 -1092.807,-793.556 -1659.498,-1159.083c-128.606,-82.952 81.603,-20.389 125.502,-10.605c221.886,49.498 437.14,118.452 660.459,164.248c702.422,144.1 1402.966,165.645 2117.178,222.721c282.38,22.573 560.406,69.668 838.713,117.592c100.189,17.245 237.753,70.467 341.85,66.012c85.6,-3.642 47.986,-41.749 -8.568,-88.478c-242.262,-200.212 -666.654,-312.644 -963.158,-415.279c-790.183,-273.57 -1610.258,-497.142 -2431.315,-678.536c-259.186,-57.256 -520.725,-103.061 -785.486,-131.865c-85.614,-9.332 -183.981,-34.262 -270.529,-28.611c-32.851,2.159 89.503,-99.698 107.549,-119.432c299.928,-327.992 581.411,-685.214 770.155,-1078.126c156.23,-325.231 318.458,-694.701 353.099,-1052.466c6.379,-65.857 -208.377,122.073 -245.963,148.886c-343.466,244.929 -582.102,586.45 -855.12,891.731c-222.21,248.472 -427.459,508.461 -646.452,758.813c-267.067,305.303 -541.763,602.383 -787.881,922.23" style="fill:#0021fa;fill-rule:nonzero;"/><path d="M6169.505,18218.905c-10.742,271.531 31.766,547.488 84.825,814.185c78.672,395.432 126.845,792.872 189.194,1190.343c51.8,330.224 137.165,654.956 192.182,984.604c6.609,39.723 10.287,306.997 81.222,214.683c414.068,-538.749 394.401,-1324.556 483.58,-1946.988c52.922,-369.603 148.907,-733.315 251.158,-1093.789c20.869,-73.615 50.099,-132.463 90.668,-197.624c20.766,-33.35 29.23,73.224 54.58,103.83c308.017,372.313 757.059,684.686 1146.397,979.237c197.085,149.084 403.856,287.731 606.188,430.756c63.848,45.129 144.581,116.143 138.259,-4.558c-13.828,-263.601 -130.668,-525.396 -223.027,-771.89c-157.926,-421.519 -325.462,-839.984 -509.616,-1252.583c-99.893,-223.826 -205.921,-444.526 -293.564,-672.765c-41.419,-107.89 -128.978,-258.634 -123.712,-378.191c5.294,-120.667 425.369,-21.545 508.019,-12.132c768.647,87.527 1520.933,264.225 2290.971,339.573c242.351,23.713 484.346,40.274 727.289,56.538c5.571,0.383 237.739,27.639 218.171,-9.964c-55.769,-107.163 -190.087,-214.752 -270.726,-302.821c-242.398,-264.724 -487.436,-527.387 -721.929,-798.063c-281.506,-324.939 -545.901,-661.824 -828.826,-985.77c-210.082,-240.525 -434.261,-470.699 -637.41,-716.277c-40.043,-48.38 -97.751,-86.224 -53.847,-145.205c69.108,-92.903 159.861,-174.233 237.527,-260.965c189.612,-211.656 383.762,-405.942 532.157,-644.283c54.411,-87.394 115.708,-153.759 173.689,-236.431c33.608,-47.95 139.724,-180.753 194.695,-194.519c22.555,-5.638 74.411,4.232 89.912,-9.616c36.135,-32.357 64.237,-81.446 99.057,-116.555c15.576,-15.731 75.867,-95.642 43.392,-105.198c-276.438,-81.309 -674.991,-79.61 -951.256,-15.942c-216.555,49.881 -421.212,139.903 -625.634,219.943c-287.937,112.745 -587.109,208.19 -864.721,341.508c-219.768,105.538 -426.369,233.283 -646.381,338.361c-95.121,45.426 -91.753,16.63 -79.057,-57.42c87.094,-508.461 -43.885,-1035.724 -197.705,-1521.865c-106.972,-338.021 -217.908,-679.443 -380.253,-999.316c-42.495,-83.739 -99.315,-281.345 -174.868,-345.671c-23.734,-20.178 -35.374,49.98 -48.075,77.219c-49.738,106.845 -90.142,217.07 -139.926,324.044c-266.786,573.501 -551.303,1135.864 -878.545,1682.987c-9.338,15.636 -125.967,261.64 -171.651,211.901c-97.549,-106.144 -153.877,-256.811 -221.553,-379.434c-383.969,-695.51 -829.53,-1364.37 -1291.283,-2018.552c-52.575,-74.484 -104.379,-142.363 -159.87,-211.308c-64.125,-79.692 -132.961,389.575 -137.869,415.283c-143.886,751.67 -104.435,1500.574 15.984,2253.482c47.535,297.141 104.393,593.877 158.212,890.157c4.669,25.657 87.723,264.676 -13.875,216.184c-216.254,-103.185 -421.954,-233.089 -633.615,-344.132c-489.757,-256.91 -977.428,-514.86 -1458.472,-785.389c-172.383,-96.932 -367.242,-207.79 -543.139,-305.006c-42.41,-23.442 -173.111,-114.023 -240.444,-117.394c-42.217,-2.129 142.308,321.464 150.279,335.514c423.467,745.034 931.5,1458.395 1467.955,2139.029c271.37,344.269 557.179,679.641 833.65,1020.573c4.528,5.591 247.668,296.113 208.861,293.416c-105.046,-7.349 -226.602,-78.608 -319.543,-115.644c-338.604,-134.841 -682.131,-259.533 -1028.518,-376.587c-710.041,-239.953 -1417.132,-488.227 -2129.879,-721.222c-21.339,-6.997 -408.215,-126.924 -401.987,-106.174c46.994,156.752 343.019,346.574 466.957,441.567c329.825,252.777 685.372,477.317 1029.237,713.473c414.288,284.532 826.402,571.278 1255.585,837.017c573.872,355.309 1170.596,694.366 1772.825,1008.665c136.671,71.327 -79.099,27.433 -123.82,21.528c-226.038,-29.867 -447.497,-79.683 -674.578,-105.744c-714.245,-82.018 -1413.83,-42.205 -2130.734,-36.567c-283.442,2.223 -565.112,-20.345 -847.149,-43.71c-101.528,-8.403 -244.019,-49.356 -347.176,-35.819c-84.83,11.112 -43.411,45.753 17.76,87.325c262.037,178.112 696.222,252.919 1002.074,329.158c815.11,203.218 1654.758,354.062 2490.982,462.825c263.977,34.331 529.095,57.054 795.65,62.572c86.196,1.802 186.714,18.019 272.277,4.821c32.476,-5.023 -78.695,107.069 -94.599,128.287c-264.343,352.72 -507.272,732.924 -654.164,1140.548c-121.589,337.406 -244.531,719.377 -241.694,1078.535c0.521,66.111 194.69,-139.735 229.307,-169.714c316.345,-273.845 518.259,-634.671 758.186,-962.431c195.272,-266.766 372.461,-543.514 564.337,-811.872c234,-327.261 476.445,-647.005 688.073,-986.914" style="fill:#0021fa;fill-rule:nonzero;"/><path d="M9935.147,14652.457c117.136,29.69 221.802,41.517 323.395,64.597c337.096,76.6 694.602,66.872 1017.706,202.371c7.652,3.208 20.921,-3.045 27.126,0.933c58.324,37.47 146.197,66.584 165.103,117.115c20.648,55.244 -138.193,107.817 -246.795,81.262c-199.711,-48.819 -399.258,-98.184 -598.645,-148.099c-132.792,-33.221 -263.704,-74.235 -398.098,-100.218c-205.183,-39.689 -436.144,-28.293 -613.497,-113.352c-244.052,-117.063 -509.95,-79.971 -757.895,-165.658c-289.379,-99.969 -612.21,-115.558 -916.483,-183.002c-376.608,-83.463 -748.895,-183.234 -1123.545,-274.279c-59.005,-14.333 -120.283,-23.007 -181.129,-28.185c-54.994,-4.679 -124.219,17.92 -163.243,-5.302c-63.214,-37.577 -106.84,-102.815 -158.724,-156.395c56.05,-31.32 108.385,-74.738 169.25,-90.525c59.709,-15.482 145.807,-26.521 189.819,1.2c286.974,180.693 660.275,126.055 946.737,300.959c478.733,39.491 920.062,221.418 1387.052,306.266c306.739,55.743 612.031,118.155 931.866,190.313Zm138.856,2673.865c172.797,95.29 349.408,147.291 479.728,278.829c44.561,44.974 146.61,38.167 217.067,66.21c180.505,71.869 355.354,156.141 537.62,223.714c142.81,52.947 295.349,83.592 439.08,134.764c37.751,13.439 85.407,68.915 81.809,100.648c-6.989,61.768 -36.464,128.833 -139.565,101.418c-42.448,-11.306 -110.753,11.843 -132.514,-9.925c-140.542,-140.552 -352.85,-122.993 -519.499,-208.538c-162.538,-83.446 -351.794,-121.738 -523.313,-192.158c-257.852,-105.865 -511.457,-220.614 -764.786,-335.471c-92.631,-41.985 -177.16,-98.838 -269.144,-142.238c-205.77,-97.117 -416.459,-185.638 -620.467,-285.676c-303.55,-148.83 -603.713,-303.522 -903.035,-459.38c-23.288,-12.132 -27.558,-53.631 -42.823,-80.453c-10.822,-18.974 -25.284,-36.176 -38.126,-54.186c25.073,-4.748 55.346,-20.354 74.411,-12.652c469.63,189.956 938.071,382.384 1406.7,574.379c234.324,95.991 468.653,191.981 716.857,300.71l-0,0.004Zm402.738,-4698.382c224.089,-96.795 438.845,-149.261 625.437,-278.778c180.448,-125.234 425.655,-144.784 658.923,-124.894c13.701,1.183 39.005,62.696 29.728,86.62c-51.142,131.99 -159.527,200.277 -311.103,216.025c-60.203,6.253 -125.863,10.089 -177.686,34.941c-252.234,120.951 -517.521,208.929 -793.26,268.259c-195.066,41.964 -393.128,92.46 -591.148,97.621c-251.332,6.558 -479.555,87.764 -717.989,134.407c-318.759,62.34 -634.676,111.24 -944.332,-28.202c-24.326,-10.949 -37.694,-42.394 -56.168,-64.309c20,-12.041 39.611,-33.741 60.085,-34.477c101.476,-3.582 203.286,-4.442 304.762,-1.058c205.949,6.881 399.408,-45.71 596.944,-88.624c171.19,-37.216 351.733,-36.696 525.314,-66.55c255.56,-43.938 508.616,-100.059 790.502,-150.981l-0.009,0Z" style="fill:#ffdc49;fill-rule:nonzero;"/><path d="M9461.45,5685.095c117.136,29.69 221.802,41.517 323.395,64.597c337.096,76.604 694.602,66.872 1017.706,202.371c7.652,3.208 20.921,-3.045 27.126,0.933c58.324,37.47 146.197,66.584 165.103,117.115c20.648,55.244 -138.193,107.817 -246.795,81.262c-199.711,-48.819 -399.258,-98.184 -598.645,-148.099c-132.792,-33.221 -263.704,-74.235 -398.098,-100.218c-205.183,-39.689 -436.144,-28.293 -613.502,-113.352c-244.052,-117.063 -509.95,-79.971 -757.895,-165.658c-289.379,-99.969 -612.21,-115.558 -916.483,-183.002c-376.608,-83.463 -748.895,-183.234 -1123.545,-274.279c-59.005,-14.333 -120.283,-23.007 -181.129,-28.185c-54.994,-4.675 -124.219,17.92 -163.243,-5.302c-63.214,-37.573 -106.84,-102.815 -158.724,-156.395c56.05,-31.32 108.385,-74.738 169.25,-90.525c59.714,-15.482 145.807,-26.521 189.824,1.2c286.974,180.693 660.275,126.055 946.737,300.959c478.733,39.491 920.062,221.422 1387.052,306.266c306.739,55.747 612.031,118.155 931.866,190.313Zm138.86,2673.865c172.792,95.29 349.403,147.291 479.728,278.829c44.566,44.974 146.61,38.167 217.067,66.21c180.505,71.874 355.354,156.141 537.62,223.714c142.81,52.947 295.349,83.592 439.08,134.768c37.751,13.439 85.407,68.915 81.809,100.648c-6.989,61.768 -36.459,128.833 -139.56,101.418c-42.448,-11.306 -110.753,11.843 -132.519,-9.925c-140.542,-140.552 -352.85,-122.993 -519.499,-208.538c-162.538,-83.446 -351.794,-121.738 -523.313,-192.158c-257.852,-105.865 -511.457,-220.614 -764.786,-335.471c-92.631,-41.985 -177.16,-98.838 -269.144,-142.238c-205.77,-97.117 -416.454,-185.638 -620.467,-285.676c-303.55,-148.83 -603.713,-303.522 -903.035,-459.38c-23.288,-12.132 -27.558,-53.631 -42.823,-80.453c-10.822,-18.978 -25.284,-36.176 -38.126,-54.186c25.068,-4.748 55.346,-20.354 74.411,-12.652c469.63,189.956 938.071,382.384 1406.7,574.379c234.324,95.991 468.653,191.981 716.857,300.71Zm402.738,-4698.382c224.089,-96.795 438.845,-149.261 625.437,-278.778c180.448,-125.234 425.655,-144.784 658.923,-124.894c13.701,1.183 39.005,62.696 29.728,86.62c-51.137,131.99 -159.527,200.277 -311.103,216.025c-60.203,6.253 -125.863,10.089 -177.686,34.941c-252.234,120.951 -517.521,208.929 -793.26,268.259c-195.066,41.964 -393.128,92.46 -591.148,97.621c-251.332,6.558 -479.555,87.764 -717.989,134.407c-318.754,62.34 -634.676,111.24 -944.332,-28.202c-24.326,-10.949 -37.694,-42.394 -56.168,-64.309c20,-12.041 39.611,-33.741 60.085,-34.477c101.476,-3.582 203.286,-4.442 304.762,-1.058c205.949,6.881 399.408,-45.71 596.94,-88.624c171.19,-37.216 351.733,-36.696 525.314,-66.55c255.56,-43.938 508.616,-100.059 790.502,-150.981l-0.005,-0Z" style="fill:#ffdc49;fill-rule:nonzero;"/><path d="M1892.326,5340.611c-117.117,-29.746 -221.778,-41.624 -323.357,-64.756c-337.049,-76.768 -694.564,-67.212 -1017.588,-202.87c-7.652,-3.212 -20.926,3.036 -27.126,-0.946c-58.3,-37.496 -146.16,-66.657 -165.032,-117.196c-20.616,-55.252 138.254,-107.748 246.842,-81.141c199.683,48.913 399.201,98.377 598.56,148.392c132.773,33.286 263.657,74.364 398.041,100.412c205.16,39.788 436.13,28.508 613.431,113.653c243.986,117.183 509.903,80.221 757.801,166.028c289.322,100.111 612.14,115.855 916.375,183.449c376.561,83.648 748.787,183.6 1123.385,274.83c59,14.364 120.269,23.068 181.115,28.276c54.994,4.705 124.229,-17.86 163.243,5.384c63.195,37.608 106.779,102.867 158.63,156.472c-56.069,31.294 -108.428,74.686 -169.307,90.443c-59.719,15.452 -145.821,26.448 -189.819,-1.294c-286.866,-180.83 -660.2,-126.382 -946.563,-301.424c-478.709,-39.728 -919.935,-221.87 -1386.874,-306.941c-306.706,-55.893 -611.961,-118.456 -931.753,-190.769l-0.005,-0Zm-137.296,-2673.934c-172.74,-95.376 -349.318,-147.463 -479.569,-279.066c-44.538,-44.996 -146.587,-38.24 -217.025,-66.317c-180.462,-71.96 -355.265,-156.318 -537.493,-223.977c-142.782,-53.02 -295.302,-83.734 -439,-134.979c-37.746,-13.456 -85.37,-68.958 -81.748,-100.687c7.022,-61.763 36.534,-128.816 139.621,-101.349c42.443,11.327 110.762,-11.792 132.51,9.99c140.457,140.621 352.78,123.165 519.377,208.792c162.491,83.528 351.723,121.91 523.205,192.416c257.791,105.989 511.326,220.863 764.588,335.845c92.608,42.028 177.099,98.924 269.059,142.371c205.714,97.221 416.346,185.84 620.298,285.981c303.465,148.981 603.534,303.819 902.768,459.819c23.284,12.14 27.525,53.644 42.776,80.475c10.813,18.982 25.266,36.188 38.093,54.203c-25.073,4.735 -55.36,20.328 -74.416,12.613c-469.522,-190.184 -937.845,-382.84 -1406.367,-575.067c-234.272,-96.102 -468.54,-192.209 -716.678,-301.058l0,-0.004Zm-405.477,4698.184c-224.145,96.687 -438.934,149.045 -625.601,278.472c-180.519,125.144 -425.74,144.573 -658.998,124.572c-13.701,-1.191 -38.967,-62.718 -29.676,-86.633c51.217,-131.964 159.64,-200.2 311.23,-215.875c60.203,-6.223 125.868,-10.029 177.71,-34.855c252.304,-120.826 517.643,-208.676 793.419,-267.872c195.089,-41.869 393.18,-92.266 591.205,-97.332c251.337,-6.433 479.606,-87.532 718.068,-134.058c318.792,-62.185 634.742,-110.926 944.313,28.667c24.322,10.962 37.671,42.415 56.13,64.339c-20.01,12.033 -39.634,33.72 -60.104,34.447c-101.481,3.535 -203.29,4.343 -304.762,0.907c-205.944,-6.98 -399.436,45.516 -596.991,88.332c-171.209,37.135 -351.756,36.524 -525.351,66.292c-255.588,43.813 -508.677,99.809 -790.592,150.594l-0,0.004Z" style="fill:#ffdc49;fill-rule:nonzero;"/><path d="M1965.201,14337.573c-117.117,-29.746 -221.778,-41.624 -323.357,-64.756c-337.049,-76.768 -694.564,-67.212 -1017.588,-202.87c-7.652,-3.212 -20.926,3.036 -27.126,-0.946c-58.3,-37.496 -146.16,-66.657 -165.032,-117.196c-20.616,-55.252 138.254,-107.748 246.842,-81.141c199.683,48.913 399.201,98.377 598.56,148.392c132.773,33.286 263.657,74.364 398.041,100.412c205.16,39.788 436.13,28.508 613.431,113.653c243.986,117.183 509.903,80.221 757.801,166.028c289.322,100.111 612.14,115.855 916.375,183.449c376.561,83.648 748.787,183.6 1123.385,274.83c59,14.364 120.269,23.068 181.115,28.276c54.994,4.705 124.229,-17.86 163.243,5.384c63.195,37.608 106.779,102.867 158.63,156.472c-56.069,31.294 -108.428,74.686 -169.307,90.443c-59.719,15.452 -145.821,26.448 -189.819,-1.294c-286.866,-180.83 -660.2,-126.382 -946.563,-301.424c-478.709,-39.728 -919.935,-221.87 -1386.874,-306.941c-306.706,-55.893 -611.961,-118.456 -931.753,-190.769l-0.005,-0Zm-137.296,-2673.934c-172.74,-95.376 -349.318,-147.463 -479.569,-279.066c-44.538,-44.996 -146.587,-38.24 -217.025,-66.317c-180.462,-71.96 -355.265,-156.318 -537.493,-223.977c-142.782,-53.02 -295.302,-83.734 -439,-134.979c-37.746,-13.456 -85.37,-68.958 -81.748,-100.687c7.022,-61.763 36.534,-128.816 139.621,-101.349c42.443,11.327 110.762,-11.792 132.51,9.99c140.457,140.621 352.78,123.165 519.377,208.792c162.491,83.528 351.723,121.91 523.205,192.416c257.791,105.989 511.326,220.863 764.588,335.845c92.608,42.028 177.099,98.924 269.059,142.371c205.714,97.221 416.346,185.84 620.298,285.981c303.465,148.981 603.534,303.819 902.768,459.819c23.284,12.14 27.525,53.644 42.776,80.475c10.813,18.982 25.266,36.188 38.093,54.203c-25.073,4.735 -55.36,20.328 -74.416,12.613c-469.522,-190.184 -937.845,-382.84 -1406.367,-575.067c-234.272,-96.102 -468.54,-192.209 -716.678,-301.058l0,-0.004Zm-405.477,4698.184c-224.145,96.687 -438.934,149.045 -625.601,278.472c-180.519,125.144 -425.74,144.573 -658.998,124.572c-13.701,-1.191 -38.967,-62.718 -29.676,-86.633c51.217,-131.964 159.64,-200.2 311.23,-215.875c60.203,-6.223 125.868,-10.029 177.71,-34.855c252.304,-120.826 517.643,-208.676 793.419,-267.872c195.089,-41.869 393.18,-92.266 591.205,-97.332c251.337,-6.433 479.606,-87.532 718.068,-134.058c318.792,-62.185 634.742,-110.926 944.313,28.667c24.322,10.962 37.671,42.415 56.13,64.339c-20.01,12.033 -39.634,33.72 -60.104,34.447c-101.481,3.535 -203.29,4.343 -304.762,0.907c-205.944,-6.98 -399.436,45.516 -596.991,88.332c-171.209,37.135 -351.756,36.524 -525.351,66.292c-255.588,43.813 -508.677,99.809 -790.592,150.594l0,0.004Z" style="fill:#ffdc49;fill-rule:nonzero;"/></svg>